<svg xmlns="http://www.w3.org/2000/svg" width="1146" height="470.527" viewBox="0 0 1146 470.527">
  <g id="Group_8" data-name="Group 8" transform="translate(0 -555)">
    <g id="Group_6" data-name="Group 6" transform="translate(-274 384)">
      <g id="Rectangle_1" data-name="Rectangle 1" transform="translate(408 180)" fill="none" stroke="#000" stroke-width="9">
        <rect width="418" height="209" stroke="none"/>
        <rect x="-4.5" y="-4.5" width="427" height="218" fill="none"/>
      </g>
      <g id="Rectangle_2" data-name="Rectangle 2" transform="translate(274 389)" fill="none" stroke="#000" stroke-width="9">
        <rect width="686" height="252" stroke="none"/>
        <rect x="4.5" y="4.5" width="677" height="243" fill="none"/>
      </g>
      <g id="Group_1" data-name="Group 1">
        <g id="Rectangle_8" data-name="Rectangle 8" transform="translate(342 450)" fill="none" stroke="#000" stroke-width="5">
          <rect width="127" height="139" stroke="none"/>
          <rect x="2.5" y="2.5" width="122" height="134" fill="none"/>
        </g>
        <g id="Rectangle_9" data-name="Rectangle 9" transform="translate(342 450)" fill="none" stroke="#000" stroke-width="3">
          <rect width="66" height="70" stroke="none"/>
          <rect x="1.5" y="1.5" width="63" height="67" fill="none"/>
        </g>
        <g id="Rectangle_10" data-name="Rectangle 10" transform="translate(403 450)" fill="none" stroke="#000" stroke-width="3">
          <rect width="66" height="70" stroke="none"/>
          <rect x="1.5" y="1.5" width="63" height="67" fill="none"/>
        </g>
        <g id="Rectangle_11" data-name="Rectangle 11" transform="translate(403 515)" fill="none" stroke="#000" stroke-width="3">
          <rect width="66" height="70" stroke="none"/>
          <rect x="1.5" y="1.5" width="63" height="67" fill="none"/>
        </g>
        <g id="Rectangle_12" data-name="Rectangle 12" transform="translate(342 515)" fill="none" stroke="#000" stroke-width="3">
          <rect width="66" height="70" stroke="none"/>
          <rect x="1.5" y="1.5" width="63" height="67" fill="none"/>
        </g>
      </g>
      <g id="Group_2" data-name="Group 2" transform="translate(421)">
        <g id="Rectangle_8-2" data-name="Rectangle 8" transform="translate(342 450)" fill="none" stroke="#000" stroke-width="5">
          <rect width="127" height="139" stroke="none"/>
          <rect x="2.5" y="2.5" width="122" height="134" fill="none"/>
        </g>
        <g id="Rectangle_9-2" data-name="Rectangle 9" transform="translate(342 450)" fill="none" stroke="#000" stroke-width="3">
          <rect width="66" height="70" stroke="none"/>
          <rect x="1.5" y="1.5" width="63" height="67" fill="none"/>
        </g>
        <g id="Rectangle_10-2" data-name="Rectangle 10" transform="translate(403 450)" fill="none" stroke="#000" stroke-width="3">
          <rect width="66" height="70" stroke="none"/>
          <rect x="1.5" y="1.5" width="63" height="67" fill="none"/>
        </g>
        <g id="Rectangle_11-2" data-name="Rectangle 11" transform="translate(403 515)" fill="none" stroke="#000" stroke-width="3">
          <rect width="66" height="70" stroke="none"/>
          <rect x="1.5" y="1.5" width="63" height="67" fill="none"/>
        </g>
        <g id="Rectangle_12-2" data-name="Rectangle 12" transform="translate(342 515)" fill="none" stroke="#000" stroke-width="3">
          <rect width="66" height="70" stroke="none"/>
          <rect x="1.5" y="1.5" width="63" height="67" fill="none"/>
        </g>
      </g>
      <g id="Rectangle_13" data-name="Rectangle 13" transform="translate(548 432)" fill="none" stroke="#000" stroke-width="5">
        <rect width="113" height="209" stroke="none"/>
        <rect x="2.5" y="2.5" width="108" height="204" fill="none"/>
      </g>
      <g id="Ellipse_1" data-name="Ellipse 1" transform="translate(620 516)" fill="none" stroke="#000" stroke-width="5">
        <ellipse cx="15" cy="21" rx="15" ry="21" stroke="none"/>
        <ellipse cx="15" cy="21" rx="12.5" ry="18.5" fill="none"/>
      </g>
      <g id="Group_3" data-name="Group 3">
        <g id="Rectangle_14" data-name="Rectangle 14" transform="translate(430 225)" fill="#fff" stroke="#000" stroke-width="3">
          <rect width="84" height="119" stroke="none"/>
          <rect x="1.5" y="1.5" width="81" height="116" fill="none"/>
        </g>
        <g id="Rectangle_15" data-name="Rectangle 15" transform="translate(430 225)" fill="none" stroke="#000" stroke-width="3">
          <rect width="44" height="60" stroke="none"/>
          <rect x="1.5" y="1.5" width="41" height="57" fill="none"/>
        </g>
        <g id="Rectangle_16" data-name="Rectangle 16" transform="translate(470 225)" fill="none" stroke="#000" stroke-width="3">
          <rect width="44" height="60" stroke="none"/>
          <rect x="1.5" y="1.5" width="41" height="57" fill="none"/>
        </g>
        <g id="Rectangle_17" data-name="Rectangle 17" transform="translate(470 282)" fill="none" stroke="#000" stroke-width="3">
          <rect width="44" height="60" stroke="none"/>
          <rect x="1.5" y="1.5" width="41" height="57" fill="none"/>
        </g>
        <g id="Rectangle_18" data-name="Rectangle 18" transform="translate(431 282)" fill="none" stroke="#000" stroke-width="3">
          <rect width="44" height="60" stroke="none"/>
          <rect x="1.5" y="1.5" width="41" height="57" fill="none"/>
        </g>
      </g>
      <g id="Group_4" data-name="Group 4" transform="translate(291)">
        <g id="Rectangle_14-2" data-name="Rectangle 14" transform="translate(430 225)" fill="#fff" stroke="#000" stroke-width="3">
          <rect width="84" height="119" stroke="none"/>
          <rect x="1.5" y="1.5" width="81" height="116" fill="none"/>
        </g>
        <g id="Rectangle_15-2" data-name="Rectangle 15" transform="translate(430 225)" fill="none" stroke="#000" stroke-width="3">
          <rect width="44" height="60" stroke="none"/>
          <rect x="1.5" y="1.5" width="41" height="57" fill="none"/>
        </g>
        <g id="Rectangle_16-2" data-name="Rectangle 16" transform="translate(470 225)" fill="none" stroke="#000" stroke-width="3">
          <rect width="44" height="60" stroke="none"/>
          <rect x="1.5" y="1.5" width="41" height="57" fill="none"/>
        </g>
        <g id="Rectangle_17-2" data-name="Rectangle 17" transform="translate(470 282)" fill="none" stroke="#000" stroke-width="3">
          <rect width="44" height="60" stroke="none"/>
          <rect x="1.5" y="1.5" width="41" height="57" fill="none"/>
        </g>
        <g id="Rectangle_18-2" data-name="Rectangle 18" transform="translate(431 282)" fill="none" stroke="#000" stroke-width="3">
          <rect width="44" height="60" stroke="none"/>
          <rect x="1.5" y="1.5" width="41" height="57" fill="none"/>
        </g>
      </g>
    </g>
    <g id="Rectangle_19" data-name="Rectangle 19" transform="translate(754 777)" fill="none" stroke="#000" stroke-width="9">
      <rect width="392" height="79" stroke="none"/>
      <rect x="4.5" y="4.5" width="383" height="70" fill="none"/>
    </g>
    <line id="Line_1" data-name="Line 1" x1="1" y2="168.5" transform="translate(795.5 856.5)" fill="none" stroke="#000" stroke-width="9"/>
    <line id="Line_2" data-name="Line 2" x2="1" y2="169" transform="translate(1095.5 856.5)" fill="none" stroke="#000" stroke-width="9"/>
    <rect id="Rectangle_20" data-name="Rectangle 20" width="20" height="25" transform="translate(796 807)"/>
    <rect id="Rectangle_21" data-name="Rectangle 21" width="20" height="25" transform="translate(835 807)"/>
    <rect id="Rectangle_22" data-name="Rectangle 22" width="20" height="25" transform="translate(1077 807)"/>
    <rect id="Rectangle_23" data-name="Rectangle 23" width="20" height="25" transform="translate(1038 807)"/>
    <g id="Rectangle_24" data-name="Rectangle 24" transform="translate(874 816)" stroke="#707070" stroke-width="1">
      <rect width="143" height="9" stroke="none"/>
      <rect x="0.5" y="0.5" width="142" height="8" fill="none"/>
    </g>
    <path id="Icon_awesome-car" data-name="Icon awesome-car" d="M180.471,46.086h-21.61L152.854,30.64c-6.172-15.881-20.9-26.14-37.532-26.14H69.482c-16.625,0-31.359,10.259-37.535,26.14L25.94,46.086H4.334a4.427,4.427,0,0,0-4.2,5.536L2.3,60.533a4.354,4.354,0,0,0,4.2,3.375h7.244A23.882,23.882,0,0,0,5.774,81.73V99.553a23.957,23.957,0,0,0,5.775,15.569V135.2A11.721,11.721,0,0,0,23.1,147.079H34.65A11.721,11.721,0,0,0,46.2,135.2V123.316h92.4V135.2a11.721,11.721,0,0,0,11.55,11.882H161.7a11.721,11.721,0,0,0,11.55-11.882V115.122a23.942,23.942,0,0,0,5.775-15.569V81.73a23.892,23.892,0,0,0-7.966-17.822h7.244a4.354,4.354,0,0,0,4.2-3.375l2.166-8.911a4.431,4.431,0,0,0-4.205-5.536ZM53.394,39.465a17.338,17.338,0,0,1,16.088-11.2h45.841a17.338,17.338,0,0,1,16.088,11.2l7.194,18.5H46.2l7.194-18.5ZM34.65,99.479c-6.93,0-11.55-4.738-11.55-11.844S27.72,75.79,34.65,75.79,51.976,86.45,51.976,93.556,41.58,99.479,34.65,99.479Zm115.5,0c-6.93,0-17.326,1.184-17.326-5.922s10.4-17.767,17.326-17.767,11.55,4.738,11.55,11.844S157.085,99.479,150.155,99.479Z" transform="translate(853.096 878.421)"/>
  </g>
</svg>
