<svg xmlns="http://www.w3.org/2000/svg" width="70" height="70" viewBox="0 0 70 70">
  <g id="Group_45929" data-name="Group 45929" transform="translate(-271 -852)">
    <rect id="Rectangle_598" data-name="Rectangle 598" width="70" height="70" rx="14" transform="translate(271 852)" fill="#fff"/>
    <g id="solar-panel" transform="translate(290 869)">
      <g id="Group_45877" data-name="Group 45877" transform="translate(3.621 19.193)">
        <g id="Group_45876" data-name="Group 45876">
          <path id="Path_4733" data-name="Path 4733" d="M58.37,289.022a1,1,0,0,0-.889.547l-2.96,5.861H66.9v-6.408Z" transform="translate(-54.521 -289.022)" fill="#fbb906"/>
        </g>
      </g>
      <g id="Group_45879" data-name="Group 45879" transform="translate(17.997 19.193)">
        <g id="Group_45878" data-name="Group 45878">
          <path id="Path_4734" data-name="Path 4734" d="M280.421,289.569a1,1,0,0,0-.889-.547H271v6.408h12.384Z" transform="translate(-270.998 -289.022)" fill="#fbb906"/>
        </g>
      </g>
      <g id="Group_45881" data-name="Group 45881" transform="translate(17.997 27.593)">
        <g id="Group_45880" data-name="Group 45880">
          <path id="Path_4735" data-name="Path 4735" d="M286.894,420.473l-2.506-4.962H271v6.408h15.007A1,1,0,0,0,286.894,420.473Z" transform="translate(-270.998 -415.511)" fill="#fbb906"/>
        </g>
      </g>
      <g id="Group_45883" data-name="Group 45883" transform="translate(0 27.593)">
        <g id="Group_45882" data-name="Group 45882">
          <path id="Path_4736" data-name="Path 4736" d="M2.615,415.511.108,420.473A1,1,0,0,0,1,421.919H16v-6.408Z" transform="translate(0 -415.511)" fill="#fbb906"/>
        </g>
      </g>
      <g id="Group_45885" data-name="Group 45885" transform="translate(13.348 5.114)">
        <g id="Group_45884" data-name="Group 45884">
          <path id="Path_4737" data-name="Path 4737" d="M204.654,77.011a3.652,3.652,0,1,0,3.652,3.652A3.656,3.656,0,0,0,204.654,77.011Z" transform="translate(-201.002 -77.011)" fill="#fbb906"/>
        </g>
      </g>
      <g id="Group_45887" data-name="Group 45887" transform="translate(16.005)">
        <g id="Group_45886" data-name="Group 45886">
          <path id="Path_4738" data-name="Path 4738" d="M242,0a1,1,0,0,0-1,1V3.188a1,1,0,1,0,1.992,0V1A1,1,0,0,0,242,0Z" transform="translate(-240.999)" fill="#fbb906"/>
        </g>
      </g>
      <g id="Group_45889" data-name="Group 45889" transform="translate(16.005 13.349)">
        <g id="Group_45888" data-name="Group 45888">
          <path id="Path_4739" data-name="Path 4739" d="M242,201.016a1,1,0,0,0-1,1V204.2a1,1,0,1,0,1.992,0v-2.192A1,1,0,0,0,242,201.016Z" transform="translate(-240.999 -201.016)" fill="#fbb906"/>
        </g>
      </g>
      <g id="Group_45891" data-name="Group 45891" transform="translate(10.51 2.276)">
        <g id="Group_45890" data-name="Group 45890">
          <path id="Path_4740" data-name="Path 4740" d="M161.515,36.114l-1.55-1.55a1,1,0,0,0-1.409,1.409l1.55,1.55a1,1,0,1,0,1.409-1.409Z" transform="translate(-158.265 -34.272)" fill="#fbb906"/>
        </g>
      </g>
      <g id="Group_45893" data-name="Group 45893" transform="translate(19.949 11.715)">
        <g id="Group_45892" data-name="Group 45892">
          <path id="Path_4741" data-name="Path 4741" d="M303.646,178.254l-1.55-1.55a1,1,0,1,0-1.409,1.409l1.55,1.55a1,1,0,0,0,1.409-1.409Z" transform="translate(-300.396 -176.413)" fill="#fbb906"/>
        </g>
      </g>
      <g id="Group_45895" data-name="Group 45895" transform="translate(8.235 7.77)">
        <g id="Group_45894" data-name="Group 45894">
          <path id="Path_4742" data-name="Path 4742" d="M127.182,117.011H124.99a1,1,0,0,0,0,1.992h2.192a1,1,0,1,0,0-1.992Z" transform="translate(-123.994 -117.011)" fill="#fbb906"/>
        </g>
      </g>
      <g id="Group_45897" data-name="Group 45897" transform="translate(21.583 7.77)">
        <g id="Group_45896" data-name="Group 45896">
          <path id="Path_4743" data-name="Path 4743" d="M328.187,117.011H326A1,1,0,1,0,326,119h2.192a1,1,0,1,0,0-1.992Z" transform="translate(-324.999 -117.011)" fill="#fbb906"/>
        </g>
      </g>
      <g id="Group_45899" data-name="Group 45899" transform="translate(10.51 11.715)">
        <g id="Group_45898" data-name="Group 45898">
          <path id="Path_4744" data-name="Path 4744" d="M161.515,176.7a1,1,0,0,0-1.409,0l-1.55,1.55a1,1,0,0,0,1.409,1.409l1.55-1.55A1,1,0,0,0,161.515,176.7Z" transform="translate(-158.265 -176.412)" fill="#fbb906"/>
        </g>
      </g>
      <g id="Group_45901" data-name="Group 45901" transform="translate(19.949 2.276)">
        <g id="Group_45900" data-name="Group 45900">
          <path id="Path_4745" data-name="Path 4745" d="M303.646,34.565a1,1,0,0,0-1.409,0l-1.55,1.55a1,1,0,1,0,1.409,1.409l1.55-1.55A1,1,0,0,0,303.646,34.565Z" transform="translate(-300.396 -34.273)" fill="#fbb906"/>
        </g>
      </g>
    </g>
  </g>
</svg>
