<svg xmlns="http://www.w3.org/2000/svg" width="44" height="44" viewBox="0 0 44 44">
  <g id="Group_45865" data-name="Group 45865" transform="translate(-9134 2669)">
    <g id="Ellipse_2" data-name="Ellipse 2" transform="translate(9134 -2669)" fill="none" stroke="#fbb906" stroke-width="2">
      <circle cx="22" cy="22" r="22" stroke="none"/>
      <circle cx="22" cy="22" r="21" fill="none"/>
    </g>
    <g id="money-bag" transform="translate(9147 -2656)">
      <path id="Path_4721" data-name="Path 4721" d="M91.788,3.342H95.9A9.781,9.781,0,0,1,97.535.936a.522.522,0,0,0,.121-.595A.549.549,0,0,0,97.15,0a3.181,3.181,0,0,0-1.961.639,2.031,2.031,0,0,1-1.344.463A2.031,2.031,0,0,1,92.5.639,3.181,3.181,0,0,0,90.54,0a.549.549,0,0,0-.507.341.522.522,0,0,0,.121.595A9.78,9.78,0,0,1,91.788,3.342Z" transform="translate(-86.684 0)" fill="#fbb906"/>
      <path id="Path_4722" data-name="Path 4722" d="M301,452.551v1.1a.551.551,0,0,0,.551.551H308.2a.551.551,0,0,0,.551-.551v-1.1A.551.551,0,0,0,308.2,452h-6.646A.551.551,0,0,0,301,452.551Z" transform="translate(-289.947 -435.402)" fill="#fbb906"/>
      <path id="Path_4723" data-name="Path 4723" d="M308.748,363.652v-1.1A.551.551,0,0,0,308.2,362h-6.646a.551.551,0,0,0-.551.551v1.1a.551.551,0,0,0,.551.551H308.2A.551.551,0,0,0,308.748,363.652Z" transform="translate(-289.947 -348.707)" fill="#fbb906"/>
      <path id="Path_4724" data-name="Path 4724" d="M10.983,125.465c-1.08-1.058-1.961-1.954-2.137-3.364h.518a.551.551,0,1,0,0-1.1H4.957a.551.551,0,1,0,0,1.1h.518c-.176,1.41-1.058,2.306-2.137,3.364C1.774,127,0,128.737,0,132.714a2.741,2.741,0,0,0,2.754,2.644h7.262a1.634,1.634,0,0,1-.1-.551V130.4a1.654,1.654,0,0,1,1.652-1.652H13.54A11.175,11.175,0,0,0,10.983,125.465ZM7.16,128.748a1.648,1.648,0,0,1,.551,3.2v.652a.551.551,0,0,1-1.1,0v-.652a1.65,1.65,0,0,1-1.1-1.551.551.551,0,1,1,1.1,0,.551.551,0,1,0,.551-.551,1.648,1.648,0,0,1-.551-3.2v-.652a.551.551,0,0,1,1.1,0v.652a1.65,1.65,0,0,1,1.1,1.551.551.551,0,1,1-1.1,0,.551.551,0,1,0-.551.551Z" transform="translate(0 -116.557)" fill="#fbb906"/>
    </g>
  </g>
</svg>
