<svg xmlns="http://www.w3.org/2000/svg" width="228" height="159" viewBox="0 0 228 159">
  <g id="Group_46081" data-name="Group 46081" transform="translate(4713 -3905)">
    <path id="Polygon_3" data-name="Polygon 3" d="M14.5,0,29,26H0Z" transform="translate(-4584 4064) rotate(180)" fill="#ffba00"/>
    <g id="Group_46065" data-name="Group 46065">
      <rect id="Rectangle_692" data-name="Rectangle 692" width="228" height="139" rx="10" transform="translate(-4713 3905)" fill="#ffba00"/>
      <g id="Group_45991" data-name="Group 45991" transform="translate(-2974 1510)">
        <path id="Path_5023" data-name="Path 5023" d="M349.672,14.687A3.672,3.672,0,0,1,346,11.016V3.672a3.672,3.672,0,1,1,7.344,0v7.344A3.672,3.672,0,0,1,349.672,14.687Z" transform="translate(-1959.651 2433)" fill="#fff"/>
        <g id="Group_45977" data-name="Group 45977" transform="translate(-1656 2440.344)">
          <path id="Path_5024" data-name="Path 5024" d="M55.935,60h-2.57v3.672a7.344,7.344,0,1,1-14.687,0V60H23.99v3.672a7.344,7.344,0,1,1-14.687,0V60H6.732A6.739,6.739,0,0,0,0,66.732v8.2H62.667v-8.2A6.739,6.739,0,0,0,55.935,60Z" transform="translate(0 -60)" fill="#fff"/>
        </g>
        <path id="Path_5025" data-name="Path 5025" d="M109.672,14.687A3.672,3.672,0,0,1,106,11.016V3.672a3.672,3.672,0,0,1,7.344,0v7.344A3.672,3.672,0,0,1,109.672,14.687Z" transform="translate(-1749.026 2433)" fill="#fff"/>
        <path id="Path_5026" data-name="Path 5026" d="M0,212v29.987a6.739,6.739,0,0,0,6.732,6.732h49.2a6.739,6.739,0,0,0,6.732-6.732V212Zm33.263,23.867a7.344,7.344,0,0,1-14.617,1.022,7.426,7.426,0,0,1-.071-1.022,1.836,1.836,0,0,1,3.672,0,3.741,3.741,0,0,0,.035.515,3.672,3.672,0,1,0,3.636-4.186,1.836,1.836,0,1,1,0-3.672,3.672,3.672,0,1,0-3.6-4.386,1.836,1.836,0,1,1-3.6-.708,7.344,7.344,0,1,1,12.056,6.929A7.327,7.327,0,0,1,33.263,235.867Zm10.829,5.508a1.836,1.836,0,1,1-3.672,0v-20.2H37.546a1.836,1.836,0,1,1,0-3.672h4.709a1.836,1.836,0,0,1,1.836,1.836Z" transform="translate(-1656 2246.948)" fill="#fff"/>
      </g>
    </g>
  </g>
</svg>
