<svg xmlns="http://www.w3.org/2000/svg" width="228" height="159" viewBox="0 0 228 159">
  <g id="Group_46081" data-name="Group 46081" transform="translate(4105 -3905)">
    <rect id="Rectangle_692" data-name="Rectangle 692" width="228" height="139" rx="10" transform="translate(-4105 3905)" fill="#ffba00"/>
    <path id="Polygon_3" data-name="Polygon 3" d="M14.5,0,29,26H0Z" transform="translate(-3976 4064) rotate(180)" fill="#ffba00"/>
    <g id="charger_1_" data-name="charger (1)" transform="translate(-4026 3939)">
      <path id="Path_5034" data-name="Path 5034" d="M120,73.228a2.555,2.555,0,0,1,.916.916H134.3a2.555,2.555,0,0,1,.916-.916V64.916A2.555,2.555,0,0,1,134.3,64H120.916a2.555,2.555,0,0,1-.916.916Zm0,0" transform="translate(-100.982 -53.857)" fill="#fff"/>
      <path id="Path_5035" data-name="Path 5035" d="M120.915,7.607H134.3a2.555,2.555,0,0,1,.916-.916V0H120V6.691a2.555,2.555,0,0,1,.916.916Zm0,0" transform="translate(-100.982)" fill="#fff"/>
      <path id="Path_5036" data-name="Path 5036" d="M0,151.607H16.482v-6.692a2.555,2.555,0,0,1-.916-.916H0Zm0,0" transform="translate(0 -121.179)" fill="#fff"/>
      <path id="Path_5037" data-name="Path 5037" d="M16.482,6.692V0H0V7.607H15.567a2.555,2.555,0,0,1,.916-.916Zm0,0" transform="translate(0 0)" fill="#fff"/>
      <path id="Path_5038" data-name="Path 5038" d="M0,74.143H15.567a2.555,2.555,0,0,1,.916-.916V64.916A2.555,2.555,0,0,1,15.567,64H0Zm0,0" transform="translate(0 -53.857)" fill="#fff"/>
      <path id="Path_5039" data-name="Path 5039" d="M120,151.607h15.214v-6.692A2.555,2.555,0,0,1,134.3,144H120.916a2.555,2.555,0,0,1-.916.916Zm0,0" transform="translate(-100.982 -121.179)" fill="#fff"/>
      <path id="Path_5040" data-name="Path 5040" d="M360.482,0H344V6.692a2.556,2.556,0,0,1,.916.916h15.567Zm0,0" transform="translate(-289.482 0)" fill="#fff"/>
      <path id="Path_5041" data-name="Path 5041" d="M360.482,144H344.916a2.556,2.556,0,0,1-.916.916v6.692h16.482Zm0,0" transform="translate(-289.482 -121.179)" fill="#fff"/>
      <path id="Path_5042" data-name="Path 5042" d="M247.214,0H232V6.692a2.555,2.555,0,0,1,.916.916H246.3a2.555,2.555,0,0,1,.916-.916Zm0,0" transform="translate(-195.232 0)" fill="#fff"/>
      <path id="Path_5043" data-name="Path 5043" d="M360.482,64H344.916a2.556,2.556,0,0,1-.916.916v8.312a2.556,2.556,0,0,1,.916.916h15.566Zm0,0" transform="translate(-289.482 -53.857)" fill="#fff"/>
      <path id="Path_5044" data-name="Path 5044" d="M247.214,144.915A2.555,2.555,0,0,1,246.3,144H232.916a2.555,2.555,0,0,1-.916.916v6.692h15.214Zm0,0" transform="translate(-195.232 -121.178)" fill="#fff"/>
      <path id="Path_5045" data-name="Path 5045" d="M208,208h5.071v1.268H208Zm0,0" transform="translate(-175.036 -175.036)" fill="#fff"/>
      <path id="Path_5046" data-name="Path 5046" d="M247.214,64.916A2.555,2.555,0,0,1,246.3,64H232.916a2.555,2.555,0,0,1-.916.916v8.312a2.555,2.555,0,0,1,.916.916H246.3a2.555,2.555,0,0,1,.916-.916Zm0,0" transform="translate(-195.232 -53.857)" fill="#fff"/>
      <path id="Path_5047" data-name="Path 5047" d="M72,256h7.607v1.268H72Zm0,0" transform="translate(-60.589 -215.429)" fill="#fff"/>
      <path id="Path_5048" data-name="Path 5048" d="M41.268,286.429H56.482a1.268,1.268,0,0,0,1.268-1.268V257.268A1.268,1.268,0,0,0,56.482,256H55.214v1.268a2.536,2.536,0,0,1-2.536,2.536H45.071a2.536,2.536,0,0,1-2.536-2.536V256H41.268A1.268,1.268,0,0,0,40,257.268v27.893A1.268,1.268,0,0,0,41.268,286.429Zm4.175-16.111,5.071-5.071,1.793,1.793L49.4,269.946h2.011a1.268,1.268,0,0,1,.9,2.164l-5.071,5.071-1.793-1.793,2.907-2.907H46.339a1.268,1.268,0,0,1-.9-2.164Zm0,0" transform="translate(-33.661 -215.429)" fill="#fff"/>
      <path id="Path_5049" data-name="Path 5049" d="M185.75,249.75h-6.693a2.548,2.548,0,0,0-.914-.914V232h-2.536v16.836a2.548,2.548,0,0,0-.914.914H168v2.536h6.693a2.512,2.512,0,0,0,4.364,0h6.693Zm0,0" transform="translate(-141.375 -195.233)" fill="#fff"/>
      <path id="Path_5050" data-name="Path 5050" d="M328,256h7.607v1.268H328Zm0,0" transform="translate(-276.018 -215.429)" fill="#fff"/>
      <path id="Path_5051" data-name="Path 5051" d="M297.268,286.429h15.214a1.268,1.268,0,0,0,1.268-1.268V257.268A1.268,1.268,0,0,0,312.482,256h-1.268v1.268a2.536,2.536,0,0,1-2.536,2.536h-7.607a2.536,2.536,0,0,1-2.536-2.536V256h-1.268A1.268,1.268,0,0,0,296,257.268v27.893A1.268,1.268,0,0,0,297.268,286.429Zm4.175-16.111,5.071-5.071,1.793,1.793-2.907,2.907h2.011a1.268,1.268,0,0,1,.9,2.164l-5.071,5.071-1.793-1.793,2.907-2.907h-2.011a1.268,1.268,0,0,1-.9-2.164Zm0,0" transform="translate(-249.089 -215.429)" fill="#fff"/>
    </g>
  </g>
</svg>
