<svg xmlns="http://www.w3.org/2000/svg" width="228" height="159" viewBox="0 0 228 159">
  <g id="Group_46081" data-name="Group 46081" transform="translate(5039 -3905)">
    <rect id="Rectangle_692" data-name="Rectangle 692" width="228" height="139" rx="10" transform="translate(-5039 3905)" fill="#ffba00"/>
    <path id="Polygon_3" data-name="Polygon 3" d="M14.5,0,29,26H0Z" transform="translate(-4910 4064) rotate(180)" fill="#ffba00"/>
    <g id="solar-energy_1_" data-name="solar-energy (1)" transform="translate(-4966 3932.827)">
      <g id="Group_45980" data-name="Group 45980" transform="translate(0 3.173)">
        <path id="Path_5069" data-name="Path 5069" d="M61.4,33.937v8.3H75.5l-2.352-8.3Z" transform="translate(-14.233 -10.305)" fill="#fff"/>
        <path id="Path_5070" data-name="Path 5070" d="M61.486,56.547H77.94l-2.356-8.3h-14.1Z" transform="translate(-14.253 -13.622)" fill="#fff"/>
        <path id="Path_5071" data-name="Path 5071" d="M61,27.139H9.747a2.484,2.484,0,0,0-2.7,2.172L0,65.787a2.479,2.479,0,0,0,2.7,2.174H69.922a2.481,2.481,0,0,0,2.7-2.174L63.687,29.311A2.479,2.479,0,0,0,61,27.139ZM3.235,65.352l7.05-35.6H60.453l8.933,35.6Z" transform="translate(0 -8.729)" fill="#fff"/>
        <path id="Path_5072" data-name="Path 5072" d="M28.509,33.937H15.819l-2.353,8.3H28.509Z" transform="translate(-3.122 -10.305)" fill="#fff"/>
        <rect id="Rectangle_684" data-name="Rectangle 684" width="15.04" height="8.3" transform="translate(28.823 23.632)" fill="#fff"/>
        <path id="Path_5073" data-name="Path 5073" d="M10.487,56.547H27.882v-8.3H12.84Z" transform="translate(-2.431 -13.622)" fill="#fff"/>
        <rect id="Rectangle_685" data-name="Rectangle 685" width="15.043" height="8.299" transform="translate(28.879 34.627)" fill="#fff"/>
        <path id="Path_5074" data-name="Path 5074" d="M8.042,70.974H27.315v-8.3H10.392Z" transform="translate(-1.864 -16.966)" fill="#fff"/>
        <rect id="Rectangle_686" data-name="Rectangle 686" width="15.043" height="8.303" transform="translate(28.879 45.705)" fill="#fff"/>
        <path id="Path_5075" data-name="Path 5075" d="M61.486,62.671v8.3h18.8l-2.35-8.3Z" transform="translate(-14.253 -16.966)" fill="#fff"/>
        <path id="Path_5076" data-name="Path 5076" d="M46.916,82.793H40.97V94.608H33.983V98.63h20.1V94.608H46.916Z" transform="translate(-7.878 -21.63)" fill="#fff"/>
        <path id="Path_5077" data-name="Path 5077" d="M77.858,22.678a2.478,2.478,0,0,1,2.692,2.173l2.513,10.257A11.1,11.1,0,1,0,65.6,22.681H77.858v0Z" transform="translate(-15.207 -6.02)" fill="#fff"/>
        <path id="Path_5078" data-name="Path 5078" d="M104.426,29.112,98.316,27.47a.259.259,0,0,0-.326.253v3.285a.257.257,0,0,0,.1.207.25.25,0,0,0,.227.042l6.109-1.642A.275.275,0,0,0,104.426,29.112Z" transform="translate(-22.715 -8.803)" fill="#fff"/>
        <path id="Path_5079" data-name="Path 5079" d="M76.9,9.777h3.289a.256.256,0,0,0,.206-.1.273.273,0,0,0,.048-.224L78.8,3.343a.269.269,0,0,0-.5,0L76.657,9.452a.244.244,0,0,0,.045.224A.253.253,0,0,0,76.9,9.777Z" transform="translate(-17.768 -3.173)" fill="#fff"/>
        <path id="Path_5080" data-name="Path 5080" d="M92.756,16.818a.261.261,0,0,0,.409-.054l3.154-5.48a.27.27,0,0,0-.357-.353l-5.476,3.158a.258.258,0,0,0-.128.188.263.263,0,0,0,.074.218Z" transform="translate(-20.945 -4.965)" fill="#fff"/>
        <path id="Path_5081" data-name="Path 5081" d="M91.606,41.3a.264.264,0,0,0-.187-.126.256.256,0,0,0-.217.072L89.07,43.382l.191.794,5.148,2.964c.2.115.473-.154.357-.355Z" transform="translate(-20.647 -11.983)" fill="#fff"/>
        <path id="Path_5082" data-name="Path 5082" d="M61.959,17.031a.273.273,0,0,0,.21-.081l2.324-2.322a.261.261,0,0,0,.076-.213.208.208,0,0,0-.111-.175L59.39,11.493c-.184-.1-.458.167-.355.355l2.747,5.067A.22.22,0,0,0,61.959,17.031Z" transform="translate(-13.68 -5.097)" fill="#fff"/>
      </g>
    </g>
  </g>
</svg>
