<svg xmlns="http://www.w3.org/2000/svg" width="228" height="159" viewBox="0 0 228 159">
  <g id="Group_46081" data-name="Group 46081" transform="translate(4397 -3905)">
    <rect id="Rectangle_692" data-name="Rectangle 692" width="228" height="139" rx="10" transform="translate(-4397 3905)" fill="#ffba00"/>
    <path id="Polygon_3" data-name="Polygon 3" d="M14.5,0,29,26H0Z" transform="translate(-4268 4064) rotate(180)" fill="#ffba00"/>
    <g id="settings" transform="translate(-4315.373 3941.999)">
      <path id="Path_5083" data-name="Path 5083" d="M142.3,30.943a5.359,5.359,0,0,1,6.2.976l2.173-2.173a15.306,15.306,0,0,0,20.178-16.905,1.395,1.395,0,0,0-2.362-.763L165.267,15.3a6.728,6.728,0,0,1-9.515-9.515l3.226-3.226A1.394,1.394,0,0,0,158.215.2,15.3,15.3,0,0,0,141.4,20.616l-4.713,4.713Z" transform="translate(-106.298 0)" fill="#fff"/>
      <path id="Path_5084" data-name="Path 5084" d="M27.415,159.5l-5.59-5.59L2.279,173.457a6.508,6.508,0,0,0,9.2,9.2l16.85-16.85A5.359,5.359,0,0,1,27.415,159.5Z" transform="translate(0 -120.018)" fill="#fff"/>
      <path id="Path_5085" data-name="Path 5085" d="M40.085,48.189a2.047,2.047,0,0,0-2.9,0l-1.167,1.167L15.238,28.57l.972-.972a2.048,2.048,0,0,0-.234-3.1l-8.48-6.246a2.047,2.047,0,0,0-2.662.2l-3.6,3.6a2.047,2.047,0,0,0-.2,2.662L7.277,33.2a2.047,2.047,0,0,0,3.1.234l.972-.972L32.13,53.248,30.881,54.5a2.047,2.047,0,0,0,0,2.9L50.056,76.567a6.508,6.508,0,0,0,9.2-9.2Z" transform="translate(-0.203 -13.924)" fill="#fff"/>
    </g>
  </g>
</svg>
