<svg xmlns="http://www.w3.org/2000/svg" width="642.733" height="251.371" viewBox="0 0 642.733 251.371">
  <defs>
    <clipPath id="clip-path">
      <path id="Path_2" data-name="Path 2" d="M565.422,352.82h163.43V482.57H565.422Zm0,0"/>
    </clipPath>
    <clipPath id="clip-path-2">
      <path id="Path_14" data-name="Path 14" d="M299.563,292.691h33.75v42.75h-33.75Zm0,0"/>
    </clipPath>
    <clipPath id="clip-path-3">
      <path id="Path_16" data-name="Path 16" d="M407.188,292.691h33.75v42.75h-33.75Zm0,0"/>
    </clipPath>
    <clipPath id="clip-path-4">
      <path id="Path_18" data-name="Path 18" d="M245.539,385.371h43.418v54.516H245.539Zm0,0"/>
    </clipPath>
    <clipPath id="clip-path-5">
      <path id="Path_22" data-name="Path 22" d="M143,231.2h37V305H143Zm0,0"/>
    </clipPath>
    <clipPath id="clip-path-6">
      <path id="Path_24" data-name="Path 24" d="M142,231.2h39V305H142Zm0,0"/>
    </clipPath>
    <clipPath id="clip-path-7">
      <path id="Path_33" data-name="Path 33" d="M153,290h73.211v39H153Zm0,0"/>
    </clipPath>
    <clipPath id="clip-path-8">
      <path id="Path_47" data-name="Path 47" d="M321,386.8h97.988v91.148H321Zm0,0"/>
    </clipPath>
    <clipPath id="clip-path-9">
      <path id="Path_50" data-name="Path 50" d="M448.156,385.371h43.418v54.516H448.156Zm0,0"/>
    </clipPath>
  </defs>
  <g id="surface1" transform="translate(-86.119 -231.199)">
    <g id="Group_1" data-name="Group 1" clip-path="url(#clip-path)">
      <path id="Path_1" data-name="Path 1" d="M565.469,352.82v34.231h6.8V482.9h6.8V387.051H715.2V482.9H722V387.051h6.809V352.82Zm6.8,6.844H722V380.2H572.273Zm17.016,6.848v6.847h6.8v-6.847Zm20.418,0v6.847h6.805v-6.847Zm20.418,0v6.847h34.027v-6.847Zm47.641,0v6.847h6.8v-6.847Zm20.414,0v6.847h6.808v-6.847Zm-69.8,37.656A17.038,17.038,0,0,0,612.6,414.879l-5.613,14-2.457,2.457a17.15,17.15,0,0,0-5.039,12.156v32.559A6.875,6.875,0,0,0,606.3,482.9h3.4a6.875,6.875,0,0,0,6.805-6.847V474.02a231.939,231.939,0,0,0,61.254,0v2.031a6.872,6.872,0,0,0,6.8,6.847h3.4a6.872,6.872,0,0,0,6.8-6.847V443.492a17.141,17.141,0,0,0-5.035-12.156l-2.461-2.457-5.609-14A17.042,17.042,0,0,0,665.9,404.168Zm0,6.844H665.9a10.206,10.206,0,0,1,9.464,6.433l5.875,14.657a3.524,3.524,0,0,0,.77,1.148l2.953,2.953a10.309,10.309,0,0,1,3.016,7.289v32.559h-3.4v-5.668A3.408,3.408,0,0,0,680.621,467c-6.75,1.1-17.48,2.207-33.484,2.207S620.406,468.1,613.652,467a3.407,3.407,0,0,0-3.945,3.383v5.668h-3.4V443.492a10.312,10.312,0,0,1,3.015-7.289l2.95-2.953a3.489,3.489,0,0,0,.773-1.148l5.875-14.657A10.2,10.2,0,0,1,628.383,411.012Zm-10.168,34.23a5.135,5.135,0,1,0,5.1,5.137A5.122,5.122,0,0,0,618.215,445.242Zm57.848,0a5.135,5.135,0,1,0,5.105,5.137A5.124,5.124,0,0,0,676.063,445.242Zm-42.536,3.426v6.844H660.75v-6.844Zm0,0"/>
    </g>
    <path id="Path_3" data-name="Path 3" d="M537.4,362.613V349.23H199.789V482.25H537.4Zm-3.769,0V478.477H203.563V353H533.629Zm0,0"/>
    <path id="Path_4" data-name="Path 4" d="M3.76,0h76.48" transform="translate(203.437 398.478) rotate(90)" fill="none" stroke="#000" stroke-linecap="round" stroke-width="7.521"/>
    <path id="Path_5" data-name="Path 5" d="M3.76,0h76.48" transform="translate(533.941 398.478) rotate(90)" fill="none" stroke="#000" stroke-linecap="round" stroke-width="7.521"/>
    <path id="Path_6" data-name="Path 6" d="M3.75,0H331.5" transform="translate(202.238 478.596)" fill="none" stroke="#000" stroke-linecap="round" stroke-width="7.5"/>
    <path id="Path_7" data-name="Path 7" d="M3.745,0H330.01" transform="translate(199.79 352.758)" fill="none" stroke="#000" stroke-linecap="round" stroke-width="7.492"/>
    <path id="Path_8" data-name="Path 8" d="M3.773,0H57.734" transform="translate(203.435 352.817) rotate(90)" fill="none" stroke="#000" stroke-linecap="round" stroke-width="7.545"/>
    <path id="Path_9" data-name="Path 9" d="M3.771,0H61.49" transform="translate(533.938 352.819) rotate(90)" fill="none" stroke="#000" stroke-linecap="round" stroke-width="7.539"/>
    <path id="Path_10" data-name="Path 10" d="M3.738,0H91.511" transform="translate(249.474 257.293) rotate(90)" fill="none" stroke="#000" stroke-linecap="round" stroke-width="7.479"/>
    <path id="Path_11" data-name="Path 11" d="M3.739,0H91.52" transform="translate(483.005 257.484) rotate(90)" fill="none" stroke="#000" stroke-linecap="round" stroke-width="7.48"/>
    <path id="Path_12" data-name="Path 12" d="M3.751,0H237" transform="translate(245.828 260.827)" fill="none" stroke="#000" stroke-linecap="round" stroke-width="7.501"/>
    <g id="Group_2" data-name="Group 2" clip-path="url(#clip-path-2)">
      <path id="Path_13" data-name="Path 13" d="M329.426,313.109H317.5v-16.9h11.926Zm0,19.02H317.5V315.234h11.926Zm-14.035-19.02H303.469v-16.9h11.922Zm0,19.02H303.469V315.234h11.922Zm-15.8-39.434v42.95H333.3V292.7H299.594" fill="#040606"/>
    </g>
    <g id="Group_3" data-name="Group 3" clip-path="url(#clip-path-3)">
      <path id="Path_15" data-name="Path 15" d="M437.051,313.109H425.125v-16.9h11.926Zm0,19.02H425.125V315.234h11.926Zm-14.035-19.02H411.094v-16.9h11.922Zm0,19.02H411.094V315.234h11.922Zm-15.8-39.434v42.95h33.707V292.7H407.219" fill="#040606"/>
    </g>
    <g id="Group_4" data-name="Group 4" clip-path="url(#clip-path-4)">
      <path id="Path_17" data-name="Path 17" d="M283.93,411.285H268.6V389.84H283.93Zm0,24.141H268.6V413.98H283.93Zm-18.043-24.141H250.559V389.84h15.328Zm0,24.141H250.559V413.98h15.328Zm-20.309-50.051v54.516H288.91V385.375H245.578" fill="#040606"/>
    </g>
    <path id="Path_19" data-name="Path 19" d="M153.527,303.176s-24.14,75.265-25.25,173.515c0,0,7.274,5.754,17.282-2.054,0,0-4.77-90.93,7.968-171.461"/>
    <path id="Path_20" data-name="Path 20" d="M153.527,303.176l-.328-.106c0,.02-24.156,75.317-25.265,173.618a.345.345,0,0,0,.129.273,12,12,0,0,0,7,2.117c2.929,0,6.609-.973,10.707-4.172a.344.344,0,0,0,.128-.289s-.05-1.039-.136-3c-.242-5.879-.739-20.012-.739-39.047,0-33.894,1.563-83.324,8.84-129.347a.335.335,0,0,0-.258-.383.342.342,0,0,0-.406.226l.328.106-.339-.051c-7.29,46.074-8.848,95.535-8.848,129.449,0,25.4.875,42.074.875,42.078l.344-.015-.211-.27c-4,3.113-7.512,4.02-10.285,4.024a12.135,12.135,0,0,1-4.833-.993,10.505,10.505,0,0,1-1.3-.679c-.149-.09-.262-.168-.336-.219l-.082-.059-.02-.019-.215.269.344,0a681.572,681.572,0,0,1,13.035-123.539c3.086-15.539,6.133-28.011,8.414-36.6,1.137-4.289,2.086-7.614,2.746-9.86.329-1.125.59-1.98.766-2.551s.273-.867.273-.871l-.328-.1-.339-.051.339.051" fill="#231f20"/>
    <g id="Group_5" data-name="Group 5" clip-path="url(#clip-path-5)">
      <path id="Path_21" data-name="Path 21" d="M160.9,254.816c-1.125-4.972-2.062-14.086-2.062-14.086-1.875,6.868-1.715,19.188-1.715,19.188-.691-1.262-3.773-12.926-3.773-12.926-2.6,7.266.253,22.8.253,22.8l-4.476-14.648c-1,5.464,2.687,23.816,2.687,23.816-1.628-4.266-5.367-16.269-5.367-16.269-1.1,10.429,4.8,26.406,4.8,26.406-3.246-3.774-7.957-19.309-7.957-19.309.586,21.684,11.078,34.465,11.078,34.465,10.219-10.477,19.031-24.172,19.031-24.172-5.953,3.477-16.832,13.61-16.832,13.61,8.407-7.993,16.989-22.118,16.989-22.118l-14.274,11.075c6.836-5.649,17.742-22.329,17.742-22.329l-15.371,10.36c4.8-6.043,18.1-16.528,18.1-16.528-5.488,1.118-15.508,6.805-15.508,6.805,3.957-3.5,14.488-12.1,14.488-12.1a74.464,74.464,0,0,0-12.152,5.214c1.543-3.183,6.227-6.2,6.227-6.2,2.71-6.625,6.324-16.316,6.324-16.316a67.258,67.258,0,0,0-14.043,16.773l.855-9.594c-3.941,5.657-5.047,16.086-5.047,16.086"/>
    </g>
    <g id="Group_6" data-name="Group 6" clip-path="url(#clip-path-6)">
      <path id="Path_23" data-name="Path 23" d="M160.9,254.816l.336-.074c-.558-2.465-1.074-5.984-1.449-8.879-.187-1.445-.34-2.742-.445-3.672s-.164-1.5-.164-1.5a.338.338,0,0,0-.313-.3.343.343,0,0,0-.359.25,56.723,56.723,0,0,0-1.473,10.461c-.226,3.543-.258,6.695-.258,8.078,0,.476,0,.746,0,.746l.344,0,.3-.164a6.807,6.807,0,0,1-.336-.863c-.52-1.524-1.375-4.528-2.094-7.141-.363-1.309-.691-2.52-.926-3.4s-.386-1.442-.386-1.442a.346.346,0,0,0-.317-.258.35.35,0,0,0-.34.227,27.266,27.266,0,0,0-1.113,8.633,92.4,92.4,0,0,0,1.356,14.344l.335-.063.333-.1-4.481-14.648a.341.341,0,0,0-.664.035,14.217,14.217,0,0,0-.18,2.527,97.418,97.418,0,0,0,1.434,13.4c.715,4.453,1.43,8.015,1.433,8.015l.336-.066.321-.121c-.809-2.117-2.153-6.188-3.289-9.719-.571-1.765-1.086-3.4-1.461-4.594s-.61-1.937-.61-1.941a.345.345,0,0,0-.672.066,27.643,27.643,0,0,0-.14,2.817c.008,10.363,4.961,23.73,4.965,23.746l.32-.117.262-.223a20.841,20.841,0,0,1-2.559-4.527c-1.34-2.965-2.676-6.633-3.672-9.555-.5-1.461-.914-2.738-1.2-3.648s-.453-1.453-.453-1.453a.345.345,0,0,0-.676.109c.59,21.793,11.125,34.637,11.156,34.668a.334.334,0,0,0,.247.125.338.338,0,0,0,.261-.1c10.25-10.511,19.071-24.215,19.078-24.222a.347.347,0,0,0-.043-.422.338.338,0,0,0-.421-.059,86.879,86.879,0,0,0-10.7,8.141c-3.468,2.972-6.191,5.508-6.2,5.512a.341.341,0,0,0-.016.484.354.354,0,0,0,.243.109.363.363,0,0,0,.246-.093c8.457-8.051,17.035-22.18,17.046-22.192a.345.345,0,0,0-.507-.449L159.07,282.375l.215.27.215.265c3.473-2.871,7.906-8.457,11.5-13.344s6.317-9.058,6.32-9.062a.344.344,0,0,0-.046-.434.348.348,0,0,0-.434-.035l-15.375,10.356.2.285.27.215c2.363-2.981,6.887-7.118,10.8-10.485,1.961-1.683,3.773-3.179,5.093-4.258.66-.539,1.2-.968,1.571-1.265s.578-.461.578-.461a.343.343,0,0,0-.278-.606,48.04,48.04,0,0,0-9.894,3.844c-3.2,1.567-5.711,2.992-5.715,3l.168.3.227.254c1.972-1.742,5.593-4.769,8.722-7.355,1.563-1.289,3-2.473,4.051-3.336s1.7-1.4,1.707-1.4a.343.343,0,0,0-.316-.594,74,74,0,0,0-12.219,5.243l.164.3.309.149a14.265,14.265,0,0,1,3.6-4.18c.672-.566,1.3-1.039,1.754-1.367.234-.164.418-.293.547-.379s.2-.133.2-.133a.349.349,0,0,0,.129-.156c2.715-6.637,6.332-16.328,6.332-16.328a.342.342,0,0,0-.125-.4.347.347,0,0,0-.422.019,67.459,67.459,0,0,0-14.121,16.871l.3.164.344.031.855-9.593a.345.345,0,0,0-.625-.231c-2.016,2.9-3.281,6.953-4.055,10.289a54.39,54.39,0,0,0-1.05,5.961l.339.035.336-.074-.336.074.344.039s.016-.16.055-.453a55.593,55.593,0,0,1,1.293-6.691,28.43,28.43,0,0,1,3.636-8.789l-.281-.192-.34-.031-.859,9.594a.339.339,0,0,0,.242.359.349.349,0,0,0,.4-.164s.015-.031.054-.1a67.3,67.3,0,0,1,13.91-16.578l-.222-.262-.321-.117s-.226.6-.609,1.613c-1.141,3.035-3.684,9.73-5.711,14.691l.317.129-.188-.285a26.214,26.214,0,0,0-2.57,1.93,15,15,0,0,0-3.778,4.4.346.346,0,0,0,.071.4.341.341,0,0,0,.4.05s.1-.05.281-.148a72.858,72.858,0,0,1,11.809-5.031l-.1-.332-.215-.262s-10.535,8.59-14.5,12.105a.344.344,0,0,0,.4.555s.152-.086.437-.242c.993-.551,3.551-1.945,6.461-3.317a42.455,42.455,0,0,1,8.5-3.2l-.066-.34-.215-.265s-3.332,2.625-7.262,6-8.465,7.515-10.894,10.574a.344.344,0,0,0,.461.5L177.223,260.6l-.2-.286-.285-.187s-.168.262-.48.726c-1.09,1.629-3.907,5.793-7.192,10.157s-7.058,8.937-10.007,11.371a.341.341,0,0,0,.429.531l14.278-11.078-.211-.266-.293-.179s-.133.218-.383.617c-1.75,2.8-9.242,14.484-16.551,21.433a.34.34,0,0,0-.012.481.346.346,0,0,0,.485.016l.476-.442c1.078-.992,3.864-3.516,7.024-6.176a77.926,77.926,0,0,1,9.269-6.945l-.172-.3-.289-.183s-.136.21-.4.605a176.622,176.622,0,0,1-18.594,23.512l.25.238.262-.219s-.035-.047-.113-.14c-1.125-1.45-10.34-13.887-10.883-34.114l-.344.008-.328.1s1.18,3.89,2.769,8.254c.793,2.183,1.688,4.484,2.59,6.484a21.229,21.229,0,0,0,2.668,4.691.342.342,0,0,0,.434.075.35.35,0,0,0,.148-.414l-.211-.59c-.941-2.684-4.711-14.028-4.711-22.922a25.759,25.759,0,0,1,.137-2.742l-.34-.035-.328.1c0,.008,3.738,12,5.371,16.293a.344.344,0,0,0,.66-.187s-.179-.887-.445-2.332c-.805-4.325-2.41-13.664-2.41-18.954a14.072,14.072,0,0,1,.168-2.4l-.336-.062-.328.1,4.48,14.649a.34.34,0,0,0,.407.23.344.344,0,0,0,.257-.394s-.082-.454-.211-1.247a89.443,89.443,0,0,1-1.132-12.972,26.466,26.466,0,0,1,1.074-8.4l-.324-.113-.332.086s.769,2.918,1.628,6c.43,1.535.879,3.114,1.266,4.391.195.637.375,1.2.527,1.644a7.139,7.139,0,0,0,.383.973.344.344,0,0,0,.387.168.351.351,0,0,0,.258-.336s0-.262,0-.738c0-1.375.031-4.516.258-8.035a55.827,55.827,0,0,1,1.449-10.325l-.332-.086-.34.036s.934,9.113,2.07,14.125a.334.334,0,0,0,.352.269.349.349,0,0,0,.324-.305l-.344-.039" fill="#231f20"/>
    </g>
    <path id="Path_25" data-name="Path 25" d="M152.949,295.563s10.6-12.059,10.3-12.993-14.871,9.969-10.3,12.993"/>
    <path id="Path_26" data-name="Path 26" d="M152.949,295.563l.254.226s2.582-2.934,5.164-6.023c1.289-1.543,2.582-3.125,3.551-4.4.484-.64.9-1.2,1.184-1.656.144-.227.261-.422.347-.594a1.155,1.155,0,0,0,.149-.5l-.016-.133,0-.015a.422.422,0,0,0-.207-.242.458.458,0,0,0-.23-.055,1.252,1.252,0,0,0-.446.109,15.166,15.166,0,0,0-2.621,1.649,39.949,39.949,0,0,0-5.4,4.793,17.153,17.153,0,0,0-2.086,2.7,5.128,5.128,0,0,0-.871,2.527,2.185,2.185,0,0,0,1.043,1.9.337.337,0,0,0,.445-.059l-.254-.226.188-.286a1.658,1.658,0,0,1-.563-.589,1.626,1.626,0,0,1-.172-.739,6.172,6.172,0,0,1,1.5-3.246,32.664,32.664,0,0,1,5.434-5.348c.953-.753,1.84-1.39,2.535-1.835a9.968,9.968,0,0,1,.879-.512,2.253,2.253,0,0,1,.285-.125l.086-.024.02,0v-.2l-.086.168.086.027v-.2l-.086.168.121-.238-.254.086.133.152.121-.238-.254.086.328-.106-.332.086.156-.043h-.164l.008.043.156-.043h-.086l-.078-.008v.008h.078l-.078-.008a.79.79,0,0,1-.1.254,25.093,25.093,0,0,1-2.082,2.922c-1.508,1.922-3.524,4.317-5.153,6.223-.816.953-1.539,1.789-2.054,2.383s-.829.949-.829.949l.258.227.188-.286-.188.286" fill="#231f20"/>
    <path id="Path_27" data-name="Path 27" d="M150.223,293.238s-5.457-9.035-5.7-18.058c0,0,4.868,13.527,6.356,15.472s-.66,2.586-.66,2.586"/>
    <path id="Path_28" data-name="Path 28" d="M150.223,293.238l.293-.175s-.02-.032-.059-.1c-.59-1-5.371-9.453-5.586-17.8l-.344.012-.32.113s1.219,3.387,2.621,7.016c.7,1.816,1.449,3.7,2.121,5.242.332.773.649,1.465.926,2.031a8.724,8.724,0,0,0,.734,1.277,1.77,1.77,0,0,1,.454,1.047.759.759,0,0,1-.129.434,1.419,1.419,0,0,1-.5.437,1.7,1.7,0,0,1-.223.1l-.07.027-.012,0,0,0,.1.324.293-.175-.293.175.1.332a2.588,2.588,0,0,0,.692-.351,1.905,1.905,0,0,0,.5-.5,1.47,1.47,0,0,0,.242-.809,2.46,2.46,0,0,0-.594-1.461,8.4,8.4,0,0,1-.664-1.168c-.953-1.918-2.367-5.484-3.539-8.554-.586-1.535-1.109-2.953-1.488-3.985s-.613-1.675-.613-1.675a.344.344,0,0,0-.383-.223.349.349,0,0,0-.285.348c.25,9.152,5.734,18.2,5.742,18.23a.352.352,0,0,0,.394.152l-.1-.332" fill="#231f20"/>
    <path id="Path_29" data-name="Path 29" d="M189.555,268.332c2.261-4.574,7.273-12.246,7.273-12.246-5.789,4.164-13.426,13.836-13.426,13.836.262-1.418,5.215-12.418,5.215-12.418-6.6,4.016-14.168,17.879-14.168,17.879l5.75-14.2c-4.222,3.613-12.922,20.2-12.922,20.2,1.43-4.336,6.086-16.016,6.086-16.016-7.429,7.41-12.906,23.539-12.906,23.539-.144-4.976,5.981-20.007,5.981-20.007-13.211,17.218-13.11,33.742-13.11,33.742,14.543-1.719,30.02-6.821,30.02-6.821-6.817-1.039-21.653,0-21.653,0,11.567-.926,27.137-6.512,27.137-6.512l-18.07-.36c8.871-.093,27.859-6.2,27.859-6.2l-18.476-1.617c7.539-1.68,24.48-1.461,24.48-1.461-4.965-2.582-16.336-4.461-16.336-4.461,5.281-.238,18.883-.3,18.883-.3a74,74,0,0,0-12.727-3.586c3.2-1.5,8.743-.906,8.743-.906,6.281-3.441,15.2-8.7,15.2-8.7a67.387,67.387,0,0,0-21.489,4.207L203.613,259c-6.629,1.914-14.058,9.328-14.058,9.328"/>
    <path id="Path_30" data-name="Path 30" d="M189.555,268.332l.308.152c1.117-2.269,2.934-5.324,4.465-7.812.77-1.242,1.465-2.34,1.969-3.133s.816-1.266.816-1.266a.343.343,0,0,0-.05-.437.349.349,0,0,0-.438-.031,62.939,62.939,0,0,0-8.934,8.531c-2.64,2.945-4.558,5.367-4.558,5.371l.269.215.34.062a6.693,6.693,0,0,1,.281-.886c.555-1.512,1.782-4.379,2.872-6.864.543-1.242,1.054-2.39,1.425-3.23s.61-1.356.61-1.359a.343.343,0,0,0-.492-.434c-3.391,2.066-6.93,6.559-9.665,10.543s-4.625,7.457-4.625,7.461l.3.168.317.129,5.75-14.2a.342.342,0,0,0-.118-.407.346.346,0,0,0-.425.016,26.307,26.307,0,0,0-3.856,4.746c-4.246,6.219-9.14,15.547-9.144,15.551l.3.16.328.105c.708-2.152,2.227-6.156,3.571-9.617.672-1.73,1.3-3.324,1.758-4.484s.746-1.891.75-1.895a.348.348,0,0,0-.133-.414.338.338,0,0,0-.43.047c-3.769,3.762-7,9.672-9.312,14.645s-3.676,9.019-3.68,9.027l.328.109.34-.007,0-.168a22.749,22.749,0,0,1,.926-5.18c.836-3.133,2.1-6.766,3.144-9.613.528-1.426,1-2.653,1.34-3.524s.551-1.383.551-1.383a.343.343,0,0,0-.59-.339c-13.078,17.042-13.18,33.41-13.184,33.941l.008.07a.349.349,0,0,0,.379.281c14.586-1.726,30.074-6.835,30.086-6.835a.342.342,0,0,0-.055-.665,62.5,62.5,0,0,0-8.707-.468c-6.429,0-13.015.461-13.019.461a.349.349,0,0,0-.234.117.33.33,0,0,0-.086.25.335.335,0,0,0,.371.316c11.644-.937,27.211-6.527,27.226-6.531a.344.344,0,0,0-.109-.668l-18.074-.359,0,.343,0,.344c4.5-.051,11.468-1.609,17.339-3.148s10.618-3.067,10.618-3.071a.342.342,0,0,0-.075-.668l-18.476-1.613-.027.34.07.336a77.171,77.171,0,0,1,11.734-1.227c4.3-.2,8.442-.238,10.762-.238,1.2,0,1.906.012,1.91.012a.343.343,0,0,0,.164-.649,47.83,47.83,0,0,0-10.113-3.226c-3.473-.8-6.32-1.27-6.328-1.27l-.055.34.016.34c2.633-.117,7.351-.191,11.41-.234,2.031-.024,3.894-.036,5.254-.047l2.207-.012a.343.343,0,0,0,.129-.66,74.865,74.865,0,0,0-12.8-3.61l-.059.34.145.309a15.337,15.337,0,0,1,6.015-.988c.735,0,1.375.027,1.829.058.226.016.406.028.531.039l.187.02a.327.327,0,0,0,.2-.043c6.289-3.449,15.207-8.707,15.211-8.707a.345.345,0,0,0-.184-.641A67.677,67.677,0,0,0,196.77,265.6l.128.316.25.238,6.711-6.918a.342.342,0,0,0-.339-.566c-3.391.984-6.93,3.336-9.633,5.441a55.115,55.115,0,0,0-4.574,3.977l.242.242.308.152-.308-.152.242.242.328-.316a57.574,57.574,0,0,1,5.223-4.391,28.638,28.638,0,0,1,8.363-4.539l-.1-.324-.246-.242-6.711,6.918a.332.332,0,0,0-.039.429.338.338,0,0,0,.414.125s.141-.058.426-.164a67.919,67.919,0,0,1,20.938-4.015l-.008-.344-.176-.293-1.488.871c-2.8,1.641-9,5.246-13.7,7.824l.165.3.035-.34c-.008,0-1.11-.121-2.618-.121a15.96,15.96,0,0,0-6.308,1.055.344.344,0,0,0,.086.648s.441.078,1.191.235a70.441,70.441,0,0,1,11.469,3.332l.129-.317v-.343s-13.6.062-18.9.3a.337.337,0,0,0-.324.321.345.345,0,0,0,.281.359s.18.027.5.086c1.121.2,3.984.723,7.109,1.48a42.461,42.461,0,0,1,8.629,2.86l.16-.3,0-.344s-.715-.007-1.918-.007c-2.324,0-6.477.035-10.8.234a77.927,77.927,0,0,0-11.848,1.246.343.343,0,0,0,.043.676l18.481,1.613.031-.34-.1-.328-.832.262c-1.871.582-6.684,2.047-11.989,3.371s-11.117,2.512-14.937,2.551a.34.34,0,0,0-.34.34.346.346,0,0,0,.336.347l18.074.36,0-.344-.113-.321s-.239.086-.688.239c-3.125,1.078-16.308,5.449-26.363,6.254a.342.342,0,0,0,.051.683s.41-.027,1.125-.07c2.148-.129,7.051-.391,11.847-.391a62.531,62.531,0,0,1,8.606.461l.051-.34-.11-.324s-.238.078-.687.219a176.916,176.916,0,0,1-29.266,6.586l.043.34.34-.055-.273.047h.273v-.047l-.273.047h.273c0-.445.094-16.652,13.043-33.524l-.273-.21-.317-.129c0,.007-1.5,3.679-3,8-.75,2.16-1.5,4.484-2.066,6.6a23.189,23.189,0,0,0-.946,5.36c0,.066,0,.125,0,.187a.339.339,0,0,0,.289.328.349.349,0,0,0,.379-.226s.082-.25.246-.7a104.871,104.871,0,0,1,4.305-10.149c2.2-4.48,5.07-9.367,8.273-12.559l-.242-.242-.32-.129s-4.656,11.676-6.09,16.036a.343.343,0,0,0,.629.269s.133-.262.383-.719c.855-1.605,3.066-5.683,5.519-9.746,1.227-2.031,2.516-4.058,3.719-5.769a22.767,22.767,0,0,1,3.219-3.86l-.223-.261-.32-.129-5.746,14.2a.338.338,0,0,0,.168.437.345.345,0,0,0,.449-.148s.117-.211.336-.594a97.485,97.485,0,0,1,5.309-8.308c2.527-3.524,5.593-7.141,8.4-8.844l-.18-.293-.316-.141s-1.238,2.75-2.508,5.68c-.637,1.465-1.281,2.973-1.785,4.211-.25.617-.465,1.164-.629,1.609a7.279,7.279,0,0,0-.313.992.344.344,0,0,0,.606.278s.117-.149.336-.422c.769-.949,2.769-3.387,5.207-6.039a57.379,57.379,0,0,1,7.812-7.309l-.2-.277-.289-.188c0,.008-5.012,7.672-7.293,12.282a.344.344,0,0,0,.106.429.339.339,0,0,0,.445-.035l-.242-.242" fill="#231f20"/>
    <path id="Path_31" data-name="Path 31" d="M203.223,309.059c5.023-.907,14.179-1.45,14.179-1.45-6.793-2.168-19.125-2.539-19.125-2.539,1.3-.632,13.1-3.207,13.1-3.207-7.156-2.906-22.82-.73-22.82-.73L203.4,297.3c-5.418-1.234-23.937,1.652-23.937,1.652,4.336-1.437,16.508-4.652,16.508-4.652-10.387-1.551-26.625,3.652-26.625,3.652C173.266,294.875,189,290.84,189,290.84c-21.719-.348-34.953,9.562-34.953,9.562,10.039,10.649,23.359,20.039,23.359,20.039-3.219-6.093-12.887-17.382-12.887-17.382,7.633,8.73,21.4,17.9,21.4,17.9l-10.469-14.715c5.36,7.063,21.574,18.664,21.574,18.664l-9.7-15.789c5.836,5.051,15.75,18.777,15.75,18.777-.883-5.519-6.136-15.765-6.136-15.765,3.335,4.1,11.48,14.98,11.48,14.98a74.276,74.276,0,0,0-4.691-12.351c3.117,1.679,5.929,6.48,5.929,6.48,6.516,2.992,16.051,7.016,16.051,7.016a67.206,67.206,0,0,0-16.172-14.735l9.559,1.266c-5.489-4.176-15.871-5.73-15.871-5.73"/>
    <g id="Group_7" data-name="Group 7" clip-path="url(#clip-path-7)">
      <path id="Path_32" data-name="Path 32" d="M203.223,309.059l.058.336c2.492-.45,6.032-.813,8.942-1.059,1.457-.125,2.757-.223,3.691-.289s1.508-.094,1.508-.094a.346.346,0,0,0,.32-.3.339.339,0,0,0-.234-.371,63.468,63.468,0,0,0-12.18-2.1c-3.945-.364-7.031-.457-7.039-.457l-.012.343.157.3a7.074,7.074,0,0,1,.879-.3c1.542-.453,4.585-1.176,7.23-1.785,1.324-.3,2.551-.574,3.445-.773l1.457-.325a.338.338,0,0,0,.059-.648c-2.949-1.2-7.2-1.535-11.266-1.539a96.885,96.885,0,0,0-11.73.785l.047.34.086.332,14.847-3.836a.343.343,0,0,0-.011-.668,19.262,19.262,0,0,0-3.989-.316c-7.511,0-20.07,1.964-20.078,1.964l.055.34.105.324c2.157-.714,6.282-1.875,9.868-2.859,1.789-.488,3.445-.937,4.652-1.262l1.969-.523a.343.343,0,0,0-.036-.672,29.766,29.766,0,0,0-4.339-.293c-10.121,0-22.426,3.957-22.442,3.957l.106.328.211.27a20.908,20.908,0,0,1,4.64-2.36c3.024-1.207,6.75-2.382,9.715-3.25,1.484-.433,2.781-.793,3.7-1.043s1.473-.39,1.473-.39a.344.344,0,0,0-.078-.676c-.383-.008-.762-.008-1.137-.008-21.152,0-33.992,9.613-34.027,9.637a.351.351,0,0,0-.137.246.338.338,0,0,0,.094.266c10.07,10.679,23.4,20.07,23.406,20.078a.345.345,0,0,0,.422-.02.337.337,0,0,0,.078-.418,86.5,86.5,0,0,0-7.684-11.027c-2.82-3.59-5.242-6.414-5.242-6.418a.345.345,0,0,0-.234-.121.368.368,0,0,0-.254.086.353.353,0,0,0-.117.234.347.347,0,0,0,.086.25c7.679,8.785,21.449,17.953,21.461,17.965a.349.349,0,0,0,.437-.047.342.342,0,0,0,.031-.437L175.73,306.047l-.281.2-.273.207c2.722,3.582,8.121,8.246,12.855,12.043s8.789,6.692,8.789,6.7a.349.349,0,0,0,.438-.031.339.339,0,0,0,.058-.43l-9.7-15.789-.289.18-.226.262a93.394,93.394,0,0,1,10.019,11.234c1.6,2.028,3.02,3.9,4.039,5.266.512.68.918,1.234,1.2,1.621s.438.6.438.6a.344.344,0,0,0,.617-.254,47.837,47.837,0,0,0-3.418-10.039c-1.429-3.262-2.746-5.825-2.75-5.829l-.3.153-.266.219c1.66,2.039,4.527,5.785,6.98,9.015,1.227,1.617,2.348,3.1,3.164,4.188s1.321,1.761,1.325,1.761a.344.344,0,0,0,.425.106.34.34,0,0,0,.18-.395,73.822,73.822,0,0,0-4.711-12.418l-.308.153-.164.3a14.237,14.237,0,0,1,4.027,3.774c.539.7.984,1.344,1.293,1.812.152.235.273.43.355.559l.125.2a.325.325,0,0,0,.153.137c6.519,3,16.054,7.023,16.058,7.023a.34.34,0,0,0,.4-.523,67.682,67.682,0,0,0-16.262-14.824l-.18.3-.043.336,9.559,1.27a.332.332,0,0,0,.359-.207.337.337,0,0,0-.105-.406c-2.813-2.137-6.809-3.571-10.114-4.489a56.564,56.564,0,0,0-5.921-1.308l-.047.34.058.336-.058-.336-.055.339s.156.024.449.075a56.767,56.767,0,0,1,6.641,1.578,28.551,28.551,0,0,1,8.629,4.012l.207-.274.047-.34-9.563-1.265a.338.338,0,0,0-.367.222.344.344,0,0,0,.144.407l.1.058a67.516,67.516,0,0,1,15.985,14.6l.269-.211.133-.313s-.594-.254-1.59-.675c-2.988-1.274-9.57-4.1-14.449-6.34l-.145.312.3-.176a28.012,28.012,0,0,0-1.82-2.648,14.983,14.983,0,0,0-4.242-3.957.345.345,0,0,0-.4.055.349.349,0,0,0-.07.4s.051.1.141.285a72.469,72.469,0,0,1,4.523,12l.336-.086.273-.207s-8.144-10.879-11.488-14.988a.343.343,0,0,0-.57.375l.222.445c.508,1.016,1.793,3.629,3.043,6.59a42.743,42.743,0,0,1,2.836,8.625l.34-.055.274-.2s-2.481-3.437-5.692-7.508-7.152-8.769-10.109-11.328a.344.344,0,0,0-.445,0,.337.337,0,0,0-.071.438l9.7,15.789.3-.18.2-.277s-.254-.184-.7-.512c-1.586-1.156-5.625-4.144-9.852-7.613s-8.641-7.43-10.945-10.469a.343.343,0,0,0-.477-.074.347.347,0,0,0-.078.476l10.469,14.723.281-.2.187-.281-.6-.41c-2.731-1.868-14.094-9.844-20.727-17.434a.342.342,0,0,0-.519.445s.152.176.422.5c.941,1.121,3.355,4,5.875,7.274A77.232,77.232,0,0,1,177.1,320.6l.305-.157.2-.281s-.207-.144-.589-.426A176.765,176.765,0,0,1,154.3,300.168l-.25.234.207.274s.047-.031.14-.1c1.446-1.023,13.848-9.4,33.477-9.4.371,0,.75,0,1.125.008l0-.344-.082-.332c-.008,0-3.945,1.012-8.379,2.406-2.215.7-4.559,1.492-6.6,2.309a21.217,21.217,0,0,0-4.808,2.461.334.334,0,0,0-.094.425.343.343,0,0,0,.41.168l.543-.168c2.473-.75,12.977-3.761,21.688-3.757a29.252,29.252,0,0,1,4.238.285l.051-.34-.09-.332s-12.168,3.215-16.528,4.656a.343.343,0,0,0,.161.664s.781-.121,2.078-.3a153.615,153.615,0,0,1,17.894-1.648,18.82,18.82,0,0,1,3.836.3l.078-.332-.086-.332L188.469,300.8a.343.343,0,0,0-.25.4.347.347,0,0,0,.386.274s.344-.047.965-.121a96.162,96.162,0,0,1,10.668-.661c4.02,0,8.227.356,11.008,1.489l.129-.317-.074-.336s-2.949.641-6.067,1.368c-1.558.359-3.152.742-4.445,1.074-.648.164-1.219.316-1.672.453a6.966,6.966,0,0,0-.988.34.341.341,0,0,0-.184.379.345.345,0,0,0,.325.269s.765.028,2.023.094c3.773.2,11.98.824,17,2.434l.1-.329-.023-.343s-9.156.543-14.219,1.457a.339.339,0,0,0-.281.343.336.336,0,0,0,.289.332l.055-.339" fill="#231f20"/>
    </g>
    <path id="Path_34" data-name="Path 34" d="M165.246,296.742s9.277-5.051,18.313-4.9c0,0-13.746,4.273-15.758,5.672s-2.555-.774-2.555-.774"/>
    <path id="Path_35" data-name="Path 35" d="M165.246,296.742l.164.3a.891.891,0,0,1,.1-.051c1-.531,9.41-4.816,17.648-4.812.133,0,.262,0,.395.008l.008-.344-.106-.328s-3.437,1.07-7.129,2.312c-1.847.621-3.754,1.289-5.336,1.891-.789.3-1.492.582-2.07.836a9.1,9.1,0,0,0-1.313.679,1.856,1.856,0,0,1-1.023.407.749.749,0,0,1-.449-.137,1.281,1.281,0,0,1-.426-.524,1.7,1.7,0,0,1-.1-.238l-.023-.066,0-.016v0l-.332.086.164.3-.164-.3-.332.086a2.57,2.57,0,0,0,.328.727,1.93,1.93,0,0,0,.508.519,1.476,1.476,0,0,0,.832.254,2.527,2.527,0,0,0,1.418-.535,8.335,8.335,0,0,1,1.2-.609c1.965-.868,5.586-2.125,8.711-3.161,1.563-.519,3-.98,4.047-1.316s1.7-.535,1.7-.535a.344.344,0,0,0-.093-.672c-.137,0-.274,0-.407,0-9.027.008-18.051,4.938-18.074,4.945a.335.335,0,0,0-.168.387l.332-.086" fill="#231f20"/>
    <path id="Path_36" data-name="Path 36" d="M173.941,297.977s14.336-3.891,19.188-3.6c0,0-18.824,5.832-19.188,3.6"/>
    <path id="Path_37" data-name="Path 37" d="M173.941,297.977l.086.332.582-.157c1.309-.343,4.653-1.207,8.246-1.984a55.779,55.779,0,0,1,9.711-1.465c.2,0,.375.008.543.02l.02-.344-.1-.328s-.207.066-.574.176c-1.3.394-4.6,1.375-8.07,2.257a46.86,46.86,0,0,1-8.992,1.661,3.042,3.042,0,0,1-.918-.106.424.424,0,0,1-.172-.086l-.024-.031-.336.055.086.332-.086-.332-.339.054a.727.727,0,0,0,.238.434,1.385,1.385,0,0,0,.66.293,4.645,4.645,0,0,0,.891.074,26.407,26.407,0,0,0,4.73-.652c5.645-1.16,13.106-3.473,13.113-3.473a.348.348,0,0,0,.239-.371.34.34,0,0,0-.321-.3c-.183-.016-.382-.016-.586-.016a63.47,63.47,0,0,0-11.382,1.813c-4,.906-7.332,1.809-7.336,1.812a.338.338,0,0,0-.246.383l.339-.054" fill="#231f20"/>
    <path id="Path_38" data-name="Path 38" d="M184.117,340.43c4.363,2.652,11.571,8.32,11.571,8.32-3.637-6.125-12.606-14.582-12.606-14.582,1.387.383,11.922,6.285,11.922,6.285-3.422-6.918-16.578-15.68-16.578-15.68l13.652,6.981c-3.23-4.52-19-14.645-19-14.645,4.2,1.8,15.434,7.477,15.434,7.477-6.731-8.051-22.332-14.93-22.332-14.93,4.976.3,19.421,7.723,19.421,7.723-16-14.664-32.492-16.031-32.492-16.031.426,14.617,4.145,30.468,4.145,30.468,1.64-6.691,1.922-21.543,1.922-21.543-.1,11.594,4.09,27.579,4.09,27.579l1.96-17.946c-.691,8.832,3.715,28.262,3.715,28.262l3.246-18.234c1.008,7.644-.711,24.48-.711,24.48,3.016-4.707,5.9-15.855,5.9-15.855-.234,5.273-1.379,18.812-1.379,18.812a74.547,74.547,0,0,0,4.707-12.344c1.211,3.321.121,8.778.121,8.778,2.879,6.558,7.336,15.89,7.336,15.89a67.108,67.108,0,0,0-2.289-21.742l6.3,7.289c-1.324-6.765-8.059-14.812-8.059-14.812"/>
    <path id="Path_39" data-name="Path 39" d="M184.117,340.43l-.179.289c2.164,1.316,5.054,3.394,7.394,5.14,1.172.875,2.211,1.664,2.953,2.235s1.188.926,1.192.926a.343.343,0,0,0,.437-.012.346.346,0,0,0,.07-.434,63.583,63.583,0,0,0-7.711-9.648c-2.707-2.887-4.953-5-4.957-5.008l-.234.25-.094.332a6.9,6.9,0,0,1,.856.359c1.457.684,4.211,2.164,6.594,3.461,1.191.653,2.289,1.262,3.089,1.707s1.309.727,1.309.727a.343.343,0,0,0,.473-.453c-1.762-3.551-5.93-7.473-9.657-10.543s-7.031-5.266-7.035-5.27l-.191.285-.156.309,13.652,6.977a.34.34,0,0,0,.433-.5,26.146,26.146,0,0,0-4.39-4.262c-5.824-4.777-14.692-10.473-14.7-10.473l-.184.285-.137.317c2.086.894,5.946,2.765,9.274,4.406,1.668.82,3.2,1.586,4.324,2.145s1.816.914,1.816.914a.349.349,0,0,0,.426-.094.335.335,0,0,0-.008-.43c-3.418-4.086-9.023-7.824-13.781-10.562s-8.664-4.457-8.672-4.461l-.14.312-.02.344a20.676,20.676,0,0,1,5.039,1.313c3.059,1.1,6.629,2.7,9.422,4.011,1.4.66,2.6,1.25,3.461,1.676s1.359.684,1.359.688a.349.349,0,0,0,.442-.114.341.341,0,0,0-.047-.445c-16.086-14.738-32.652-16.121-32.695-16.125a.347.347,0,0,0-.266.094.339.339,0,0,0-.109.257c.429,14.668,4.148,30.528,4.152,30.54a.338.338,0,0,0,.332.265.35.35,0,0,0,.336-.262,87.281,87.281,0,0,0,1.586-13.343c.273-4.555.344-8.27.344-8.274a.343.343,0,0,0-.094-.246.353.353,0,0,0-.242-.1.339.339,0,0,0-.246.1.343.343,0,0,0-.1.242c0,.133,0,.27,0,.407,0,11.625,4.1,27.242,4.1,27.258a.341.341,0,0,0,.359.257.347.347,0,0,0,.316-.308l1.961-17.946-.34-.035-.343-.027c-.051.656-.074,1.363-.074,2.113a107.492,107.492,0,0,0,1.9,16.7c.949,5.368,1.894,9.547,1.9,9.551a.343.343,0,0,0,.672-.015l3.246-18.235-.336-.058-.339.043a51.414,51.414,0,0,1,.308,6.269c0,4.039-.254,8.574-.512,12.1-.128,1.761-.253,3.273-.351,4.344s-.16,1.691-.16,1.691a.346.346,0,0,0,.226.359.336.336,0,0,0,.4-.14,47.828,47.828,0,0,0,4.121-9.77c1.1-3.383,1.824-6.176,1.824-6.183l-.332-.086-.344-.012c-.117,2.625-.461,7.328-.777,11.371-.156,2.02-.309,3.879-.418,5.227s-.184,2.2-.184,2.2a.344.344,0,0,0,.246.359.352.352,0,0,0,.4-.172,73.962,73.962,0,0,0,4.73-12.414l-.328-.09-.324.118a11.864,11.864,0,0,1,.551,3.921,26.721,26.721,0,0,1-.219,3.262c-.055.43-.113.785-.152,1.031s-.071.379-.071.379a.326.326,0,0,0,.024.2c2.882,6.567,7.339,15.9,7.339,15.9a.34.34,0,0,0,.649-.125c.086-1.328.121-2.625.121-3.887a66.553,66.553,0,0,0-2.426-17.98l-.324.1-.262.223,6.3,7.293a.348.348,0,0,0,.41.082.342.342,0,0,0,.188-.375c-.68-3.461-2.715-7.188-4.574-10.063a55.127,55.127,0,0,0-3.555-4.906l-.266.223-.179.289.179-.289-.262.218s.1.122.29.352a57.872,57.872,0,0,1,3.91,5.586,28.325,28.325,0,0,1,3.781,8.723l.34-.067.262-.226-6.305-7.289a.341.341,0,0,0-.426-.075.346.346,0,0,0-.16.4s.035.113.1.343a67.721,67.721,0,0,1,2.29,17.434c0,1.246-.032,2.535-.118,3.844l.344.019.309-.144s-.278-.582-.739-1.559c-1.386-2.933-4.433-9.414-6.589-14.324l-.317.137.336.066a27.269,27.269,0,0,0,.457-4.8,12.541,12.541,0,0,0-.594-4.156.34.34,0,0,0-.336-.226.345.345,0,0,0-.316.254s-.031.105-.086.3a72.7,72.7,0,0,1-4.6,11.973l.309.156.34.031s1.148-13.535,1.379-18.824a.335.335,0,0,0-.289-.355.345.345,0,0,0-.387.254s-.043.168-.129.484c-.293,1.094-1.074,3.9-2.1,6.941a42.818,42.818,0,0,1-3.618,8.328l.289.184.34.039c0-.008,1.028-10.082,1.028-18.207a50.548,50.548,0,0,0-.321-6.359.342.342,0,0,0-.675-.016L168.6,348.105l.34.063.332-.078s-.054-.258-.16-.731c-.726-3.312-3.621-17.144-3.621-25.367,0-.738.027-1.429.078-2.058a.345.345,0,0,0-.687-.063l-1.961,17.945.344.036.328-.086s-.063-.243-.176-.692c-.777-3.133-3.906-16.351-3.9-26.394v-.4a.342.342,0,0,0-.684-.007s-.02.925-.07,2.418c-.078,2.242-.235,5.761-.524,9.343a68.127,68.127,0,0,1-1.32,9.7l.336.082.332-.078s-.059-.246-.16-.707a176.421,176.421,0,0,1-3.973-29.7l-.344.012-.027.34s.059,0,.18.019c1.828.2,17.183,2.246,32.1,15.926l.234-.254.157-.3s-3.617-1.859-7.864-3.754c-2.121-.953-4.4-1.91-6.464-2.656a21.206,21.206,0,0,0-5.227-1.348.34.34,0,0,0-.355.258.351.351,0,0,0,.191.4s.242.105.68.308a104.673,104.673,0,0,1,9.738,5.184c4.273,2.582,8.891,5.871,11.793,9.34l.262-.219.156-.3s-11.234-5.672-15.457-7.484a.342.342,0,0,0-.438.156.334.334,0,0,0,.118.445l.679.442c1.531,1,5.4,3.558,9.235,6.359,1.914,1.4,3.82,2.86,5.421,4.211a22.766,22.766,0,0,1,3.567,3.543l.281-.2.152-.3-13.648-6.98a.346.346,0,0,0-.453.133.337.337,0,0,0,.1.457s.2.136.567.39a96.484,96.484,0,0,1,7.816,6.016c3.293,2.828,6.629,6.2,8.078,9.144l.309-.156.164-.3s-2.633-1.476-5.441-3c-1.407-.757-2.852-1.535-4.039-2.144-.594-.3-1.125-.567-1.551-.77a8.192,8.192,0,0,0-.965-.4.345.345,0,0,0-.328.582s.14.129.394.371c.875.848,3.129,3.055,5.559,5.715a57.421,57.421,0,0,1,6.594,8.422l.3-.176.21-.27s-7.207-5.671-11.6-8.343a.341.341,0,0,0-.438.066.349.349,0,0,0,0,.445l.262-.218" fill="#231f20"/>
    <path id="Path_40" data-name="Path 40" d="M116.066,273.914c-2.683-4.34-8.4-11.508-8.4-11.508,6.152,3.6,14.672,12.508,14.672,12.508-.395-1.383-6.363-11.867-6.363-11.867,6.945,3.371,15.793,16.461,15.793,16.461L124.7,265.914c4.543,3.2,14.77,18.887,14.77,18.887-1.825-4.18-7.571-15.371-7.571-15.371,8.1,6.679,15.078,22.218,15.078,22.218-.328-4.968-7.847-19.355-7.847-19.355,14.781,15.895,16.242,32.359,16.242,32.359-14.641-.343-30.531-3.961-30.531-3.961,6.687-1.679,21.554-2.043,21.554-2.043-11.6.165-27.632-3.925-27.632-3.925l17.957-2.067c-8.84.746-28.317-3.543-28.317-3.543l18.239-3.347c-7.661-.965-24.512.847-24.512.847,4.7-3.039,15.84-5.976,15.84-5.976-5.278.258-18.828,1.484-18.828,1.484a74.088,74.088,0,0,1,12.336-4.773c-3.332-1.192-8.789-.075-8.789-.075-6.582-2.835-15.957-7.23-15.957-7.23a67.345,67.345,0,0,1,21.789,2.16l-7.339-6.254c6.785,1.285,14.882,7.965,14.882,7.965"/>
    <path id="Path_41" data-name="Path 41" d="M116.066,273.914l.293-.18c-2.707-4.375-8.418-11.535-8.421-11.539l-.27.211-.172.3a62.764,62.764,0,0,1,9.582,7.559c1.445,1.332,2.7,2.558,3.594,3.449.445.441.8.8,1.043,1.051s.375.39.379.39a.347.347,0,0,0,.418.059.341.341,0,0,0,.156-.391,6.963,6.963,0,0,0-.4-.961c-1.422-2.964-5.989-10.98-5.989-10.984l-.3.172-.149.308c3.375,1.629,7.32,5.727,10.387,9.407,1.531,1.836,2.851,3.574,3.785,4.847.469.641.84,1.161,1.094,1.528s.39.562.39.562a.344.344,0,0,0,.59-.351l-7.066-13.594-.305.16-.195.281a25.932,25.932,0,0,1,4.156,4.239c2.387,2.867,5.02,6.511,7.055,9.429,1.015,1.465,1.883,2.746,2.5,3.66s.973,1.465.973,1.465a.343.343,0,0,0,.6-.324c-1.84-4.207-7.578-15.391-7.578-15.391l-.309.157-.218.261c3.992,3.289,7.754,8.821,10.5,13.524,1.375,2.351,2.5,4.5,3.273,6.055.391.777.692,1.41.9,1.843s.316.676.316.676a.341.341,0,0,0,.652-.164,21.023,21.023,0,0,0-1.382-5.215,149.458,149.458,0,0,0-6.5-14.273l-.305.156-.25.234a65.025,65.025,0,0,1,13.59,22.024,52.529,52.529,0,0,1,2.1,7.347c.184.891.3,1.586.363,2.063.036.238.059.418.071.539s.019.18.019.18l.344-.028.008-.343a156.518,156.518,0,0,1-20.707-2.106c-2.9-.469-5.336-.933-7.055-1.277-.855-.172-1.531-.317-1.992-.414s-.711-.153-.711-.157l-.074.336.086.332a86.657,86.657,0,0,1,13.222-1.64c2.274-.149,4.336-.25,5.832-.309s2.418-.082,2.422-.082a.344.344,0,0,0-.011-.687c-.231,0-.457,0-.688,0a103.505,103.505,0,0,1-17.738-1.957c-2.637-.489-4.922-.981-6.539-1.348-.813-.184-1.457-.336-1.9-.445s-.679-.168-.679-.168l-.086.332.039.34L136.766,293a.346.346,0,0,0,.3-.375.342.342,0,0,0-.371-.309c-.691.059-1.453.086-2.273.086A110.191,110.191,0,0,1,117.9,290.59c-2.652-.453-5.007-.906-6.7-1.246-.843-.172-1.523-.313-2-.414s-.722-.153-.722-.153l-.071.336.059.336,18.242-3.347a.344.344,0,0,0-.019-.68,49.449,49.449,0,0,0-5.836-.281c-8.227,0-18.75,1.132-18.758,1.132l.039.34.187.289a47.2,47.2,0,0,1,9.606-4.089c1.679-.555,3.215-1.02,4.328-1.34.559-.16,1.012-.289,1.324-.375s.485-.129.485-.129a.352.352,0,0,0,.253-.387.346.346,0,0,0-.359-.289c-5.3.258-18.84,1.484-18.844,1.488l.031.34.164.3A61.962,61.962,0,0,1,107.438,279c1.2-.418,2.234-.75,2.972-.977.367-.113.656-.2.856-.257s.3-.09.308-.09a.344.344,0,0,0,.02-.653,12.414,12.414,0,0,0-4.043-.566,27.486,27.486,0,0,0-4.93.481l.07.335.137-.316c-3.289-1.414-7.273-3.223-10.441-4.676-1.582-.726-2.957-1.363-3.941-1.82s-1.562-.731-1.566-.731l-.145.313.023.34c1.438-.1,2.848-.145,4.215-.145a69.365,69.365,0,0,1,12.445,1.153c1.566.281,2.82.57,3.68.785.433.109.765.2.988.258s.336.1.336.1a.342.342,0,0,0,.4-.164.336.336,0,0,0-.078-.422l-7.34-6.254-.222.258-.059.34c3.309.621,7.008,2.594,9.859,4.414,1.43.91,2.645,1.777,3.5,2.418.43.324.77.59,1,.77s.356.289.356.289a.349.349,0,0,0,.445-.008.342.342,0,0,0,.066-.438l-.293.18.219-.266a54.447,54.447,0,0,0-4.93-3.523c-2.894-1.84-6.632-3.852-10.105-4.512a.339.339,0,0,0-.375.192.343.343,0,0,0,.086.406l7.34,6.254.222-.262.1-.328a67.037,67.037,0,0,0-17.652-2.32c-1.379,0-2.8.043-4.262.144a.344.344,0,0,0-.125.653s9.379,4.394,15.969,7.234a.3.3,0,0,0,.2.023s.137-.027.394-.07a26.971,26.971,0,0,1,4.4-.4,11.848,11.848,0,0,1,3.812.527l.117-.32-.093-.332a74.75,74.75,0,0,0-12.4,4.8.341.341,0,0,0-.168.4.349.349,0,0,0,.359.25s.847-.078,2.2-.2c4.059-.356,12.668-1.094,16.613-1.286l-.015-.343-.086-.332s-2.8.734-6.18,1.855a47.927,47.927,0,0,0-9.762,4.168.344.344,0,0,0,.223.629s.656-.07,1.77-.176c3.335-.32,10.789-.957,16.914-.957a48.356,48.356,0,0,1,5.75.281l.043-.339-.063-.34-18.242,3.351a.341.341,0,0,0-.012.668c.016,0,16.5,3.637,26.094,3.645.832,0,1.613-.031,2.332-.09l-.031-.344-.039-.34-17.957,2.067a.345.345,0,0,0-.305.316.34.34,0,0,0,.258.356c.011,0,15.418,3.937,27.027,3.941.234,0,.465,0,.695,0l0-.344-.007-.343s-3.723.093-8.286.39a87.669,87.669,0,0,0-13.347,1.664.344.344,0,0,0,.008.668c.011,0,15.914,3.625,30.6,3.965a.326.326,0,0,0,.258-.109.338.338,0,0,0,.09-.262c0-.043-1.477-16.582-16.328-32.558a.35.35,0,0,0-.453-.047.346.346,0,0,0-.1.441s.113.223.32.621c.719,1.41,2.528,5,4.184,8.774.832,1.886,1.625,3.82,2.227,5.546a18.329,18.329,0,0,1,1.074,4.27l.343-.02.313-.14c0-.008-1.754-3.9-4.52-8.637s-6.543-10.312-10.648-13.707a.353.353,0,0,0-.437,0,.342.342,0,0,0-.09.422s.359.7.925,1.812c1.7,3.34,5.274,10.426,6.637,13.54l.313-.137.293-.188s-2.563-3.925-5.7-8.258c-1.562-2.164-3.273-4.429-4.875-6.359a26.556,26.556,0,0,0-4.293-4.363.344.344,0,0,0-.5.437l7.067,13.594.305-.156.285-.192c0-.007-2.223-3.285-5.313-7s-7.047-7.843-10.613-9.582a.343.343,0,0,0-.4.071.348.348,0,0,0-.051.406s.375.652.941,1.66c.848,1.5,2.129,3.793,3.235,5.84.554,1.019,1.058,1.98,1.445,2.746.195.379.359.715.48.984a4.492,4.492,0,0,1,.231.563l.332-.094.25-.238c-.008,0-2.141-2.235-5.047-4.918a63.313,63.313,0,0,0-9.7-7.649.345.345,0,0,0-.442.512s.356.445.934,1.184c1.731,2.215,5.445,7.062,7.441,10.289l.293-.18.219-.266-.219.266" fill="#231f20"/>
    <path id="Path_42" data-name="Path 42" d="M107.332,316.9c-5.078-.5-14.254-.308-14.254-.308,6.6-2.707,18.856-4.067,18.856-4.067-1.336-.527-13.305-2.144-13.305-2.144,6.9-3.469,22.684-2.559,22.684-2.559l-15.11-2.632c5.305-1.668,24-.274,24-.274-4.437-1.086-16.832-3.312-16.832-3.312,10.231-2.379,26.836,1.5,26.836,1.5-4.152-2.753-20.168-5.507-20.168-5.507,21.617-2.094,35.61,6.726,35.61,6.726-9.149,11.418-21.668,21.844-21.668,21.844,2.718-6.328,11.449-18.355,11.449-18.355-6.906,9.312-19.887,19.562-19.887,19.562l9.25-15.512c-4.773,7.469-20,20.336-20,20.336l8.4-16.515c-5.415,5.5-14.192,19.98-14.192,19.98.43-5.574,4.848-16.2,4.848-16.2-3,4.352-10.235,15.848-10.235,15.848a74.156,74.156,0,0,1,3.68-12.688c-2.973,1.922-5.391,6.938-5.391,6.938-6.25,3.5-15.433,8.285-15.433,8.285A67.236,67.236,0,0,1,101.4,321.852l-9.425,2.031c5.133-4.606,15.359-6.985,15.359-6.985"/>
    <path id="Path_43" data-name="Path 43" d="M107.332,316.9l.035-.339c-2.9-.289-7.082-.348-10.176-.348-2.383,0-4.117.035-4.121.035l.008.344.133.316a62.354,62.354,0,0,1,11.828-3.023c1.941-.344,3.672-.6,4.926-.762.625-.086,1.125-.152,1.473-.2s.535-.059.535-.059a.35.35,0,0,0,.3-.3.341.341,0,0,0-.214-.359,7.491,7.491,0,0,0-1.012-.262c-3.219-.668-12.371-1.9-12.379-1.906l-.043.34.152.3a27.6,27.6,0,0,1,8.668-2.153,83.233,83.233,0,0,1,9.254-.476c1.363,0,2.512.027,3.32.054s1.27.055,1.27.055a.343.343,0,0,0,.078-.68l-15.109-2.636-.059.34.1.324a19.576,19.576,0,0,1,4.1-.625c1.707-.125,3.68-.176,5.7-.176,3.379,0,6.895.137,9.567.273,1.336.067,2.465.137,3.254.188s1.242.086,1.242.086a.346.346,0,0,0,.367-.289.341.341,0,0,0-.258-.387c-4.461-1.09-16.847-3.316-16.851-3.316l-.063.336.082.336a35.426,35.426,0,0,1,7.871-.766,84.542,84.542,0,0,1,12.817,1.133c1.785.285,3.281.57,4.336.781.523.105.937.2,1.218.258s.434.1.434.1a.351.351,0,0,0,.4-.2.347.347,0,0,0-.129-.422,21.248,21.248,0,0,0-4.989-2.062,149.373,149.373,0,0,0-15.3-3.5l-.063.336.035.343c2.285-.222,4.481-.32,6.59-.32a63.679,63.679,0,0,1,21.055,3.5,50.321,50.321,0,0,1,5.754,2.406c.656.328,1.156.6,1.492.789.168.094.3.168.379.219s.125.074.125.074l.18-.289-.266-.215a155.768,155.768,0,0,1-14.234,15.172c-2.133,2.012-3.981,3.668-5.293,4.821-.661.578-1.184,1.031-1.543,1.336s-.551.468-.551.468l.219.262.316.133a86.639,86.639,0,0,1,6.715-11.5c1.258-1.895,2.43-3.594,3.289-4.821.43-.609.781-1.105,1.027-1.445l.375-.527a.339.339,0,0,0-.074-.477.343.343,0,0,0-.477.07,99.713,99.713,0,0,1-12.488,13.227c-2.047,1.859-3.883,3.43-5.207,4.531-.656.555-1.191.989-1.558,1.289s-.567.453-.571.453l.215.27.3.176,9.242-15.512a.342.342,0,1,0-.582-.359c-2.348,3.675-7.34,8.765-11.734,12.906-2.2,2.07-4.246,3.91-5.746,5.23-.75.661-1.364,1.192-1.789,1.559s-.661.566-.661.566l.223.258.305.16,8.4-16.519a.343.343,0,0,0-.551-.395c-2.742,2.785-6.289,7.785-9.168,12.1s-5.07,7.937-5.07,7.941l.293.176.344.027a47.229,47.229,0,0,1,2.566-10.105c.574-1.672,1.141-3.176,1.563-4.254.207-.539.383-.977.5-1.277l.187-.465a.342.342,0,0,0-.6-.324c-3.008,4.367-10.243,15.863-10.247,15.863l.293.18.34.062a61.8,61.8,0,0,1,2.2-8.539c.395-1.207.762-2.227,1.028-2.949.129-.36.238-.645.312-.84s.117-.293.117-.293a.34.34,0,0,0-.105-.391.335.335,0,0,0-.4-.023,14.956,14.956,0,0,0-3.911,4.289,28.436,28.436,0,0,0-1.605,2.785l.312.149-.168-.3c-3.121,1.75-6.98,3.82-10.054,5.453-1.539.816-2.879,1.523-3.84,2.023s-1.531.8-1.531.8l.16.309.285.187a67.617,67.617,0,0,1,9.891-11.683c1.449-1.368,2.691-2.422,3.566-3.137.441-.356.789-.629,1.027-.809.121-.093.211-.16.274-.2l.09-.07a.343.343,0,0,0-.274-.613L91.9,323.547l.074.336.23.258c2.5-2.25,6.316-3.993,9.492-5.157,1.59-.582,3.024-1.019,4.055-1.312.516-.149.934-.258,1.219-.328s.441-.11.441-.11a.346.346,0,0,0,.266-.359.336.336,0,0,0-.309-.316l-.035.339-.074-.332a53.7,53.7,0,0,0-5.8,1.778c-3.219,1.179-7.086,2.929-9.719,5.285a.345.345,0,0,0-.074.414.334.334,0,0,0,.375.176l9.426-2.031-.071-.336-.2-.278a67.523,67.523,0,0,0-15.023,16.082.341.341,0,0,0,.445.489s9.188-4.778,15.445-8.286a.37.37,0,0,0,.141-.152s.035-.074.106-.211a27.816,27.816,0,0,1,1.832-3.058,13.279,13.279,0,0,1,3.332-3.528l-.188-.289-.32-.125a74.437,74.437,0,0,0-3.7,12.758.342.342,0,0,0,.628.238s.454-.719,1.18-1.863c2.176-3.438,6.809-10.723,9.047-13.977l-.281-.191-.317-.133s-1.109,2.664-2.269,6.031a47.968,47.968,0,0,0-2.6,10.282.344.344,0,0,0,.637.2s.137-.227.387-.633c.875-1.418,3.136-5.051,5.773-8.922a83.41,83.41,0,0,1,7.977-10.363l-.242-.242-.309-.157-8.4,16.52a.342.342,0,0,0,.528.414s3.816-3.219,8.226-7.379,9.418-9.242,11.84-13.035l-.285-.184-.3-.175L125.246,327.2a.342.342,0,0,0,.5.446c.012-.012,13-10.258,19.949-19.629l-.273-.2-.281-.2s-2.184,3.012-4.711,6.817a86.8,86.8,0,0,0-6.77,11.605.346.346,0,0,0,.109.414.341.341,0,0,0,.422-.015c.012-.008,12.539-10.434,21.719-21.891a.342.342,0,0,0-.086-.5c-.031-.023-11.269-7.1-29.168-7.1-2.129,0-4.351.1-6.656.324a.338.338,0,0,0-.309.328.345.345,0,0,0,.282.352s.25.042.695.121c1.558.281,5.512,1.027,9.523,2,2,.484,4.028,1.031,5.766,1.6a18.229,18.229,0,0,1,4.051,1.739l.191-.286.078-.335a96.685,96.685,0,0,0-18.961-2.282,36.416,36.416,0,0,0-8.031.778.352.352,0,0,0-.266.343.348.348,0,0,0,.286.329s.773.14,2,.367c3.687.675,11.5,2.133,14.8,2.941l.082-.332.028-.344s-7.325-.547-14.118-.547c-2.035,0-4.023.051-5.754.18a19.647,19.647,0,0,0-4.253.66.34.34,0,0,0-.243.348.352.352,0,0,0,.286.316l15.109,2.629.059-.336.019-.343s-1.883-.106-4.629-.106a83.081,83.081,0,0,0-9.336.481,27.984,27.984,0,0,0-8.894,2.222.343.343,0,0,0,.105.645s.75.1,1.895.261c1.711.239,4.312.61,6.609.973,1.148.18,2.223.36,3.066.512.422.078.786.152,1.075.219a4.14,4.14,0,0,1,.586.16l.125-.321-.036-.339c-.007,0-3.074.339-6.976,1.023a63.22,63.22,0,0,0-11.973,3.066.341.341,0,0,0-.2.387.346.346,0,0,0,.344.274l1.156-.02c.73-.008,1.758-.019,2.945-.019,3.082,0,7.262.066,10.11.347l.031-.344-.074-.332.074.332" fill="#231f20"/>
    <path id="Path_44" data-name="Path 44" d="M120.609,340.109C116,342.3,108.238,347.2,108.238,347.2c4.254-5.718,14.051-13.2,14.051-13.2-1.422.235-12.508,5.02-12.508,5.02,4.114-6.528,18.106-13.883,18.106-13.883l-14.3,5.531c3.684-4.16,20.414-12.6,20.414-12.6-4.363,1.359-16.129,5.836-16.129,5.836,7.531-7.309,23.762-12.54,23.762-12.54-4.981-.218-20.121,5.676-20.121,5.676,17.433-12.933,33.976-12.593,33.976-12.593-1.937,14.5-7.269,29.878-7.269,29.878-.942-6.824.316-21.621.316-21.621-1.1,11.535-6.922,27.008-6.922,27.008l-.093-18.058c-.223,8.863-6.622,27.73-6.622,27.73L133.559,330.9c-1.793,7.5-1.829,24.43-1.829,24.43-2.511-5-4.222-16.383-4.222-16.383-.32,5.274-.578,18.856-.578,18.856a73.9,73.9,0,0,1-3.4-12.766c-1.55,3.184-1.035,8.719-1.035,8.719-3.543,6.223-8.941,15.051-8.941,15.051a67.151,67.151,0,0,1,4.531-21.395l-7.023,6.6c2.019-6.586,9.55-13.9,9.55-13.9"/>
    <path id="Path_45" data-name="Path 45" d="M120.609,340.109l-.148-.312c-4.648,2.211-12.4,7.1-12.406,7.105l.183.293.278.2a61.974,61.974,0,0,1,8.566-8.691c1.488-1.289,2.84-2.4,3.824-3.191.492-.395.887-.707,1.16-.922l.43-.332a.343.343,0,0,0-.266-.61,7.391,7.391,0,0,0-1,.3c-3.1,1.086-11.579,4.742-11.582,4.742l.136.317.289.183c2-3.175,6.5-6.648,10.5-9.285,2-1.32,3.872-2.445,5.243-3.234.687-.391,1.246-.707,1.632-.918s.606-.324.606-.324a.344.344,0,0,0-.285-.625l-14.3,5.531.121.32.258.227a25.941,25.941,0,0,1,4.676-3.664c3.113-2.055,7.023-4.274,10.152-5.973,1.566-.852,2.937-1.574,3.918-2.082s1.562-.8,1.562-.8a.342.342,0,0,0-.254-.633c-4.386,1.368-16.144,5.844-16.148,5.844l.121.321.238.25c3.711-3.606,9.625-6.735,14.606-8.95,2.492-1.105,4.746-1.984,6.383-2.586.816-.3,1.476-.535,1.933-.691s.7-.238.7-.238a.342.342,0,0,0-.086-.668c-.1,0-.195,0-.3,0a24.39,24.39,0,0,0-5.4.894,151.894,151.894,0,0,0-14.566,4.813l.125.316.2.278c16.473-12.223,32.144-12.532,33.648-12.532.078,0,.117,0,.117,0l.008-.343-.34-.043a155.38,155.38,0,0,1-4.351,20.328c-.789,2.824-1.512,5.2-2.039,6.859-.266.836-.481,1.488-.633,1.938s-.23.683-.23.683l.324.113.34-.046a53.342,53.342,0,0,1-.348-6.84c0-3.438.168-7.117.332-9.934.086-1.41.168-2.6.234-3.445s.1-1.328.1-1.328a.343.343,0,0,0-.684-.063,99.343,99.343,0,0,1-3.863,17.766c-.793,2.648-1.555,4.937-2.117,6.566-.281.813-.512,1.461-.672,1.9s-.25.683-.25.683l.32.125.344,0-.094-18.054a.346.346,0,0,0-.343-.34.336.336,0,0,0-.344.332c-.11,4.363-1.758,11.293-3.383,17.1-.813,2.91-1.617,5.543-2.219,7.446-.3.953-.551,1.722-.726,2.254s-.274.828-.274.828l.324.109.344-.023L133.9,330.875a.338.338,0,0,0-.312-.316.342.342,0,0,0-.363.261,94.053,94.053,0,0,0-1.6,15.094c-.23,5.176-.238,9.41-.238,9.41l.343,0,.305-.156a47.449,47.449,0,0,1-3.023-9.981c-.367-1.726-.66-3.3-.86-4.445-.1-.574-.175-1.035-.226-1.355s-.078-.493-.078-.5a.347.347,0,0,0-.36-.29.339.339,0,0,0-.324.321c-.32,5.289-.578,18.863-.578,18.867l.344.008.32-.125a61.865,61.865,0,0,1-2.52-8.446c-.285-1.238-.5-2.3-.648-3.058s-.215-1.192-.215-1.192a.353.353,0,0,0-.293-.285.359.359,0,0,0-.359.192,16.549,16.549,0,0,0-1.149,6.718c0,1.278.082,2.172.082,2.184l.344-.035-.3-.168c-1.769,3.105-4,6.867-5.8,9.852-.894,1.492-1.679,2.789-2.238,3.714s-.9,1.473-.9,1.473l.289.18.344.015a67.45,67.45,0,0,1,2.437-15.105c.531-1.918,1.051-3.461,1.434-4.527.191-.532.351-.946.464-1.223s.168-.418.168-.422a.342.342,0,0,0-.55-.383l-7.028,6.6.239.246.328.105c.984-3.218,3.347-6.679,5.472-9.308,1.059-1.321,2.055-2.43,2.793-3.215.364-.395.664-.7.871-.914s.325-.321.325-.321a.345.345,0,0,0,.043-.441.35.35,0,0,0-.43-.117l.148.312-.242-.246a56.165,56.165,0,0,0-4.047,4.512c-2.144,2.668-4.554,6.164-5.59,9.535a.337.337,0,0,0,.145.391.348.348,0,0,0,.418-.039l7.023-6.6-.234-.25-.316-.133a67.372,67.372,0,0,0-4.555,21.516.342.342,0,0,0,.633.191s5.4-8.832,8.945-15.058a.338.338,0,0,0,.043-.2l-.012-.153c-.023-.3-.066-1.027-.066-1.965a15.953,15.953,0,0,1,1.082-6.417l-.309-.153-.339.059a74.275,74.275,0,0,0,3.421,12.832.344.344,0,0,0,.664-.121s.016-.848.043-2.2c.09-4.066.293-12.7.532-16.636l-.34-.024-.344.051c0,.008.434,2.856,1.176,6.34a47.754,47.754,0,0,0,3.082,10.144.342.342,0,0,0,.648-.152s0-1.055.035-2.758c.047-2.55.161-6.554.43-10.625a73.23,73.23,0,0,1,1.356-10.965l-.332-.082-.344.028,1.34,18.472a.344.344,0,0,0,.3.317.339.339,0,0,0,.368-.231s1.6-4.726,3.23-10.558,3.293-12.774,3.41-17.274l-.343-.007-.344,0,.094,18.055a.342.342,0,0,0,.285.332.336.336,0,0,0,.379-.211c.007-.019,5.832-15.484,6.945-27.1l-.688-.063c0,.008-.668,7.848-.668,14.766a54.438,54.438,0,0,0,.356,6.933.338.338,0,0,0,.305.293.342.342,0,0,0,.359-.226c0-.012,5.344-15.407,7.285-29.946a.337.337,0,0,0-.328-.386s-.051,0-.137,0c-1.59,0-17.418.316-34.054,12.664a.34.34,0,0,0-.1.441.347.347,0,0,0,.426.153s.226-.086.636-.243c1.43-.543,5.079-1.9,8.934-3.121,1.93-.609,3.91-1.187,5.688-1.609a21.408,21.408,0,0,1,4.453-.688c.093,0,.183,0,.265.008l.02-.344-.106-.328c-.007,0-4.074,1.313-9.089,3.543s-10.981,5.371-14.805,9.078a.345.345,0,0,0-.051.434.353.353,0,0,0,.414.137s.731-.281,1.9-.723c3.512-1.324,10.95-4.1,14.2-5.109l-.1-.328-.156-.3s-4.188,2.113-8.84,4.746c-2.328,1.32-4.77,2.77-6.863,4.152a26.541,26.541,0,0,0-4.813,3.782.346.346,0,0,0-.023.421.349.349,0,0,0,.406.125l14.3-5.531-.125-.32-.16-.3c-.008,0-3.512,1.848-7.539,4.516s-8.579,6.137-10.7,9.488a.344.344,0,0,0,.426.5s.691-.3,1.75-.75c1.594-.68,4.016-1.7,6.168-2.578,1.078-.434,2.086-.836,2.891-1.137.4-.148.75-.277,1.031-.367a4.753,4.753,0,0,1,.586-.168l-.055-.336-.211-.273s-2.457,1.875-5.445,4.469a63.2,63.2,0,0,0-8.672,8.8.344.344,0,0,0,.461.5s.48-.308,1.281-.8c2.395-1.477,7.621-4.637,11.051-6.262l-.145-.313-.242-.246.242.246" fill="#231f20"/>
    <g id="Group_8" data-name="Group 8" clip-path="url(#clip-path-8)">
      <path id="Path_46" data-name="Path 46" d="M398.02,476.359V386.828h-56.3v89.531H321.063v1.567h97.609v-1.567Zm-54.723,0V388.395h53.144v87.964Zm0,0"/>
    </g>
    <path id="Path_48" data-name="Path 48" d="M390,433.945a3.546,3.546,0,0,0-3.555,3.524v2.871a3.553,3.553,0,0,0,7.106,0v-2.871A3.543,3.543,0,0,0,390,433.945Zm1.973,6.395a1.975,1.975,0,0,1-3.949,0v-2.871a1.975,1.975,0,0,1,3.949,0Zm0,0"/>
    <g id="Group_9" data-name="Group 9" clip-path="url(#clip-path-9)">
      <path id="Path_49" data-name="Path 49" d="M486.547,411.285H471.219V389.84h15.328Zm0,24.141H471.219V413.98h15.328Zm-18.039-24.141H453.176V389.84h15.332Zm0,24.141H453.176V413.98h15.332ZM448.2,385.375v54.516h43.332V385.375H448.2" fill="#040606"/>
    </g>
  </g>
</svg>
