<svg xmlns="http://www.w3.org/2000/svg" xmlns:xlink="http://www.w3.org/1999/xlink" width="456.559" height="253.878" viewBox="0 0 456.559 253.878">
  <defs>
    <clipPath id="clip-path">
      <path id="Path_12" data-name="Path 12" d="M357.363,303.91h33.414v42.485H357.363Zm0,0"/>
    </clipPath>
    <clipPath id="clip-path-2">
      <path id="Path_14" data-name="Path 14" d="M466.172,303.91h33.414v42.485H466.172Zm0,0"/>
    </clipPath>
    <clipPath id="clip-path-3">
      <path id="Path_16" data-name="Path 16" d="M302.746,397.609H347v55.407h-44.25Zm0,0"/>
    </clipPath>
    <clipPath id="clip-path-4">
      <path id="Path_21" data-name="Path 21" d="M199,241.742h38V316H199Zm0,0"/>
    </clipPath>
    <clipPath id="clip-path-5">
      <path id="Path_30" data-name="Path 30" d="M209,301h74.164v40H209Zm0,0"/>
    </clipPath>
    <clipPath id="clip-path-6">
      <path id="Path_39" data-name="Path 39" d="M141.414,272H212v45H141.414Zm0,0"/>
    </clipPath>
    <clipPath id="clip-path-7">
      <path id="Path_41" data-name="Path 41" d="M141.414,308H212v42H141.414Zm0,0"/>
    </clipPath>
    <clipPath id="clip-path-8">
      <path id="Path_43" data-name="Path 43" d="M141.414,308H213v42H141.414Zm0,0"/>
    </clipPath>
    <clipPath id="clip-path-9">
      <path id="Path_47" data-name="Path 47" d="M379,399.055h98.453v93H379Zm0,0"/>
    </clipPath>
    <clipPath id="clip-path-10">
      <path id="Path_50" data-name="Path 50" d="M507.59,397.609h44.25v55.407H507.59Zm0,0"/>
    </clipPath>
  </defs>
  <g id="surface1" transform="translate(-141.414 -241.742)">
    <path id="Path_1" data-name="Path 1" d="M597.813,374.6V361.07H256.5V495.551H597.813Zm-3.813,0V491.738H260.309V364.883H594Zm0,0"/>
    <path id="Path_2" data-name="Path 2" d="M3.378,0h78" transform="translate(260.259 410.864) rotate(90)" fill="none" stroke="#000" stroke-linecap="round" stroke-width="6.756"/>
    <path id="Path_3" data-name="Path 3" d="M3.378,0h78" transform="translate(594.394 410.864) rotate(90)" fill="none" stroke="#000" stroke-linecap="round" stroke-width="6.756"/>
    <path id="Path_4" data-name="Path 4" d="M3.374,0H335.628" transform="translate(258.969 491.779)" fill="none" stroke="#000" stroke-linecap="round" stroke-width="6.752"/>
    <path id="Path_5" data-name="Path 5" d="M3.373,0H334.134" transform="translate(256.494 364.558)" fill="none" stroke="#000" stroke-linecap="round" stroke-width="6.745"/>
    <path id="Path_6" data-name="Path 6" d="M3.358,0H58.151" transform="translate(260.258 364.7) rotate(90)" fill="none" stroke="#000" stroke-linecap="round" stroke-width="6.717"/>
    <path id="Path_7" data-name="Path 7" d="M3.395,0H62.613" transform="translate(594.394 364.699) rotate(90)" fill="none" stroke="#000" stroke-linecap="round" stroke-width="6.789"/>
    <path id="Path_8" data-name="Path 8" d="M3.383,0h90" transform="translate(306.801 268.128) rotate(90)" fill="none" stroke="#000" stroke-linecap="round" stroke-width="6.763"/>
    <path id="Path_9" data-name="Path 9" d="M3.38,0h90" transform="translate(542.903 268.315) rotate(90)" fill="none" stroke="#000" stroke-linecap="round" stroke-width="6.763"/>
    <path id="Path_10" data-name="Path 10" d="M3.369,0h236.27" transform="translate(303.038 271.617)" fill="none" stroke="#000" stroke-linecap="round" stroke-width="6.74"/>
    <g id="Group_1" data-name="Group 1" clip-path="url(#clip-path)">
      <path id="Path_11" data-name="Path 11" d="M386.91,324.105h-11.8v-16.71h11.8Zm0,18.813h-11.8V326.207h11.8Zm-13.887-18.813h-11.8v-16.71h11.8Zm0,18.813h-11.8V326.207h11.8Zm-15.636-39V346.4h33.355V303.914H357.387" fill="#040606"/>
    </g>
    <g id="Group_2" data-name="Group 2" clip-path="url(#clip-path-2)">
      <path id="Path_13" data-name="Path 13" d="M495.719,324.105h-11.8v-16.71h11.8Zm0,18.813h-11.8V326.207h11.8Zm-13.887-18.813h-11.8v-16.71h11.8Zm0,18.813h-11.8V326.207h11.8Zm-15.637-39V346.4h33.356V303.914H466.2" fill="#040606"/>
    </g>
    <g id="Group_3" data-name="Group 3" clip-path="url(#clip-path-3)">
      <path id="Path_15" data-name="Path 15" d="M342.039,423.945H326.348v-21.8h15.691Zm0,24.535H326.348V426.688h15.691Zm-18.465-24.535H307.883v-21.8h15.691Zm0,24.535H307.883V426.688h15.691Zm-20.789-50.871V453.02h44.352V397.609H302.785" fill="#040606"/>
    </g>
    <path id="Path_17" data-name="Path 17" d="M209.7,314.367S185.3,390.3,184.184,489.434c0,0,7.351,5.808,17.464-2.075,0,0-4.82-91.742,8.055-172.992"/>
    <path id="Path_18" data-name="Path 18" d="M209.7,314.367l-.332-.109c0,.019-24.414,75.992-25.535,175.172a.343.343,0,0,0,.133.273,12.1,12.1,0,0,0,7.07,2.137c2.961,0,6.684-.981,10.824-4.211a.352.352,0,0,0,.133-.289s-.055-1.047-.141-3.024c-.246-5.929-.746-20.191-.746-39.394,0-34.2,1.579-84.074,8.938-130.5a.349.349,0,0,0-.676-.16l.332.109-.34-.054C202,360.8,200.418,410.7,200.418,444.922c0,25.625.887,42.453.887,42.453l.343-.016-.21-.273c-4.043,3.144-7.594,4.059-10.4,4.062a12.3,12.3,0,0,1-4.883-1,10.943,10.943,0,0,1-1.316-.687c-.149-.094-.262-.172-.336-.223l-.082-.058-.024-.02-.214.274.347,0A686.745,686.745,0,0,1,197.7,364.793c3.121-15.68,6.2-28.262,8.5-36.926,1.152-4.328,2.109-7.679,2.777-9.949.332-1.133.6-2,.778-2.574s.273-.871.273-.875l-.332-.1-.34-.054.34.054" fill="#231f20"/>
    <path id="Path_19" data-name="Path 19" d="M217.156,265.574c-1.136-5.019-2.086-14.215-2.086-14.215-1.894,6.93-1.73,19.36-1.73,19.36-.695-1.274-3.817-13.043-3.817-13.043-2.621,7.332.262,23,.262,23L205.258,265.9c-1.012,5.512,2.715,24.032,2.715,24.032-1.641-4.3-5.422-16.418-5.422-16.418-1.113,10.523,4.851,26.644,4.851,26.644-3.281-3.808-8.039-19.48-8.039-19.48.59,21.875,11.192,34.769,11.192,34.769,10.328-10.57,19.234-24.386,19.234-24.386-6.016,3.511-17.008,13.73-17.008,13.73,8.5-8.062,17.168-22.316,17.168-22.316l-14.426,11.175c6.911-5.7,17.934-22.527,17.934-22.527l-15.539,10.453c4.848-6.1,18.3-16.676,18.3-16.676-5.547,1.125-15.672,6.864-15.672,6.864,4-3.535,14.645-12.207,14.645-12.207a75.381,75.381,0,0,0-12.286,5.258c1.559-3.208,6.293-6.254,6.293-6.254,2.739-6.68,6.391-16.461,6.391-16.461A67.81,67.81,0,0,0,221.4,259.02l.867-9.68c-3.989,5.707-5.106,16.234-5.106,16.234"/>
    <g id="Group_4" data-name="Group 4" clip-path="url(#clip-path-4)">
      <path id="Path_20" data-name="Path 20" d="M217.156,265.574l.34-.078c-.562-2.484-1.086-6.035-1.465-8.957-.187-1.461-.34-2.766-.449-3.7s-.164-1.512-.164-1.516a.353.353,0,0,0-.32-.308.346.346,0,0,0-.36.254,57.3,57.3,0,0,0-1.488,10.55c-.23,3.579-.262,6.758-.262,8.157,0,.48,0,.75,0,.75l.348,0,.305-.168a6.752,6.752,0,0,1-.34-.867c-.528-1.539-1.391-4.567-2.117-7.207-.368-1.321-.7-2.539-.938-3.434s-.391-1.453-.391-1.453a.342.342,0,0,0-.32-.258.347.347,0,0,0-.34.227,27.353,27.353,0,0,0-1.125,8.707,93.317,93.317,0,0,0,1.367,14.476l.344-.062.332-.1L205.59,265.8a.346.346,0,0,0-.672.035,14.411,14.411,0,0,0-.184,2.547,97.585,97.585,0,0,0,1.454,13.527c.722,4.492,1.445,8.086,1.445,8.086l.34-.066.324-.125c-.813-2.137-2.172-6.242-3.324-9.8-.575-1.781-1.1-3.43-1.477-4.633s-.613-1.957-.613-1.961a.35.35,0,0,0-.68.067,27.871,27.871,0,0,0-.14,2.843c0,10.457,5.011,23.942,5.015,23.961l.324-.121.266-.222a20.954,20.954,0,0,1-2.586-4.571c-1.355-2.988-2.707-6.691-3.711-9.64-.5-1.477-.926-2.762-1.219-3.68s-.457-1.465-.457-1.465a.353.353,0,0,0-.386-.246.345.345,0,0,0-.293.352c.593,21.988,11.242,34.949,11.269,34.98a.341.341,0,0,0,.254.129.346.346,0,0,0,.262-.105c10.363-10.606,19.273-24.43,19.281-24.438a.348.348,0,0,0-.469-.488,88.409,88.409,0,0,0-10.808,8.215c-3.508,3-6.258,5.558-6.262,5.562a.336.336,0,0,0-.109.238.345.345,0,0,0,.093.25.359.359,0,0,0,.243.11.348.348,0,0,0,.25-.094c8.546-8.121,17.218-22.379,17.23-22.391a.345.345,0,0,0-.07-.437.349.349,0,0,0-.446-.016l-14.425,11.176.214.273.219.27c3.508-2.895,7.992-8.535,11.617-13.465s6.383-9.137,6.387-9.14a.346.346,0,0,0-.484-.477l-15.539,10.453.195.285.273.215c2.391-3.008,6.961-7.18,10.918-10.578,1.985-1.7,3.813-3.207,5.149-4.293.664-.547,1.207-.98,1.586-1.281s.586-.465.586-.465a.346.346,0,0,0-.285-.609,48.744,48.744,0,0,0-10,3.878c-3.235,1.582-5.77,3.02-5.774,3.024l.172.3.23.258c1.993-1.758,5.653-4.813,8.813-7.422,1.578-1.3,3.035-2.5,4.094-3.364s1.722-1.41,1.726-1.41a.348.348,0,0,0-.32-.6,75.111,75.111,0,0,0-12.352,5.289l.168.3.313.152a14.446,14.446,0,0,1,3.644-4.219c.676-.57,1.313-1.047,1.774-1.379.234-.168.422-.3.551-.383s.2-.132.2-.132a.363.363,0,0,0,.133-.161c2.746-6.691,6.4-16.468,6.4-16.472a.346.346,0,0,0-.551-.383,68.09,68.09,0,0,0-14.273,17.019l.305.165.343.031.867-9.68a.347.347,0,0,0-.226-.355.36.36,0,0,0-.406.125c-2.035,2.925-3.313,7.011-4.1,10.379a55.02,55.02,0,0,0-1.062,6.019l.343.035.34-.078-.34.078.348.035s.016-.16.055-.457a56.568,56.568,0,0,1,1.308-6.75,28.624,28.624,0,0,1,3.676-8.867l-.281-.2-.348-.031-.867,9.679a.345.345,0,0,0,.246.364.35.35,0,0,0,.406-.164s.016-.032.055-.1a67.971,67.971,0,0,1,14.059-16.723l-.227-.265-.324-.121s-.227.609-.614,1.632c-1.152,3.063-3.722,9.817-5.773,14.821l.32.129-.187-.289a27.394,27.394,0,0,0-2.6,1.949,15.178,15.178,0,0,0-3.82,4.441.351.351,0,0,0,.07.4.355.355,0,0,0,.41.054s.1-.054.282-.152a73.219,73.219,0,0,1,11.933-5.078l-.1-.332-.223-.266s-10.645,8.668-14.652,12.215a.348.348,0,0,0-.055.461.354.354,0,0,0,.457.1s.156-.09.441-.247c1-.554,3.59-1.957,6.532-3.347a43.212,43.212,0,0,1,8.593-3.231l-.066-.34-.215-.269s-3.367,2.648-7.344,6.059-8.551,7.582-11.011,10.671a.345.345,0,0,0,.019.45.35.35,0,0,0,.449.05l15.539-10.449-.195-.289-.289-.187s-.172.261-.488.73c-1.1,1.645-3.946,5.844-7.27,10.246s-7.129,9.02-10.109,11.473a.346.346,0,0,0,.433.539l14.43-11.176-.215-.273-.293-.18s-.136.223-.39.625c-1.766,2.828-9.34,14.613-16.727,21.625a.341.341,0,0,0-.012.484.346.346,0,0,0,.489.016s.172-.16.484-.445c1.09-1,3.9-3.551,7.094-6.231a78.322,78.322,0,0,1,9.371-7.008l-.176-.3-.293-.184s-.137.211-.4.609c-1.84,2.778-9.785,14.5-18.793,23.723l.25.238.265-.218-.113-.141c-1.141-1.465-10.449-14.012-11-34.422l-.344.012-.336.1s1.2,3.926,2.8,8.328c.8,2.2,1.7,4.524,2.617,6.543a21.555,21.555,0,0,0,2.7,4.735.347.347,0,0,0,.589-.344s-.078-.211-.21-.6c-.954-2.7-4.766-14.152-4.762-23.125a26.273,26.273,0,0,1,.137-2.769l-.344-.035-.332.1s3.777,12.11,5.429,16.438a.347.347,0,0,0,.665-.188s-.18-.894-.45-2.351c-.812-4.364-2.437-13.793-2.433-19.129a14.222,14.222,0,0,1,.168-2.422l-.34-.063-.332.1,4.527,14.777a.348.348,0,0,0,.414.239.343.343,0,0,0,.258-.4s-.082-.461-.211-1.258a89.538,89.538,0,0,1-1.144-13.093,26.631,26.631,0,0,1,1.082-8.473l-.329-.117-.332.09s.778,2.945,1.645,6.047c.434,1.55.891,3.144,1.281,4.429.2.645.375,1.211.531,1.66a6.871,6.871,0,0,0,.387.981.342.342,0,0,0,.391.168.347.347,0,0,0,.262-.336s0-.266,0-.742c0-1.387.031-4.559.261-8.114a56.441,56.441,0,0,1,1.465-10.41l-.34-.09-.343.036s.949,9.195,2.093,14.253a.341.341,0,0,0,.36.27.351.351,0,0,0,.324-.309l-.348-.035" fill="#231f20"/>
    </g>
    <path id="Path_22" data-name="Path 22" d="M209.117,306.684s10.715-12.168,10.414-13.11-15.031,10.055-10.414,13.11"/>
    <path id="Path_23" data-name="Path 23" d="M209.117,306.684l.262.23s2.609-2.961,5.215-6.078c1.3-1.559,2.609-3.156,3.59-4.445.492-.645.906-1.215,1.195-1.672a5.587,5.587,0,0,0,.351-.6,1.113,1.113,0,0,0,.153-.5l-.016-.133-.008-.019a.428.428,0,0,0-.2-.242.481.481,0,0,0-.234-.055,1.341,1.341,0,0,0-.449.109,15.758,15.758,0,0,0-2.653,1.664,40.642,40.642,0,0,0-5.461,4.836,17.548,17.548,0,0,0-2.109,2.727,5.188,5.188,0,0,0-.875,2.551,2.2,2.2,0,0,0,1.051,1.918.348.348,0,0,0,.453-.059l-.262-.23.192-.289a1.526,1.526,0,0,1-.743-1.34,6.216,6.216,0,0,1,1.516-3.278,32.961,32.961,0,0,1,5.5-5.39,30.749,30.749,0,0,1,2.559-1.856,9.351,9.351,0,0,1,.89-.515,2.031,2.031,0,0,1,.286-.125l.085-.024.024-.008v-.2l-.09.172.09.023v-.2l-.09.172.125-.242-.258.086.133.156.125-.242-.258.086.332-.106-.336.086.16-.043h-.167l.007.043.16-.043h-.089l-.078-.008v.008h.078l-.078-.008a.834.834,0,0,1-.106.258,25.085,25.085,0,0,1-2.1,2.946c-1.527,1.941-3.558,4.355-5.207,6.281-.824.961-1.554,1.8-2.078,2.4s-.84.957-.84.961l.262.227.192-.289-.192.289" fill="#231f20"/>
    <path id="Path_24" data-name="Path 24" d="M206.363,304.34s-5.511-9.117-5.754-18.223c0,0,4.918,13.649,6.422,15.61s-.668,2.613-.668,2.613"/>
    <path id="Path_25" data-name="Path 25" d="M206.363,304.34l.3-.18s-.019-.031-.058-.1c-.6-1.008-5.43-9.536-5.645-17.954l-.348.012-.324.113s1.231,3.418,2.649,7.083c.711,1.828,1.464,3.722,2.144,5.285.336.781.652,1.48.934,2.05a8.853,8.853,0,0,0,.746,1.29,1.808,1.808,0,0,1,.457,1.054.794.794,0,0,1-.129.438,1.417,1.417,0,0,1-.512.441c-.09.047-.172.082-.226.106l-.071.023-.011.008h0l.1.332.3-.18-.3.18.1.332a2.766,2.766,0,0,0,.7-.356,1.931,1.931,0,0,0,.5-.507,1.481,1.481,0,0,0,.246-.817,2.477,2.477,0,0,0-.6-1.472,7.757,7.757,0,0,1-.672-1.18c-.961-1.934-2.391-5.535-3.578-8.633-.59-1.547-1.121-2.977-1.5-4.016s-.617-1.691-.617-1.691a.348.348,0,0,0-.676.125c.254,9.234,5.793,18.367,5.8,18.391a.347.347,0,0,0,.4.156l-.1-.332" fill="#231f20"/>
    <path id="Path_26" data-name="Path 26" d="M246.117,279.207c2.285-4.613,7.352-12.355,7.352-12.355-5.852,4.2-13.571,13.961-13.571,13.961.262-1.43,5.27-12.528,5.27-12.528-6.668,4.047-14.316,18.035-14.316,18.035L236.66,272c-4.265,3.645-13.058,20.375-13.058,20.375,1.445-4.375,6.152-16.156,6.152-16.156-7.512,7.476-13.047,23.746-13.047,23.746-.144-5.02,6.043-20.184,6.043-20.184C209.4,297.152,209.5,313.82,209.5,313.82c14.7-1.734,30.34-6.882,30.34-6.882-6.891-1.047-21.883,0-21.883,0,11.687-.938,27.426-6.575,27.426-6.575L227.121,300c8.969-.1,28.156-6.258,28.156-6.258L236.6,292.117c7.618-1.7,24.743-1.476,24.743-1.476-5.016-2.6-16.512-4.5-16.512-4.5,5.34-.239,19.086-.3,19.086-.3a74.638,74.638,0,0,0-12.863-3.621c3.238-1.516,8.836-.914,8.836-.914,6.347-3.473,15.363-8.782,15.363-8.782a68.22,68.22,0,0,0-21.719,4.246l6.789-6.976c-6.7,1.93-14.211,9.41-14.211,9.41"/>
    <path id="Path_27" data-name="Path 27" d="M246.117,279.207l.313.156c1.129-2.289,2.965-5.375,4.511-7.883.778-1.253,1.481-2.363,1.989-3.16s.824-1.277.828-1.281a.346.346,0,0,0-.492-.469,63.517,63.517,0,0,0-9.036,8.606c-2.667,2.972-4.6,5.418-4.6,5.418l.273.219.344.062a6.716,6.716,0,0,1,.281-.895c.563-1.523,1.805-4.417,2.9-6.925.551-1.254,1.066-2.41,1.441-3.258s.617-1.371.617-1.371a.346.346,0,0,0-.086-.4.353.353,0,0,0-.414-.035c-3.421,2.086-7,6.617-9.761,10.637s-4.676,7.523-4.68,7.527l.309.168.32.129,5.808-14.324a.345.345,0,0,0-.117-.41.351.351,0,0,0-.429.015,26.707,26.707,0,0,0-3.9,4.79c-4.293,6.273-9.234,15.687-9.242,15.691l.309.16.328.109c.718-2.171,2.254-6.214,3.609-9.7.68-1.746,1.313-3.355,1.777-4.527s.758-1.906.758-1.91a.347.347,0,0,0-.57-.371c-3.809,3.8-7.074,9.758-9.406,14.777s-3.719,9.1-3.723,9.106l.332.109.344-.008v-.168a22.828,22.828,0,0,1,.933-5.226c.844-3.161,2.118-6.829,3.18-9.7.531-1.437,1.008-2.675,1.352-3.554s.554-1.395.558-1.395a.348.348,0,0,0-.6-.344c-13.219,17.2-13.321,33.711-13.325,34.247l.008.07a.346.346,0,0,0,.383.281c14.742-1.738,30.4-6.891,30.406-6.894a.346.346,0,0,0-.054-.672,64.237,64.237,0,0,0-8.8-.473c-6.5,0-13.156.469-13.16.469a.345.345,0,0,0-.239.117.335.335,0,0,0-.082.254.341.341,0,0,0,.117.238.357.357,0,0,0,.258.078c11.766-.945,27.5-6.586,27.52-6.59a.339.339,0,0,0,.222-.378.345.345,0,0,0-.335-.293l-18.266-.364-.008.348,0,.344c4.551-.051,11.594-1.621,17.527-3.176s10.731-3.094,10.731-3.1a.345.345,0,0,0-.074-.672l-18.676-1.629-.028.344.071.336a78.616,78.616,0,0,1,11.859-1.238c4.348-.2,8.531-.235,10.879-.235,1.207,0,1.926.008,1.93.008a.355.355,0,0,0,.344-.261.35.35,0,0,0-.18-.391,48.362,48.362,0,0,0-10.219-3.258c-3.512-.8-6.391-1.277-6.394-1.277l-.059.34.016.343c2.66-.117,7.433-.191,11.535-.238,2.051-.023,3.933-.035,5.308-.043s2.227-.015,2.231-.015a.352.352,0,0,0,.34-.282.357.357,0,0,0-.211-.386,75.854,75.854,0,0,0-12.934-3.641l-.062.344.148.312a15.5,15.5,0,0,1,6.078-1c.742,0,1.387.031,1.848.059.23.019.41.031.535.043s.191.019.191.019a.339.339,0,0,0,.2-.043c6.355-3.48,15.367-8.789,15.371-8.789a.344.344,0,0,0-.184-.64,68.449,68.449,0,0,0-21.84,4.269l.129.32.25.239,6.785-6.981a.335.335,0,0,0,.047-.414.34.34,0,0,0-.391-.156c-3.429.992-7,3.367-9.734,5.492a56.272,56.272,0,0,0-4.625,4.008l.246.246.313.156-.313-.156.242.246s.114-.113.332-.32a57.992,57.992,0,0,1,5.278-4.43,28.936,28.936,0,0,1,8.453-4.578l-.094-.328-.254-.246-6.781,6.98a.344.344,0,0,0-.039.438.348.348,0,0,0,.418.121s.144-.059.43-.164a68.771,68.771,0,0,1,21.164-4.051l-.008-.348-.176-.3s-.566.333-1.508.883c-2.832,1.653-9.09,5.289-13.847,7.895l.168.3.035-.344c-.008,0-1.121-.121-2.645-.121a16.081,16.081,0,0,0-6.375,1.066.343.343,0,0,0,.086.649s.445.082,1.2.238a71.7,71.7,0,0,1,11.59,3.363l.133-.316V285.5s-13.746.059-19.1.3a.346.346,0,0,0-.043.687s.176.028.5.086c1.129.2,4.028.731,7.184,1.5a43.077,43.077,0,0,1,8.723,2.883l.16-.308,0-.348s-.723-.008-1.938-.008c-2.351,0-6.547.035-10.91.238a79.169,79.169,0,0,0-11.977,1.254.35.35,0,0,0-.269.364.34.34,0,0,0,.312.32l18.68,1.629.027-.344-.1-.328s-.3.094-.84.262c-1.891.59-6.754,2.066-12.117,3.4s-11.238,2.535-15.1,2.574a.345.345,0,0,0-.344.344.35.35,0,0,0,.34.348l18.27.363,0-.348-.117-.324-.692.246c-3.16,1.086-16.484,5.5-26.648,6.309a.345.345,0,1,0,.054.687s.411-.027,1.137-.07c2.172-.133,7.125-.395,11.973-.395a63.718,63.718,0,0,1,8.7.465l.055-.343-.11-.325s-.242.078-.7.219a179.147,179.147,0,0,1-29.574,6.648l.043.34.34-.054-.278.047h.282l0-.047-.278.047h.282c0-.45.093-16.8,13.179-33.825l-.277-.211-.32-.132c0,.007-1.516,3.714-3.032,8.078-.757,2.179-1.515,4.523-2.085,6.656a23.242,23.242,0,0,0-.958,5.406c0,.067,0,.129,0,.188a.344.344,0,0,0,.293.332.355.355,0,0,0,.383-.231s.086-.25.25-.707a105.715,105.715,0,0,1,4.352-10.238c2.222-4.52,5.121-9.453,8.359-12.672l-.242-.242-.324-.133c0,.008-4.707,11.781-6.157,16.18a.347.347,0,0,0,.637.269s.133-.261.383-.722c.867-1.621,3.1-5.735,5.582-9.836,1.238-2.047,2.539-4.09,3.758-5.821a22.872,22.872,0,0,1,3.254-3.894L236.66,272l-.32-.129-5.813,14.324a.346.346,0,0,0,.625.293s.118-.214.34-.6a98.753,98.753,0,0,1,5.363-8.379c2.559-3.555,5.657-7.207,8.493-8.926l-.18-.293-.316-.144s-1.254,2.777-2.536,5.73c-.648,1.481-1.3,3-1.8,4.246-.254.625-.473,1.176-.637,1.625a7.388,7.388,0,0,0-.316,1,.346.346,0,0,0,.613.277s.117-.148.34-.421c.777-.961,2.8-3.422,5.261-6.094a57.78,57.78,0,0,1,7.9-7.375l-.2-.281-.293-.192c0,.012-5.067,7.746-7.371,12.395a.345.345,0,0,0,.109.433.339.339,0,0,0,.445-.035l-.242-.246" fill="#231f20"/>
    <path id="Path_28" data-name="Path 28" d="M259.93,320.3c5.078-.914,14.332-1.465,14.332-1.465-6.867-2.188-19.328-2.563-19.328-2.563,1.308-.636,13.234-3.234,13.234-3.234-7.23-2.93-23.059-.738-23.059-.738l15-3.871c-5.476-1.246-24.2,1.668-24.2,1.668,4.387-1.446,16.684-4.692,16.684-4.692-10.5-1.566-26.911,3.684-26.911,3.684,3.965-3.1,19.868-7.172,19.868-7.172-21.95-.352-35.325,9.648-35.325,9.648,10.149,10.743,23.606,20.215,23.606,20.215-3.254-6.144-13.024-17.535-13.024-17.535,7.715,8.809,21.625,18.063,21.625,18.063l-10.578-14.848c5.414,7.129,21.8,18.832,21.8,18.832l-9.805-15.93c5.9,5.094,15.922,18.946,15.922,18.946-.89-5.571-6.2-15.907-6.2-15.907,3.371,4.133,11.6,15.114,11.6,15.114a74.614,74.614,0,0,0-4.739-12.461c3.153,1.691,5.993,6.535,5.993,6.535,6.582,3.019,16.222,7.082,16.222,7.082A67.845,67.845,0,0,0,266.313,324.8l9.66,1.277c-5.547-4.215-16.043-5.781-16.043-5.781"/>
    <g id="Group_5" data-name="Group 5" clip-path="url(#clip-path-5)">
      <path id="Path_29" data-name="Path 29" d="M259.93,320.3l.058.34c2.52-.453,6.1-.821,9.039-1.071,1.473-.125,2.789-.222,3.735-.289s1.519-.1,1.519-.1a.35.35,0,0,0,.324-.3.338.338,0,0,0-.238-.371,64.012,64.012,0,0,0-12.308-2.117c-3.989-.368-7.11-.461-7.114-.461l-.011.343.156.313a6.321,6.321,0,0,1,.887-.3c1.562-.457,4.636-1.183,7.308-1.8,1.34-.3,2.578-.582,3.485-.785l1.472-.324a.344.344,0,0,0,.059-.656c-2.981-1.207-7.278-1.547-11.383-1.551a97.935,97.935,0,0,0-11.859.793l.05.34.086.336,15-3.871a.345.345,0,0,0-.011-.672,19.345,19.345,0,0,0-4.032-.321c-7.59,0-20.285,1.985-20.293,1.985l.055.34.109.328c2.176-.719,6.348-1.891,9.969-2.883,1.809-.5,3.484-.945,4.707-1.273s1.985-.528,1.988-.528a.352.352,0,0,0,.258-.355.349.349,0,0,0-.3-.324,30.237,30.237,0,0,0-4.386-.293c-10.227,0-22.661,3.988-22.68,3.992l.1.328.215.273a21.105,21.105,0,0,1,4.692-2.379c3.054-1.222,6.82-2.406,9.82-3.281,1.5-.437,2.809-.8,3.742-1.055s1.488-.39,1.488-.39a.348.348,0,0,0-.082-.684c-.386-.008-.769-.008-1.148-.008-21.379,0-34.355,9.7-34.391,9.727a.348.348,0,0,0-.14.246.344.344,0,0,0,.1.266c10.176,10.777,23.649,20.25,23.657,20.258a.345.345,0,0,0,.507-.442,87.7,87.7,0,0,0-7.765-11.125c-2.852-3.621-5.3-6.473-5.3-6.473a.341.341,0,0,0-.492-.039.349.349,0,0,0-.117.239.331.331,0,0,0,.086.25c7.761,8.863,21.675,18.117,21.687,18.125a.347.347,0,0,0,.477-.489l-10.578-14.847-.282.2-.281.207c2.754,3.617,8.211,8.324,13,12.152s8.883,6.754,8.883,6.754a.347.347,0,0,0,.5-.461l-9.8-15.929-.3.179-.226.262c2.91,2.512,6.89,7.242,10.129,11.336,1.617,2.047,3.051,3.934,4.082,5.312.515.688.926,1.247,1.211,1.637s.441.6.441.6a.348.348,0,0,0,.625-.258,48.4,48.4,0,0,0-3.457-10.125c-1.445-3.289-2.773-5.879-2.777-5.883l-.309.156-.269.219c1.679,2.059,4.578,5.836,7.058,9.1,1.238,1.629,2.371,3.129,3.2,4.226s1.335,1.774,1.339,1.778a.352.352,0,0,0,.43.105.348.348,0,0,0,.184-.4,75.046,75.046,0,0,0-4.762-12.528l-.313.153-.164.3a14.412,14.412,0,0,1,4.067,3.809c.547.7,1,1.355,1.3,1.828.157.238.278.434.364.567s.125.2.125.2a.354.354,0,0,0,.152.14c6.59,3.02,16.231,7.086,16.231,7.086a.35.35,0,0,0,.41-.109.342.342,0,0,0,0-.422A68.311,68.311,0,0,0,266.492,324.5l-.179.3-.047.34,9.66,1.281a.348.348,0,0,0,.258-.621c-2.84-2.153-6.883-3.6-10.223-4.528a56.236,56.236,0,0,0-5.984-1.32l-.047.344.058.34-.058-.34-.055.34.457.078a58.008,58.008,0,0,1,6.711,1.59,28.927,28.927,0,0,1,8.719,4.046l.211-.273.047-.344-9.665-1.277a.339.339,0,0,0-.371.227.343.343,0,0,0,.145.41s.035.019.1.058a68.138,68.138,0,0,1,16.156,14.731l.273-.215.133-.317s-.6-.253-1.605-.683c-3.02-1.281-9.672-4.133-14.6-6.395l-.148.313.3-.176a26.219,26.219,0,0,0-1.835-2.668,15.119,15.119,0,0,0-4.29-4,.346.346,0,0,0-.476.457s.051.1.141.289a73.2,73.2,0,0,1,4.574,12.106l.336-.086.277-.207s-8.23-10.977-11.609-15.121a.346.346,0,0,0-.578.375s.082.16.226.449c.512,1.023,1.809,3.664,3.074,6.648a42.758,42.758,0,0,1,2.864,8.7l.347-.054.278-.2s-2.508-3.468-5.754-7.574-7.227-8.847-10.215-11.429a.352.352,0,0,0-.453,0,.342.342,0,0,0-.071.445l9.8,15.93.3-.184.2-.281s-.258-.184-.711-.516c-1.6-1.164-5.687-4.18-9.957-7.683s-8.73-7.493-11.062-10.559a.345.345,0,0,0-.559.406l10.578,14.852.285-.2.192-.286-.61-.41c-2.757-1.886-14.242-9.933-20.945-17.593a.346.346,0,1,0-.523.453s.152.172.422.5c.957,1.129,3.394,4.039,5.941,7.336a77.9,77.9,0,0,1,6.617,9.632l.3-.16.2-.281s-.211-.148-.6-.43a178.455,178.455,0,0,1-22.957-19.742l-.254.238.211.278.141-.1c1.461-1.039,13.992-9.484,33.832-9.484.379,0,.758,0,1.137.008l0-.348-.082-.336s-3.985,1.02-8.469,2.43c-2.238.707-4.606,1.5-6.668,2.328a21.572,21.572,0,0,0-4.86,2.48.346.346,0,0,0-.093.434.35.35,0,0,0,.414.168s.191-.059.547-.172c2.5-.758,13.117-3.793,21.918-3.789a29.392,29.392,0,0,1,4.285.289l.051-.344-.09-.336s-12.3,3.243-16.7,4.7a.346.346,0,0,0,.16.671s.793-.125,2.1-.308a154.586,154.586,0,0,1,18.086-1.668,18.855,18.855,0,0,1,3.879.3l.078-.34-.086-.332-15.007,3.871a.345.345,0,0,0,.136.676s.352-.047.977-.122a97.266,97.266,0,0,1,10.785-.664c4.059,0,8.309.356,11.121,1.5l.129-.32-.07-.34s-2.985.649-6.133,1.379c-1.574.367-3.188.754-4.5,1.086-.653.168-1.231.32-1.688.457a6.96,6.96,0,0,0-1,.344.352.352,0,0,0-.187.383.359.359,0,0,0,.332.273s.773.024,2.043.09c3.812.207,12.109.832,17.187,2.457l.106-.332-.02-.344c-.008,0-9.258.543-14.375,1.469a.345.345,0,0,0-.285.348.337.337,0,0,0,.293.332l.055-.34" fill="#231f20"/>
    </g>
    <path id="Path_31" data-name="Path 31" d="M221.547,307.875s9.375-5.1,18.508-4.945c0,0-13.891,4.312-15.922,5.722s-2.586-.777-2.586-.777"/>
    <path id="Path_32" data-name="Path 32" d="M221.547,307.875l.164.3s.035-.016.1-.051c1.007-.535,9.511-4.859,17.835-4.855.133,0,.266,0,.4.007l.008-.347-.106-.328s-3.476,1.078-7.207,2.332c-1.863.625-3.793,1.3-5.39,1.906-.8.3-1.508.59-2.094.844a8.694,8.694,0,0,0-1.324.687,1.874,1.874,0,0,1-1.036.41.791.791,0,0,1-.453-.14,1.309,1.309,0,0,1-.433-.528,2.376,2.376,0,0,1-.1-.238l-.019-.066-.008-.02-.336.086.164.3-.164-.3-.336.082a2.6,2.6,0,0,0,.332.734,1.933,1.933,0,0,0,.516.528,1.5,1.5,0,0,0,.839.254,2.559,2.559,0,0,0,1.434-.539,8.327,8.327,0,0,1,1.207-.618c1.984-.871,5.649-2.14,8.8-3.187,1.578-.524,3.035-.992,4.09-1.324s1.722-.543,1.722-.543a.348.348,0,0,0,.242-.379.34.34,0,0,0-.335-.3c-.141,0-.278-.008-.415-.008-9.125.008-18.242,4.985-18.265,4.992a.342.342,0,0,0-.172.387l.336-.082" fill="#231f20"/>
    <path id="Path_33" data-name="Path 33" d="M230.336,309.117s14.488-3.926,19.394-3.629c0,0-19.027,5.883-19.394,3.629"/>
    <path id="Path_34" data-name="Path 34" d="M230.336,309.117l.09.336.586-.156c1.32-.348,4.7-1.219,8.336-2a56.279,56.279,0,0,1,9.812-1.477c.195,0,.383.008.551.016l.019-.344-.1-.332s-.211.067-.586.18c-1.309.394-4.652,1.387-8.156,2.277a47.629,47.629,0,0,1-9.086,1.676,3.293,3.293,0,0,1-.93-.105.447.447,0,0,1-.172-.09l-.023-.031-.34.054.09.336-.09-.336-.344.059a.748.748,0,0,0,.238.433,1.407,1.407,0,0,0,.672.3,4.7,4.7,0,0,0,.9.074,26.849,26.849,0,0,0,4.781-.656c5.707-1.172,13.246-3.5,13.25-3.5a.349.349,0,0,0,.242-.375.337.337,0,0,0-.32-.3c-.188-.016-.387-.016-.594-.016a64.226,64.226,0,0,0-11.5,1.828c-4.043.914-7.41,1.824-7.414,1.828a.351.351,0,0,0-.25.391l.344-.059" fill="#231f20"/>
    <path id="Path_35" data-name="Path 35" d="M240.621,351.949c4.41,2.68,11.695,8.4,11.695,8.4-3.679-6.18-12.742-14.711-12.742-14.711,1.4.383,12.051,6.34,12.051,6.34-3.457-6.981-16.758-15.821-16.758-15.821l13.8,7.043c-3.262-4.562-19.2-14.777-19.2-14.777,4.242,1.82,15.6,7.543,15.6,7.543-6.8-8.125-22.57-15.063-22.57-15.063,5.027.3,19.629,7.793,19.629,7.793-16.172-14.8-32.84-16.175-32.84-16.175.434,14.75,4.188,30.742,4.188,30.742,1.66-6.75,1.945-21.735,1.945-21.735-.1,11.7,4.133,27.825,4.133,27.825l1.98-18.106c-.7,8.91,3.754,28.516,3.754,28.516l3.281-18.4c1.02,7.715-.718,24.7-.718,24.7,3.05-4.75,5.961-16,5.961-16-.235,5.321-1.4,18.981-1.4,18.981a74.731,74.731,0,0,0,4.758-12.457c1.226,3.351.125,8.859.125,8.859,2.91,6.614,7.414,16.031,7.414,16.031a67.587,67.587,0,0,0-2.316-21.941l6.371,7.359c-1.34-6.828-8.145-14.949-8.145-14.949"/>
    <path id="Path_36" data-name="Path 36" d="M240.621,351.949l-.18.3c2.184,1.324,5.106,3.422,7.473,5.184,1.184.883,2.231,1.679,2.984,2.254s1.2.933,1.2.937a.346.346,0,0,0,.441-.016.341.341,0,0,0,.07-.433,63.562,63.562,0,0,0-7.793-9.734c-2.734-2.915-5-5.051-5.007-5.055l-.239.254-.094.332a8.141,8.141,0,0,1,.868.359c1.472.7,4.254,2.188,6.66,3.5,1.2.656,2.316,1.27,3.125,1.719s1.32.734,1.32.738a.348.348,0,0,0,.481-.457c-1.782-3.586-5.993-7.543-9.762-10.64s-7.106-5.309-7.109-5.317l-.2.289-.156.309,13.8,7.043a.344.344,0,0,0,.437-.508,26.445,26.445,0,0,0-4.437-4.3c-5.883-4.82-14.848-10.562-14.852-10.566l-.187.289-.141.32c2.11.9,6.012,2.789,9.375,4.446,1.684.828,3.238,1.6,4.367,2.164s1.84.921,1.84.921a.346.346,0,0,0,.422-.531c-3.453-4.121-9.121-7.894-13.93-10.652s-8.757-4.5-8.765-4.5l-.141.316-.019.344a21.066,21.066,0,0,1,5.089,1.328c3.094,1.11,6.7,2.719,9.528,4.047,1.41.668,2.629,1.262,3.5,1.692s1.375.687,1.375.691a.353.353,0,0,0,.445-.109.343.343,0,0,0-.051-.454c-16.254-14.871-33-16.261-33.043-16.269a.348.348,0,0,0-.378.355c.433,14.8,4.191,30.8,4.195,30.813a.343.343,0,0,0,.336.265.347.347,0,0,0,.34-.261,87.649,87.649,0,0,0,1.6-13.461c.281-4.6.352-8.344.352-8.348a.364.364,0,0,0-.1-.25.374.374,0,0,0-.246-.105.356.356,0,0,0-.246.1.333.333,0,0,0-.1.242c0,.137,0,.274,0,.411,0,11.73,4.145,27.488,4.145,27.5a.349.349,0,0,0,.684-.051l1.98-18.106-.344-.035-.347-.031q-.077,1-.075,2.133a108.563,108.563,0,0,0,1.918,16.851c.961,5.414,1.918,9.633,1.922,9.637a.338.338,0,0,0,.344.266.344.344,0,0,0,.336-.282l3.277-18.4-.34-.063-.343.043a51.493,51.493,0,0,1,.316,6.328c0,4.075-.258,8.649-.519,12.2-.129,1.781-.258,3.3-.356,4.382s-.164,1.711-.164,1.711a.345.345,0,0,0,.23.36.349.349,0,0,0,.411-.141,48.047,48.047,0,0,0,4.16-9.855c1.113-3.418,1.844-6.235,1.844-6.239l-.336-.086-.348-.015c-.117,2.652-.465,7.394-.781,11.472-.16,2.04-.313,3.915-.426,5.278s-.184,2.211-.184,2.215a.347.347,0,0,0,.653.191,74.9,74.9,0,0,0,4.785-12.527l-.336-.09-.328.117a11.976,11.976,0,0,1,.558,3.957,27.2,27.2,0,0,1-.218,3.293c-.059.434-.118.789-.157,1.039s-.07.383-.07.383a.343.343,0,0,0,.023.207c2.915,6.621,7.418,16.043,7.418,16.043a.346.346,0,0,0,.657-.125c.086-1.34.125-2.649.125-3.922a67.313,67.313,0,0,0-2.453-18.144l-.332.1-.262.231,6.371,7.355a.352.352,0,0,0,.414.082.342.342,0,0,0,.187-.379c-.687-3.492-2.742-7.25-4.621-10.152a54.265,54.265,0,0,0-3.6-4.949l-.266.222-.18.3.18-.3-.266.223s.106.125.293.355a57.981,57.981,0,0,1,3.954,5.637,28.655,28.655,0,0,1,3.824,8.8l.34-.067.261-.23-6.367-7.355a.348.348,0,0,0-.594.332s.036.117.1.347a68.258,68.258,0,0,1,2.316,17.59c0,1.258-.035,2.555-.121,3.879l.348.019.312-.148s-.281-.586-.75-1.574c-1.4-2.957-4.476-9.5-6.656-14.449l-.32.14.34.067a27.588,27.588,0,0,0,.461-4.852,12.658,12.658,0,0,0-.6-4.191.342.342,0,0,0-.344-.227.35.35,0,0,0-.32.254s-.027.105-.086.309a72.7,72.7,0,0,1-4.645,12.078l.309.16.348.027s1.16-13.656,1.394-18.992a.341.341,0,0,0-.3-.355.344.344,0,0,0-.386.253s-.043.172-.129.489c-.3,1.1-1.09,3.937-2.133,7a42.613,42.613,0,0,1-3.656,8.4l.293.188.343.035c0-.008,1.039-10.168,1.039-18.368a51.464,51.464,0,0,0-.32-6.414.348.348,0,0,0-.687-.019l-3.282,18.4.344.063.336-.082s-.055-.262-.16-.735c-.734-3.347-3.66-17.3-3.66-25.6,0-.743.027-1.442.078-2.075a.352.352,0,0,0-.316-.375.345.345,0,0,0-.375.309L219.2,349.313l.348.039.332-.09s-.063-.242-.176-.7c-.789-3.16-3.949-16.5-3.945-26.632v-.407a.348.348,0,0,0-.344-.347.341.341,0,0,0-.348.34s-.019.933-.07,2.441c-.078,2.266-.238,5.812-.531,9.43a68.563,68.563,0,0,1-1.336,9.789l.34.082.336-.078s-.059-.25-.161-.715c-.722-3.25-3.64-17.1-4.015-29.961l-.348.012-.027.343s.058,0,.183.02c1.844.2,17.368,2.265,32.45,16.066l.234-.254.16-.308s-3.656-1.875-7.949-3.789c-2.145-.961-4.445-1.926-6.531-2.676a21.59,21.59,0,0,0-5.285-1.363.347.347,0,0,0-.36.261.354.354,0,0,0,.195.4s.243.105.688.308a107.408,107.408,0,0,1,9.84,5.231c4.316,2.605,8.988,5.926,11.918,9.426l.265-.223.157-.309s-11.352-5.718-15.621-7.551a.351.351,0,0,0-.442.157.343.343,0,0,0,.117.453s.25.16.688.445c1.547,1.008,5.457,3.59,9.332,6.414,1.937,1.414,3.863,2.887,5.484,4.25a23.045,23.045,0,0,1,3.6,3.574l.281-.2.16-.308-13.8-7.043a.357.357,0,0,0-.461.132.352.352,0,0,0,.11.465s.2.137.574.391a99.426,99.426,0,0,1,7.9,6.07c3.325,2.852,6.7,6.258,8.165,9.227l.312-.156.168-.3s-2.664-1.492-5.5-3.031c-1.422-.766-2.883-1.547-4.082-2.165-.6-.308-1.133-.574-1.566-.773a7.139,7.139,0,0,0-.977-.406.346.346,0,0,0-.328.586s.141.129.394.375c.887.855,3.165,3.082,5.618,5.765a57.354,57.354,0,0,1,6.668,8.5l.3-.175.211-.274s-7.281-5.722-11.722-8.418a.347.347,0,0,0-.45.516l.266-.223" fill="#231f20"/>
    <path id="Path_37" data-name="Path 37" d="M171.844,284.84c-2.715-4.379-8.489-11.61-8.489-11.61,6.219,3.629,14.829,12.622,14.829,12.622-.4-1.4-6.43-11.977-6.43-11.977,7.016,3.4,15.957,16.609,15.957,16.609L180.57,276.77c4.594,3.226,14.93,19.054,14.93,19.054-1.848-4.219-7.652-15.508-7.652-15.508,8.187,6.739,15.238,22.418,15.238,22.418-.328-5.011-7.93-19.527-7.93-19.527,14.938,16.035,16.414,32.645,16.414,32.645-14.8-.344-30.859-4-30.859-4,6.762-1.691,21.789-2.058,21.789-2.058-11.73.164-27.93-3.961-27.93-3.961l18.153-2.082c-8.938.75-28.625-3.578-28.625-3.578l18.437-3.379c-7.746-.973-24.777.855-24.777.855,4.75-3.066,16.012-6.031,16.012-6.031-5.336.262-19.028,1.5-19.028,1.5a75.015,75.015,0,0,1,12.465-4.816c-3.367-1.2-8.883-.075-8.883-.075-6.652-2.863-16.129-7.3-16.129-7.3a68.176,68.176,0,0,1,22.024,2.179L156.8,276.8c6.855,1.3,15.043,8.035,15.043,8.035"/>
    <g id="Group_6" data-name="Group 6" clip-path="url(#clip-path-6)">
      <path id="Path_38" data-name="Path 38" d="M171.844,284.84l.293-.18c-2.735-4.414-8.508-11.64-8.512-11.644l-.27.214-.175.3a63.359,63.359,0,0,1,9.683,7.629c1.461,1.344,2.731,2.582,3.633,3.477.449.445.809.812,1.059,1.062s.375.395.379.395a.348.348,0,0,0,.421.062.354.354,0,0,0,.161-.4,7.318,7.318,0,0,0-.411-.969c-1.437-2.988-6.05-11.078-6.05-11.082l-.3.172-.152.309c3.41,1.648,7.4,5.781,10.5,9.492,1.55,1.855,2.882,3.605,3.828,4.894.472.645.847,1.172,1.105,1.539s.395.567.395.567a.347.347,0,0,0,.6-.352l-7.144-13.715-.309.161-.2.281a26.18,26.18,0,0,1,4.2,4.277c2.41,2.891,5.071,6.57,7.129,9.516,1.027,1.476,1.906,2.769,2.527,3.691s.981,1.477.981,1.481a.347.347,0,0,0,.609-.328c-1.859-4.243-7.66-15.528-7.664-15.532l-.308.16-.223.266c4.035,3.316,7.836,8.9,10.609,13.645,1.391,2.371,2.524,4.535,3.309,6.105.4.785.7,1.422.91,1.863s.317.68.317.68a.346.346,0,0,0,.66-.164,21.126,21.126,0,0,0-1.4-5.262,148.683,148.683,0,0,0-6.57-14.4l-.3.16-.254.234a65.558,65.558,0,0,1,13.735,22.219,53.287,53.287,0,0,1,2.129,7.414c.183.9.3,1.6.371,2.082.035.239.054.422.07.543a1.644,1.644,0,0,1,.016.184l.347-.031.008-.344a158.388,158.388,0,0,1-20.93-2.125c-2.925-.477-5.39-.942-7.128-1.289-.864-.172-1.547-.317-2.012-.418l-.719-.156-.078.335.086.336a87.483,87.483,0,0,1,13.367-1.652c2.3-.152,4.383-.254,5.9-.312s2.445-.082,2.449-.082a.348.348,0,1,0-.016-.7c-.23,0-.461,0-.691,0a104.766,104.766,0,0,1-17.926-1.976c-2.668-.493-4.977-.985-6.613-1.36-.821-.183-1.473-.336-1.918-.445s-.688-.172-.688-.172l-.086.336.039.344,18.153-2.082a.348.348,0,0,0,.3-.379.34.34,0,0,0-.375-.309c-.7.055-1.468.086-2.3.086a111.032,111.032,0,0,1-16.7-1.832c-2.683-.457-5.062-.914-6.773-1.258-.856-.172-1.543-.312-2.02-.414s-.73-.156-.73-.156l-.074.34.062.336,18.438-3.375a.346.346,0,0,0-.02-.684,49.6,49.6,0,0,0-5.9-.285c-8.313,0-18.946,1.141-18.953,1.141l.035.343.191.293a48.08,48.08,0,0,1,9.707-4.129c1.7-.558,3.25-1.027,4.375-1.351.567-.16,1.024-.289,1.336-.375l.492-.133a.349.349,0,0,0,.254-.391.345.345,0,0,0-.359-.289c-5.356.262-19.043,1.5-19.047,1.5l.035.344.16.3a63.014,63.014,0,0,1,8.219-3.457c1.215-.422,2.258-.754,3-.985.371-.113.664-.2.867-.257s.3-.09.309-.09a.34.34,0,0,0,.25-.321.346.346,0,0,0-.231-.339,12.507,12.507,0,0,0-4.086-.571,28.24,28.24,0,0,0-4.98.485l.07.339.137-.32c-3.32-1.426-7.352-3.25-10.551-4.719-1.6-.73-2.992-1.375-3.984-1.832s-1.578-.738-1.582-.738l-.149.313.024.343q2.186-.146,4.261-.144a70.387,70.387,0,0,1,12.579,1.16c1.582.285,2.847.574,3.718.793.438.109.774.2,1,.262s.34.1.34.1a.346.346,0,0,0,.328-.593l-7.418-6.309-.226.262-.063.34c3.348.632,7.086,2.621,9.969,4.457,1.441.914,2.672,1.793,3.539,2.441.438.324.781.59,1.016.773l.359.289a.348.348,0,0,0,.449,0,.343.343,0,0,0,.067-.442l-.293.18.219-.27a56.965,56.965,0,0,0-4.981-3.554c-2.926-1.856-6.707-3.887-10.215-4.551a.344.344,0,0,0-.289.6l7.414,6.309.227-.262.1-.332a68.238,68.238,0,0,0-17.84-2.34c-1.394,0-2.835.047-4.308.145a.351.351,0,0,0-.317.281.346.346,0,0,0,.192.379s9.476,4.434,16.137,7.3a.354.354,0,0,0,.211.019s.136-.027.394-.07a27.537,27.537,0,0,1,4.445-.4,11.781,11.781,0,0,1,3.856.531l.117-.324-.094-.336a75.822,75.822,0,0,0-12.535,4.844.346.346,0,0,0-.172.406.352.352,0,0,0,.364.246s.859-.078,2.222-.2c4.1-.36,12.8-1.106,16.793-1.3l-.015-.348-.09-.336s-2.825.746-6.242,1.875a48.609,48.609,0,0,0-9.868,4.2.347.347,0,0,0,.227.637s.66-.07,1.785-.18c3.375-.32,10.906-.961,17.094-.961a49.267,49.267,0,0,1,5.816.282l.043-.344-.062-.34-18.442,3.379a.345.345,0,0,0-.008.676c.012,0,16.676,3.672,26.372,3.676.839,0,1.628-.032,2.355-.09l-.027-.344-.043-.344-18.149,2.082a.349.349,0,0,0-.308.321.343.343,0,0,0,.261.359c.012,0,15.582,3.973,27.317,3.973h.7l0-.348-.008-.348s-3.765.094-8.375.395a89.085,89.085,0,0,0-13.488,1.676.346.346,0,0,0,.008.675c.011,0,16.082,3.657,30.926,4a.351.351,0,0,0,.261-.113.326.326,0,0,0,.09-.262c0-.047-1.492-16.734-16.5-32.851a.341.341,0,0,0-.453-.047.345.345,0,0,0-.109.441s.117.227.328.633c.726,1.418,2.554,5.039,4.23,8.848.84,1.906,1.641,3.855,2.246,5.6a18.283,18.283,0,0,1,1.086,4.309l.348-.02.316-.14c0-.008-1.769-3.938-4.566-8.719s-6.613-10.4-10.766-13.824a.347.347,0,0,0-.531.422s.363.707.938,1.832c1.718,3.367,5.328,10.515,6.707,13.66l.316-.141.293-.187s-2.59-3.965-5.754-8.332c-1.582-2.184-3.309-4.473-4.93-6.418a26.6,26.6,0,0,0-4.339-4.4.348.348,0,0,0-.426.024.34.34,0,0,0-.078.418l7.136,13.719.309-.161.289-.2s-2.246-3.312-5.367-7.055-7.125-7.918-10.727-9.671a.348.348,0,0,0-.457.484s.375.656.949,1.672c.856,1.519,2.153,3.832,3.27,5.894.559,1.028,1.07,2,1.461,2.77.2.383.363.722.484.992a5.42,5.42,0,0,1,.235.566l.336-.089.25-.243s-2.161-2.254-5.1-4.961a63.841,63.841,0,0,0-9.809-7.718.346.346,0,0,0-.433.074.337.337,0,0,0-.012.441s.359.45.941,1.2c1.75,2.234,5.508,7.125,7.524,10.379l.3-.18.219-.27-.219.27" fill="#231f20"/>
    </g>
    <g id="Group_7" data-name="Group 7" clip-path="url(#clip-path-7)">
      <path id="Path_40" data-name="Path 40" d="M163.016,328.211c-5.137-.508-14.407-.313-14.407-.313,6.668-2.73,19.059-4.1,19.059-4.1-1.355-.535-13.449-2.164-13.449-2.164,6.969-3.5,22.926-2.582,22.926-2.582l-15.27-2.656c5.359-1.684,24.25-.278,24.25-.278-4.484-1.094-17.012-3.34-17.012-3.34,10.34-2.4,27.125,1.516,27.125,1.516-4.2-2.777-20.383-5.555-20.383-5.555,21.848-2.117,35.989,6.785,35.989,6.785-9.246,11.52-21.9,22.04-21.9,22.04,2.746-6.387,11.571-18.52,11.571-18.52-6.981,9.395-20.1,19.734-20.1,19.734l9.344-15.648c-4.821,7.539-20.211,20.519-20.211,20.519l8.488-16.664c-5.473,5.555-14.34,20.161-14.34,20.161.434-5.625,4.9-16.352,4.9-16.352-3.028,4.391-10.344,15.992-10.344,15.992a74.6,74.6,0,0,1,3.715-12.8c-3,1.942-5.446,7-5.446,7-6.316,3.54-15.6,8.36-15.6,8.36a67.893,67.893,0,0,1,15.1-16.133l-9.532,2.051c5.192-4.649,15.528-7.047,15.528-7.047"/>
    </g>
    <g id="Group_8" data-name="Group 8" clip-path="url(#clip-path-8)">
      <path id="Path_42" data-name="Path 42" d="M163.016,328.211l.035-.344c-2.93-.289-7.156-.351-10.285-.351-2.407,0-4.161.035-4.164.035l.007.347.133.321a63.56,63.56,0,0,1,11.957-3.055c1.961-.344,3.711-.6,4.973-.766.633-.085,1.141-.152,1.492-.2s.539-.062.539-.062a.354.354,0,0,0,.309-.3.343.343,0,0,0-.219-.363,7.387,7.387,0,0,0-1.02-.266c-3.253-.672-12.5-1.918-12.511-1.922l-.043.344.152.308a27.909,27.909,0,0,1,8.762-2.171,84.176,84.176,0,0,1,9.355-.481c1.375,0,2.539.027,3.356.055s1.281.051,1.281.051a.345.345,0,0,0,.078-.684l-15.269-2.66-.059.344.1.328a19.935,19.935,0,0,1,4.144-.633c1.723-.125,3.719-.18,5.766-.18,3.414,0,6.968.141,9.668.278,1.351.066,2.488.136,3.285.187s1.258.09,1.258.09a.351.351,0,0,0,.371-.293.344.344,0,0,0-.262-.391c-4.508-1.1-17.023-3.347-17.031-3.347l-.063.343.082.336a36.006,36.006,0,0,1,7.957-.769,85.288,85.288,0,0,1,12.953,1.144c1.805.285,3.317.571,4.379.785.536.11.95.2,1.235.258s.437.1.437.1a.345.345,0,0,0,.27-.625,21.42,21.42,0,0,0-5.043-2.078,150.289,150.289,0,0,0-15.469-3.531l-.059.343.032.344c2.312-.223,4.531-.324,6.66-.324a64.607,64.607,0,0,1,21.285,3.535,50.457,50.457,0,0,1,5.813,2.43c.664.328,1.171.6,1.507.793l.383.222.125.075.184-.29-.27-.218a157.12,157.12,0,0,1-14.383,15.308c-2.156,2.032-4.027,3.7-5.355,4.864-.664.586-1.191,1.039-1.555,1.347s-.554.473-.554.473l.218.266.321.136a87.235,87.235,0,0,1,6.781-11.6c1.273-1.914,2.461-3.629,3.328-4.864.434-.617.789-1.117,1.035-1.461l.383-.527a.348.348,0,0,0-.559-.414,99.868,99.868,0,0,1-12.621,13.344c-2.07,1.879-3.922,3.461-5.261,4.574-.664.559-1.207,1-1.579,1.3s-.57.457-.574.457l.219.269.3.18,9.344-15.652a.349.349,0,0,0-.114-.473.353.353,0,0,0-.476.109c-2.371,3.715-7.418,8.848-11.86,13.024-2.218,2.09-4.293,3.945-5.808,5.281-.758.664-1.375,1.2-1.809,1.57s-.664.571-.664.571l.223.261.308.161,8.489-16.668a.348.348,0,0,0-.559-.4c-2.769,2.813-6.351,7.86-9.262,12.211s-5.125,8.008-5.125,8.012l.3.18.344.027a47.946,47.946,0,0,1,2.594-10.2c.582-1.688,1.156-3.2,1.578-4.289.211-.547.387-.985.512-1.289s.191-.469.191-.469a.344.344,0,0,0-.156-.434.34.34,0,0,0-.453.106c-3.036,4.406-10.348,16-10.352,16l.3.183.34.063a62.143,62.143,0,0,1,2.23-8.614c.4-1.218.766-2.25,1.035-2.976.133-.363.243-.649.317-.848s.117-.3.117-.3a.342.342,0,0,0-.1-.394.346.346,0,0,0-.41-.024,15.1,15.1,0,0,0-3.953,4.328,29.08,29.08,0,0,0-1.621,2.809l.316.148-.171-.3c-3.153,1.765-7.051,3.855-10.164,5.5-1.551.824-2.907,1.539-3.879,2.047s-1.547.8-1.547.8l.16.309.289.191a68.419,68.419,0,0,1,10-11.789c1.465-1.379,2.723-2.441,3.609-3.164.442-.359.8-.633,1.036-.816.121-.094.214-.16.273-.207l.094-.067a.345.345,0,0,0-.278-.617l-9.523,2.047.07.34.235.258c2.531-2.27,6.382-4.028,9.6-5.2,1.606-.589,3.051-1.031,4.1-1.324.52-.152.941-.262,1.23-.336s.446-.109.446-.109a.345.345,0,0,0-.043-.68l-.035.344-.078-.336a54.518,54.518,0,0,0-5.856,1.793c-3.254,1.191-7.164,2.957-9.824,5.332a.347.347,0,0,0,.305.6l9.527-2.051-.07-.34-.2-.281a68.152,68.152,0,0,0-15.183,16.226.342.342,0,0,0,.031.422.351.351,0,0,0,.418.074s9.285-4.824,15.609-8.363a.385.385,0,0,0,.145-.152s.035-.074.1-.211a27.921,27.921,0,0,1,1.852-3.09,13.418,13.418,0,0,1,3.367-3.555l-.191-.293-.321-.129a75.142,75.142,0,0,0-3.738,12.875.341.341,0,0,0,.219.379.345.345,0,0,0,.418-.14s.453-.723,1.187-1.879c2.2-3.465,6.883-10.82,9.149-14.1l-.285-.2-.325-.133s-1.117,2.692-2.293,6.086a48.464,48.464,0,0,0-2.628,10.371.348.348,0,0,0,.644.207s.137-.226.391-.636c.883-1.434,3.172-5.1,5.836-9a84.01,84.01,0,0,1,8.062-10.457l-.246-.243-.312-.156-8.489,16.664a.348.348,0,0,0,.535.422s3.856-3.25,8.313-7.445,9.519-9.328,11.969-13.156l-.293-.184-.3-.18L181.117,338.6a.348.348,0,0,0,.516.449c.008-.008,13.133-10.348,20.16-19.8l-.277-.2-.282-.207s-2.211,3.043-4.761,6.879a87.265,87.265,0,0,0-6.844,11.711.341.341,0,0,0,.109.414.346.346,0,0,0,.43-.012c.008-.008,12.668-10.531,21.949-22.09a.345.345,0,0,0-.086-.508c-.035-.023-11.39-7.164-29.484-7.164-2.149,0-4.4.1-6.723.329a.344.344,0,0,0-.316.328.35.35,0,0,0,.289.355s.25.043.7.125c1.574.281,5.57,1.035,9.625,2.012,2.027.492,4.07,1.039,5.828,1.613a18.308,18.308,0,0,1,4.1,1.754l.191-.289.078-.34a97.943,97.943,0,0,0-19.164-2.3,36.689,36.689,0,0,0-8.117.786.346.346,0,0,0,.02.679l2.027.367c3.727.68,11.621,2.153,14.965,2.969l.078-.336.027-.347s-7.4-.551-14.265-.551c-2.055,0-4.067.051-5.817.183a20,20,0,0,0-4.3.664.343.343,0,0,0,.043.668l15.27,2.657.059-.34.019-.348s-1.9-.105-4.676-.105a83.94,83.94,0,0,0-9.437.484,28.376,28.376,0,0,0-8.992,2.242.348.348,0,0,0,.109.653s.758.1,1.914.261c1.727.242,4.359.617,6.68.981,1.16.179,2.246.363,3.1.519.426.078.8.153,1.086.219a5.442,5.442,0,0,1,.594.16l.129-.32-.039-.344s-3.109.344-7.051,1.031a64.177,64.177,0,0,0-12.1,3.094.345.345,0,0,0-.207.391.355.355,0,0,0,.347.277s.438-.012,1.172-.019,1.777-.02,2.977-.02c3.117,0,7.339.063,10.214.348l.036-.344-.078-.336.078.336" fill="#231f20"/>
    </g>
    <path id="Path_44" data-name="Path 44" d="M176.434,351.629c-4.661,2.207-12.5,7.148-12.5,7.148,4.3-5.769,14.2-13.32,14.2-13.32-1.434.238-12.641,5.066-12.641,5.066,4.16-6.589,18.3-14.007,18.3-14.007L169.336,342.1c3.723-4.2,20.629-12.719,20.629-12.719-4.406,1.371-16.3,5.891-16.3,5.891,7.609-7.375,24.012-12.653,24.012-12.653-5.032-.219-20.332,5.727-20.332,5.727,17.617-13.051,34.336-12.707,34.336-12.707-1.957,14.625-7.344,30.148-7.344,30.148-.953-6.887.32-21.816.32-21.816-1.113,11.64-7,27.25-7,27.25L197.566,333c-.226,8.938-6.687,27.977-6.687,27.977l-1.359-18.641c-1.813,7.57-1.848,24.648-1.848,24.648-2.539-5.043-4.27-16.531-4.27-16.531-.32,5.32-.582,19.024-.582,19.024a74.431,74.431,0,0,1-3.437-12.879c-1.567,3.211-1.047,8.8-1.047,8.8-3.578,6.277-9.035,15.187-9.035,15.187A67.68,67.68,0,0,1,173.883,359l-7.1,6.656c2.039-6.648,9.653-14.023,9.653-14.023"/>
    <path id="Path_45" data-name="Path 45" d="M176.434,351.629l-.149-.313c-4.7,2.227-12.535,7.161-12.539,7.164l.184.3.281.2a63.129,63.129,0,0,1,8.66-8.769c1.5-1.3,2.867-2.422,3.863-3.215.5-.4.9-.715,1.172-.933s.434-.333.434-.333a.346.346,0,0,0-.27-.617,7.59,7.59,0,0,0-1.011.3c-3.133,1.1-11.7,4.785-11.707,4.789l.136.32.293.184c2.02-3.2,6.571-6.707,10.61-9.371,2.019-1.332,3.91-2.465,5.3-3.258.695-.4,1.261-.715,1.652-.93s.609-.328.613-.328a.347.347,0,0,0-.289-.629l-14.453,5.582.125.325.262.226a26.425,26.425,0,0,1,4.722-3.7c3.149-2.074,7.1-4.309,10.262-6.027,1.586-.856,2.973-1.586,3.961-2.1s1.578-.809,1.582-.812a.345.345,0,0,0-.262-.637c-4.433,1.379-16.316,5.894-16.32,5.894l.125.325.242.25c3.746-3.637,9.723-6.793,14.762-9.028,2.516-1.117,4.793-2,6.445-2.609.828-.3,1.5-.539,1.957-.7s.711-.243.711-.243a.346.346,0,0,0-.09-.675c-.1,0-.2,0-.3,0a24.56,24.56,0,0,0-5.454.906,153.38,153.38,0,0,0-14.722,4.851l.129.321.207.277c16.644-12.332,32.484-12.641,34.008-12.641.078,0,.113,0,.113,0l.008-.347-.344-.043a155.839,155.839,0,0,1-4.4,20.508c-.793,2.851-1.523,5.242-2.058,6.925-.27.84-.485,1.5-.637,1.95s-.234.7-.234.7l.328.113.34-.047a54.361,54.361,0,0,1-.348-6.9c0-3.469.168-7.18.336-10.023.086-1.422.168-2.625.234-3.473s.106-1.344.106-1.344a.347.347,0,0,0-.692-.062,100.27,100.27,0,0,1-3.906,17.925c-.8,2.672-1.57,4.981-2.137,6.621-.285.825-.519,1.477-.683,1.922s-.25.692-.25.692l.32.125.348,0L197.914,333a.348.348,0,0,0-.7,0c-.11,4.4-1.774,11.391-3.414,17.254-.825,2.934-1.637,5.59-2.246,7.512-.305.961-.555,1.738-.735,2.273s-.277.836-.277.836l.332.11.344-.024-1.356-18.64a.348.348,0,0,0-.32-.321.341.341,0,0,0-.363.262c-.918,3.836-1.379,10-1.614,15.23s-.246,9.493-.246,9.5l.348,0,.308-.156a48.053,48.053,0,0,1-3.054-10.07c-.371-1.746-.668-3.336-.867-4.488-.106-.579-.18-1.043-.231-1.368s-.078-.5-.078-.5a.344.344,0,0,0-.363-.289.34.34,0,0,0-.328.325c-.325,5.335-.586,19.031-.586,19.031l.347.008.325-.125a62.5,62.5,0,0,1-2.547-8.52c-.289-1.25-.508-2.328-.653-3.086s-.218-1.2-.218-1.2a.349.349,0,0,0-.293-.285.344.344,0,0,0-.364.191,16.66,16.66,0,0,0-1.164,6.778c0,1.293.082,2.2.082,2.2l.348-.035-.3-.168c-1.785,3.132-4.047,6.929-5.855,9.937-.907,1.5-1.7,2.816-2.266,3.75s-.906,1.484-.906,1.484l.293.184.347.012a68.09,68.09,0,0,1,2.461-15.239c.539-1.933,1.063-3.492,1.454-4.57.191-.535.351-.949.464-1.23s.172-.422.172-.426a.346.346,0,0,0-.554-.387l-7.1,6.66.238.25.332.1c.992-3.246,3.383-6.734,5.528-9.391,1.074-1.328,2.082-2.449,2.824-3.242.367-.394.672-.707.883-.918s.328-.328.328-.328a.346.346,0,0,0-.391-.559l.149.313-.246-.25a56.44,56.44,0,0,0-4.086,4.555c-2.172,2.691-4.606,6.214-5.653,9.621a.342.342,0,0,0,.145.394.358.358,0,0,0,.426-.043l7.1-6.66-.234-.25-.32-.137a67.911,67.911,0,0,0-4.61,21.707.35.35,0,0,0,.645.2s5.457-8.91,9.039-15.2a.335.335,0,0,0,.043-.2s0-.05-.008-.152c-.027-.3-.074-1.039-.074-1.984a16.13,16.13,0,0,1,1.1-6.477l-.312-.152-.344.058a74.977,74.977,0,0,0,3.461,12.949.346.346,0,0,0,.668-.121s.016-.859.047-2.222c.09-4.1.3-12.809.535-16.785l-.348-.024-.343.055s.437,2.879,1.187,6.394a48.29,48.29,0,0,0,3.113,10.235.348.348,0,0,0,.391.179.339.339,0,0,0,.27-.332s0-1.062.031-2.781c.051-2.574.164-6.617.433-10.719a73.254,73.254,0,0,1,1.375-11.066l-.339-.082-.344.023L190.531,361a.345.345,0,0,0,.3.32.353.353,0,0,0,.375-.234s1.617-4.766,3.262-10.652,3.328-12.887,3.445-17.426l-.348-.008-.347,0,.094,18.215a.35.35,0,0,0,.675.121c0-.016,5.891-15.625,7.016-27.34l-.344-.031-.347-.031s-.676,7.917-.676,14.9a54.624,54.624,0,0,0,.359,7,.346.346,0,0,0,.668.066c.008-.011,5.4-15.543,7.367-30.214a.343.343,0,0,0-.336-.391s-.047,0-.132,0c-1.61,0-17.61.32-34.422,12.781a.337.337,0,0,0-.1.442.35.35,0,0,0,.43.156s.23-.09.64-.246c1.446-.547,5.133-1.918,9.032-3.149,1.953-.617,3.953-1.2,5.75-1.621a21.42,21.42,0,0,1,4.5-.7c.093,0,.187,0,.269,0l.016-.344-.106-.332c-.008,0-4.117,1.324-9.187,3.574s-11.1,5.422-14.961,9.164a.34.34,0,0,0-.051.434.352.352,0,0,0,.418.137s.738-.281,1.926-.727c3.547-1.336,11.062-4.137,14.351-5.156l-.105-.332-.156-.309s-4.231,2.133-8.934,4.793c-2.352,1.328-4.82,2.793-6.937,4.188a26.365,26.365,0,0,0-4.86,3.816.345.345,0,0,0,.383.551l14.453-5.582-.125-.32-.164-.309s-3.547,1.863-7.617,4.555-8.668,6.191-10.813,9.574a.349.349,0,0,0,.434.5s.7-.3,1.769-.758c1.61-.684,4.055-1.715,6.231-2.6,1.09-.441,2.109-.843,2.922-1.148.406-.152.762-.281,1.043-.371a4.947,4.947,0,0,1,.594-.168l-.059-.34-.211-.277s-2.484,1.894-5.5,4.511a63.908,63.908,0,0,0-8.762,8.875.345.345,0,0,0,.461.5s.489-.308,1.3-.8c2.418-1.489,7.7-4.68,11.168-6.321l-.144-.312-.246-.25.246.25" fill="#231f20"/>
    <g id="Group_9" data-name="Group 9" clip-path="url(#clip-path-9)">
      <path id="Path_46" data-name="Path 46" d="M456.387,490.57V399.082H399.84V490.57H379.1v1.6h98.031v-1.6Zm-54.961,0V400.684H454.8V490.57Zm0,0"/>
    </g>
    <path id="Path_48" data-name="Path 48" d="M448.324,447.227a3.59,3.59,0,0,0-3.566,3.6v2.934a3.569,3.569,0,1,0,7.137,0v-2.934A3.591,3.591,0,0,0,448.324,447.227Zm1.985,6.535a1.983,1.983,0,1,1-3.965,0v-2.934a1.983,1.983,0,1,1,3.965,0Zm0,0"/>
    <g id="Group_10" data-name="Group 10" clip-path="url(#clip-path-10)">
      <path id="Path_49" data-name="Path 49" d="M546.883,423.945H531.191v-21.8h15.692Zm0,24.535H531.191V426.688h15.692Zm-18.465-24.535H512.727v-21.8h15.691Zm0,24.535H512.727V426.688h15.691Zm-20.789-50.871V453.02H551.98V397.609H507.629" fill="#040606"/>
    </g>
  </g>
</svg>
