<svg xmlns="http://www.w3.org/2000/svg"   viewBox="0 0 667.851 264.027">
  <defs>
    <clipPath id="clip-path">
      <path id="Path_12" data-name="Path 12" d="M296.531,239.41H330.8v43.176H296.531Zm0,0"/>
    </clipPath>
    <clipPath id="clip-path-2">
      <path id="Path_14" data-name="Path 14" d="M407.371,239.41h34.266v43.176H407.371Zm0,0"/>
    </clipPath>
    <clipPath id="clip-path-3">
      <path id="Path_16" data-name="Path 16" d="M240.9,334.855h45v57h-45Zm0,0"/>
    </clipPath>
    <clipPath id="clip-path-4">
      <path id="Path_20" data-name="Path 20" d="M135,176.078h38V252H135Zm0,0"/>
    </clipPath>
    <clipPath id="clip-path-5">
      <path id="Path_22" data-name="Path 22" d="M135,176.078h39V252H135Zm0,0"/>
    </clipPath>
    <clipPath id="clip-path-6">
      <path id="Path_31" data-name="Path 31" d="M146,237h74.551v40H146Zm0,0"/>
    </clipPath>
    <clipPath id="clip-path-7">
      <path id="Path_40" data-name="Path 40" d="M76.551,207H149v46H76.551Zm0,0"/>
    </clipPath>
    <clipPath id="clip-path-8">
      <path id="Path_43" data-name="Path 43" d="M76.551,243H149v44H76.551Zm0,0"/>
    </clipPath>
    <clipPath id="clip-path-9">
      <path id="Path_47" data-name="Path 47" d="M318.34,336.332H419.59v94.406H318.34Zm0,0"/>
    </clipPath>
    <clipPath id="clip-path-10">
      <path id="Path_50" data-name="Path 50" d="M449.563,334.855h45v57h-45Zm0,0"/>
    </clipPath>
    <clipPath id="clip-path-11">
      <path id="Path_55" data-name="Path 55" d="M575.652,301.543H744.4v133.5H575.652Zm0,0"/>
    </clipPath>
  </defs>
  <g id="surface4" transform="translate(-76.551 -171.016)">
    <path id="Path_1" data-name="Path 1" d="M541.469,311.418V297.633H193.781V434.625H541.469Zm-3.883,0V430.742H197.664V301.52H537.586Zm0,0"/>
    <path id="Path_2" data-name="Path 2" d="M3.748,0H82.506" transform="translate(197.369 348.361) rotate(90)" fill="none" stroke="#000" stroke-linecap="round" stroke-width="7.499"/>
    <path id="Path_3" data-name="Path 3" d="M3.748,0H82.506" transform="translate(537.742 348.361) rotate(90)" fill="none" stroke="#000" stroke-linecap="round" stroke-width="7.499"/>
    <path id="Path_4" data-name="Path 4" d="M3.746,0H341.254" transform="translate(196.301 431.034)" fill="none" stroke="#000" stroke-linecap="round" stroke-width="7.495"/>
    <path id="Path_5" data-name="Path 5" d="M3.751,0H340.506" transform="translate(193.78 301.437)" fill="none" stroke="#000" stroke-linecap="round" stroke-width="7.504"/>
    <path id="Path_6" data-name="Path 6" d="M3.753,0h55.5" transform="translate(197.37 301.333) rotate(90)" fill="none" stroke="#000" stroke-linecap="round" stroke-width="7.504"/>
    <path id="Path_7" data-name="Path 7" d="M3.746,0H63.008" transform="translate(537.744 301.332) rotate(90)" fill="none" stroke="#000" stroke-linecap="round" stroke-width="7.488"/>
    <path id="Path_8" data-name="Path 8" d="M3.747,0H94.512" transform="translate(244.781 202.96) rotate(90)" fill="none" stroke="#000" stroke-linecap="round" stroke-width="7.491"/>
    <path id="Path_9" data-name="Path 9" d="M3.744,0H94.509" transform="translate(485.29 203.151) rotate(90)" fill="none" stroke="#000" stroke-linecap="round" stroke-width="7.491"/>
    <path id="Path_10" data-name="Path 10" d="M3.753,0h237" transform="translate(241.192 206.762)" fill="none" stroke="#000" stroke-linecap="round" stroke-width="7.509"/>
    <g id="Group_1" data-name="Group 1">
      <path id="Path_11" data-name="Path 11" d="M326.832,259.934h-12.1V242.949h12.1Zm0,19.117h-12.1V262.07h12.1ZM312.59,259.934h-12.1V242.949h12.1Zm0,19.117h-12.1V262.07h12.1Zm-16.031-39.637V282.59h34.2V239.414h-34.2" fill="#040606"/>
    </g>
    <g id="Group_2" data-name="Group 2">
      <path id="Path_13" data-name="Path 13" d="M437.672,259.934h-12.1V242.949h12.1Zm0,19.117h-12.1V262.07h12.1ZM423.43,259.934h-12.1V242.949h12.1Zm0,19.117h-12.1V262.07h12.1ZM407.4,239.414V282.59h34.2V239.414H407.4" fill="#040606"/>
    </g>
    <g id="Group_3" data-name="Group 3">
      <path id="Path_15" data-name="Path 15" d="M280.789,362.121h-15.93V339.559h15.93Zm0,25.406h-15.93V364.961h15.93Zm-18.75-25.406h-15.93V339.559h15.93Zm0,25.406h-15.93V364.961h15.93ZM240.93,334.859v57.368h45.039V334.859H240.93" fill="#040606"/>
    </g>
    <path id="Path_17" data-name="Path 17" d="M145.926,250.207S121.141,327.719,120,428.9c0,0,7.469,5.926,17.742-2.117,0,0-4.894-93.644,8.184-176.578"/>
    <path id="Path_18" data-name="Path 18" d="M145.926,250.207l-.336-.109c-.008.019-24.8,77.562-25.942,178.8a.349.349,0,0,0,.133.281,12.226,12.226,0,0,0,7.184,2.179c3.008,0,6.789-1,10.992-4.292a.35.35,0,0,0,.137-.3s-.055-1.071-.141-3.086c-.25-6.055-.758-20.61-.758-40.215,0-34.9,1.606-85.813,9.078-133.207a.35.35,0,0,0-.269-.395.343.343,0,0,0-.414.235l.336.109-.348-.055c-7.484,47.45-9.086,98.387-9.086,133.313,0,26.156.9,43.332.9,43.336l.351-.016-.215-.277c-4.1,3.207-7.714,4.14-10.562,4.144A12.433,12.433,0,0,1,122,429.629a10.531,10.531,0,0,1-1.336-.7c-.148-.094-.266-.176-.344-.227l-.082-.062-.023-.02L120,428.9h.352A704.023,704.023,0,0,1,133.738,301.68c3.164-16,6.3-28.848,8.637-37.692,1.168-4.418,2.141-7.84,2.82-10.156.34-1.156.606-2.035.785-2.625s.282-.891.282-.894l-.336-.106-.348-.055.348.055" fill="#231f20"/>
    <g id="Group_4" data-name="Group 4">
      <path id="Path_19" data-name="Path 19" d="M153.5,200.4c-1.152-5.121-2.117-14.507-2.117-14.507-1.926,7.074-1.762,19.761-1.762,19.761-.707-1.3-3.875-13.312-3.875-13.312-2.664,7.484.266,23.48.266,23.48l-4.6-15.086c-1.031,5.625,2.758,24.528,2.758,24.528-1.668-4.4-5.508-16.758-5.508-16.758-1.133,10.742,4.93,27.2,4.93,27.2-3.332-3.887-8.172-19.883-8.172-19.883.6,22.328,11.371,35.493,11.371,35.493,10.492-10.79,19.539-24.9,19.539-24.9-6.109,3.582-17.277,14.016-17.277,14.016,8.629-8.231,17.441-22.778,17.441-22.778l-14.656,11.407c7.019-5.817,18.219-22.993,18.219-22.993L154.27,216.738c4.925-6.226,18.585-17.019,18.585-17.019-5.632,1.144-15.921,7-15.921,7,4.062-3.61,14.875-12.461,14.875-12.461a76.283,76.283,0,0,0-12.477,5.367c1.586-3.277,6.4-6.383,6.4-6.383,2.781-6.82,6.492-16.805,6.492-16.805A69.137,69.137,0,0,0,157.8,193.715l.879-9.879C154.633,189.66,153.5,200.4,153.5,200.4"/>
    </g>
    <g id="Group_5" data-name="Group 5">
      <path id="Path_21" data-name="Path 21" d="M153.5,200.4l.344-.074c-.57-2.539-1.1-6.164-1.488-9.144-.192-1.493-.344-2.825-.457-3.782s-.168-1.543-.168-1.547a.351.351,0,0,0-.688-.054,58.61,58.61,0,0,0-1.512,10.769c-.234,3.653-.265,6.9-.265,8.325,0,.488,0,.765,0,.765l.351,0,.309-.168a7.544,7.544,0,0,1-.344-.89c-.535-1.567-1.41-4.66-2.152-7.352-.371-1.348-.707-2.594-.95-3.5s-.394-1.488-.394-1.488a.355.355,0,0,0-.328-.262.344.344,0,0,0-.344.235,27.951,27.951,0,0,0-1.144,8.886,95.406,95.406,0,0,0,1.39,14.774l.348-.063.34-.1-4.6-15.086a.35.35,0,0,0-.683.039,14.967,14.967,0,0,0-.184,2.6,100.558,100.558,0,0,0,1.473,13.805c.734,4.586,1.468,8.254,1.472,8.258l.344-.07.328-.125c-.828-2.184-2.207-6.375-3.375-10.012-.586-1.816-1.117-3.5-1.5-4.727s-.625-2-.625-2a.355.355,0,0,0-.691.067,29.038,29.038,0,0,0-.141,2.9c0,10.672,5.09,24.434,5.094,24.453l.332-.121.265-.226a21.637,21.637,0,0,1-2.628-4.664c-1.372-3.051-2.747-6.829-3.766-9.84-.512-1.508-.941-2.821-1.238-3.758s-.465-1.5-.465-1.5a.353.353,0,0,0-.692.109c.6,22.445,11.422,35.672,11.45,35.707a.347.347,0,0,0,.523.02c10.527-10.825,19.578-24.934,19.586-24.942a.358.358,0,0,0-.043-.437.35.35,0,0,0-.434-.059,89.624,89.624,0,0,0-10.98,8.383c-3.563,3.063-6.355,5.676-6.359,5.676a.332.332,0,0,0-.11.246.325.325,0,0,0,.094.254.334.334,0,0,0,.246.109.34.34,0,0,0,.254-.094c8.684-8.289,17.492-22.843,17.5-22.855a.351.351,0,0,0-.066-.445.355.355,0,0,0-.454-.016l-14.656,11.41.219.278.223.273c3.562-2.957,8.117-8.711,11.8-13.742s6.485-9.328,6.489-9.332a.357.357,0,0,0-.047-.446.351.351,0,0,0-.446-.039L154.07,216.445l.2.293.277.219c2.43-3.07,7.07-7.328,11.09-10.8,2.015-1.734,3.875-3.277,5.23-4.383.676-.554,1.227-1,1.61-1.308l.593-.473a.346.346,0,0,0,.1-.426.353.353,0,0,0-.387-.2,49.106,49.106,0,0,0-10.156,3.961c-3.289,1.613-5.863,3.082-5.867,3.086l.172.305.234.261c2.023-1.8,5.742-4.91,8.953-7.574,1.606-1.328,3.082-2.551,4.16-3.433l1.754-1.442a.355.355,0,0,0-.328-.613,76.028,76.028,0,0,0-12.543,5.4l.168.309.316.156a14.694,14.694,0,0,1,3.7-4.305c.687-.585,1.332-1.074,1.8-1.41.239-.172.426-.3.559-.39l.2-.137a.343.343,0,0,0,.137-.16c2.789-6.832,6.5-16.813,6.5-16.817a.35.35,0,0,0-.125-.414.359.359,0,0,0-.434.024,69.613,69.613,0,0,0-14.5,17.371l.313.168.351.035.879-9.883a.355.355,0,0,0-.644-.234c-2.067,2.984-3.364,7.156-4.16,10.594a56.419,56.419,0,0,0-1.079,6.14l.348.035.344-.074-.344.074.352.039s.019-.16.054-.464a59.83,59.83,0,0,1,1.328-6.9,29.429,29.429,0,0,1,3.735-9.047l-.285-.2-.352-.031-.879,9.879a.353.353,0,0,0,.246.371.359.359,0,0,0,.414-.168s.016-.035.055-.1a69.309,69.309,0,0,1,14.281-17.074l-.226-.27-.332-.121s-.231.621-.621,1.664c-1.176,3.125-3.782,10.02-5.868,15.129l.329.133-.2-.3a28.187,28.187,0,0,0-2.636,1.992,15.529,15.529,0,0,0-3.883,4.532.37.37,0,0,0,.074.414.362.362,0,0,0,.414.051s.1-.055.289-.153a74.091,74.091,0,0,1,12.125-5.183l-.1-.34-.223-.274s-10.813,8.848-14.887,12.469a.355.355,0,0,0-.051.469.351.351,0,0,0,.461.1s.157-.089.45-.25c1.019-.566,3.648-2,6.632-3.414a43.6,43.6,0,0,1,8.731-3.3l-.067-.347-.218-.278s-3.422,2.7-7.461,6.184-8.684,7.738-11.184,10.891a.356.356,0,0,0,.02.461.347.347,0,0,0,.453.05l15.785-10.664-.2-.293-.3-.2s-.172.27-.492.746c-1.118,1.68-4.012,5.965-7.387,10.461s-7.242,9.2-10.27,11.711a.352.352,0,0,0,.442.547l14.66-11.41-.219-.274-.3-.187s-.136.226-.394.64C164,221,156.309,233.023,148.8,240.18a.352.352,0,0,0,.484.511s.176-.16.492-.453c1.106-1.023,3.965-3.625,7.207-6.359a79.793,79.793,0,0,1,9.516-7.152l-.176-.309-.3-.188-.406.622c-1.867,2.836-9.937,14.8-19.09,24.214l.254.247.27-.227s-.036-.047-.114-.145c-1.16-1.492-10.617-14.3-11.172-35.132l-.355.011-.336.1s1.211,4.008,2.84,8.5c.816,2.246,1.734,4.617,2.66,6.676a22,22,0,0,0,2.738,4.832.352.352,0,0,0,.6-.352s-.074-.211-.215-.6c-.965-2.762-4.84-14.45-4.836-23.606a26.326,26.326,0,0,1,.141-2.828l-.348-.035-.34.1c0,.008,3.84,12.364,5.516,16.782a.353.353,0,0,0,.676-.2s-.184-.91-.457-2.4c-.825-4.453-2.473-14.078-2.473-19.524a14.856,14.856,0,0,1,.172-2.472l-.344-.063-.34.1,4.6,15.086a.343.343,0,0,0,.418.238.351.351,0,0,0,.265-.406s-.085-.469-.214-1.281a91.434,91.434,0,0,1-1.168-13.364,27.387,27.387,0,0,1,1.1-8.652l-.332-.117-.34.09s.793,3.007,1.672,6.175c.442,1.582.906,3.207,1.3,4.52.2.656.383,1.238.539,1.7a7.184,7.184,0,0,0,.4,1,.346.346,0,0,0,.4.172.355.355,0,0,0,.266-.344s0-.269,0-.757c0-1.418.031-4.653.261-8.278a57.912,57.912,0,0,1,1.489-10.629l-.34-.093-.352.035c0,.008.961,9.39,2.129,14.55a.345.345,0,0,0,.364.278.359.359,0,0,0,.328-.317l-.352-.039" fill="#231f20"/>
    </g>
    <path id="Path_23" data-name="Path 23" d="M145.328,242.363s10.887-12.414,10.578-13.379-15.265,10.266-10.578,13.379"/>
    <path id="Path_24" data-name="Path 24" d="M145.328,242.363l.266.239s2.648-3.024,5.3-6.2c1.324-1.589,2.648-3.222,3.644-4.539.5-.66.918-1.238,1.215-1.7a6.755,6.755,0,0,0,.355-.609,1.256,1.256,0,0,0,.157-.516l-.02-.136,0-.02a.442.442,0,0,0-.211-.25.481.481,0,0,0-.234-.055,1.281,1.281,0,0,0-.457.114,15.663,15.663,0,0,0-2.692,1.7,41,41,0,0,0-5.546,4.933,17.678,17.678,0,0,0-2.145,2.786,5.266,5.266,0,0,0-.891,2.6,2.259,2.259,0,0,0,1.067,1.957.358.358,0,0,0,.461-.058l-.266-.239.195-.293a1.689,1.689,0,0,1-.578-.609,1.623,1.623,0,0,1-.175-.758,6.372,6.372,0,0,1,1.539-3.344,33.533,33.533,0,0,1,5.582-5.5c.976-.777,1.886-1.433,2.6-1.894.356-.227.668-.406.9-.527a2.573,2.573,0,0,1,.293-.125l.085-.028.024,0v-.2l-.09.176.09.023v-.2l-.09.176.125-.246-.262.086.137.16.125-.246-.262.086.336-.11-.34.09.161-.043h-.168l.007.043.161-.043h-.09l-.078-.011v.011h.078l-.078-.011a.989.989,0,0,1-.106.261,24.777,24.777,0,0,1-2.137,3.008c-1.55,1.984-3.617,4.445-5.289,6.41-.839.985-1.578,1.844-2.109,2.453s-.852.977-.852.981l.262.23.195-.293-.195.293" fill="#231f20"/>
    <path id="Path_25" data-name="Path 25" d="M142.531,239.973s-5.6-9.305-5.843-18.6c0,0,5,13.938,6.523,15.938s-.68,2.664-.68,2.664"/>
    <path id="Path_26" data-name="Path 26" d="M142.531,239.973l.3-.184s-.019-.031-.059-.1c-.6-1.032-5.515-9.735-5.734-18.325l-.351.008-.333.121s1.25,3.488,2.692,7.227c.723,1.867,1.488,3.8,2.18,5.394.339.8.664,1.512.949,2.094a9.235,9.235,0,0,0,.754,1.316,1.836,1.836,0,0,1,.465,1.075.8.8,0,0,1-.129.449,1.494,1.494,0,0,1-.52.449,1.43,1.43,0,0,1-.23.106l-.071.027-.011,0,0,0,.1.336.3-.184-.3.184.1.34a2.782,2.782,0,0,0,.711-.364,1.9,1.9,0,0,0,.508-.515,1.526,1.526,0,0,0,.25-.836,2.528,2.528,0,0,0-.61-1.5,8.19,8.19,0,0,1-.683-1.2c-.977-1.973-2.43-5.649-3.633-8.809-.6-1.582-1.141-3.039-1.528-4.1s-.628-1.726-.628-1.726a.354.354,0,0,0-.688.125c.258,9.426,5.887,18.75,5.9,18.777a.361.361,0,0,0,.406.157l-.1-.34" fill="#231f20"/>
    <path id="Path_27" data-name="Path 27" d="M182.914,214.32c2.32-4.707,7.465-12.609,7.465-12.609C184.438,206,176.6,215.957,176.6,215.957c.265-1.457,5.351-12.785,5.351-12.785-6.773,4.133-14.543,18.41-14.543,18.41l5.9-14.621c-4.336,3.719-13.266,20.8-13.266,20.8,1.465-4.465,6.246-16.492,6.246-16.492-7.629,7.632-13.25,24.238-13.25,24.238-.148-5.121,6.141-20.6,6.141-20.6-13.563,17.735-13.461,34.75-13.461,34.75,14.929-1.769,30.82-7.023,30.82-7.023-7-1.07-22.226,0-22.226,0,11.875-.957,27.859-6.707,27.859-6.707l-18.555-.371c9.11-.1,28.6-6.387,28.6-6.387L173.25,227.5c7.742-1.726,25.133-1.5,25.133-1.5-5.094-2.656-16.77-4.594-16.77-4.594,5.422-.246,19.387-.3,19.387-.3a75.666,75.666,0,0,0-13.066-3.7c3.289-1.546,8.976-.933,8.976-.933,6.449-3.543,15.606-8.961,15.606-8.961a68.947,68.947,0,0,0-22.063,4.332l6.9-7.121c-6.805,1.973-14.434,9.605-14.434,9.605"/>
    <path id="Path_28" data-name="Path 28" d="M182.914,214.32l.316.16c1.149-2.339,3.012-5.488,4.586-8.046.789-1.282,1.5-2.411,2.02-3.227s.836-1.3.84-1.305a.361.361,0,0,0-.055-.449.353.353,0,0,0-.449-.031A65.017,65.017,0,0,0,181,210.207c-2.711,3.035-4.68,5.527-4.68,5.531l.278.219.347.066a7.126,7.126,0,0,1,.289-.914c.571-1.554,1.832-4.507,2.946-7.066.558-1.281,1.082-2.461,1.465-3.324s.625-1.4.625-1.4a.348.348,0,0,0-.086-.41.355.355,0,0,0-.418-.039c-3.481,2.133-7.114,6.754-9.918,10.86s-4.75,7.679-4.754,7.683l.312.172.324.133,5.9-14.621a.353.353,0,0,0-.555-.4,27.142,27.142,0,0,0-3.961,4.887c-4.359,6.4-9.383,16.012-9.387,16.016l.313.164.332.109c.73-2.215,2.289-6.34,3.668-9.9.691-1.781,1.332-3.426,1.805-4.621s.769-1.946.769-1.949a.352.352,0,0,0-.578-.379c-3.871,3.875-7.184,9.961-9.559,15.082s-3.773,9.289-3.777,9.293l.336.113.352-.008,0-.172a23.546,23.546,0,0,1,.949-5.336c.855-3.222,2.152-6.965,3.23-9.9.539-1.465,1.024-2.731,1.372-3.629s.566-1.426.57-1.426a.354.354,0,0,0-.61-.347c-13.425,17.554-13.531,34.406-13.531,34.953l0,.074a.358.358,0,0,0,.391.289c14.976-1.777,30.879-7.039,30.886-7.039a.353.353,0,0,0-.054-.684,64.394,64.394,0,0,0-8.942-.484c-6.6,0-13.363.476-13.367.476a.36.36,0,0,0-.242.122.36.36,0,0,0,.039.5.348.348,0,0,0,.258.082c11.953-.965,27.937-6.723,27.953-6.727a.352.352,0,0,0,.23-.387.356.356,0,0,0-.343-.3l-18.555-.368-.008.352,0,.351c4.625-.05,11.777-1.652,17.8-3.242s10.9-3.156,10.9-3.16a.353.353,0,0,0-.078-.687l-18.969-1.661-.031.348.074.348a79.118,79.118,0,0,1,12.047-1.266c4.418-.207,8.668-.242,11.051-.242,1.226,0,1.957.008,1.961.008a.353.353,0,0,0,.347-.266.361.361,0,0,0-.179-.4,49.229,49.229,0,0,0-10.383-3.325c-3.566-.82-6.492-1.3-6.5-1.3l-.059.347.016.352c2.7-.121,7.551-.2,11.715-.242,2.086-.024,4-.039,5.394-.047s2.262-.016,2.266-.016a.352.352,0,0,0,.344-.285.36.36,0,0,0-.211-.394A77.025,77.025,0,0,0,188,217.047l-.062.351.148.317a15.772,15.772,0,0,1,6.176-1.016c.754,0,1.41.028,1.875.059.234.015.422.031.547.043l.191.019a.336.336,0,0,0,.207-.043c6.457-3.554,15.613-8.968,15.617-8.968a.352.352,0,0,0,.157-.4.345.345,0,0,0-.344-.254,69.221,69.221,0,0,0-22.184,4.36l.129.324.254.246,6.9-7.125a.355.355,0,0,0-.352-.586c-3.48,1.016-7.113,3.438-9.887,5.609a57.284,57.284,0,0,0-4.7,4.09l.25.25.316.16-.316-.16.246.254s.117-.117.336-.328a58.831,58.831,0,0,1,5.363-4.519,29.185,29.185,0,0,1,8.586-4.676l-.1-.336-.254-.25L190.2,211.59a.354.354,0,0,0-.039.445.348.348,0,0,0,.426.125s.144-.058.433-.168a69.649,69.649,0,0,1,21.5-4.137l-.007-.351-.18-.3s-.574.336-1.531.9c-2.875,1.687-9.235,5.4-14.063,8.054l.168.309.035-.348c-.007,0-1.14-.125-2.687-.125a16.339,16.339,0,0,0-6.477,1.086.348.348,0,0,0-.2.363.343.343,0,0,0,.285.3s.453.086,1.223.246a72.022,72.022,0,0,1,11.773,3.43l.133-.324v-.352s-13.965.059-19.4.3a.352.352,0,0,0-.043.7s.183.031.511.09c1.149.2,4.09.746,7.3,1.527a43.479,43.479,0,0,1,8.86,2.942l.16-.313.008-.355s-.735-.008-1.969-.008c-2.391,0-6.649.035-11.086.242a79.656,79.656,0,0,0-12.164,1.281.355.355,0,0,0,.047.7l18.972,1.66.028-.352-.106-.336s-.3.1-.855.27c-1.922.6-6.86,2.105-12.309,3.472s-11.414,2.586-15.336,2.629a.352.352,0,0,0,0,.7l18.559.372,0-.352-.117-.332-.707.246c-3.207,1.109-16.743,5.613-27.067,6.441a.353.353,0,0,0-.32.379.349.349,0,0,0,.375.325l1.156-.075c2.2-.132,7.238-.4,12.16-.4a64.223,64.223,0,0,1,8.836.473l.051-.348-.109-.336s-.246.082-.707.227c-3.235,1.027-17.028,5.238-30.047,6.781l.043.351.347-.058-.281.047h.285l0-.047-.281.047h.285c0-.457.1-17.149,13.391-34.524l-.281-.215-.325-.132s-1.542,3.789-3.082,8.242c-.769,2.226-1.539,4.617-2.121,6.8a24.116,24.116,0,0,0-.972,5.515c0,.067,0,.133.008.192a.343.343,0,0,0,.3.339.354.354,0,0,0,.387-.234s.086-.258.254-.723a108.315,108.315,0,0,1,4.422-10.449c2.258-4.613,5.2-9.648,8.492-12.937l-.25-.246-.328-.133s-4.781,12.023-6.254,16.515a.353.353,0,0,0,.648.274s.137-.266.391-.738c.883-1.657,3.152-5.852,5.668-10.039,1.258-2.09,2.582-4.176,3.816-5.942a23.467,23.467,0,0,1,3.309-3.976l-.23-.266-.329-.133-5.9,14.621a.346.346,0,0,0,.176.449.351.351,0,0,0,.461-.148s.117-.219.344-.613a99.256,99.256,0,0,1,5.449-8.555c2.6-3.629,5.746-7.359,8.625-9.109l-.184-.3-.324-.145s-1.27,2.832-2.574,5.848c-.656,1.508-1.317,3.063-1.832,4.336-.258.637-.477,1.2-.645,1.656a7.484,7.484,0,0,0-.324,1.024.354.354,0,0,0,.625.285s.117-.153.344-.434c.789-.98,2.844-3.488,5.347-6.219a58.807,58.807,0,0,1,8.02-7.527l-.207-.285-.3-.195c0,.007-5.144,7.9-7.484,12.648a.357.357,0,0,0,.109.445.349.349,0,0,0,.453-.035l-.246-.254" fill="#231f20"/>
    <g id="Group_6" data-name="Group 6">
      <path id="Path_29" data-name="Path 29" d="M196.945,256.266c5.157-.934,14.559-1.5,14.559-1.5-6.973-2.231-19.633-2.614-19.633-2.614,1.328-.652,13.445-3.3,13.445-3.3-7.347-2.993-23.429-.75-23.429-.75l15.246-3.95c-5.567-1.273-24.578,1.7-24.578,1.7,4.453-1.477,16.945-4.789,16.945-4.789-10.66-1.6-27.332,3.761-27.332,3.761,4.023-3.168,20.18-7.32,20.18-7.32-22.3-.363-35.883,9.848-35.883,9.848,10.305,10.964,23.98,20.632,23.98,20.632-3.3-6.273-13.23-17.9-13.23-17.9,7.836,8.988,21.965,18.437,21.965,18.437l-10.746-15.156c5.5,7.278,22.148,19.223,22.148,19.223l-9.961-16.258c5.992,5.2,16.172,19.336,16.172,19.336-.9-5.688-6.3-16.238-6.3-16.238,3.426,4.222,11.789,15.425,11.789,15.425a76.7,76.7,0,0,0-4.816-12.718c3.2,1.73,6.086,6.676,6.086,6.676,6.687,3.082,16.48,7.226,16.48,7.226a69.125,69.125,0,0,0-16.6-15.18l9.812,1.309c-5.637-4.3-16.3-5.9-16.3-5.9"/>
      <path id="Path_30" data-name="Path 30" d="M196.945,256.266l.059.347c2.559-.465,6.2-.836,9.184-1.093,1.5-.129,2.832-.227,3.789-.3s1.546-.1,1.546-.1a.354.354,0,0,0,.086-.691,65.028,65.028,0,0,0-12.5-2.161c-4.046-.375-7.218-.472-7.222-.472l-.012.355.156.317a6.852,6.852,0,0,1,.9-.309c1.586-.469,4.707-1.211,7.425-1.836,1.36-.312,2.618-.594,3.54-.8s1.5-.328,1.5-.328a.362.362,0,0,0,.277-.316.35.35,0,0,0-.223-.356c-3.027-1.23-7.39-1.582-11.562-1.586a99.055,99.055,0,0,0-12.043.809l.047.352.09.343,15.242-3.953a.353.353,0,0,0-.012-.687,19.624,19.624,0,0,0-4.094-.325c-7.711,0-20.605,2.024-20.613,2.024l.055.348.109.336c2.211-.735,6.449-1.934,10.129-2.946,1.836-.5,3.539-.965,4.777-1.3s2.02-.535,2.024-.535a.356.356,0,0,0-.039-.7,30.8,30.8,0,0,0-4.457-.3c-10.391,0-23.02,4.074-23.039,4.078l.109.336.215.278a21.5,21.5,0,0,1,4.765-2.43c3.1-1.246,6.93-2.453,9.977-3.348,1.523-.445,2.852-.816,3.8-1.074s1.512-.4,1.512-.4a.356.356,0,0,0-.083-.7c-.39,0-.781-.007-1.167-.007-21.719,0-34.9,9.9-34.934,9.929a.346.346,0,0,0-.141.25.368.368,0,0,0,.094.274c10.34,11,24.023,20.672,24.035,20.679a.351.351,0,0,0,.512-.453,89.525,89.525,0,0,0-7.887-11.355c-2.9-3.695-5.383-6.606-5.387-6.61a.345.345,0,0,0-.238-.121.363.363,0,0,0-.258.082.368.368,0,0,0-.121.247.337.337,0,0,0,.086.253c7.887,9.051,22.024,18.493,22.035,18.5a.355.355,0,0,0,.45-.047.359.359,0,0,0,.031-.453l-10.746-15.156-.285.2-.286.211c2.8,3.692,8.34,8.5,13.2,12.4s9.023,6.895,9.027,6.9a.355.355,0,0,0,.508-.473l-9.961-16.261-.3.187-.23.266c2.957,2.562,7,7.39,10.289,11.57,1.64,2.09,3.1,4.016,4.144,5.422.524.7.946,1.273,1.235,1.668s.449.617.449.617a.347.347,0,0,0,.418.117.35.35,0,0,0,.215-.379,49.624,49.624,0,0,0-3.512-10.336c-1.469-3.359-2.82-6-2.82-6l-.317.157-.273.226c1.707,2.1,4.652,5.957,7.168,9.285,1.258,1.664,2.41,3.2,3.25,4.313s1.355,1.812,1.359,1.816a.351.351,0,0,0,.621-.3,76.569,76.569,0,0,0-4.836-12.79l-.316.157-.168.312a14.742,14.742,0,0,1,4.133,3.891c.554.715,1.008,1.379,1.324,1.863.16.242.281.442.367.578s.129.207.129.207a.319.319,0,0,0,.156.141c6.692,3.086,16.485,7.234,16.489,7.234a.345.345,0,0,0,.414-.109.354.354,0,0,0,0-.434,69.294,69.294,0,0,0-16.7-15.261l-.179.3-.047.348,9.812,1.309a.345.345,0,0,0,.371-.215.355.355,0,0,0-.109-.418c-2.887-2.2-6.992-3.676-10.383-4.621a55.748,55.748,0,0,0-6.082-1.344l-.047.348.059.347-.059-.347-.054.347.461.078a58.07,58.07,0,0,1,6.816,1.625,29.182,29.182,0,0,1,8.859,4.133l.215-.281.047-.352-9.816-1.3a.351.351,0,0,0-.231.648s.035.02.1.063a69.291,69.291,0,0,1,16.41,15.031l.277-.215.137-.324s-.613-.262-1.637-.7c-3.062-1.313-9.824-4.223-14.832-6.528l-.148.321.3-.18a27.52,27.52,0,0,0-1.867-2.727,15.371,15.371,0,0,0-4.355-4.078.352.352,0,0,0-.485.465s.051.1.145.3a74.773,74.773,0,0,1,4.641,12.355l.347-.09.278-.207s-8.36-11.207-11.793-15.437a.347.347,0,0,0-.465-.074.351.351,0,0,0-.121.457l.23.461c.52,1.043,1.836,3.738,3.121,6.785a43.749,43.749,0,0,1,2.91,8.883l.352-.055.285-.207s-2.551-3.539-5.848-7.731-7.343-9.031-10.378-11.667a.348.348,0,0,0-.457,0,.353.353,0,0,0-.075.453l9.957,16.261.305-.187.2-.285s-.258-.188-.722-.528c-1.625-1.191-5.774-4.269-10.114-7.843s-8.867-7.649-11.238-10.782a.353.353,0,0,0-.488-.074.357.357,0,0,0-.078.492l10.746,15.16.289-.207.2-.293s-.219-.144-.617-.417c-2.8-1.926-14.469-10.141-21.278-17.958a.352.352,0,1,0-.531.461l.43.508c.969,1.156,3.445,4.125,6.035,7.489a80.418,80.418,0,0,1,6.719,9.835l.312-.164.2-.289s-.21-.148-.6-.433c-2.746-1.992-14.336-10.59-23.324-20.153l-.254.243.211.281s.047-.031.144-.106c1.485-1.054,14.215-9.679,34.368-9.679.382,0,.769,0,1.156.007l0-.351-.086-.344s-4.047,1.043-8.6,2.481c-2.273.718-4.68,1.535-6.773,2.375a21.864,21.864,0,0,0-4.938,2.531.352.352,0,0,0,.324.613s.2-.058.559-.172c2.543-.773,13.324-3.875,22.266-3.871a29.687,29.687,0,0,1,4.351.3l.051-.351-.09-.344s-12.492,3.308-16.969,4.8a.355.355,0,0,0-.23.422.351.351,0,0,0,.394.261s.805-.125,2.133-.312a156.308,156.308,0,0,1,18.375-1.7,19.1,19.1,0,0,1,3.938.308l.082-.344-.09-.343L181.8,247.758a.35.35,0,0,0-.258.414.355.355,0,0,0,.4.281s.355-.051.992-.125a98.342,98.342,0,0,1,10.953-.68c4.129,0,8.441.364,11.3,1.532l.132-.328-.074-.344s-3.031.66-6.23,1.406c-1.6.375-3.239.77-4.567,1.106-.664.171-1.25.328-1.711.468a7.06,7.06,0,0,0-1.019.352.351.351,0,0,0-.188.39.355.355,0,0,0,.336.278s.785.027,2.075.094c3.875.211,12.3.851,17.457,2.507l.109-.339-.024-.352s-9.4.559-14.6,1.5a.357.357,0,0,0-.289.355.348.348,0,0,0,.3.34l.054-.347" fill="#231f20"/>
    </g>
    <path id="Path_32" data-name="Path 32" d="M157.957,243.582s9.523-5.2,18.8-5.047c0,0-14.113,4.4-16.176,5.84s-2.625-.793-2.625-.793"/>
    <path id="Path_33" data-name="Path 33" d="M157.957,243.582l.168.309a1.144,1.144,0,0,1,.1-.055c1.023-.547,9.66-4.957,18.117-4.953.136,0,.269,0,.406,0l.008-.352-.11-.336s-3.531,1.1-7.32,2.379c-1.894.641-3.851,1.328-5.476,1.945-.809.313-1.532.6-2.125.868a8.725,8.725,0,0,0-1.348.695,1.9,1.9,0,0,1-1.051.422.818.818,0,0,1-.461-.141,1.407,1.407,0,0,1-.437-.539,2.157,2.157,0,0,1-.106-.246l-.019-.07-.008-.016v0l-.34.09.168.309-.168-.309-.344.086a2.725,2.725,0,0,0,.34.746,1.915,1.915,0,0,0,.52.539,1.529,1.529,0,0,0,.855.258,2.579,2.579,0,0,0,1.457-.547,8.324,8.324,0,0,1,1.227-.629c2.015-.89,5.734-2.187,8.941-3.258,1.606-.531,3.082-1.007,4.156-1.351s1.75-.555,1.75-.555a.355.355,0,0,0,.246-.387.348.348,0,0,0-.343-.3c-.141,0-.282-.008-.418-.008-9.27.008-18.531,5.086-18.555,5.094a.355.355,0,0,0-.176.4l.344-.086" fill="#231f20"/>
    <path id="Path_34" data-name="Path 34" d="M166.883,244.852s14.719-4.008,19.7-3.7c0,0-19.328,6-19.7,3.7"/>
    <path id="Path_35" data-name="Path 35" d="M166.883,244.852l.09.343.6-.16c1.344-.359,4.778-1.246,8.465-2.047A57.15,57.15,0,0,1,186,241.48c.2,0,.387.008.559.02l.023-.352-.106-.339s-.21.066-.593.183c-1.328.4-4.727,1.414-8.285,2.321a47.786,47.786,0,0,1-9.231,1.71,3.212,3.212,0,0,1-.941-.1.534.534,0,0,1-.18-.09l-.02-.031-.347.055.09.343-.09-.343-.352.058a.781.781,0,0,0,.246.445,1.421,1.421,0,0,0,.68.3,4.261,4.261,0,0,0,.914.078,26.942,26.942,0,0,0,4.859-.667c5.793-1.2,13.454-3.579,13.461-3.579a.354.354,0,0,0,.243-.379.349.349,0,0,0-.329-.308c-.187-.016-.39-.02-.6-.02-2.8,0-7.57.938-11.684,1.871s-7.527,1.86-7.531,1.864a.358.358,0,0,0-.258.4l.352-.058" fill="#231f20"/>
    <path id="Path_36" data-name="Path 36" d="M177.332,288.57c4.481,2.735,11.879,8.571,11.879,8.571-3.734-6.309-12.945-15.016-12.945-15.016,1.429.395,12.242,6.473,12.242,6.473-3.512-7.125-17.02-16.149-17.02-16.149l14.016,7.188c-3.316-4.653-19.5-15.082-19.5-15.082,4.313,1.859,15.848,7.7,15.848,7.7-6.91-8.293-22.93-15.375-22.93-15.375,5.109.309,19.941,7.957,19.941,7.957C162.43,249.73,145.5,248.324,145.5,248.324c.438,15.055,4.254,31.379,4.254,31.379,1.684-6.89,1.973-22.187,1.973-22.187-.1,11.937,4.2,28.4,4.2,28.4l2.012-18.48c-.708,9.093,3.816,29.105,3.816,29.105l3.332-18.781c1.035,7.871-.731,25.211-.731,25.211,3.1-4.848,6.055-16.325,6.055-16.325-.234,5.43-1.414,19.372-1.414,19.372a76.556,76.556,0,0,0,4.832-12.711c1.246,3.418.129,9.039.129,9.039,2.953,6.75,7.531,16.367,7.531,16.367a69.286,69.286,0,0,0-2.355-22.4l6.472,7.512c-1.363-6.969-8.273-15.258-8.273-15.258"/>
    <path id="Path_37" data-name="Path 37" d="M177.332,288.57l-.184.3c2.219,1.356,5.188,3.492,7.59,5.293,1.2.9,2.27,1.711,3.032,2.3s1.218.953,1.222.953a.348.348,0,0,0,.449-.012.352.352,0,0,0,.071-.445,65.519,65.519,0,0,0-7.914-9.938c-2.782-2.972-5.086-5.152-5.09-5.156l-.242.258-.094.34a8.114,8.114,0,0,1,.879.367c1.5.707,4.324,2.231,6.769,3.57,1.223.668,2.352,1.3,3.172,1.754s1.34.746,1.34.75a.352.352,0,0,0,.488-.465c-1.808-3.66-6.086-7.7-9.914-10.863s-7.218-5.418-7.222-5.422l-.2.293-.16.317,14.016,7.187a.351.351,0,0,0,.445-.519,27.135,27.135,0,0,0-4.508-4.387c-5.976-4.922-15.086-10.785-15.09-10.785l-.191.293-.141.328c2.141.922,6.106,2.847,9.524,4.535,1.711.848,3.289,1.633,4.437,2.211s1.868.941,1.868.941a.354.354,0,0,0,.429-.543c-3.508-4.207-9.265-8.054-14.148-10.875s-8.9-4.589-8.906-4.6l-.145.324-.02.355a21.254,21.254,0,0,1,5.172,1.352c3.145,1.133,6.8,2.773,9.676,4.133,1.438.679,2.672,1.285,3.555,1.722s1.394.7,1.394.707a.354.354,0,0,0,.4-.574c-16.512-15.179-33.524-16.6-33.567-16.605a.355.355,0,0,0-.273.1.363.363,0,0,0-.11.266c.442,15.1,4.258,31.438,4.262,31.449a.348.348,0,0,0,.34.274.353.353,0,0,0,.344-.266,90.061,90.061,0,0,0,1.629-13.742c.285-4.692.355-8.52.355-8.524a.36.36,0,0,0-.1-.253.369.369,0,0,0-.25-.106.353.353,0,0,0-.355.352c0,.136,0,.277,0,.418,0,11.972,4.211,28.054,4.215,28.074a.348.348,0,0,0,.363.262.358.358,0,0,0,.328-.317l2.012-18.48-.351-.035-.352-.032c-.051.676-.074,1.407-.074,2.176a111.191,111.191,0,0,0,1.949,17.2c.973,5.528,1.945,9.832,1.949,9.836a.353.353,0,0,0,.692-.015l3.328-18.778-.344-.062-.348.043a52.567,52.567,0,0,1,.317,6.457c0,4.16-.262,8.832-.524,12.461-.133,1.812-.261,3.371-.363,4.472s-.164,1.743-.164,1.743a.358.358,0,0,0,.234.371.353.353,0,0,0,.414-.145,49.475,49.475,0,0,0,4.227-10.062c1.133-3.485,1.875-6.36,1.875-6.368l-.344-.086-.351-.015c-.118,2.7-.473,7.547-.8,11.711-.16,2.082-.317,3.992-.43,5.383s-.187,2.261-.187,2.261a.353.353,0,0,0,.664.2,76.371,76.371,0,0,0,4.859-12.786l-.34-.089-.332.117a12.246,12.246,0,0,1,.567,4.039,27.258,27.258,0,0,1-.227,3.359c-.055.446-.113.809-.156,1.063s-.071.39-.071.39a.331.331,0,0,0,.024.211c2.961,6.762,7.535,16.375,7.535,16.375a.352.352,0,0,0,.383.2.358.358,0,0,0,.285-.329c.086-1.363.125-2.7.125-4a68.916,68.916,0,0,0-2.492-18.515l-.336.1-.266.235,6.469,7.508a.356.356,0,0,0,.617-.3c-.7-3.567-2.789-7.4-4.7-10.363a56.638,56.638,0,0,0-3.652-5.051l-.27.226-.184.3.184-.3-.269.227s.1.125.3.363a59.349,59.349,0,0,1,4.016,5.75,29.377,29.377,0,0,1,3.883,8.985l.347-.067.266-.234-6.469-7.508a.354.354,0,0,0-.6.336s.035.121.1.355a70,70,0,0,1,2.352,17.953c0,1.286-.035,2.61-.121,3.961l.355.024.317-.152s-.289-.6-.762-1.606c-1.426-3.019-4.551-9.7-6.766-14.754l-.32.145.344.07a28.305,28.305,0,0,0,.469-4.953,12.955,12.955,0,0,0-.61-4.277.345.345,0,0,0-.347-.235.354.354,0,0,0-.325.262s-.031.105-.09.312a74.535,74.535,0,0,1-4.718,12.328l.316.165.352.031s1.175-13.942,1.414-19.387a.343.343,0,0,0-.3-.363.35.35,0,0,0-.395.258s-.043.175-.132.5c-.305,1.125-1.106,4.015-2.165,7.148a43.962,43.962,0,0,1-3.714,8.578l.3.188.352.039c0-.008,1.055-10.379,1.055-18.75a52.831,52.831,0,0,0-.328-6.547.349.349,0,0,0-.34-.3.344.344,0,0,0-.356.289L161.4,296.477l.352.066.34-.082s-.055-.266-.164-.754c-.742-3.41-3.715-17.656-3.715-26.125,0-.758.023-1.469.078-2.117a.36.36,0,0,0-.32-.383.35.35,0,0,0-.383.316l-2.016,18.481.352.039.34-.09s-.067-.25-.18-.711c-.8-3.226-4.012-16.84-4.008-27.183v-.414a.352.352,0,1,0-.7-.008s-.02.953-.07,2.492c-.082,2.309-.242,5.93-.539,9.621a70.468,70.468,0,0,1-1.356,9.992l.344.086.34-.082s-.059-.254-.16-.726a181.8,181.8,0,0,1-4.082-30.582l-.352.011-.027.348s.062.008.183.019c1.875.207,17.645,2.313,32.961,16.4l.242-.258.161-.316s-3.715-1.915-8.071-3.868c-2.179-.98-4.519-1.964-6.64-2.734a22.05,22.05,0,0,0-5.368-1.391.356.356,0,0,0-.363.27.349.349,0,0,0,.2.406s.246.11.7.32a107.725,107.725,0,0,1,10,5.34c4.386,2.657,9.133,6.043,12.109,9.617l.27-.226.16-.313c-.008,0-11.535-5.839-15.867-7.707a.353.353,0,0,0-.453.161.349.349,0,0,0,.121.46s.254.161.7.454c1.57,1.031,5.543,3.664,9.476,6.546,1.969,1.442,3.926,2.946,5.571,4.34a23.448,23.448,0,0,1,3.66,3.649l.289-.207.156-.313-14.012-7.187a.351.351,0,0,0-.355.605s.207.141.582.4a101.181,101.181,0,0,1,8.023,6.191c3.379,2.914,6.805,6.391,8.293,9.418l.317-.156.172-.309s-2.707-1.519-5.59-3.09c-1.445-.785-2.93-1.582-4.149-2.211-.609-.316-1.152-.586-1.589-.793a7.8,7.8,0,0,0-.993-.414.357.357,0,0,0-.4.168.362.362,0,0,0,.062.434s.145.129.4.383c.9.871,3.215,3.144,5.707,5.882a59.134,59.134,0,0,1,6.773,8.672l.3-.179.215-.278s-7.4-5.84-11.91-8.593a.349.349,0,0,0-.45.07.354.354,0,0,0,0,.457l.269-.227" fill="#231f20"/>
    <path id="Path_38" data-name="Path 38" d="M107.465,220.07c-2.754-4.468-8.621-11.851-8.621-11.851,6.316,3.707,15.062,12.883,15.062,12.883-.4-1.426-6.531-12.223-6.531-12.223,7.129,3.469,16.211,16.953,16.211,16.953l-7.254-14c4.664,3.3,15.164,19.453,15.164,19.453-1.875-4.308-7.773-15.832-7.773-15.832,8.316,6.875,15.48,22.879,15.48,22.879-.336-5.113-8.055-19.93-8.055-19.93,15.172,16.371,16.676,33.325,16.676,33.325-15.031-.356-31.351-4.079-31.351-4.079,6.871-1.73,22.132-2.1,22.132-2.1-11.91.168-28.371-4.043-28.371-4.043l18.438-2.125c-9.078.766-29.074-3.652-29.074-3.652l18.726-3.45c-7.863-.988-25.164.875-25.164.875,4.824-3.128,16.262-6.156,16.262-6.156-5.418.27-19.328,1.531-19.328,1.531a76.195,76.195,0,0,1,12.66-4.918c-3.418-1.226-9.023-.074-9.023-.074-6.754-2.922-16.379-7.449-16.379-7.449a68.922,68.922,0,0,1,22.371,2.227l-7.535-6.442c6.961,1.324,15.277,8.2,15.277,8.2"/>
    <g id="Group_7" data-name="Group 7">
      <path id="Path_39" data-name="Path 39" d="M107.465,220.07l.3-.183c-2.782-4.5-8.645-11.879-8.645-11.887l-.277.219-.18.3a64.525,64.525,0,0,1,9.84,7.786c1.484,1.375,2.769,2.636,3.687,3.55.457.457.825.829,1.075,1.086s.382.4.386.4a.35.35,0,0,0,.59-.34,7.6,7.6,0,0,0-.414-.988c-1.461-3.055-6.144-11.309-6.148-11.313l-.305.176-.156.316c3.465,1.68,7.519,5.9,10.664,9.688,1.574,1.894,2.93,3.68,3.887,5,.48.656.863,1.2,1.121,1.57s.4.578.4.578a.355.355,0,0,0,.473.11.359.359,0,0,0,.136-.469l-7.257-14-.313.164-.2.289a26.541,26.541,0,0,1,4.269,4.363c2.45,2.954,5.153,6.707,7.243,9.715,1.043,1.5,1.933,2.824,2.566,3.77s1,1.5,1,1.508a.353.353,0,0,0,.461.117.347.347,0,0,0,.156-.449c-1.886-4.332-7.781-15.852-7.781-15.856l-.316.164-.223.27c4.1,3.386,7.957,9.086,10.777,13.925,1.411,2.426,2.559,4.633,3.36,6.235.4.8.711,1.453.922,1.9s.324.692.324.692a.344.344,0,0,0,.4.2.354.354,0,0,0,.27-.363,22.02,22.02,0,0,0-1.422-5.375,151.667,151.667,0,0,0-6.676-14.7l-.309.16-.261.243a66.99,66.99,0,0,1,13.957,22.675,54.955,54.955,0,0,1,2.16,7.571c.187.918.305,1.632.375,2.125.035.242.059.429.07.554a1.324,1.324,0,0,1,.02.184l.355-.027.008-.356a160.119,160.119,0,0,1-21.262-2.164c-2.976-.488-5.48-.965-7.242-1.316-.879-.18-1.574-.328-2.047-.43s-.726-.156-.726-.16l-.082.347.09.34a88.776,88.776,0,0,1,13.578-1.687c2.332-.156,4.453-.258,5.988-.317s2.484-.086,2.484-.086a.354.354,0,0,0-.011-.707c-.235,0-.469,0-.707,0a105.981,105.981,0,0,1-18.207-2.019c-2.711-.5-5.055-1.008-6.715-1.387-.836-.187-1.5-.344-1.953-.457s-.7-.172-.7-.172l-.09.34.043.352,18.438-2.125a.353.353,0,0,0,.308-.387.35.35,0,0,0-.378-.317c-.711.059-1.493.09-2.336.09a112.077,112.077,0,0,1-16.961-1.871c-2.727-.465-5.145-.929-6.883-1.281-.867-.176-1.567-.32-2.047-.426s-.746-.156-.746-.156l-.074.344.063.347,18.731-3.449a.352.352,0,0,0-.02-.7,49.372,49.372,0,0,0-6-.293c-8.445,0-19.246,1.164-19.254,1.164l.039.351.191.3a48.482,48.482,0,0,1,9.859-4.211c1.727-.57,3.305-1.05,4.445-1.379.574-.167,1.039-.3,1.36-.386l.5-.133a.354.354,0,0,0-.11-.695c-5.437.265-19.343,1.527-19.347,1.531l.035.351.164.309a64.061,64.061,0,0,1,8.348-3.523c1.234-.434,2.3-.77,3.05-1.008.379-.113.676-.2.883-.262s.309-.094.313-.094a.353.353,0,0,0,.023-.672,12.742,12.742,0,0,0-4.152-.585,28.532,28.532,0,0,0-5.062.5l.07.347.141-.328c-3.375-1.457-7.465-3.316-10.715-4.812-1.625-.75-3.039-1.407-4.047-1.875s-1.605-.754-1.609-.754l-.148.32.023.356c1.477-.106,2.922-.153,4.324-.153a71.559,71.559,0,0,1,12.781,1.184c1.605.293,2.891.59,3.777.812.441.11.785.2,1.012.266l.348.1a.352.352,0,0,0,.414-.168.348.348,0,0,0-.082-.434L92.414,211.6l-.227.265-.066.348c3.4.644,7.2,2.676,10.129,4.551,1.465.933,2.715,1.832,3.594,2.488.441.332.793.6,1.031.793s.363.3.363.3a.355.355,0,0,0,.528-.457l-.3.183.223-.273a56.1,56.1,0,0,0-5.059-3.629c-2.973-1.9-6.813-3.969-10.375-4.648a.356.356,0,0,0-.3.617l7.535,6.441.23-.269.1-.34A68.891,68.891,0,0,0,81.7,215.582c-1.414,0-2.879.047-4.371.148a.354.354,0,0,0-.129.672s9.629,4.528,16.391,7.45a.336.336,0,0,0,.215.023s.141-.027.4-.07a27.125,27.125,0,0,1,4.516-.41,11.9,11.9,0,0,1,3.914.543l.117-.333-.094-.339a76.369,76.369,0,0,0-12.73,4.945.346.346,0,0,0-.176.41.356.356,0,0,0,.371.254s.867-.082,2.258-.2c4.164-.367,13-1.129,17.058-1.324l-.019-.356-.09-.34s-2.871.758-6.344,1.911a49.08,49.08,0,0,0-10.023,4.292.354.354,0,0,0,.23.649s.676-.074,1.816-.184c3.426-.328,11.074-.984,17.363-.984a49.958,49.958,0,0,1,5.906.289l.043-.352-.062-.347-18.731,3.449a.353.353,0,0,0-.012.691c.016,0,16.941,3.747,26.789,3.75.855,0,1.656-.027,2.394-.089l-.031-.352-.039-.352-18.438,2.129a.353.353,0,0,0-.047.692c.012,0,15.829,4.054,27.747,4.054h.718l-.008-.355-.007-.352s-3.825.094-8.5.4a89.6,89.6,0,0,0-13.7,1.711.352.352,0,0,0,.007.687c.012,0,16.336,3.735,31.415,4.086a.355.355,0,0,0,.359-.383c0-.047-1.516-17.078-16.766-33.531a.353.353,0,0,0-.57.406s.117.227.332.641c.738,1.449,2.594,5.148,4.3,9.035.851,1.942,1.664,3.934,2.281,5.711a18.854,18.854,0,0,1,1.106,4.4l.351-.023.32-.141c0-.007-1.8-4.019-4.636-8.9s-6.719-10.621-10.938-14.113a.353.353,0,0,0-.539.433s.367.719.949,1.867c1.746,3.438,5.418,10.735,6.817,13.946l.32-.141.3-.2s-2.629-4.043-5.844-8.5c-1.6-2.231-3.359-4.563-5.008-6.551a27.185,27.185,0,0,0-4.406-4.492.346.346,0,0,0-.433.023.351.351,0,0,0-.082.426l7.253,14,.313-.16.293-.2s-2.281-3.383-5.453-7.2-7.238-8.078-10.9-9.867a.349.349,0,0,0-.414.074.355.355,0,0,0-.047.414s.383.676.965,1.711c.867,1.551,2.184,3.906,3.321,6.011.566,1.055,1.086,2.04,1.484,2.829.2.394.371.738.492,1.015a4.819,4.819,0,0,1,.238.578l.34-.093.254-.247s-2.2-2.3-5.176-5.066a65.135,65.135,0,0,0-9.965-7.875.353.353,0,0,0-.453.524s.367.46.957,1.222c1.778,2.281,5.594,7.274,7.641,10.594l.3-.184.223-.273-.223.273" fill="#231f20"/>
    </g>
    <path id="Path_41" data-name="Path 41" d="M98.5,264.336c-5.219-.516-14.633-.316-14.633-.316,6.77-2.786,19.356-4.184,19.356-4.184-1.375-.547-13.66-2.211-13.66-2.211,7.082-3.574,23.289-2.637,23.289-2.637L97.34,252.277c5.445-1.718,24.637-.281,24.637-.281-4.559-1.117-17.282-3.41-17.282-3.41,10.5-2.453,27.551,1.547,27.551,1.547-4.266-2.832-20.7-5.672-20.7-5.672,22.191-2.156,36.559,6.926,36.559,6.926-9.4,11.761-22.25,22.5-22.25,22.5,2.793-6.52,11.753-18.907,11.753-18.907-7.089,9.59-20.414,20.145-20.414,20.145l9.493-15.973c-4.895,7.7-20.532,20.946-20.532,20.946l8.621-17.012c-5.558,5.668-14.566,20.578-14.566,20.578.441-5.738,4.977-16.687,4.977-16.687-3.075,4.48-10.508,16.324-10.508,16.324a76.524,76.524,0,0,1,3.777-13.071c-3.051,1.981-5.535,7.145-5.535,7.145-6.414,3.609-15.844,8.531-15.844,8.531a69.093,69.093,0,0,1,15.332-16.465l-9.68,2.09c5.273-4.742,15.773-7.2,15.773-7.2"/>
    <g id="Group_8" data-name="Group 8">
      <path id="Path_42" data-name="Path 42" d="M98.5,264.336l.035-.348c-2.977-.3-7.273-.359-10.449-.359-2.445,0-4.227.039-4.23.039l.012.352.133.328a64.172,64.172,0,0,1,12.145-3.118c1.992-.351,3.77-.613,5.054-.785.641-.086,1.156-.152,1.512-.2s.551-.066.551-.066a.353.353,0,0,0,.312-.3.347.347,0,0,0-.222-.371,7.457,7.457,0,0,0-1.039-.274c-3.3-.687-12.7-1.957-12.7-1.961l-.047.352.156.313a28.212,28.212,0,0,1,8.9-2.215,85.1,85.1,0,0,1,9.5-.493c1.4,0,2.578.028,3.406.059s1.305.055,1.305.055a.354.354,0,0,0,.078-.7L97.4,251.93l-.062.347.105.336a20.162,20.162,0,0,1,4.207-.644c1.754-.129,3.782-.184,5.856-.184,3.469,0,7.078.141,9.824.281,1.371.071,2.527.141,3.336.2s1.281.086,1.281.086a.354.354,0,0,0,.11-.7c-4.582-1.121-17.3-3.414-17.3-3.414l-.063.348.082.344a36.3,36.3,0,0,1,8.082-.785,86.874,86.874,0,0,1,13.161,1.164c1.832.293,3.367.586,4.449.8.539.11.961.2,1.25.266s.445.1.445.1a.352.352,0,0,0,.274-.637,21.843,21.843,0,0,0-5.122-2.125,154.07,154.07,0,0,0-15.714-3.6l-.059.348.031.355c2.348-.23,4.6-.332,6.766-.332a65.22,65.22,0,0,1,21.617,3.61,50.705,50.705,0,0,1,5.906,2.476c.676.336,1.192.618,1.535.813.172.1.3.176.387.226s.129.079.129.079l.188-.3-.278-.219a159.875,159.875,0,0,1-14.609,15.621c-2.192,2.074-4.09,3.781-5.438,4.969-.675.6-1.214,1.058-1.582,1.375l-.566.48.223.274.328.136a88.83,88.83,0,0,1,6.89-11.839c1.293-1.954,2.5-3.7,3.379-4.965.442-.629.8-1.141,1.051-1.489s.391-.542.391-.542a.356.356,0,0,0-.078-.493.35.35,0,0,0-.489.075A102.22,102.22,0,0,1,124.5,268.387c-2.1,1.918-3.984,3.535-5.344,4.672-.676.566-1.222,1.015-1.6,1.324s-.582.469-.586.469l.222.273.3.184,9.492-15.977a.351.351,0,1,0-.6-.371c-2.41,3.789-7.535,9.031-12.047,13.293-2.254,2.133-4.36,4.027-5.9,5.391-.773.675-1.4,1.222-1.839,1.6s-.676.582-.676.582l.226.27.317.16,8.621-17.012a.351.351,0,0,0-.567-.4c-2.816,2.867-6.457,8.015-9.41,12.461s-5.207,8.175-5.207,8.175l.3.184.352.027a49.021,49.021,0,0,1,2.632-10.406c.594-1.722,1.176-3.269,1.606-4.379.215-.558.394-1.008.516-1.316s.195-.481.195-.481a.352.352,0,0,0-.617-.332c-3.082,4.5-10.512,16.336-10.516,16.336l.3.188.348.058a63.813,63.813,0,0,1,2.266-8.789c.4-1.246.777-2.3,1.051-3.039.137-.371.246-.664.32-.863s.121-.3.121-.3a.353.353,0,0,0-.52-.425,15.363,15.363,0,0,0-4.016,4.417,29.29,29.29,0,0,0-1.648,2.868l.32.152-.172-.309c-3.2,1.8-7.164,3.934-10.324,5.618-1.578.839-2.957,1.566-3.941,2.086s-1.57.824-1.574.824l.168.312.289.2A69.631,69.631,0,0,1,87.52,274.07c1.488-1.406,2.762-2.5,3.664-3.23.453-.367.809-.649,1.055-.836.121-.094.215-.16.277-.207l.094-.07a.35.35,0,0,0,.117-.43.353.353,0,0,0-.4-.2l-9.676,2.094.074.343.238.266c2.57-2.32,6.484-4.113,9.746-5.309,1.633-.6,3.1-1.05,4.164-1.351.527-.153.957-.266,1.25-.34s.453-.113.453-.113a.355.355,0,0,0,.273-.368.349.349,0,0,0-.316-.328l-.035.348-.082-.34a54.97,54.97,0,0,0-5.949,1.828c-3.3,1.219-7.277,3.02-9.977,5.446a.353.353,0,0,0,.309.609l9.676-2.094-.07-.344-.207-.289a69.479,69.479,0,0,0-15.422,16.563.353.353,0,0,0,.031.43.358.358,0,0,0,.426.074s9.434-4.922,15.855-8.535a.366.366,0,0,0,.145-.153s.039-.078.113-.218a28.218,28.218,0,0,1,1.875-3.153,13.752,13.752,0,0,1,3.422-3.629l-.191-.3-.328-.128a77.109,77.109,0,0,0-3.8,13.14.359.359,0,0,0,.223.391.351.351,0,0,0,.422-.145s.465-.742,1.211-1.918c2.234-3.539,6.988-11.047,9.289-14.394l-.289-.2-.329-.137s-1.136,2.746-2.328,6.211a49.618,49.618,0,0,0-2.672,10.59.353.353,0,0,0,.246.359.346.346,0,0,0,.41-.152l.394-.649c.9-1.465,3.223-5.2,5.93-9.191a85.543,85.543,0,0,1,8.191-10.672l-.254-.25-.316-.16-8.621,17.012a.355.355,0,0,0,.1.437.347.347,0,0,0,.445-.008s3.918-3.316,8.445-7.6,9.668-9.52,12.156-13.426l-.3-.188-.305-.179-9.492,15.976a.343.343,0,0,0,.074.442.348.348,0,0,0,.449.015c.008-.011,13.34-10.562,20.477-20.215l-.282-.211-.285-.21s-2.246,3.1-4.836,7.019a89.3,89.3,0,0,0-6.953,11.957.354.354,0,0,0,.114.422.345.345,0,0,0,.433-.012c.012-.008,12.871-10.75,22.3-22.547a.352.352,0,0,0,.074-.277.358.358,0,0,0-.16-.242c-.035-.024-11.574-7.313-29.949-7.313-2.184,0-4.465.1-6.832.336a.351.351,0,0,0-.028.7l.715.129c1.6.289,5.657,1.054,9.774,2.054,2.062.5,4.136,1.059,5.922,1.645a18.68,18.68,0,0,1,4.16,1.793l.2-.3.078-.344a99.144,99.144,0,0,0-19.465-2.351,37.167,37.167,0,0,0-8.246.8.356.356,0,0,0,.02.7s.793.14,2.058.375c3.786.695,11.805,2.195,15.2,3.027l.086-.34.027-.355c-.008,0-7.52-.563-14.5-.563-2.086,0-4.129.055-5.906.188a20.385,20.385,0,0,0-4.368.675.351.351,0,0,0-.246.36.361.361,0,0,0,.289.328l15.516,2.707.059-.348.019-.351s-1.933-.11-4.75-.11a85.154,85.154,0,0,0-9.586.5,28.674,28.674,0,0,0-9.133,2.286.361.361,0,0,0-.191.375.358.358,0,0,0,.3.293s.77.1,1.941.265c1.758.25,4.43.629,6.789,1,1.176.188,2.278.371,3.149.531.429.082.8.157,1.1.223a4.632,4.632,0,0,1,.6.168l.129-.328-.039-.356s-3.157.356-7.161,1.055A64.553,64.553,0,0,0,83.73,263.7a.352.352,0,0,0-.211.4.361.361,0,0,0,.355.281l1.188-.02c.75-.007,1.8-.019,3.023-.019,3.168,0,7.457.066,10.379.355l.035-.355-.082-.34.082.34" fill="#231f20"/>
    </g>
    <path id="Path_44" data-name="Path 44" d="M112.129,288.242c-4.734,2.254-12.7,7.3-12.7,7.3,4.367-5.891,14.426-13.6,14.426-13.6-1.457.243-12.84,5.172-12.84,5.172,4.226-6.722,18.59-14.3,18.59-14.3l-14.684,5.7c3.781-4.285,20.957-12.981,20.957-12.981-4.477,1.4-16.555,6.016-16.555,6.016,7.731-7.527,24.391-12.918,24.391-12.918-5.113-.223-20.656,5.848-20.656,5.848,17.9-13.325,34.883-12.969,34.883-12.969-1.989,14.926-7.461,30.769-7.461,30.769-.969-7.027.324-22.269.324-22.269-1.133,11.883-7.11,27.816-7.11,27.816l-.093-18.6c-.231,9.125-6.8,28.558-6.8,28.558l-1.379-19.027c-1.84,7.726-1.875,25.156-1.875,25.156-2.578-5.144-4.336-16.871-4.336-16.871-.328,5.43-.594,19.418-.594,19.418a76.339,76.339,0,0,1-3.492-13.145c-1.594,3.274-1.062,8.981-1.062,8.981-3.637,6.406-9.18,15.5-9.18,15.5a69.416,69.416,0,0,1,4.652-22.031l-7.211,6.8c2.074-6.786,9.805-14.317,9.805-14.317"/>
    <path id="Path_45" data-name="Path 45" d="M112.129,288.242l-.152-.32c-4.774,2.273-12.731,7.312-12.735,7.316l.184.3.285.207a64.187,64.187,0,0,1,8.8-8.949c1.527-1.328,2.914-2.473,3.926-3.285.5-.407.91-.727,1.191-.953s.441-.336.441-.336a.364.364,0,0,0,.11-.426.36.36,0,0,0-.383-.207,7.914,7.914,0,0,0-1.027.312c-3.184,1.118-11.891,4.883-11.895,4.887l.141.324.3.188c2.05-3.27,6.675-6.848,10.777-9.563,2.051-1.363,3.973-2.519,5.379-3.328.707-.406,1.281-.73,1.68-.949s.617-.336.621-.336a.353.353,0,0,0-.293-.641l-14.68,5.7.125.332.266.234a26.587,26.587,0,0,1,4.8-3.777c3.2-2.117,7.211-4.4,10.422-6.149,1.61-.875,3.02-1.621,4.024-2.144s1.6-.824,1.605-.828a.354.354,0,0,0-.265-.653c-4.5,1.407-16.571,6.02-16.579,6.02l.129.332.243.254c3.808-3.715,9.882-6.938,15-9.215,2.554-1.141,4.871-2.047,6.55-2.664.84-.313,1.516-.551,1.985-.711s.726-.246.726-.246a.352.352,0,0,0-.093-.688c-.1,0-.2-.007-.305-.007a25.022,25.022,0,0,0-5.539.925,155.927,155.927,0,0,0-14.957,4.953l.129.329.211.285c16.91-12.59,33-12.907,34.547-12.907.078,0,.117,0,.117,0l.008-.351-.348-.047a160.626,160.626,0,0,1-4.469,20.934c-.808,2.91-1.551,5.351-2.094,7.066-.273.859-.492,1.531-.648,1.992s-.234.707-.234.707l.332.117.347-.047a55.747,55.747,0,0,1-.355-7.046c0-3.539.172-7.329.34-10.231.086-1.453.171-2.68.238-3.547s.1-1.367.1-1.367a.351.351,0,1,0-.7-.062,102.644,102.644,0,0,1-3.969,18.293c-.816,2.73-1.6,5.085-2.171,6.761-.29.836-.528,1.5-.692,1.961s-.258.7-.258.7l.328.129.352,0-.094-18.6a.354.354,0,0,0-.707,0c-.109,4.492-1.8,11.629-3.469,17.613-.835,2.992-1.66,5.707-2.281,7.664-.308.984-.566,1.774-.742,2.324l-.285.852.336.113.351-.027-1.379-19.024a.353.353,0,0,0-.695-.058c-.93,3.914-1.4,10.207-1.637,15.543s-.25,9.691-.25,9.691l.356,0,.312-.16a49.14,49.14,0,0,1-3.105-10.277c-.375-1.782-.676-3.4-.879-4.582-.105-.586-.184-1.063-.234-1.391s-.082-.508-.082-.512a.349.349,0,0,0-.368-.3.355.355,0,0,0-.336.328c-.324,5.45-.589,19.426-.589,19.43l.351.008.328-.129a64.1,64.1,0,0,1-2.586-8.7c-.293-1.274-.515-2.371-.664-3.149s-.222-1.226-.222-1.226a.354.354,0,0,0-.668-.1,17.075,17.075,0,0,0-1.18,6.918c0,1.32.086,2.242.086,2.25l.352-.031-.305-.176c-1.817,3.2-4.113,7.074-5.953,10.145-.918,1.535-1.723,2.875-2.3,3.824l-.926,1.519.3.184.355.016a69.375,69.375,0,0,1,2.5-15.555c.543-1.977,1.078-3.566,1.473-4.664.195-.547.359-.973.473-1.258s.175-.43.175-.434a.352.352,0,0,0-.566-.394l-7.211,6.8.242.258.336.1c1.008-3.312,3.438-6.875,5.617-9.586,1.09-1.355,2.114-2.5,2.868-3.308.375-.4.683-.723.9-.938s.332-.332.332-.332a.354.354,0,0,0-.4-.574l.152.32-.25-.254a58.378,58.378,0,0,0-4.152,4.645c-2.2,2.75-4.676,6.347-5.739,9.824a.352.352,0,0,0,.578.359l7.211-6.8-.242-.254-.324-.141a69.659,69.659,0,0,0-4.68,22.16.354.354,0,0,0,.653.2s5.546-9.1,9.183-15.511a.35.35,0,0,0,.043-.207s0-.051-.008-.157c-.027-.308-.074-1.058-.074-2.027a16.478,16.478,0,0,1,1.113-6.605l-.316-.157-.352.059a76.909,76.909,0,0,0,3.516,13.215.352.352,0,0,0,.68-.121s.019-.875.047-2.27c.093-4.187.3-13.074.547-17.133l-.352-.023-.352.055s.446,2.941,1.207,6.527a49.411,49.411,0,0,0,3.161,10.445.354.354,0,0,0,.671-.156s0-1.082.032-2.84c.05-2.625.168-6.75.441-10.941a75.386,75.386,0,0,1,1.395-11.293l-.344-.082-.352.023,1.379,19.028a.352.352,0,0,0,.684.089s1.644-4.871,3.316-10.875,3.379-13.156,3.5-17.789l-.351-.007-.356,0,.1,18.594a.359.359,0,0,0,.293.344.349.349,0,0,0,.39-.223c0-.015,5.985-15.945,7.129-27.9l-.351-.035-.352-.031c0,.007-.687,8.082-.687,15.207a56.05,56.05,0,0,0,.363,7.14.354.354,0,0,0,.684.067c0-.008,5.484-15.864,7.48-30.836a.367.367,0,0,0-.082-.278.355.355,0,0,0-.258-.125h-.136c-1.633,0-17.887.325-34.965,13.043a.353.353,0,0,0-.1.453.36.36,0,0,0,.438.161s.234-.094.652-.254c1.469-.559,5.215-1.957,9.176-3.215,1.98-.629,4.011-1.223,5.84-1.656a21.864,21.864,0,0,1,4.57-.707c.094,0,.187,0,.273,0l.016-.351-.106-.336c-.007,0-4.183,1.352-9.332,3.648s-11.273,5.532-15.2,9.352a.349.349,0,0,0-.054.441.358.358,0,0,0,.425.141s.754-.289,1.957-.742c3.6-1.363,11.239-4.219,14.578-5.266l-.105-.336-.16-.312s-4.3,2.176-9.074,4.89c-2.391,1.356-4.895,2.848-7.047,4.274a27.116,27.116,0,0,0-4.938,3.894.352.352,0,0,0,.391.563l14.68-5.7-.125-.332-.168-.309s-3.606,1.9-7.739,4.644-8.8,6.325-10.98,9.774a.354.354,0,0,0,.031.422.348.348,0,0,0,.406.094s.711-.309,1.8-.774c1.633-.7,4.121-1.75,6.332-2.652,1.106-.449,2.141-.86,2.969-1.172.414-.156.77-.285,1.059-.379a4.525,4.525,0,0,1,.6-.172l-.058-.348-.215-.281s-2.524,1.934-5.59,4.6a65.016,65.016,0,0,0-8.9,9.062.353.353,0,0,0,.469.512s.5-.316,1.317-.824c2.457-1.52,7.828-4.774,11.347-6.449l-.148-.321-.25-.254.25.254" fill="#231f20"/>
    <g id="Group_9" data-name="Group 9">
      <path id="Path_46" data-name="Path 46" d="M398.035,429.086V336.359H339.973v92.727h-21.3v1.625H419.336v-1.625Zm-56.433,0V337.98H396.41v91.106Zm0,0"/>
    </g>
    <path id="Path_48" data-name="Path 48" d="M389.762,385.156A3.661,3.661,0,0,0,386.1,388.8v2.972a3.662,3.662,0,0,0,7.324,0V388.8A3.661,3.661,0,0,0,389.762,385.156Zm2.035,6.621a2.035,2.035,0,0,1-4.07,0V388.8a2.035,2.035,0,0,1,4.07,0Zm0,0"/>
    <g id="Group_10" data-name="Group 10">
      <path id="Path_49" data-name="Path 49" d="M489.457,362.121h-15.93V339.559h15.93Zm0,25.406h-15.93V364.961h15.93Zm-18.75-25.406h-15.93V339.559h15.93Zm0,25.406h-15.93V364.961h15.93ZM449.6,334.859v57.368h45.039V334.859H449.6" fill="#040606"/>
    </g>
    <path id="Path_51" data-name="Path 51" d="M3.757,0H185.249" transform="translate(273.349 174.775)" fill="none" stroke="#000" stroke-linecap="round" stroke-width="7.515"/>
    <path id="Path_52" data-name="Path 52" d="M3.723,0,45.786,0" transform="matrix(0.688, -0.726, 0.726, 0.688, 242.044, 209.916)" fill="none" stroke="#000" stroke-linecap="round" stroke-width="7.527"/>
    <path id="Path_53" data-name="Path 53" d="M3.723,0h37.56" transform="matrix(-0.694, -0.72, 0.72, -0.694, 488.109, 206.093)" fill="none" stroke="#000" stroke-linecap="round" stroke-width="7.525"/>
    <g id="Group_11" data-name="Group 11">
      <path id="Path_54" data-name="Path 54" d="M575.7,301.543V336.73h7.039v98.524h7.039V336.73H730.57v98.524h7.039V336.73h7.039V301.543Zm7.039,7.039H737.609v21.109H582.738Zm17.6,7.035v7.039h7.043v-7.039Zm21.121,0v7.039H628.5v-7.039Zm21.117,0v7.039h35.2v-7.039Zm49.278,0v7.039h7.039v-7.039Zm21.121,0v7.039h7.039v-7.039Zm-72.2,38.707a17.633,17.633,0,0,0-16.32,11.008l-5.8,14.391-2.543,2.531a17.546,17.546,0,0,0-5.211,12.492v33.469a7.086,7.086,0,0,0,7.04,7.039h3.519a7.088,7.088,0,0,0,7.039-7.039v-2.086a241.574,241.574,0,0,0,63.356,0v2.086a7.088,7.088,0,0,0,7.039,7.039h3.523a7.088,7.088,0,0,0,7.039-7.039V394.746a17.559,17.559,0,0,0-5.211-12.492l-2.547-2.531-5.8-14.391a17.63,17.63,0,0,0-16.321-11.008Zm0,7.035h38.8a10.549,10.549,0,0,1,9.789,6.614l6.078,15.062a3.611,3.611,0,0,0,.8,1.184l3.055,3.039a10.553,10.553,0,0,1,3.121,7.488v33.469h-3.523v-5.828a3.52,3.52,0,0,0-4.082-3.477c-6.985,1.129-18.079,2.27-34.633,2.27s-27.653-1.141-34.637-2.27a3.523,3.523,0,0,0-4.082,3.477v5.828h-3.519V394.746a10.536,10.536,0,0,1,3.121-7.488l3.05-3.039a3.535,3.535,0,0,0,.8-1.184l6.078-15.062A10.55,10.55,0,0,1,640.773,361.359Zm-10.515,35.188a5.279,5.279,0,1,0,5.277,5.277A5.281,5.281,0,0,0,630.258,396.547Zm59.836,0a5.279,5.279,0,1,0,5.277,5.277A5.284,5.284,0,0,0,690.094,396.547Zm-44,3.519v7.039h28.16v-7.039Zm0,0"/>
    </g>
  </g>
</svg>
