<svg xmlns="http://www.w3.org/2000/svg" width="330.414" height="258.753" viewBox="0 0 330.414 258.753">
  <defs>
    <clipPath id="clip-path">
      <path id="Path_2" data-name="Path 2" d="M353.07,318.48H521.82v133.5H353.07Zm0,0"/>
    </clipPath>
    <clipPath id="clip-path-2">
      <path id="Path_6" data-name="Path 6" d="M250,193.227h38V269H250Zm0,0"/>
    </clipPath>
    <clipPath id="clip-path-3">
      <path id="Path_8" data-name="Path 8" d="M249,193.227h40V269H249Zm0,0"/>
    </clipPath>
    <clipPath id="clip-path-4">
      <path id="Path_17" data-name="Path 17" d="M260,254h75.406v40H260Zm0,0"/>
    </clipPath>
    <clipPath id="clip-path-5">
      <path id="Path_26" data-name="Path 26" d="M191.406,225H264v45H191.406Zm0,0"/>
    </clipPath>
    <clipPath id="clip-path-6">
      <path id="Path_28" data-name="Path 28" d="M191.406,261H263v43H191.406Zm0,0"/>
    </clipPath>
    <clipPath id="clip-path-7">
      <path id="Path_30" data-name="Path 30" d="M191.406,260H264v44H191.406Zm0,0"/>
    </clipPath>
  </defs>
  <g id="surface5" transform="translate(-191.406 -193.227)">
    <g id="Group_1" data-name="Group 1">
      <path id="Path_1" data-name="Path 1" d="M353.117,318.48v35.184h7.039v98.527H367.2V353.664H507.988v98.527h7.039V353.664h7.039V318.48Zm7.039,7.036H515.027v21.113H360.156Zm17.6,7.039v7.035h7.039v-7.035Zm21.121,0v7.035h7.039v-7.035Zm21.117,0v7.035h35.2v-7.035Zm49.278,0v7.035h7.039v-7.035Zm21.121,0v7.035h7.039v-7.035Zm-72.2,38.7a17.626,17.626,0,0,0-16.32,11.012l-5.8,14.39-2.547,2.528a17.575,17.575,0,0,0-5.21,12.5v33.468a7.091,7.091,0,0,0,7.042,7.039h3.52a7.09,7.09,0,0,0,7.039-7.039v-2.089a241.228,241.228,0,0,0,63.356,0v2.089a7.09,7.09,0,0,0,7.039,7.039h3.519a7.091,7.091,0,0,0,7.043-7.039V411.684a17.571,17.571,0,0,0-5.211-12.5l-2.547-2.528-5.8-14.39a17.628,17.628,0,0,0-16.321-11.012Zm0,7.039h38.8a10.551,10.551,0,0,1,9.789,6.609l6.078,15.067a3.606,3.606,0,0,0,.8,1.183l3.051,3.035a10.554,10.554,0,0,1,3.121,7.493v33.468h-3.519v-5.828a3.52,3.52,0,0,0-4.082-3.476c-6.985,1.125-18.082,2.265-34.637,2.265s-27.649-1.14-34.633-2.265a3.518,3.518,0,0,0-4.082,3.476v5.828h-3.52V411.684a10.551,10.551,0,0,1,3.122-7.493l3.05-3.035a3.576,3.576,0,0,0,.8-1.183l6.078-15.067A10.552,10.552,0,0,1,418.191,378.3Zm-10.519,35.187a5.277,5.277,0,1,0,5.281,5.278A5.278,5.278,0,0,0,407.672,413.484Zm59.84,0a5.277,5.277,0,1,0,5.277,5.278A5.28,5.28,0,0,0,467.512,413.484Zm-44,3.52v7.035h28.16V417Zm0,0"/>
    </g>
    <path id="Path_3" data-name="Path 3" d="M260.781,267.352S236,344.867,234.855,446.047c0,0,7.469,5.926,17.747-2.117,0,0-4.9-93.641,8.179-176.578"/>
    <path id="Path_4" data-name="Path 4" d="M260.781,267.352l-.336-.11c-.007.024-24.8,77.567-25.941,178.8a.359.359,0,0,0,.133.281,12.279,12.279,0,0,0,7.183,2.18c3.008,0,6.789-1,11-4.3a.345.345,0,0,0,.133-.3s-.054-1.07-.14-3.086c-.25-6.051-.758-20.609-.758-40.211,0-34.906,1.605-85.812,9.078-133.207a.355.355,0,0,0-.27-.4.35.35,0,0,0-.414.234l.336.11-.347-.055c-7.485,47.449-9.086,98.387-9.086,133.316,0,26.157.9,43.332.9,43.336l.356-.019-.219-.278c-4.106,3.207-7.711,4.141-10.563,4.145a12.442,12.442,0,0,1-4.961-1.02,10.352,10.352,0,0,1-1.332-.7c-.152-.094-.269-.172-.347-.226l-.082-.059-.02-.019-.223.277.352,0a704.021,704.021,0,0,1,13.387-127.227c3.168-16,6.3-28.847,8.636-37.687,1.172-4.422,2.141-7.844,2.821-10.157.34-1.156.605-2.039.789-2.628s.277-.891.277-.895l-.336-.105-.347-.055.347.055" fill="#231f20"/>
    <g id="Group_2" data-name="Group 2">
      <path id="Path_5" data-name="Path 5" d="M268.352,217.551c-1.153-5.121-2.118-14.508-2.118-14.508-1.925,7.074-1.761,19.758-1.761,19.758-.707-1.3-3.875-13.313-3.875-13.313-2.664,7.485.265,23.481.265,23.481l-4.6-15.086c-1.032,5.629,2.757,24.527,2.757,24.527-1.668-4.39-5.507-16.758-5.507-16.758-1.133,10.743,4.929,27.2,4.929,27.2-3.332-3.891-8.172-19.887-8.172-19.887.6,22.328,11.372,35.492,11.372,35.492,10.492-10.789,19.539-24.891,19.539-24.891-6.11,3.582-17.278,14.012-17.278,14.012,8.629-8.23,17.442-22.777,17.442-22.777l-14.657,11.406c7.02-5.816,18.219-22.992,18.219-22.992l-15.785,10.668c4.926-6.227,18.586-17.02,18.586-17.02-5.633,1.149-15.922,7-15.922,7,4.063-3.609,14.879-12.461,14.879-12.461a76.2,76.2,0,0,0-12.48,5.367c1.585-3.273,6.394-6.382,6.394-6.382,2.781-6.821,6.492-16.8,6.492-16.8a69.277,69.277,0,0,0-14.418,17.273l.879-9.879c-4.047,5.825-5.183,16.567-5.183,16.567"/>
    </g>
    <g id="Group_3" data-name="Group 3">
      <path id="Path_7" data-name="Path 7" d="M268.352,217.551l.343-.078c-.57-2.539-1.1-6.16-1.484-9.145-.2-1.488-.348-2.824-.461-3.781s-.168-1.543-.168-1.543a.35.35,0,0,0-.687-.055,58.841,58.841,0,0,0-1.512,10.77c-.235,3.648-.266,6.9-.266,8.32,0,.492,0,.766,0,.766l.352,0,.308-.168a7.586,7.586,0,0,1-.343-.887c-.536-1.57-1.411-4.664-2.153-7.355-.371-1.348-.707-2.594-.949-3.5s-.395-1.485-.395-1.485a.351.351,0,0,0-.671-.031,27.953,27.953,0,0,0-1.145,8.887,95.341,95.341,0,0,0,1.391,14.773l.347-.062.34-.1-4.6-15.086a.352.352,0,0,0-.684.039,14.972,14.972,0,0,0-.184,2.6,100.767,100.767,0,0,0,1.473,13.809c.738,4.586,1.469,8.25,1.473,8.253l.343-.07.332-.125c-.832-2.18-2.21-6.371-3.378-10.008-.582-1.82-1.118-3.5-1.5-4.73s-.625-2-.625-2a.361.361,0,0,0-.375-.246.357.357,0,0,0-.317.316,28.934,28.934,0,0,0-.14,2.9c0,10.672,5.093,24.437,5.093,24.457l.332-.121.266-.231a21.649,21.649,0,0,1-2.625-4.664c-1.375-3.051-2.746-6.828-3.77-9.84-.511-1.5-.941-2.82-1.238-3.758s-.465-1.5-.465-1.5a.353.353,0,0,0-.691.114c.6,22.441,11.422,35.671,11.449,35.7a.351.351,0,0,0,.524.023c10.527-10.824,19.578-24.937,19.585-24.945a.361.361,0,0,0-.042-.438.35.35,0,0,0-.43-.058,89.692,89.692,0,0,0-10.985,8.386c-3.562,3.063-6.355,5.672-6.359,5.676a.36.36,0,0,0-.016.5.368.368,0,0,0,.247.11.358.358,0,0,0,.253-.1c8.684-8.289,17.493-22.84,17.5-22.852a.362.362,0,0,0-.07-.449.354.354,0,0,0-.453-.015l-14.656,11.41.218.277.223.273c3.566-2.953,8.117-8.71,11.8-13.742s6.48-9.328,6.484-9.332a.354.354,0,0,0-.047-.445.349.349,0,0,0-.445-.039L268.93,233.59l.2.293.277.219c2.43-3.071,7.071-7.329,11.09-10.8,2.016-1.735,3.875-3.274,5.231-4.383.675-.555,1.226-1,1.609-1.3s.594-.476.594-.476a.35.35,0,0,0-.285-.621,49.285,49.285,0,0,0-10.157,3.957c-3.289,1.617-5.863,3.082-5.867,3.086l.172.3.234.266c2.024-1.8,5.743-4.914,8.954-7.574,1.605-1.332,3.082-2.551,4.16-3.438s1.75-1.437,1.754-1.441a.349.349,0,0,0,.086-.438.358.358,0,0,0-.414-.176,76.233,76.233,0,0,0-12.543,5.4l.168.308.316.157a14.761,14.761,0,0,1,3.7-4.3c.688-.586,1.332-1.07,1.8-1.406.238-.172.43-.3.558-.395s.207-.133.207-.133a.358.358,0,0,0,.133-.164c2.789-6.832,6.5-16.812,6.5-16.816a.353.353,0,0,0-.562-.391,69.5,69.5,0,0,0-14.5,17.371l.308.172.352.032.879-9.883a.36.36,0,0,0-.231-.364.368.368,0,0,0-.414.129c-2.066,2.989-3.363,7.161-4.16,10.594A56.437,56.437,0,0,0,268,217.516l.348.035.343-.078-.343.078.351.039s.02-.164.059-.469a58.425,58.425,0,0,1,1.324-6.891,29.324,29.324,0,0,1,3.738-9.046l-.289-.2-.351-.035-.879,9.883a.349.349,0,0,0,.246.367.353.353,0,0,0,.414-.168s.015-.031.055-.1A69.2,69.2,0,0,1,287.3,193.859l-.227-.269-.332-.125s-.23.621-.621,1.664c-1.172,3.129-3.781,10.019-5.867,15.133l.328.129-.191-.293a26.768,26.768,0,0,0-2.641,1.988,15.47,15.47,0,0,0-3.879,4.535.353.353,0,0,0,.074.41.348.348,0,0,0,.41.051s.1-.055.29-.152a74.892,74.892,0,0,1,12.125-5.184l-.1-.34-.227-.273s-10.812,8.851-14.886,12.472a.354.354,0,0,0,.41.571s.156-.09.449-.25c1.02-.567,3.649-2,6.633-3.418a43.756,43.756,0,0,1,8.73-3.3l-.066-.348-.219-.277s-3.422,2.707-7.457,6.184-8.687,7.742-11.187,10.89a.359.359,0,0,0,.019.461.348.348,0,0,0,.453.055l15.785-10.668-.2-.293-.3-.192s-.172.266-.492.743c-1.117,1.679-4.012,5.968-7.383,10.461s-7.246,9.207-10.273,11.711a.353.353,0,0,0,.441.55l14.66-11.41-.218-.277-.3-.184s-.137.227-.395.637c-1.793,2.887-9.488,14.918-16.992,22.07a.357.357,0,0,0-.012.5.352.352,0,0,0,.5.016s.175-.164.492-.457c1.105-1.02,3.965-3.621,7.207-6.36a79.871,79.871,0,0,1,9.515-7.152l-.175-.305-.3-.191s-.141.219-.407.625c-1.867,2.836-9.937,14.8-19.089,24.211l.254.246.269-.223-.113-.148c-1.156-1.492-10.617-14.3-11.172-35.129l-.356.008-.335.105s1.21,4,2.839,8.5c.817,2.25,1.735,4.618,2.664,6.676a21.961,21.961,0,0,0,2.735,4.832.353.353,0,0,0,.449.074.348.348,0,0,0,.148-.422s-.074-.214-.214-.609c-.965-2.762-4.836-14.449-4.836-23.6a27.629,27.629,0,0,1,.14-2.825l-.347-.039-.34.106s3.84,12.359,5.515,16.777a.357.357,0,0,0,.43.215.351.351,0,0,0,.246-.406s-.179-.914-.457-2.4c-.824-4.453-2.472-14.074-2.469-19.523a14.845,14.845,0,0,1,.168-2.469l-.343-.066-.34.1,4.6,15.086a.352.352,0,0,0,.418.243.357.357,0,0,0,.266-.407s-.086-.468-.215-1.285a91.464,91.464,0,0,1-1.164-13.363,27.322,27.322,0,0,1,1.1-8.649l-.336-.121-.336.094s.789,3,1.672,6.172c.437,1.582.9,3.207,1.3,4.523.2.657.383,1.235.543,1.692a7.335,7.335,0,0,0,.391,1,.358.358,0,0,0,.4.172.364.364,0,0,0,.265-.348s0-.27,0-.758c0-1.414.031-4.648.266-8.277a57.963,57.963,0,0,1,1.484-10.629l-.34-.09-.351.035s.961,9.387,2.129,14.551a.344.344,0,0,0,.363.273.353.353,0,0,0,.328-.312l-.351-.039" fill="#231f20"/>
    </g>
    <path id="Path_9" data-name="Path 9" d="M260.184,259.512s10.886-12.418,10.578-13.379-15.266,10.262-10.578,13.379"/>
    <path id="Path_10" data-name="Path 10" d="M260.184,259.512l.265.234s2.649-3.023,5.3-6.2c1.324-1.59,2.648-3.219,3.645-4.535.5-.66.918-1.242,1.214-1.707a6.191,6.191,0,0,0,.356-.61,1.232,1.232,0,0,0,.156-.515l-.016-.137-.007-.019a.439.439,0,0,0-.207-.247.515.515,0,0,0-.239-.054,1.148,1.148,0,0,0-.457.113,15.355,15.355,0,0,0-2.691,1.695,41.068,41.068,0,0,0-5.547,4.938,17.63,17.63,0,0,0-2.144,2.781,5.319,5.319,0,0,0-.891,2.606,2.254,2.254,0,0,0,1.066,1.953.349.349,0,0,0,.461-.059l-.265-.234.2-.3a1.67,1.67,0,0,1-.582-.606,1.641,1.641,0,0,1-.176-.757,6.374,6.374,0,0,1,1.539-3.348,33.921,33.921,0,0,1,5.582-5.5c.977-.777,1.887-1.434,2.6-1.891a9.834,9.834,0,0,1,.9-.527,2.813,2.813,0,0,1,.293-.129l.086-.023.023-.008v-.2l-.089.175.089.024v-.2l-.089.175.125-.246-.262.086.137.16.125-.246-.262.086.336-.105-.34.086.16-.043h-.168l.008.043.16-.043h-.09l-.078-.008v.008h.078l-.078-.008a.873.873,0,0,1-.105.262,25.387,25.387,0,0,1-2.137,3.008c-1.551,1.98-3.613,4.445-5.289,6.41-.84.98-1.578,1.84-2.11,2.453s-.851.976-.851.98l.262.231.2-.3-.2.3" fill="#231f20"/>
    <path id="Path_11" data-name="Path 11" d="M257.387,257.117s-5.6-9.3-5.844-18.6c0,0,5,13.933,6.523,15.933s-.679,2.664-.679,2.664"/>
    <path id="Path_12" data-name="Path 12" d="M257.387,257.117l.3-.179s-.02-.036-.059-.1c-.606-1.035-5.516-9.734-5.734-18.324l-.352.008-.332.117s1.25,3.488,2.691,7.226c.723,1.867,1.493,3.8,2.18,5.4.34.8.664,1.508.949,2.09a9.235,9.235,0,0,0,.754,1.316,1.842,1.842,0,0,1,.465,1.078.777.777,0,0,1-.129.445,1.424,1.424,0,0,1-.519.45,1.919,1.919,0,0,1-.231.109l-.07.023-.012.008h0l.1.336.3-.179-.3.179.1.34a2.641,2.641,0,0,0,.711-.359,2.013,2.013,0,0,0,.512-.52,1.543,1.543,0,0,0,.246-.832,2.521,2.521,0,0,0-.609-1.5,8.75,8.75,0,0,1-.684-1.2c-.976-1.976-2.43-5.648-3.633-8.812-.6-1.582-1.14-3.039-1.527-4.1s-.629-1.727-.629-1.727a.353.353,0,0,0-.684.129c.254,9.426,5.883,18.75,5.9,18.774a.352.352,0,0,0,.4.156l-.1-.34" fill="#231f20"/>
    <path id="Path_13" data-name="Path 13" d="M297.77,231.469c2.32-4.711,7.464-12.614,7.464-12.614-5.937,4.29-13.781,14.25-13.781,14.25.266-1.46,5.352-12.789,5.352-12.789-6.774,4.133-14.543,18.411-14.543,18.411l5.9-14.622c-4.336,3.719-13.266,20.8-13.266,20.8,1.465-4.464,6.247-16.492,6.247-16.492-7.629,7.633-13.25,24.242-13.25,24.242-.149-5.125,6.14-20.6,6.14-20.6-13.562,17.734-13.457,34.75-13.457,34.75,14.926-1.77,30.817-7.024,30.817-7.024-7-1.07-22.227,0-22.227,0,11.875-.954,27.859-6.707,27.859-6.707l-18.554-.372c9.109-.093,28.605-6.382,28.605-6.382l-18.973-1.664c7.743-1.731,25.137-1.508,25.137-1.508-5.1-2.657-16.773-4.59-16.773-4.59,5.422-.246,19.386-.309,19.386-.309a76,76,0,0,0-13.066-3.7c3.289-1.547,8.977-.93,8.977-.93,6.449-3.547,15.605-8.965,15.605-8.965a69.054,69.054,0,0,0-22.058,4.332l6.89-7.121c-6.8,1.973-14.433,9.61-14.433,9.61"/>
    <path id="Path_14" data-name="Path 14" d="M297.77,231.469l.316.156c1.148-2.336,3.012-5.484,4.586-8.047.789-1.281,1.5-2.41,2.019-3.226s.836-1.3.84-1.305a.353.353,0,0,0-.5-.481,64.83,64.83,0,0,0-9.176,8.786c-2.71,3.035-4.675,5.527-4.679,5.531l.277.222.348.063a7.358,7.358,0,0,1,.289-.91c.57-1.559,1.832-4.512,2.945-7.07.563-1.282,1.086-2.461,1.469-3.325s.625-1.4.625-1.4a.356.356,0,0,0-.09-.41.352.352,0,0,0-.418-.035c-3.48,2.129-7.113,6.754-9.918,10.855s-4.75,7.68-4.754,7.688l.313.168.324.132,5.9-14.621a.353.353,0,0,0-.554-.4,27.049,27.049,0,0,0-3.961,4.891c-4.36,6.4-9.383,16.007-9.387,16.015l.312.16.336.11c.727-2.215,2.289-6.34,3.664-9.9.692-1.781,1.332-3.421,1.8-4.621s.77-1.945.77-1.949a.352.352,0,0,0-.578-.379c-3.868,3.875-7.184,9.961-9.555,15.086s-3.777,9.285-3.781,9.293l.336.113.351-.007,0-.176a23.464,23.464,0,0,1,.949-5.332c.86-3.227,2.153-6.969,3.231-9.9.539-1.464,1.023-2.726,1.371-3.629s.566-1.421.57-1.421a.354.354,0,0,0-.609-.348c-13.426,17.551-13.531,34.406-13.531,34.953l0,.07a.353.353,0,0,0,.39.289c14.977-1.777,30.879-7.035,30.887-7.039a.352.352,0,0,0-.055-.683,64.976,64.976,0,0,0-8.937-.485c-6.6,0-13.367.481-13.367.481a.344.344,0,0,0-.247.121.339.339,0,0,0-.082.254.324.324,0,0,0,.122.242.342.342,0,0,0,.257.086c11.953-.969,27.938-6.727,27.953-6.73a.35.35,0,0,0,.231-.387.356.356,0,0,0-.344-.3l-18.555-.371-.007.351,0,.356c4.625-.055,11.777-1.656,17.8-3.242s10.9-3.16,10.9-3.164a.348.348,0,0,0,.242-.375.356.356,0,0,0-.321-.313l-18.968-1.66-.032.352.075.343a78.8,78.8,0,0,1,12.047-1.261c4.418-.207,8.668-.247,11.05-.247,1.227,0,1.957.012,1.961.012a.364.364,0,0,0,.348-.265.357.357,0,0,0-.18-.4,49.211,49.211,0,0,0-10.383-3.324c-3.566-.82-6.492-1.3-6.5-1.3l-.058.352.015.348c2.7-.122,7.551-.2,11.715-.243,2.086-.023,4-.039,5.395-.047s2.261-.011,2.265-.011a.355.355,0,0,0,.344-.289.36.36,0,0,0-.211-.395,76.824,76.824,0,0,0-13.14-3.715l-.063.348.149.32a15.718,15.718,0,0,1,6.175-1.019c.754,0,1.41.031,1.875.062.235.016.422.028.547.039s.192.02.192.02a.374.374,0,0,0,.207-.039c6.457-3.555,15.613-8.973,15.617-8.973a.353.353,0,0,0-.188-.656,69.186,69.186,0,0,0-22.183,4.359l.133.324.25.247,6.894-7.125a.353.353,0,0,0-.352-.582c-3.48,1.015-7.113,3.437-9.886,5.6a55.566,55.566,0,0,0-4.7,4.094l.25.25.316.156-.316-.156.246.25s.117-.117.336-.328a58.339,58.339,0,0,1,5.363-4.52A29.381,29.381,0,0,1,312.3,222.2l-.1-.336-.254-.246-6.89,7.121a.354.354,0,0,0,.386.575s.145-.063.434-.168a69.4,69.4,0,0,1,21.5-4.137l-.008-.356-.18-.3s-.574.336-1.531.9c-2.875,1.688-9.234,5.4-14.062,8.059l.168.308.035-.351c-.008,0-1.137-.125-2.688-.125a16.291,16.291,0,0,0-6.472,1.09.341.341,0,0,0-.2.363.35.35,0,0,0,.286.3s.453.082,1.222.242a72.1,72.1,0,0,1,11.774,3.433l.132-.328v-.351s-13.964.058-19.4.3a.346.346,0,0,0-.336.332.354.354,0,0,0,.289.372s.184.027.512.085c1.148.2,4.09.747,7.3,1.528a43.643,43.643,0,0,1,8.859,2.945l.164-.316,0-.352s-.734-.008-1.969-.008c-2.39,0-6.648.036-11.086.243a79.429,79.429,0,0,0-12.16,1.281.352.352,0,0,0,.043.7l18.973,1.66.031-.347-.109-.336s-.3.093-.856.265c-1.922.6-6.859,2.11-12.308,3.473s-11.414,2.586-15.336,2.629a.351.351,0,0,0-.348.351.357.357,0,0,0,.344.356l18.558.367,0-.351-.117-.333s-.246.09-.707.25c-3.207,1.11-16.742,5.61-27.066,6.442a.353.353,0,0,0,.054.7s.418-.031,1.157-.074c2.2-.133,7.238-.4,12.164-.4a63.671,63.671,0,0,1,8.832.477l.051-.352-.11-.335s-.246.082-.707.226c-3.234,1.027-17.027,5.238-30.047,6.785l.047.348.344-.055-.277.047h.281l0-.047-.277.047h.281c0-.461.1-17.152,13.39-34.527l-.281-.215-.324-.133c0,.008-1.543,3.789-3.082,8.242-.77,2.227-1.539,4.621-2.121,6.8a24.167,24.167,0,0,0-.973,5.516c0,.07,0,.133.008.2a.351.351,0,0,0,.684.1s.086-.254.253-.723a108.467,108.467,0,0,1,4.422-10.449c2.258-4.614,5.2-9.649,8.493-12.934l-.25-.25-.325-.133c0,.008-4.785,12.028-6.257,16.516a.354.354,0,0,0,.648.277s.137-.269.391-.742c.882-1.656,3.152-5.851,5.668-10.039,1.257-2.09,2.582-4.176,3.816-5.937a23.109,23.109,0,0,1,3.309-3.977l-.231-.27-.328-.132-5.9,14.621a.352.352,0,0,0,.636.3s.118-.219.344-.614a100.828,100.828,0,0,1,5.449-8.554c2.6-3.629,5.746-7.356,8.625-9.11l-.183-.3-.321-.144s-1.273,2.832-2.578,5.848c-.656,1.511-1.316,3.066-1.832,4.335-.258.637-.476,1.2-.644,1.661a7.223,7.223,0,0,0-.325,1.023.354.354,0,0,0,.625.285s.122-.156.344-.433c.789-.981,2.844-3.493,5.348-6.223a58.985,58.985,0,0,1,8.019-7.527l-.207-.286-.3-.195c0,.012-5.145,7.906-7.485,12.653a.352.352,0,0,0,.563.406l-.246-.25" fill="#231f20"/>
    <path id="Path_15" data-name="Path 15" d="M311.8,273.41c5.156-.933,14.558-1.492,14.558-1.492-6.972-2.234-19.632-2.617-19.632-2.617,1.332-.653,13.445-3.3,13.445-3.3-7.348-2.992-23.426-.754-23.426-.754l15.242-3.949c-5.566-1.274-24.578,1.7-24.578,1.7,4.453-1.48,16.949-4.793,16.949-4.793-10.664-1.6-27.336,3.762-27.336,3.762,4.024-3.168,20.18-7.321,20.18-7.321-22.3-.359-35.883,9.848-35.883,9.848,10.309,10.965,23.981,20.637,23.981,20.637-3.3-6.278-13.231-17.9-13.231-17.9,7.836,8.993,21.965,18.438,21.965,18.438l-10.746-15.156c5.5,7.277,22.149,19.226,22.149,19.226l-9.961-16.261c6,5.2,16.171,19.336,16.171,19.336-.9-5.688-6.3-16.235-6.3-16.235C308.773,280.8,317.137,292,317.137,292a76.741,76.741,0,0,0-4.817-12.719c3.2,1.727,6.086,6.672,6.086,6.672,6.688,3.082,16.481,7.227,16.481,7.227a69.047,69.047,0,0,0-16.6-15.176l9.813,1.3c-5.637-4.3-16.3-5.9-16.3-5.9"/>
    <g id="Group_4" data-name="Group 4">
      <path id="Path_16" data-name="Path 16" d="M311.8,273.41l.058.348c2.559-.465,6.2-.836,9.184-1.094,1.5-.125,2.832-.226,3.789-.293s1.547-.1,1.547-.1a.358.358,0,0,0,.332-.309.353.353,0,0,0-.242-.379,64.817,64.817,0,0,0-12.508-2.164c-4.047-.375-7.219-.469-7.223-.469l-.011.352.156.316a7.562,7.562,0,0,1,.9-.308c1.586-.465,4.707-1.207,7.426-1.836,1.359-.309,2.617-.59,3.539-.8s1.5-.332,1.5-.332a.36.36,0,0,0,.277-.317.355.355,0,0,0-.218-.355c-3.028-1.231-7.395-1.582-11.567-1.582a99.174,99.174,0,0,0-12.043.808l.051.348.086.344,15.242-3.953a.351.351,0,0,0-.011-.684,19.675,19.675,0,0,0-4.094-.328c-7.711,0-20.606,2.023-20.614,2.023l.055.352.11.332c2.21-.734,6.449-1.93,10.128-2.945,1.836-.5,3.54-.965,4.778-1.3s2.019-.539,2.023-.539a.354.354,0,0,0-.039-.692,30.226,30.226,0,0,0-4.457-.3c-10.39,0-23.019,4.07-23.039,4.074l.109.336.219.281A21.225,21.225,0,0,1,282,259.816c3.1-1.242,6.93-2.453,9.976-3.347,1.524-.446,2.852-.817,3.8-1.074s1.512-.4,1.512-.4a.353.353,0,0,0-.082-.7c-.391-.008-.781-.008-1.168-.008-21.715,0-34.9,9.9-34.934,9.926a.349.349,0,0,0-.14.254.36.36,0,0,0,.094.269c10.339,11,24.023,20.672,24.035,20.68a.351.351,0,0,0,.511-.453,89.8,89.8,0,0,0-7.886-11.356c-2.9-3.7-5.383-6.605-5.387-6.605a.345.345,0,0,0-.5-.039.363.363,0,0,0-.121.242.348.348,0,0,0,.086.258c7.886,9.047,22.023,18.488,22.035,18.5a.355.355,0,0,0,.449-.047.359.359,0,0,0,.031-.453l-10.746-15.156-.285.2-.285.215c2.8,3.691,8.344,8.5,13.2,12.4s9.024,6.891,9.027,6.894a.354.354,0,0,0,.508-.472l-9.961-16.258-.3.184-.231.265c2.957,2.567,7,7.395,10.289,11.571,1.645,2.089,3.1,4.015,4.149,5.421.523.7.941,1.274,1.23,1.672l.449.614a.351.351,0,0,0,.418.121.356.356,0,0,0,.215-.383,49.6,49.6,0,0,0-3.512-10.336c-1.468-3.359-2.82-6-2.82-6l-.316.16-.27.223c1.7,2.1,4.649,5.957,7.164,9.285,1.262,1.664,2.41,3.2,3.25,4.312s1.356,1.813,1.36,1.817a.35.35,0,0,0,.621-.3,75.993,75.993,0,0,0-4.836-12.789l-.317.156-.168.313a14.7,14.7,0,0,1,4.133,3.886c.555.719,1.012,1.383,1.328,1.864.157.246.282.441.364.578s.128.211.128.211a.369.369,0,0,0,.157.14c6.691,3.086,16.484,7.231,16.488,7.231a.352.352,0,0,0,.414-.539,69.41,69.41,0,0,0-16.7-15.266l-.18.3-.047.347,9.813,1.309a.346.346,0,0,0,.371-.219.352.352,0,0,0-.109-.414c-2.887-2.2-6.993-3.679-10.383-4.621a56.363,56.363,0,0,0-6.082-1.347l-.047.347.058.348-.058-.348-.055.352s.16.023.461.074a58.62,58.62,0,0,1,6.816,1.625,29.283,29.283,0,0,1,8.86,4.133l.215-.281.047-.352-9.817-1.3a.352.352,0,0,0-.379.231.359.359,0,0,0,.149.422s.035.019.1.058a69.257,69.257,0,0,1,16.41,15.035l.278-.218.136-.325s-.613-.257-1.632-.7c-3.067-1.309-9.828-4.223-14.836-6.527l-.149.32.3-.18a28.963,28.963,0,0,0-1.867-2.726,15.431,15.431,0,0,0-4.356-4.078.352.352,0,0,0-.484.465l.144.3a74.7,74.7,0,0,1,4.641,12.356l.348-.086.281-.211s-8.363-11.207-11.8-15.438a.353.353,0,0,0-.465-.074.358.358,0,0,0-.121.461s.082.16.231.457c.523,1.047,1.839,3.739,3.121,6.789a43.927,43.927,0,0,1,2.91,8.879l.351-.054.286-.208s-2.551-3.539-5.848-7.73-7.34-9.031-10.379-11.668a.354.354,0,0,0-.531.453l9.957,16.262.3-.184.2-.289s-.258-.187-.723-.527c-1.625-1.188-5.773-4.27-10.113-7.84s-8.867-7.648-11.239-10.781a.348.348,0,0,0-.488-.074.354.354,0,0,0-.078.488l10.746,15.16.289-.207.2-.289-.617-.422c-2.8-1.922-14.468-10.141-21.277-17.957a.352.352,0,0,0-.5-.035.348.348,0,0,0-.035.5s.152.18.429.512c.969,1.152,3.446,4.125,6.036,7.488a80.048,80.048,0,0,1,6.718,9.832l.313-.16.2-.293s-.211-.149-.606-.434c-2.746-1.992-14.335-10.59-23.32-20.152l-.258.242.211.281s.047-.031.145-.105c1.484-1.055,14.215-9.68,34.367-9.68.383,0,.77,0,1.156.012l0-.356-.086-.339s-4.047,1.039-8.6,2.476c-2.274.719-4.68,1.535-6.774,2.375A21.861,21.861,0,0,0,276.8,261.7a.351.351,0,0,0,.324.61l.562-.172c2.539-.774,13.321-3.871,22.262-3.867a29.582,29.582,0,0,1,4.352.293l.054-.352-.093-.34s-12.489,3.309-16.969,4.8a.353.353,0,0,0,.164.684s.8-.129,2.133-.317a156.5,156.5,0,0,1,18.375-1.7,19.073,19.073,0,0,1,3.937.309l.082-.344-.09-.344-15.242,3.953a.353.353,0,0,0-.258.41.356.356,0,0,0,.395.282s.355-.051.992-.125a98.355,98.355,0,0,1,10.953-.676c4.129,0,8.446.363,11.3,1.531l.133-.328-.074-.348s-3.032.664-6.231,1.411c-1.6.371-3.238.765-4.566,1.105-.664.172-1.25.328-1.711.465a7.741,7.741,0,0,0-1.02.351.353.353,0,0,0-.187.391.363.363,0,0,0,.336.281s.785.024,2.074.094c3.875.207,12.3.848,17.461,2.5l.105-.336-.023-.355s-9.4.558-14.6,1.5a.353.353,0,0,0,.008.7l.055-.352" fill="#231f20"/>
    </g>
    <path id="Path_18" data-name="Path 18" d="M272.813,260.727s9.523-5.2,18.8-5.047c0,0-14.109,4.4-16.175,5.843s-2.625-.8-2.625-.8"/>
    <path id="Path_19" data-name="Path 19" d="M272.813,260.727l.167.308s.032-.015.1-.055c1.023-.546,9.66-4.957,18.117-4.953.137,0,.27,0,.406.008l.008-.355-.109-.336s-3.531,1.1-7.32,2.383c-1.895.64-3.852,1.328-5.477,1.945-.809.308-1.531.6-2.125.863a8.77,8.77,0,0,0-1.348.7,1.9,1.9,0,0,1-1.05.418.815.815,0,0,1-.461-.14,1.388,1.388,0,0,1-.438-.539,1.6,1.6,0,0,1-.105-.246l-.02-.067-.008-.019-.339.086.167.308-.167-.308-.344.086a2.721,2.721,0,0,0,.34.75,1.939,1.939,0,0,0,.519.535,1.536,1.536,0,0,0,.856.261,2.588,2.588,0,0,0,1.457-.55,8.2,8.2,0,0,1,1.226-.629c2.016-.891,5.735-2.188,8.942-3.254,1.605-.535,3.082-1.012,4.156-1.352s1.75-.554,1.75-.554a.362.362,0,0,0,.246-.387.352.352,0,0,0-.344-.3c-.14,0-.281,0-.418,0-9.269.008-18.531,5.082-18.554,5.094a.347.347,0,0,0-.176.395l.344-.086" fill="#231f20"/>
    <path id="Path_20" data-name="Path 20" d="M281.738,262s14.719-4,19.7-3.7c0,0-19.328,6-19.7,3.7"/>
    <path id="Path_21" data-name="Path 21" d="M281.738,262l.09.344s.215-.059.6-.16c1.344-.356,4.777-1.246,8.465-2.047a57.355,57.355,0,0,1,9.968-1.5c.2,0,.387,0,.559.016l.023-.352-.105-.34s-.211.067-.594.184c-1.328.4-4.726,1.414-8.285,2.324a48.138,48.138,0,0,1-9.227,1.711,3.2,3.2,0,0,1-.945-.109.45.45,0,0,1-.176-.09l-.023-.032-.348.055.09.344-.09-.344-.347.059a.771.771,0,0,0,.242.445,1.441,1.441,0,0,0,.68.3,4.611,4.611,0,0,0,.917.078,27.41,27.41,0,0,0,4.856-.672c5.793-1.2,13.453-3.574,13.461-3.574a.356.356,0,0,0,.242-.383.347.347,0,0,0-.328-.309c-.188-.015-.391-.015-.6-.015-2.8,0-7.57.933-11.683,1.867s-7.528,1.863-7.531,1.863a.352.352,0,0,0-.254.4l.347-.059" fill="#231f20"/>
    <path id="Path_22" data-name="Path 22" d="M292.188,305.715c4.48,2.734,11.878,8.57,11.878,8.57-3.734-6.3-12.945-15.015-12.945-15.015,1.43.394,12.242,6.472,12.242,6.472-3.511-7.125-17.019-16.144-17.019-16.144l14.015,7.187c-3.316-4.656-19.5-15.082-19.5-15.082,4.313,1.856,15.848,7.7,15.848,7.7-6.91-8.289-22.926-15.375-22.926-15.375,5.106.313,19.938,7.957,19.938,7.957-16.426-15.105-33.36-16.511-33.36-16.511.438,15.054,4.254,31.379,4.254,31.379,1.684-6.891,1.973-22.184,1.973-22.184-.1,11.934,4.2,28.4,4.2,28.4l2.016-18.481c-.711,9.094,3.812,29.106,3.812,29.106l3.332-18.782c1.036,7.875-.73,25.215-.73,25.215,3.1-4.848,6.055-16.328,6.055-16.328-.235,5.43-1.414,19.375-1.414,19.375a76.5,76.5,0,0,0,4.832-12.715c1.246,3.418.129,9.039.129,9.039,2.953,6.754,7.531,16.367,7.531,16.367a69.262,69.262,0,0,0-2.356-22.394l6.473,7.508c-1.363-6.969-8.273-15.258-8.273-15.258"/>
    <path id="Path_23" data-name="Path 23" d="M292.188,305.715l-.184.3c2.219,1.355,5.187,3.5,7.59,5.293,1.207.9,2.269,1.714,3.031,2.3s1.219.954,1.223.957a.348.348,0,0,0,.449-.015.353.353,0,0,0,.07-.446,64.936,64.936,0,0,0-7.914-9.933c-2.781-2.977-5.086-5.156-5.09-5.16l-.242.258-.094.339a7.21,7.21,0,0,1,.879.371c1.5.708,4.324,2.227,6.77,3.567,1.222.672,2.351,1.3,3.172,1.754l1.343.75a.35.35,0,0,0,.414-.051.356.356,0,0,0,.071-.414c-1.809-3.66-6.086-7.7-9.914-10.859s-7.215-5.422-7.223-5.426l-.2.3-.16.312L300.2,297.1a.354.354,0,0,0,.426-.082.36.36,0,0,0,.02-.438,27.334,27.334,0,0,0-4.508-4.387c-5.977-4.918-15.086-10.781-15.09-10.785l-.192.3-.14.324c2.14.922,6.105,2.848,9.523,4.536,1.711.847,3.289,1.632,4.438,2.21l1.867.942a.356.356,0,0,0,.437-.1.347.347,0,0,0-.007-.441c-3.508-4.211-9.266-8.059-14.149-10.875s-8.9-4.594-8.906-4.6l-.141.32-.023.356a21.254,21.254,0,0,1,5.172,1.351c3.144,1.133,6.8,2.778,9.676,4.133,1.437.68,2.671,1.285,3.554,1.727s1.395.7,1.395.7a.352.352,0,0,0,.4-.57c-16.512-15.18-33.523-16.6-33.566-16.606a.349.349,0,0,0-.383.36c.441,15.105,4.258,31.441,4.262,31.449a.351.351,0,0,0,.683.008,89.937,89.937,0,0,0,1.629-13.743c.285-4.691.356-8.519.356-8.519a.336.336,0,0,0-.1-.254.377.377,0,0,0-.25-.109.353.353,0,0,0-.356.351v.418c0,11.973,4.208,28.059,4.211,28.074a.344.344,0,0,0,.364.262.354.354,0,0,0,.328-.312l2.012-18.485-.348-.035-.356-.031c-.05.676-.074,1.406-.074,2.179a111.391,111.391,0,0,0,1.949,17.2c.973,5.523,1.946,9.828,1.95,9.836a.348.348,0,0,0,.351.273.355.355,0,0,0,.34-.289l3.328-18.781-.344-.063-.347.047a52.638,52.638,0,0,1,.32,6.457c0,4.156-.262,8.828-.527,12.457-.133,1.817-.262,3.371-.36,4.473s-.168,1.742-.168,1.742a.356.356,0,0,0,.235.371.348.348,0,0,0,.414-.144,49.262,49.262,0,0,0,4.226-10.063c1.133-3.484,1.875-6.359,1.875-6.363l-.343-.09-.352-.016c-.117,2.707-.473,7.547-.8,11.711-.16,2.082-.316,3.992-.429,5.387s-.188,2.258-.188,2.262a.352.352,0,0,0,.664.191,76.181,76.181,0,0,0,4.859-12.785l-.339-.09-.332.121a12.241,12.241,0,0,1,.566,4.039,27.911,27.911,0,0,1-.223,3.356c-.058.445-.117.808-.16,1.062s-.07.395-.07.395a.344.344,0,0,0,.023.207c2.961,6.762,7.535,16.379,7.535,16.379a.351.351,0,0,0,.668-.129c.086-1.367.125-2.707.125-4a68.8,68.8,0,0,0-2.492-18.52l-.336.106-.265.23,6.468,7.508a.35.35,0,0,0,.422.086.356.356,0,0,0,.2-.387c-.7-3.562-2.789-7.4-4.7-10.363a56.169,56.169,0,0,0-3.652-5.051l-.269.227-.184.3.184-.3-.27.226.3.364a58.935,58.935,0,0,1,4.015,5.754,29.265,29.265,0,0,1,3.883,8.984l.348-.07.266-.231-6.469-7.508a.349.349,0,0,0-.438-.078.356.356,0,0,0-.168.414s.039.118.106.356a69.944,69.944,0,0,1,2.351,17.953c0,1.285-.035,2.609-.121,3.957l.356.023.316-.152s-.289-.6-.762-1.605c-1.421-3.02-4.55-9.7-6.765-14.75l-.32.14.343.071a28.235,28.235,0,0,0,.469-4.95,12.989,12.989,0,0,0-.609-4.281.354.354,0,0,0-.672.027l-.09.317A74.885,74.885,0,0,1,283.539,323l.313.164.351.027s1.176-13.937,1.418-19.386a.35.35,0,0,0-.3-.364.354.354,0,0,0-.394.258s-.043.18-.133.5c-.3,1.125-1.105,4.02-2.164,7.149a43.858,43.858,0,0,1-3.715,8.578l.3.191.352.039c0-.012,1.054-10.383,1.054-18.75a52.178,52.178,0,0,0-.328-6.551.352.352,0,0,0-.7-.015l-3.332,18.781.347.063.344-.079s-.058-.269-.168-.754c-.742-3.414-3.715-17.656-3.715-26.125,0-.761.024-1.472.078-2.121a.358.358,0,0,0-.32-.379.352.352,0,0,0-.383.313l-2.015,18.484.351.036.34-.09s-.062-.246-.18-.707c-.8-3.231-4.011-16.84-4.007-27.188v-.414a.352.352,0,0,0-.7-.008s-.019.953-.07,2.492c-.082,2.309-.238,5.934-.539,9.622a70.482,70.482,0,0,1-1.355,10l.343.082.34-.082s-.054-.25-.16-.727a181.985,181.985,0,0,1-4.082-30.582l-.352.012-.027.351s.063,0,.184.02c1.879.2,17.644,2.312,32.965,16.4l.238-.258.164-.316c-.008,0-3.719-1.914-8.074-3.867-2.18-.981-4.52-1.965-6.641-2.731a21.715,21.715,0,0,0-5.367-1.39.347.347,0,0,0-.363.265.36.36,0,0,0,.2.411s.246.105.7.316a107.349,107.349,0,0,1,10,5.34c4.387,2.66,9.133,6.047,12.11,9.617l.269-.227.16-.312c-.008,0-11.531-5.84-15.867-7.707a.353.353,0,0,0-.332.621l.7.453c1.571,1.031,5.543,3.668,9.481,6.551,1.965,1.437,3.922,2.941,5.566,4.336a23.186,23.186,0,0,1,3.66,3.648l.289-.2.161-.316L286.5,289.281a.354.354,0,0,0-.465.137.349.349,0,0,0,.109.469s.207.14.582.4a99.933,99.933,0,0,1,8.024,6.2c3.379,2.914,6.8,6.387,8.293,9.418l.316-.16.172-.308s-2.707-1.52-5.59-3.09c-1.441-.785-2.929-1.582-4.148-2.211-.609-.313-1.152-.582-1.59-.789a7.656,7.656,0,0,0-.992-.414.354.354,0,0,0-.336.6s.144.133.4.383c.9.871,3.215,3.145,5.707,5.887a59.084,59.084,0,0,1,6.774,8.668l.3-.18.219-.277c-.008,0-7.4-5.84-11.91-8.594a.353.353,0,0,0-.457.527l.27-.226" fill="#231f20"/>
    <path id="Path_24" data-name="Path 24" d="M222.32,237.215c-2.754-4.465-8.621-11.852-8.621-11.852,6.317,3.707,15.063,12.883,15.063,12.883-.4-1.426-6.532-12.223-6.532-12.223,7.129,3.473,16.211,16.954,16.211,16.954l-7.253-14c4.664,3.293,15.164,19.45,15.164,19.45-1.875-4.309-7.774-15.832-7.774-15.832,8.317,6.879,15.481,22.882,15.481,22.882-.336-5.117-8.055-19.929-8.055-19.929,15.172,16.367,16.676,33.32,16.676,33.32-15.032-.355-31.348-4.078-31.348-4.078,6.867-1.727,22.129-2.1,22.129-2.1-11.91.168-28.371-4.043-28.371-4.043l18.441-2.128c-9.078.765-29.078-3.649-29.078-3.649l18.727-3.449c-7.864-.992-25.164.875-25.164.875,4.824-3.133,16.261-6.156,16.261-6.156-5.418.265-19.328,1.527-19.328,1.527a76,76,0,0,1,12.66-4.914c-3.418-1.231-9.023-.078-9.023-.078-6.754-2.922-16.379-7.449-16.379-7.449a69,69,0,0,1,22.371,2.23l-7.535-6.441c6.961,1.32,15.277,8.2,15.277,8.2"/>
    <g id="Group_5" data-name="Group 5">
      <path id="Path_25" data-name="Path 25" d="M222.32,237.215l.3-.184c-2.777-4.5-8.644-11.879-8.644-11.886l-.278.218-.179.309a64.413,64.413,0,0,1,9.839,7.781c1.485,1.375,2.77,2.637,3.688,3.555.457.453.824.824,1.074,1.082s.383.4.387.4a.361.361,0,0,0,.43.063.354.354,0,0,0,.16-.407,6.8,6.8,0,0,0-.414-.988c-1.461-3.051-6.145-11.308-6.149-11.308l-.305.171-.156.317c3.465,1.683,7.52,5.9,10.664,9.687,1.575,1.9,2.93,3.684,3.891,5,.476.657.859,1.2,1.121,1.571s.4.578.4.578a.351.351,0,0,0,.473.109.358.358,0,0,0,.137-.468l-7.258-14-.312.167-.2.286a26.554,26.554,0,0,1,4.27,4.367c2.449,2.949,5.152,6.7,7.242,9.711,1.043,1.508,1.934,2.824,2.567,3.769s1,1.508,1,1.508a.348.348,0,0,0,.461.117.353.353,0,0,0,.16-.449c-1.891-4.332-7.782-15.851-7.785-15.851l-.317.16-.223.273c4.1,3.383,7.958,9.082,10.778,13.926,1.41,2.422,2.562,4.629,3.359,6.234.4.8.711,1.449.922,1.9s.324.7.324.7a.343.343,0,0,0,.4.2.349.349,0,0,0,.269-.363,21.77,21.77,0,0,0-1.422-5.371,151.871,151.871,0,0,0-6.675-14.7l-.309.164-.258.238a67.042,67.042,0,0,1,13.953,22.68,54.77,54.77,0,0,1,2.16,7.566c.188.918.3,1.637.375,2.125.036.246.059.434.071.555a1.4,1.4,0,0,1,.019.187l.356-.031.008-.355a160.248,160.248,0,0,1-21.262-2.164c-2.977-.485-5.481-.965-7.242-1.317-.879-.176-1.575-.324-2.047-.426l-.727-.16-.078.344.086.34A89.288,89.288,0,0,1,245,263.445c2.332-.152,4.453-.257,5.988-.316s2.485-.086,2.485-.086a.354.354,0,0,0-.012-.707c-.234,0-.469,0-.707,0a106,106,0,0,1-18.207-2.016c-2.711-.5-5.055-1.008-6.715-1.39-.836-.188-1.5-.344-1.953-.454s-.7-.175-.7-.175l-.09.343.043.348,18.437-2.121a.359.359,0,0,0,.309-.391.35.35,0,0,0-.379-.316c-.711.059-1.492.09-2.332.09a112.688,112.688,0,0,1-16.965-1.867c-2.726-.469-5.144-.934-6.883-1.286-.867-.175-1.566-.32-2.047-.421s-.746-.161-.746-.161l-.074.348.067.344,18.726-3.445a.365.365,0,0,0,.289-.36.359.359,0,0,0-.308-.34,49.375,49.375,0,0,0-6-.293c-8.445,0-19.246,1.168-19.253,1.168l.039.352.191.3a48.663,48.663,0,0,1,9.859-4.215c1.727-.57,3.305-1.047,4.446-1.379.574-.164,1.039-.3,1.359-.383s.5-.137.5-.137a.354.354,0,0,0-.109-.695c-5.438.27-19.344,1.528-19.348,1.531l.035.352.164.312a64.13,64.13,0,0,1,8.348-3.527c1.234-.43,2.3-.769,3.051-1,.379-.117.676-.2.883-.265s.308-.09.312-.09a.355.355,0,0,0,.023-.676,12.737,12.737,0,0,0-4.152-.582,28.144,28.144,0,0,0-5.062.5l.07.344.141-.324c-3.372-1.457-7.465-3.321-10.715-4.817-1.625-.746-3.039-1.406-4.047-1.875s-1.606-.75-1.61-.75l-.148.317.023.355c1.477-.1,2.926-.148,4.325-.148a71.2,71.2,0,0,1,12.781,1.183c1.6.293,2.894.586,3.777.809.442.113.785.2,1.012.265s.348.1.348.1a.354.354,0,0,0,.336-.6l-7.539-6.442-.227.27-.063.347c3.4.641,7.2,2.672,10.125,4.547,1.465.934,2.715,1.832,3.6,2.492.438.332.789.606,1.027.793s.364.293.364.293a.353.353,0,0,0,.527-.457l-.3.184.223-.274a57.192,57.192,0,0,0-5.059-3.628c-2.972-1.9-6.812-3.965-10.375-4.645a.348.348,0,0,0-.382.2.344.344,0,0,0,.086.418l7.535,6.442.23-.266.1-.34a68.769,68.769,0,0,0-18.125-2.39c-1.414,0-2.875.046-4.371.148a.355.355,0,0,0-.325.289.347.347,0,0,0,.2.383s9.629,4.527,16.39,7.453a.343.343,0,0,0,.215.02s.141-.028.4-.071a27.667,27.667,0,0,1,4.515-.41,12.035,12.035,0,0,1,3.914.547l.117-.332-.093-.344a77.018,77.018,0,0,0-12.731,4.945.353.353,0,0,0,.195.665s.868-.079,2.258-.2c4.164-.367,13-1.129,17.059-1.328l-.02-.351-.089-.344s-2.872.758-6.344,1.91A49.342,49.342,0,0,0,207.82,250a.354.354,0,0,0,.235.648s.672-.07,1.812-.183c3.426-.328,11.078-.981,17.363-.981a49.822,49.822,0,0,1,5.907.286l.043-.348-.063-.348-18.73,3.449a.351.351,0,0,0-.008.688c.012,0,16.937,3.746,26.789,3.754.852,0,1.652-.031,2.391-.09l-.028-.355-.043-.352L225.051,258.3a.352.352,0,0,0-.047.691c.012,0,15.828,4.055,27.746,4.059.242,0,.48,0,.719,0l-.008-.352-.008-.355s-3.824.094-8.5.4a89.742,89.742,0,0,0-13.7,1.711.36.36,0,0,0-.269.348.354.354,0,0,0,.277.34c.012,0,16.336,3.734,31.414,4.086a.355.355,0,0,0,.359-.383c0-.043-1.515-17.078-16.765-33.531a.354.354,0,0,0-.571.406s.118.23.332.644c.739,1.446,2.594,5.145,4.3,9.032.852,1.945,1.664,3.937,2.282,5.711a18.875,18.875,0,0,1,1.1,4.4l.352-.02.32-.144c0-.008-1.8-4.016-4.637-8.9s-6.719-10.621-10.937-14.113a.352.352,0,0,0-.539.43s.371.722.949,1.871c1.746,3.437,5.418,10.73,6.816,13.941l.321-.14.3-.192s-2.628-4.047-5.843-8.508c-1.606-2.226-3.36-4.562-5.008-6.55a27.345,27.345,0,0,0-4.406-4.492.352.352,0,0,0-.434.023.359.359,0,0,0-.082.43l7.254,14,.312-.164.293-.2s-2.281-3.382-5.453-7.2-7.238-8.082-10.9-9.871a.344.344,0,0,0-.41.074.354.354,0,0,0-.051.418s.383.672.965,1.707c.871,1.551,2.187,3.91,3.32,6.016.566,1.051,1.09,2.039,1.484,2.828.2.391.372.734.493,1.012a4.684,4.684,0,0,1,.238.578l.34-.094.254-.242s-2.2-2.3-5.176-5.066a64.906,64.906,0,0,0-9.965-7.875.342.342,0,0,0-.441.074.347.347,0,0,0-.012.449s.367.461.957,1.219c1.777,2.281,5.594,7.273,7.641,10.6l.3-.187.223-.274-.223.274" fill="#231f20"/>
    </g>
    <g id="Group_6" data-name="Group 6">
      <path id="Path_27" data-name="Path 27" d="M213.355,281.484c-5.218-.515-14.632-.316-14.632-.316,6.773-2.789,19.355-4.188,19.355-4.188-1.375-.546-13.66-2.21-13.66-2.21,7.082-3.575,23.289-2.633,23.289-2.633L212.2,269.422c5.446-1.715,24.637-.281,24.637-.281-4.559-1.118-17.281-3.411-17.281-3.411,10.5-2.449,27.551,1.547,27.551,1.547-4.262-2.832-20.7-5.668-20.7-5.668,22.192-2.16,36.559,6.926,36.559,6.926-9.394,11.758-22.246,22.5-22.246,22.5,2.789-6.519,11.75-18.906,11.75-18.906-7.09,9.594-20.414,20.148-20.414,20.148l9.492-15.972c-4.894,7.691-20.531,20.941-20.531,20.941l8.625-17.008c-5.559,5.668-14.57,20.575-14.57,20.575.441-5.739,4.976-16.688,4.976-16.688-3.074,4.481-10.508,16.324-10.508,16.324a76.518,76.518,0,0,1,3.778-13.066c-3.051,1.98-5.536,7.141-5.536,7.141-6.414,3.609-15.843,8.535-15.843,8.535a69.153,69.153,0,0,1,15.332-16.469l-9.68,2.09c5.273-4.742,15.773-7.192,15.773-7.192"/>
    </g>
    <g id="Group_7" data-name="Group 7">
      <path id="Path_29" data-name="Path 29" d="M213.355,281.484l.036-.351c-2.977-.293-7.27-.36-10.45-.36-2.445,0-4.226.04-4.226.04l.008.355.132.324A64.114,64.114,0,0,1,211,278.375c1.992-.348,3.77-.609,5.055-.781.64-.09,1.156-.156,1.511-.2s.551-.063.551-.063a.357.357,0,0,0,.313-.309.352.352,0,0,0-.223-.371,7.377,7.377,0,0,0-1.035-.269c-3.3-.688-12.7-1.961-12.707-1.965l-.047.352.156.316a28.24,28.24,0,0,1,8.9-2.219,85.246,85.246,0,0,1,9.5-.488c1.4,0,2.578.027,3.406.055s1.305.054,1.305.054a.352.352,0,0,0,.078-.7l-15.508-2.715-.063.348.106.336a20.357,20.357,0,0,1,4.207-.645c1.754-.129,3.781-.183,5.855-.183,3.469,0,7.082.14,9.825.285,1.371.066,2.527.14,3.339.191s1.278.09,1.278.09a.355.355,0,0,0,.375-.3.348.348,0,0,0-.266-.394c-4.582-1.125-17.3-3.418-17.3-3.418l-.062.347.082.344a36.593,36.593,0,0,1,8.082-.785,86.3,86.3,0,0,1,13.16,1.168c1.832.293,3.367.586,4.449.8.539.113.961.2,1.25.265s.446.1.446.1a.354.354,0,0,0,.273-.641,21.7,21.7,0,0,0-5.121-2.121,151.545,151.545,0,0,0-15.715-3.6l-.059.347.032.352c2.347-.231,4.6-.332,6.765-.332a65.261,65.261,0,0,1,21.618,3.609,51.432,51.432,0,0,1,5.906,2.481c.676.336,1.191.613,1.535.808.172.1.3.18.387.227s.129.078.129.078l.187-.3-.277-.222a160.185,160.185,0,0,1-14.61,15.625c-2.191,2.07-4.09,3.781-5.437,4.964-.676.6-1.215,1.063-1.582,1.375s-.567.485-.567.485l.227.269.324.137a89.674,89.674,0,0,1,6.891-11.84c1.293-1.953,2.5-3.7,3.379-4.965.441-.629.8-1.136,1.054-1.488s.387-.543.387-.543a.352.352,0,0,0-.566-.418,102.25,102.25,0,0,1-12.825,13.621c-2.1,1.914-3.984,3.531-5.343,4.668-.676.57-1.223,1.02-1.6,1.324l-.582.469.219.277.3.18,9.492-15.976a.351.351,0,0,0-.6-.368c-2.41,3.789-7.535,9.028-12.047,13.289-2.254,2.133-4.359,4.032-5.9,5.391-.774.68-1.4,1.227-1.84,1.6s-.676.582-.676.582l.227.269.316.164,8.621-17.011a.352.352,0,0,0-.566-.407c-2.816,2.871-6.453,8.02-9.41,12.465s-5.207,8.172-5.207,8.176l.3.18.351.027a49.059,49.059,0,0,1,2.633-10.406c.594-1.723,1.176-3.266,1.6-4.379.215-.559.4-1,.516-1.317s.2-.476.2-.476a.354.354,0,0,0-.16-.445.342.342,0,0,0-.457.109c-3.086,4.5-10.516,16.336-10.52,16.336l.3.187.348.063a63.759,63.759,0,0,1,2.266-8.793c.4-1.242.777-2.3,1.05-3.039.137-.367.246-.66.325-.863s.117-.3.117-.3a.359.359,0,0,0-.106-.407.353.353,0,0,0-.414-.023A15.415,15.415,0,0,0,209.1,291.5a27.654,27.654,0,0,0-1.645,2.871l.316.149-.171-.309c-3.2,1.8-7.164,3.937-10.325,5.617-1.578.84-2.953,1.57-3.941,2.086s-1.57.824-1.574.824l.168.317.293.191a69.6,69.6,0,0,1,10.152-12.031c1.488-1.406,2.766-2.492,3.664-3.231.453-.367.809-.644,1.055-.832l.277-.211.094-.07a.351.351,0,0,0-.281-.629l-9.676,2.09.074.344.238.265c2.571-2.316,6.485-4.109,9.746-5.308,1.633-.6,3.1-1.051,4.164-1.352.528-.152.958-.265,1.25-.34s.454-.113.454-.113a.353.353,0,0,0-.043-.7l-.036.351-.078-.343a55.605,55.605,0,0,0-5.953,1.832c-3.3,1.215-7.273,3.015-9.976,5.441a.357.357,0,0,0-.078.426.347.347,0,0,0,.386.183l9.68-2.093-.074-.344-.207-.289a69.632,69.632,0,0,0-15.422,16.562.353.353,0,0,0,.031.43.347.347,0,0,0,.426.074s9.433-4.922,15.855-8.531a.394.394,0,0,0,.145-.156s.039-.078.113-.219a28.205,28.205,0,0,1,1.879-3.148,13.653,13.653,0,0,1,3.418-3.633l-.191-.3-.329-.133a77.205,77.205,0,0,0-3.8,13.141.356.356,0,0,0,.222.39.35.35,0,0,0,.422-.144s.465-.738,1.211-1.918c2.234-3.539,6.992-11.043,9.289-14.395l-.289-.2-.328-.133s-1.137,2.742-2.328,6.211a49.267,49.267,0,0,0-2.668,10.586.346.346,0,0,0,.242.363.355.355,0,0,0,.41-.152s.141-.234.395-.652c.9-1.461,3.222-5.2,5.929-9.188a85.844,85.844,0,0,1,8.192-10.676l-.25-.246-.32-.16-8.622,17.012a.352.352,0,0,0,.543.426s3.918-3.317,8.446-7.6,9.668-9.519,12.156-13.426l-.3-.187-.305-.184-9.492,15.977a.354.354,0,0,0,.074.445.351.351,0,0,0,.45.012c.007-.012,13.339-10.563,20.476-20.215l-.281-.211-.285-.207s-2.246,3.1-4.836,7.02a89.544,89.544,0,0,0-6.953,11.953.351.351,0,0,0,.547.41c.011-.008,12.871-10.746,22.3-22.547a.342.342,0,0,0,.075-.277.367.367,0,0,0-.16-.243c-.036-.019-11.571-7.308-29.95-7.308-2.183,0-4.465.1-6.832.332a.353.353,0,0,0-.32.336.359.359,0,0,0,.293.363s.258.043.715.125c1.6.289,5.656,1.059,9.773,2.055,2.063.5,4.137,1.062,5.922,1.644a18.679,18.679,0,0,1,4.16,1.793l.2-.3.082-.343a99.339,99.339,0,0,0-19.469-2.352,37.153,37.153,0,0,0-8.246.8.353.353,0,0,0,.019.691l2.059.375c3.789.7,11.805,2.2,15.2,3.031l.082-.343.027-.352c-.007,0-7.519-.562-14.5-.562-2.086,0-4.129.05-5.906.183a20.279,20.279,0,0,0-4.367.68.347.347,0,0,0-.246.359.36.36,0,0,0,.293.324l15.511,2.711.059-.347.02-.356s-1.934-.109-4.75-.109a85.145,85.145,0,0,0-9.586.5,28.668,28.668,0,0,0-9.133,2.289.352.352,0,0,0,.109.664l1.942.266c1.757.25,4.429.629,6.789,1,1.175.183,2.281.367,3.148.527.43.082.8.16,1.1.227a4.637,4.637,0,0,1,.6.164l.129-.329-.039-.351s-3.156.351-7.16,1.051a65.145,65.145,0,0,0-12.293,3.16.353.353,0,0,0-.211.4.358.358,0,0,0,.355.282l1.188-.02c.75-.008,1.805-.02,3.023-.02,3.168,0,7.457.067,10.379.356l.035-.352-.078-.343.078.343" fill="#231f20"/>
    </g>
    <path id="Path_31" data-name="Path 31" d="M226.984,305.387c-4.734,2.254-12.7,7.3-12.7,7.3,4.363-5.887,14.422-13.594,14.422-13.594-1.457.242-12.84,5.168-12.84,5.168,4.227-6.723,18.59-14.3,18.59-14.3l-14.68,5.7c3.778-4.285,20.953-12.98,20.953-12.98-4.476,1.4-16.554,6.011-16.554,6.011,7.73-7.527,24.39-12.918,24.39-12.918-5.109-.222-20.652,5.848-20.652,5.848,17.9-13.32,34.879-12.969,34.879-12.969-1.988,14.93-7.461,30.77-7.461,30.77-.969-7.027.324-22.27.324-22.27-1.133,11.883-7.109,27.817-7.109,27.817l-.094-18.594c-.23,9.125-6.8,28.555-6.8,28.555L240.281,295.9c-1.843,7.727-1.879,25.161-1.879,25.161-2.578-5.149-4.336-16.872-4.336-16.872-.328,5.43-.593,19.418-.593,19.418a76.357,76.357,0,0,1-3.493-13.148c-1.589,3.277-1.062,8.98-1.062,8.98-3.637,6.407-9.18,15.5-9.18,15.5a69.408,69.408,0,0,1,4.653-22.035l-7.211,6.8c2.074-6.785,9.8-14.316,9.8-14.316"/>
    <path id="Path_32" data-name="Path 32" d="M226.984,305.387l-.152-.321c-4.773,2.274-12.73,7.313-12.734,7.317l.187.3.281.211a64.538,64.538,0,0,1,8.8-8.954c1.528-1.328,2.914-2.472,3.926-3.281.5-.406.914-.73,1.191-.953s.442-.34.442-.34a.357.357,0,0,0,.109-.422.352.352,0,0,0-.383-.207,7.535,7.535,0,0,0-1.027.309c-3.183,1.117-11.891,4.883-11.894,4.887l.14.324.3.187c2.051-3.269,6.676-6.843,10.777-9.562,2.051-1.36,3.973-2.516,5.379-3.328.707-.407,1.282-.727,1.68-.946s.621-.336.621-.336a.352.352,0,0,0-.293-.64l-14.68,5.7.129.332.262.231a26.714,26.714,0,0,1,4.8-3.774c3.2-2.117,7.211-4.4,10.426-6.152,1.6-.875,3.015-1.621,4.019-2.145s1.6-.824,1.606-.828a.351.351,0,0,0-.266-.648c-4.5,1.406-16.57,6.015-16.578,6.015l.129.332.242.254c3.809-3.711,9.883-6.933,15-9.215,2.555-1.136,4.875-2.042,6.551-2.664.84-.308,1.515-.55,1.984-.711s.727-.246.727-.246a.352.352,0,0,0-.094-.687c-.1,0-.2-.008-.305-.008a25.271,25.271,0,0,0-5.539.926,155.861,155.861,0,0,0-14.957,4.953l.133.328.207.285c16.91-12.59,33-12.9,34.547-12.9.078,0,.117,0,.117,0l.008-.356-.348-.047a159.768,159.768,0,0,1-4.468,20.934c-.809,2.91-1.551,5.352-2.094,7.07-.274.856-.492,1.532-.649,1.993s-.234.7-.234.7l.332.117.348-.047a55.648,55.648,0,0,1-.356-7.043c0-3.543.172-7.332.34-10.234.086-1.45.172-2.68.238-3.543s.11-1.371.11-1.371a.353.353,0,0,0-.321-.379.347.347,0,0,0-.382.316,102.637,102.637,0,0,1-3.969,18.293c-.813,2.731-1.6,5.086-2.172,6.762-.289.84-.527,1.508-.691,1.961s-.258.7-.258.7l.328.129.355,0-.1-18.594a.354.354,0,0,0-.707-.008c-.11,4.492-1.8,11.629-3.469,17.614-.836,3-1.66,5.707-2.281,7.668-.309.98-.563,1.773-.743,2.32s-.285.851-.285.851l.336.114.352-.024-1.379-19.027a.353.353,0,0,0-.695-.059c-.93,3.918-1.4,10.211-1.637,15.543s-.25,9.692-.25,9.7l.355,0,.313-.161a49.084,49.084,0,0,1-3.106-10.281c-.375-1.777-.675-3.4-.879-4.578-.1-.59-.183-1.063-.234-1.395s-.082-.507-.082-.511a.352.352,0,0,0-.7.035c-.328,5.445-.594,19.426-.594,19.426l.352.011.328-.132a64.07,64.07,0,0,1-2.586-8.7c-.293-1.277-.516-2.375-.664-3.148s-.223-1.231-.223-1.231a.348.348,0,0,0-.3-.289.354.354,0,0,0-.371.2,17.058,17.058,0,0,0-1.18,6.918c0,1.316.086,2.238.086,2.246l.352-.032-.3-.175c-1.816,3.2-4.109,7.074-5.949,10.144-.922,1.539-1.726,2.875-2.3,3.828l-.922,1.516.3.187.356.012a69.367,69.367,0,0,1,2.5-15.555c.547-1.972,1.078-3.562,1.472-4.664.2-.543.36-.968.473-1.257s.176-.43.176-.434a.353.353,0,0,0-.567-.395l-7.21,6.8.242.258.336.106c1.007-3.317,3.437-6.875,5.617-9.586,1.09-1.36,2.113-2.5,2.867-3.313.375-.4.684-.722.9-.937s.332-.332.332-.332a.355.355,0,0,0-.4-.575l.152.321-.25-.254a57.923,57.923,0,0,0-4.152,4.648c-2.2,2.746-4.676,6.348-5.738,9.821a.348.348,0,0,0,.148.4.354.354,0,0,0,.43-.043l7.211-6.8-.242-.258-.325-.136a69.611,69.611,0,0,0-4.679,22.156.353.353,0,0,0,.25.351.348.348,0,0,0,.4-.152s5.547-9.094,9.184-15.512a.323.323,0,0,0,.043-.207s0-.051-.008-.156c-.028-.309-.074-1.059-.074-2.023a16.572,16.572,0,0,1,1.113-6.61l-.317-.156-.347.059a76.3,76.3,0,0,0,3.512,13.218.356.356,0,0,0,.39.219.351.351,0,0,0,.289-.344s.02-.875.047-2.269c.094-4.184.3-13.074.547-17.133l-.352-.02-.351.051c0,.008.445,2.942,1.207,6.528a49.541,49.541,0,0,0,3.164,10.449.354.354,0,0,0,.668-.156s0-1.086.031-2.84c.051-2.629.168-6.754.442-10.942a75.364,75.364,0,0,1,1.394-11.293l-.34-.086-.355.028,1.379,19.023a.351.351,0,0,0,.683.09s1.645-4.867,3.317-10.875,3.383-13.152,3.5-17.785l-.352-.008H248.1l.1,18.594a.356.356,0,0,0,.293.344.352.352,0,0,0,.391-.219c0-.02,5.984-15.949,7.129-27.906l-.352-.036-.351-.027s-.688,8.082-.688,15.207a56.3,56.3,0,0,0,.363,7.141.354.354,0,0,0,.684.066c0-.012,5.484-15.863,7.481-30.84a.366.366,0,0,0-.082-.277.354.354,0,0,0-.258-.121s-.051,0-.137,0c-1.633,0-17.887.324-34.965,13.043a.349.349,0,0,0-.1.453.354.354,0,0,0,.434.16s.234-.09.652-.25c1.469-.562,5.215-1.961,9.176-3.215,1.981-.629,4.012-1.222,5.84-1.656a21.751,21.751,0,0,1,4.57-.711c.094,0,.188,0,.274.008l.015-.356-.1-.335c-.008,0-4.184,1.351-9.332,3.648s-11.274,5.531-15.2,9.352a.35.35,0,0,0-.051.445.354.354,0,0,0,.422.14s.754-.293,1.957-.742c3.6-1.363,11.238-4.222,14.578-5.265l-.106-.336-.16-.317s-4.3,2.176-9.074,4.891c-2.387,1.355-4.894,2.851-7.047,4.273a27.312,27.312,0,0,0-4.937,3.895.354.354,0,0,0,.39.566l14.68-5.7-.125-.328-.164-.313c-.008,0-3.6,1.9-7.742,4.649s-8.8,6.32-10.981,9.773a.352.352,0,0,0,.032.418.346.346,0,0,0,.406.094s.711-.3,1.8-.773c1.636-.7,4.121-1.75,6.332-2.653,1.105-.449,2.14-.859,2.968-1.172.415-.152.77-.285,1.059-.379a4.225,4.225,0,0,1,.6-.167l-.059-.348-.215-.281s-2.523,1.929-5.59,4.6a65,65,0,0,0-8.9,9.063.353.353,0,0,0,.023.449.357.357,0,0,0,.45.058s.492-.312,1.316-.82c2.457-1.519,7.824-4.777,11.344-6.453l-.149-.32-.25-.254.25.254" fill="#231f20"/>
  </g>
</svg>
