<svg xmlns="http://www.w3.org/2000/svg" xmlns:xlink="http://www.w3.org/1999/xlink" width="461.579" height="262.099" viewBox="0 0 461.579 262.099">
  <defs>
    <clipPath id="clip-path">
      <path id="Path_12" data-name="Path 12" d="M344.086,245.418h34.5v43.5h-34.5Zm0,0"/>
    </clipPath>
    <clipPath id="clip-path-2">
      <path id="Path_14" data-name="Path 14" d="M454.066,245.418h34.5v43.5h-34.5Zm0,0"/>
    </clipPath>
    <clipPath id="clip-path-3">
      <path id="Path_16" data-name="Path 16" d="M288.883,340.121h43.969v56.25H288.883Zm0,0"/>
    </clipPath>
    <clipPath id="clip-path-4">
      <path id="Path_21" data-name="Path 21" d="M184,182.578h38V258H184Zm0,0"/>
    </clipPath>
    <clipPath id="clip-path-5">
      <path id="Path_40" data-name="Path 40" d="M125.813,249H198v43H125.813Zm0,0"/>
    </clipPath>
    <clipPath id="clip-path-6">
      <path id="Path_44" data-name="Path 44" d="M366,341.586H466.223V435.23H366Zm0,0"/>
    </clipPath>
    <clipPath id="clip-path-7">
      <path id="Path_47" data-name="Path 47" d="M495.93,340.121H539.9v56.25H495.93Zm0,0"/>
    </clipPath>
  </defs>
  <g id="surface3" transform="translate(-125.813 -177.266)">
    <path id="Path_1" data-name="Path 1" d="M587.125,316.867V303.188H242.133V439.117H587.125Zm-3.855,0V435.262H245.988V307.043H583.27Zm0,0"/>
    <path id="Path_2" data-name="Path 2" d="M3.745,0H81.76" transform="translate(245.634 353.521) rotate(90)" fill="none" stroke="#000" stroke-linecap="round" stroke-width="7.492"/>
    <path id="Path_3" data-name="Path 3" d="M3.745,0H81.76" transform="translate(583.365 353.521) rotate(90)" fill="none" stroke="#000" stroke-linecap="round" stroke-width="7.492"/>
    <path id="Path_4" data-name="Path 4" d="M3.753,0H339.006" transform="translate(244.634 435.613)" fill="none" stroke="#000" stroke-linecap="round" stroke-width="7.504"/>
    <path id="Path_5" data-name="Path 5" d="M3.75,0H337.512" transform="translate(242.133 307.022)" fill="none" stroke="#000" stroke-linecap="round" stroke-width="7.497"/>
    <path id="Path_6" data-name="Path 6" d="M3.738,0H58.519" transform="translate(245.633 306.86) rotate(90)" fill="none" stroke="#000" stroke-linecap="round" stroke-width="7.473"/>
    <path id="Path_7" data-name="Path 7" d="M3.732,0H62.279" transform="translate(583.363 306.862) rotate(90)" fill="none" stroke="#000" stroke-linecap="round" stroke-width="7.463"/>
    <path id="Path_8" data-name="Path 8" d="M3.748,0H93.76" transform="translate(292.678 209.248) rotate(90)" fill="none" stroke="#000" stroke-linecap="round" stroke-width="7.492"/>
    <path id="Path_9" data-name="Path 9" d="M3.746,0H93.758" transform="translate(531.321 209.437) rotate(90)" fill="none" stroke="#000" stroke-linecap="round" stroke-width="7.492"/>
    <path id="Path_10" data-name="Path 10" d="M3.749,0H238.5" transform="translate(289.177 213.081)" fill="none" stroke="#000" stroke-linecap="round" stroke-width="7.498"/>
    <g id="Group_1" data-name="Group 1" clip-path="url(#clip-path)">
      <path id="Path_11" data-name="Path 11" d="M374.625,266.1h-12.2V248.984h12.2Zm0,19.269h-12.2V268.254h12.2ZM360.273,266.1h-12.2V248.984h12.2Zm0,19.269h-12.2V268.254h12.2Zm-16.16-39.949v43.516h34.473V245.418H344.113" fill="#040606"/>
    </g>
    <g id="Group_2" data-name="Group 2" clip-path="url(#clip-path-2)">
      <path id="Path_13" data-name="Path 13" d="M484.605,266.1h-12.2V248.984h12.2Zm0,19.269h-12.2V268.254h12.2ZM470.25,266.1H458.059V248.984H470.25Zm0,19.269H458.059V268.254H470.25Zm-16.156-39.949v43.516h34.472V245.418H454.094" fill="#040606"/>
    </g>
    <g id="Group_3" data-name="Group 3" clip-path="url(#clip-path-3)">
      <path id="Path_15" data-name="Path 15" d="M327.762,366.887H312.234V344.734h15.528Zm0,24.937H312.234V369.672h15.528Zm-18.274-24.937H293.965V344.734h15.523Zm0,24.937H293.965V369.672h15.523Zm-20.57-51.7v56.309h43.891V340.125H288.918" fill="#040606"/>
    </g>
    <path id="Path_17" data-name="Path 17" d="M194.824,256.059S170.168,332.9,169.035,433.2c0,0,7.43,5.879,17.653-2.1,0,0-4.872-92.829,8.136-175.043"/>
    <path id="Path_18" data-name="Path 18" d="M194.824,256.059l-.332-.11c-.008.024-24.672,76.891-25.808,177.246a.339.339,0,0,0,.136.278,12.191,12.191,0,0,0,7.145,2.164c2.992,0,6.75-1,10.937-4.262a.343.343,0,0,0,.133-.293s-.055-1.059-.14-3.059c-.25-6-.754-20.429-.754-39.863,0-34.6,1.6-85.066,9.031-132.047a.352.352,0,0,0-.266-.394.348.348,0,0,0-.414.23l.332.11L194.48,256c-7.445,47.039-9.039,97.531-9.039,132.156,0,25.93.9,42.957.9,42.961l.352-.019-.215-.274c-4.086,3.18-7.676,4.106-10.508,4.106a12.376,12.376,0,0,1-4.934-1.012,10.5,10.5,0,0,1-1.332-.7c-.148-.09-.265-.172-.34-.223l-.082-.059-.023-.019-.219.273.352,0A695.767,695.767,0,0,1,182.7,307.086c3.153-15.867,6.27-28.6,8.594-37.363,1.164-4.383,2.133-7.774,2.805-10.067.34-1.148.6-2.019.785-2.605s.277-.883.277-.887l-.336-.105L194.48,256l.344.055" fill="#231f20"/>
    <g id="Group_4" data-name="Group 4" clip-path="url(#clip-path-4)">
      <path id="Path_19" data-name="Path 19" d="M202.359,206.691c-1.148-5.078-2.109-14.382-2.109-14.382-1.914,7.011-1.75,19.586-1.75,19.586-.7-1.286-3.855-13.2-3.855-13.2-2.649,7.418.261,23.278.261,23.278l-4.57-14.957c-1.027,5.578,2.742,24.316,2.742,24.316-1.66-4.356-5.48-16.613-5.48-16.613-1.125,10.648,4.9,26.961,4.9,26.961-3.312-3.856-8.125-19.711-8.125-19.711.6,22.132,11.313,35.183,11.313,35.183,10.437-10.7,19.437-24.676,19.437-24.676-6.082,3.551-17.187,13.891-17.187,13.891,8.582-8.16,17.347-22.578,17.347-22.578L200.707,235.1c6.984-5.77,18.121-22.8,18.121-22.8l-15.7,10.578c4.9-6.172,18.488-16.875,18.488-16.875-5.605,1.14-15.84,6.945-15.84,6.945,4.043-3.578,14.8-12.351,14.8-12.351a76.094,76.094,0,0,0-12.414,5.32c1.578-3.246,6.359-6.328,6.359-6.328,2.77-6.762,6.461-16.656,6.461-16.656a68.655,68.655,0,0,0-14.343,17.121l.875-9.793c-4.028,5.777-5.157,16.425-5.157,16.425"/>
      <path id="Path_20" data-name="Path 20" d="M202.359,206.691l.34-.078c-.566-2.515-1.094-6.105-1.476-9.062-.192-1.481-.348-2.8-.457-3.75s-.168-1.528-.168-1.531a.349.349,0,0,0-.684-.055,57.638,57.638,0,0,0-1.5,10.676c-.234,3.621-.262,6.839-.262,8.25v.761l.352-.007.309-.165a6.836,6.836,0,0,1-.344-.882c-.531-1.555-1.4-4.621-2.141-7.289-.371-1.336-.7-2.571-.945-3.473l-.4-1.473a.35.35,0,0,0-.668-.031,27.665,27.665,0,0,0-1.136,8.813,93.821,93.821,0,0,0,1.383,14.644l.343-.062.34-.1-4.578-14.953a.35.35,0,0,0-.68.035,14.766,14.766,0,0,0-.183,2.578,98.859,98.859,0,0,0,1.468,13.684c.731,4.547,1.457,8.183,1.461,8.183l.344-.066.328-.125c-.824-2.16-2.2-6.316-3.359-9.922-.582-1.8-1.109-3.473-1.492-4.687s-.625-1.981-.625-1.985a.349.349,0,0,0-.367-.242.357.357,0,0,0-.317.313,27.3,27.3,0,0,0-.141,2.875c0,10.578,5.067,24.222,5.067,24.242l.328-.121.27-.227a21.226,21.226,0,0,1-2.618-4.625c-1.367-3.023-2.73-6.769-3.746-9.754-.511-1.492-.937-2.793-1.23-3.723s-.465-1.484-.465-1.484a.351.351,0,0,0-.688.109c.6,22.25,11.36,35.364,11.391,35.4a.339.339,0,0,0,.254.129.352.352,0,0,0,.266-.106c10.472-10.73,19.48-24.718,19.488-24.726a.366.366,0,0,0-.043-.434.356.356,0,0,0-.434-.058,88.35,88.35,0,0,0-10.922,8.312c-3.543,3.035-6.324,5.621-6.328,5.625a.329.329,0,0,0-.109.242.326.326,0,0,0,.094.254.356.356,0,0,0,.246.11.334.334,0,0,0,.25-.1c8.637-8.215,17.4-22.641,17.414-22.652a.354.354,0,0,0-.52-.461l-14.582,11.312.219.278.223.269c3.543-2.93,8.074-8.637,11.738-13.621s6.453-9.25,6.453-9.254a.349.349,0,0,0-.043-.441.358.358,0,0,0-.445-.039l-15.7,10.574.2.293.273.219c2.418-3.047,7.036-7.266,11.036-10.707,2-1.719,3.851-3.247,5.2-4.344.676-.551,1.222-.992,1.605-1.293s.59-.473.59-.473a.349.349,0,0,0-.285-.617,49.246,49.246,0,0,0-10.106,3.926c-3.269,1.6-5.832,3.054-5.836,3.058l.172.3.235.262c2.011-1.781,5.711-4.871,8.906-7.508,1.6-1.32,3.066-2.527,4.141-3.406l1.742-1.43a.341.341,0,0,0,.086-.433.35.35,0,0,0-.41-.172A75.726,75.726,0,0,0,208,205.617l.168.3.316.152a14.612,14.612,0,0,1,3.684-4.265c.684-.582,1.324-1.063,1.789-1.4.238-.172.426-.3.559-.391s.2-.132.2-.132a.386.386,0,0,0,.133-.161c2.773-6.773,6.465-16.667,6.465-16.671a.348.348,0,0,0-.555-.387A68.878,68.878,0,0,0,206.332,199.9l.309.164.347.035.875-9.8a.345.345,0,0,0-.23-.359.35.35,0,0,0-.406.128c-2.059,2.957-3.352,7.094-4.141,10.5a56,56,0,0,0-1.074,6.09l.347.035.34-.078-.34.078.352.039s.016-.164.055-.464a56.907,56.907,0,0,1,1.32-6.832,28.933,28.933,0,0,1,3.715-8.969l-.285-.2-.352-.032-.875,9.8a.347.347,0,0,0,.25.364.356.356,0,0,0,.41-.165s.016-.035.055-.1A68.583,68.583,0,0,1,221.211,183.2l-.227-.265-.328-.122s-.23.618-.621,1.649c-1.168,3.1-3.762,9.933-5.836,15l.324.129-.191-.293a28.346,28.346,0,0,0-2.625,1.972,15.415,15.415,0,0,0-3.859,4.5.349.349,0,0,0,.484.457s.1-.055.289-.153a74.576,74.576,0,0,1,12.059-5.136l-.1-.336-.223-.27s-10.757,8.77-14.808,12.359a.351.351,0,0,0-.055.465.355.355,0,0,0,.461.1s.156-.09.445-.25c1.016-.559,3.629-1.981,6.6-3.387a43.635,43.635,0,0,1,8.684-3.266l-.067-.347-.219-.274s-3.4,2.684-7.418,6.133-8.644,7.672-11.128,10.793a.353.353,0,0,0,.472.512l15.7-10.574-.2-.293-.293-.192s-.172.266-.488.739c-1.113,1.668-3.992,5.914-7.348,10.371s-7.207,9.125-10.219,11.609a.349.349,0,0,0,.438.543L215.5,224.066l-.219-.273-.3-.184s-.136.223-.39.633c-1.789,2.86-9.442,14.785-16.907,21.879a.347.347,0,0,0-.011.492.351.351,0,0,0,.5.016l.484-.449c1.1-1.016,3.945-3.594,7.172-6.309a80,80,0,0,1,9.469-7.09l-.176-.3-.3-.191s-.14.219-.406.621c-1.856,2.809-9.887,14.672-18.988,24l.254.246.265-.222s-.035-.047-.113-.145c-1.152-1.48-10.563-14.18-11.113-34.828l-.352.012-.336.1s1.2,3.973,2.828,8.426c.809,2.23,1.723,4.582,2.645,6.621a21.725,21.725,0,0,0,2.722,4.789.352.352,0,0,0,.6-.347s-.078-.211-.215-.6c-.961-2.738-4.816-14.32-4.812-23.4a26.14,26.14,0,0,1,.14-2.805l-.347-.035-.336.1c0,.008,3.816,12.254,5.488,16.633a.348.348,0,0,0,.668-.191s-.18-.9-.453-2.379c-.82-4.414-2.461-13.953-2.457-19.352a14.62,14.62,0,0,1,.168-2.449l-.34-.066-.34.1,4.578,14.957a.347.347,0,0,0,.414.238.351.351,0,0,0,.266-.4s-.086-.465-.215-1.273a90.659,90.659,0,0,1-1.16-13.246,27.033,27.033,0,0,1,1.1-8.579l-.332-.117-.336.09s.785,2.981,1.664,6.121c.437,1.57.9,3.18,1.293,4.485.2.648.379,1.222.535,1.679a7.7,7.7,0,0,0,.39.992.356.356,0,0,0,.4.168.351.351,0,0,0,.262-.339s0-.27,0-.754c0-1.4.031-4.61.261-8.207A57.377,57.377,0,0,1,200.59,192.4l-.34-.089-.348.035s.957,9.3,2.118,14.422a.339.339,0,0,0,.359.273.352.352,0,0,0,.332-.309l-.352-.039" fill="#231f20"/>
    </g>
    <path id="Path_22" data-name="Path 22" d="M194.234,248.285s10.829-12.308,10.524-13.262-15.192,10.176-10.524,13.262"/>
    <path id="Path_23" data-name="Path 23" d="M194.234,248.285l.262.235s2.637-3,5.274-6.149c1.316-1.578,2.636-3.191,3.628-4.5.5-.656.911-1.23,1.207-1.691a6.059,6.059,0,0,0,.352-.606,1.2,1.2,0,0,0,.156-.512l-.015-.132-.008-.02a.433.433,0,0,0-.207-.246.5.5,0,0,0-.238-.055,1.188,1.188,0,0,0-.454.114,15.326,15.326,0,0,0-2.675,1.679A40.667,40.667,0,0,0,196,241.3a17.257,17.257,0,0,0-2.133,2.762,5.234,5.234,0,0,0-.886,2.578,2.23,2.23,0,0,0,1.062,1.937.343.343,0,0,0,.457-.058l-.262-.235.2-.293a1.638,1.638,0,0,1-.578-.6,1.591,1.591,0,0,1-.176-.75,6.274,6.274,0,0,1,1.535-3.317,33.42,33.42,0,0,1,5.551-5.457c.968-.769,1.875-1.422,2.586-1.875.355-.226.664-.406.9-.523a2.26,2.26,0,0,1,.289-.125l.09-.024.02-.007v-.2l-.09.176.09.024v-.2l-.09.176.129-.242-.262.082.133.16.129-.242-.262.082.336-.106-.34.086.16-.043h-.168l.008.043.16-.043h-.09l-.078-.007v.007h.078l-.078-.007a.962.962,0,0,1-.105.261,25.786,25.786,0,0,1-2.125,2.981c-1.543,1.965-3.6,4.406-5.262,6.351-.836.977-1.57,1.828-2.1,2.434s-.847.969-.847.973l.265.226.2-.293-.2.293" fill="#231f20"/>
    <path id="Path_24" data-name="Path 24" d="M191.449,245.914s-5.57-9.223-5.812-18.437c0,0,4.968,13.812,6.488,15.8s-.676,2.641-.676,2.641"/>
    <path id="Path_25" data-name="Path 25" d="M191.449,245.914l.3-.18s-.02-.031-.059-.1c-.6-1.024-5.488-9.649-5.707-18.164l-.347.008-.332.117s1.246,3.457,2.679,7.164c.719,1.851,1.481,3.769,2.168,5.351.34.789.661,1.5.946,2.071a8.329,8.329,0,0,0,.75,1.3,1.842,1.842,0,0,1,.461,1.071.775.775,0,0,1-.129.441,1.679,1.679,0,0,1-.746.551l-.071.027-.011,0,0,0,.1.332.3-.18-.3.18.1.336a2.675,2.675,0,0,0,.707-.355,1.936,1.936,0,0,0,.508-.516,1.526,1.526,0,0,0,.246-.824,2.506,2.506,0,0,0-.606-1.492,8.389,8.389,0,0,1-.679-1.192c-.973-1.961-2.418-5.6-3.614-8.734-.6-1.571-1.136-3.012-1.523-4.067s-.625-1.711-.625-1.711a.35.35,0,0,0-.68.125c.254,9.344,5.856,18.586,5.863,18.61a.349.349,0,0,0,.4.156l-.1-.336" fill="#231f20"/>
    <path id="Path_26" data-name="Path 26" d="M231.625,220.488c2.309-4.672,7.426-12.5,7.426-12.5-5.91,4.25-13.711,14.125-13.711,14.125.265-1.445,5.324-12.675,5.324-12.675-6.738,4.1-14.469,18.25-14.469,18.25l5.875-14.493c-4.316,3.684-13.2,20.614-13.2,20.614,1.457-4.426,6.215-16.348,6.215-16.348-7.59,7.566-13.184,24.031-13.184,24.031-.148-5.082,6.11-20.425,6.11-20.425-13.492,17.578-13.391,34.449-13.391,34.449,14.856-1.758,30.66-6.965,30.66-6.965-6.961-1.063-22.113,0-22.113,0,11.816-.945,27.719-6.648,27.719-6.648l-18.457-.368c9.062-.093,28.453-6.328,28.453-6.328l-18.871-1.652c7.7-1.715,25-1.492,25-1.492-5.071-2.633-16.684-4.551-16.684-4.551,5.4-.242,19.285-.3,19.285-.3a75.682,75.682,0,0,0-13-3.66c3.274-1.535,8.934-.926,8.934-.926,6.414-3.515,15.523-8.886,15.523-8.886a68.854,68.854,0,0,0-21.949,4.3l6.859-7.058c-6.769,1.953-14.359,9.523-14.359,9.523"/>
    <path id="Path_27" data-name="Path 27" d="M231.625,220.488l.313.157c1.144-2.317,3-5.438,4.562-7.977.785-1.27,1.5-2.391,2.012-3.2s.832-1.289.832-1.293a.35.35,0,0,0-.5-.477,64.268,64.268,0,0,0-9.129,8.707c-2.7,3.008-4.653,5.481-4.656,5.485l.277.218.348.063a6.949,6.949,0,0,1,.285-.9c.566-1.543,1.824-4.473,2.933-7.008.555-1.27,1.074-2.442,1.457-3.3s.621-1.387.621-1.387a.352.352,0,0,0-.5-.445c-3.46,2.113-7.074,6.7-9.867,10.765s-4.722,7.61-4.726,7.618l.308.168.325.132,5.871-14.5a.346.346,0,0,0-.121-.414.342.342,0,0,0-.43.016,26.8,26.8,0,0,0-3.942,4.848c-4.339,6.343-9.332,15.871-9.339,15.875l.312.16.332.109c.723-2.2,2.277-6.285,3.649-9.816.687-1.766,1.324-3.4,1.793-4.582s.765-1.926.769-1.93a.36.36,0,0,0-.137-.426.354.354,0,0,0-.441.047c-3.848,3.844-7.148,9.875-9.508,14.953s-3.758,9.207-3.758,9.215l.332.113.348-.011V241.3a23.06,23.06,0,0,1,.945-5.285c.852-3.2,2.141-6.907,3.211-9.817.535-1.453,1.02-2.7,1.367-3.6s.563-1.41.563-1.41a.351.351,0,0,0-.606-.343c-13.355,17.4-13.457,34.1-13.46,34.648l0,.07a.361.361,0,0,0,.391.289c14.9-1.761,30.719-6.976,30.727-6.98a.348.348,0,0,0-.055-.676,64.4,64.4,0,0,0-8.9-.48c-6.562,0-13.293.472-13.3.472a.367.367,0,0,0-.243.121.326.326,0,0,0-.082.254.343.343,0,0,0,.118.243.376.376,0,0,0,.257.082c11.895-.957,27.8-6.668,27.813-6.668a.349.349,0,0,0,.226-.387.355.355,0,0,0-.339-.3l-18.461-.367,0,.351v.352c4.6-.055,11.718-1.641,17.715-3.215s10.843-3.133,10.843-3.137a.342.342,0,0,0,.242-.371.348.348,0,0,0-.316-.308L222.043,233.2l-.031.344.074.344a78.875,78.875,0,0,1,11.98-1.254c4.4-.2,8.625-.239,11-.239,1.222,0,1.949.008,1.949.008a.349.349,0,0,0,.168-.66,49.044,49.044,0,0,0-10.328-3.3c-3.547-.812-6.457-1.293-6.465-1.293l-.055.348.016.348c2.687-.122,7.511-.2,11.652-.243,2.074-.023,3.98-.039,5.367-.046l2.254-.012a.351.351,0,0,0,.133-.676,76.294,76.294,0,0,0-13.074-3.684l-.063.348.149.313a15.681,15.681,0,0,1,6.144-1.008c.75,0,1.4.027,1.867.058.231.016.414.032.543.043a1.9,1.9,0,0,1,.192.02.37.37,0,0,0,.2-.043c6.426-3.524,15.531-8.891,15.535-8.891a.354.354,0,0,0,.16-.4.348.348,0,0,0-.347-.254A69.025,69.025,0,0,0,239,217.7l.129.324.254.243,6.855-7.063a.342.342,0,0,0,.051-.422.353.353,0,0,0-.4-.156c-3.465,1-7.074,3.406-9.836,5.559a54.909,54.909,0,0,0-4.672,4.054l.246.25.313.157-.313-.157.246.25s.113-.117.332-.328a58.53,58.53,0,0,1,5.336-4.48,29.237,29.237,0,0,1,8.543-4.633l-.1-.332-.254-.246-6.851,7.062a.339.339,0,0,0-.043.438.357.357,0,0,0,.426.129s.144-.063.433-.168a69.3,69.3,0,0,1,21.387-4.1l-.008-.351-.179-.3s-.571.336-1.524.894c-2.859,1.672-9.183,5.352-13.992,7.985l.172.308.035-.347c-.008,0-1.137-.125-2.676-.125a16.27,16.27,0,0,0-6.441,1.078.349.349,0,0,0,.086.66s.449.082,1.218.242a71.911,71.911,0,0,1,11.711,3.4l.133-.324v-.347s-13.89.058-19.3.3a.352.352,0,0,0-.336.328.358.358,0,0,0,.293.368l.508.09c1.141.2,4.067.738,7.262,1.511a43.526,43.526,0,0,1,8.812,2.918l.161-.312,0-.348s-.731-.012-1.957-.012c-2.375,0-6.618.039-11.028.243a79.453,79.453,0,0,0-12.1,1.269.354.354,0,0,0-.274.367.348.348,0,0,0,.317.324l18.875,1.649.031-.348-.106-.336s-.3.1-.851.266c-1.91.6-6.824,2.09-12.246,3.445s-11.356,2.563-15.258,2.6a.347.347,0,0,0-.344.347.354.354,0,0,0,.344.356l18.461.367,0-.351-.117-.329-.7.247c-3.191,1.1-16.656,5.562-26.925,6.382a.351.351,0,0,0,.054.7s.414-.032,1.149-.075c2.2-.132,7.2-.4,12.1-.4a63.5,63.5,0,0,1,8.789.473l.051-.348-.109-.332-.7.226c-3.215,1.016-16.938,5.192-29.891,6.723l.043.348.348-.059-.281.047h.285l0-.047-.281.047h.285c0-.453.093-17,13.316-34.227l-.277-.21-.324-.133c0,.008-1.532,3.758-3.063,8.172-.77,2.207-1.531,4.578-2.109,6.738a23.7,23.7,0,0,0-.969,5.465c0,.07,0,.133.008.191a.344.344,0,0,0,.293.34.353.353,0,0,0,.386-.234s.086-.254.254-.715a105.38,105.38,0,0,1,4.4-10.36c2.246-4.574,5.176-9.566,8.445-12.824l-.246-.246-.324-.133c0,.008-4.758,11.922-6.223,16.371a.35.35,0,0,0,.641.274s.14-.266.39-.731c.879-1.644,3.137-5.8,5.641-9.953,1.25-2.074,2.566-4.14,3.8-5.887a23.349,23.349,0,0,1,3.289-3.945l-.227-.262-.328-.132-5.871,14.5a.344.344,0,0,0,.176.445.351.351,0,0,0,.457-.148s.117-.219.344-.61a97.688,97.688,0,0,1,5.418-8.48c2.586-3.6,5.714-7.293,8.582-9.032l-.184-.3-.32-.145s-1.266,2.809-2.563,5.8c-.652,1.5-1.308,3.035-1.82,4.3-.258.629-.477,1.187-.645,1.64a7.184,7.184,0,0,0-.32,1.016.351.351,0,0,0,.621.281s.117-.152.344-.429c.781-.969,2.828-3.457,5.316-6.165a58.628,58.628,0,0,1,7.977-7.46l-.2-.286-.293-.191c0,.008-5.121,7.832-7.449,12.539a.351.351,0,0,0,.562.406l-.246-.25" fill="#231f20"/>
    <path id="Path_28" data-name="Path 28" d="M245.582,262.066c5.133-.925,14.484-1.48,14.484-1.48-6.937-2.215-19.531-2.594-19.531-2.594,1.324-.644,13.375-3.273,13.375-3.273-7.308-2.965-23.305-.746-23.305-.746l15.165-3.918c-5.536-1.258-24.454,1.691-24.454,1.691,4.434-1.469,16.864-4.75,16.864-4.75-10.61-1.586-27.2,3.727-27.2,3.727,4-3.141,20.079-7.254,20.079-7.254-22.184-.36-35.7,9.761-35.7,9.761,10.254,10.872,23.856,20.454,23.856,20.454-3.289-6.219-13.16-17.743-13.16-17.743,7.8,8.911,21.847,18.278,21.847,18.278l-10.687-15.028c5.472,7.215,22.035,19.059,22.035,19.059l-9.91-16.121C235.3,267.285,245.43,281.3,245.43,281.3c-.9-5.641-6.266-16.1-6.266-16.1,3.406,4.184,11.727,15.293,11.727,15.293a75.984,75.984,0,0,0-4.789-12.609c3.183,1.715,6.054,6.617,6.054,6.617,6.653,3.055,16.395,7.16,16.395,7.16a68.72,68.72,0,0,0-16.52-15.043l9.766,1.293c-5.606-4.262-16.215-5.848-16.215-5.848"/>
    <path id="Path_29" data-name="Path 29" d="M245.582,262.066l.059.344c2.547-.461,6.164-.828,9.136-1.086,1.489-.125,2.817-.222,3.77-.289s1.539-.1,1.539-.1a.35.35,0,0,0,.086-.684,64.712,64.712,0,0,0-12.438-2.141c-4.027-.371-7.183-.468-7.187-.468l-.012.351.156.313a8,8,0,0,1,.9-.3c1.574-.461,4.683-1.2,7.383-1.82,1.355-.309,2.609-.586,3.523-.793s1.488-.328,1.488-.328a.347.347,0,0,0,.059-.664c-3.012-1.219-7.355-1.567-11.5-1.571a98.962,98.962,0,0,0-11.984.8l.05.348.086.34,15.164-3.918a.349.349,0,0,0-.011-.68,19.461,19.461,0,0,0-4.074-.324c-7.672,0-20.5,2.007-20.508,2.007l.054.348.11.328c2.2-.726,6.418-1.914,10.078-2.918,1.828-.5,3.519-.957,4.754-1.289s2.008-.531,2.012-.531a.353.353,0,0,0-.04-.688,30.459,30.459,0,0,0-4.433-.3c-10.336,0-22.9,4.035-22.918,4.039l.1.332.215.277a21.439,21.439,0,0,1,4.742-2.41c3.086-1.235,6.891-2.43,9.922-3.317,1.516-.445,2.84-.812,3.782-1.066s1.5-.4,1.5-.4a.346.346,0,0,0,.262-.379.353.353,0,0,0-.344-.313c-.386,0-.773-.008-1.156-.008-21.609,0-34.722,9.813-34.758,9.84a.346.346,0,0,0-.043.52c10.286,10.906,23.9,20.492,23.907,20.5a.345.345,0,0,0,.433-.024.34.34,0,0,0,.078-.425,88.569,88.569,0,0,0-7.847-11.254c-2.883-3.668-5.352-6.551-5.356-6.551a.342.342,0,0,0-.238-.125.354.354,0,0,0-.258.086.349.349,0,0,0-.035.5c7.848,8.969,21.91,18.328,21.922,18.34a.355.355,0,0,0,.445-.047.349.349,0,0,0,.031-.449L217.5,258.988l-.285.2-.281.211c2.781,3.661,8.3,8.422,13.128,12.3s8.977,6.832,8.981,6.836a.359.359,0,0,0,.445-.031.346.346,0,0,0,.059-.438l-9.91-16.121-.3.184-.231.266c2.942,2.543,6.965,7.328,10.235,11.468,1.636,2.071,3.086,3.981,4.129,5.375.519.7.937,1.262,1.222,1.657s.449.609.449.609a.341.341,0,0,0,.415.117.346.346,0,0,0,.214-.375,48.691,48.691,0,0,0-3.5-10.246c-1.457-3.332-2.8-5.949-2.8-5.953l-.313.156-.269.223c1.695,2.082,4.625,5.906,7.128,9.2,1.254,1.652,2.4,3.168,3.231,4.277s1.351,1.8,1.355,1.8a.349.349,0,0,0,.618-.3,75.481,75.481,0,0,0-4.813-12.68l-.312.157-.168.308a14.64,14.64,0,0,1,4.109,3.856c.555.711,1.008,1.371,1.32,1.847.157.243.282.442.364.575s.128.207.128.207a.369.369,0,0,0,.157.14c6.656,3.059,16.4,7.168,16.4,7.168a.348.348,0,0,0,.41-.535,68.976,68.976,0,0,0-16.609-15.133l-.184.3-.047.344,9.766,1.3a.35.35,0,0,0,.371-.211.345.345,0,0,0-.113-.414c-2.871-2.18-6.953-3.645-10.328-4.582a57.841,57.841,0,0,0-6.047-1.336l-.051.347.059.344-.059-.344-.055.344.461.078a58.374,58.374,0,0,1,6.782,1.614,29.016,29.016,0,0,1,8.812,4.093l.215-.281.047-.348-9.766-1.293a.357.357,0,0,0-.379.231.349.349,0,0,0,.149.414s.035.02.1.062a68.815,68.815,0,0,1,16.324,14.9l.278-.219.133-.316s-.606-.258-1.625-.692c-3.047-1.3-9.774-4.183-14.754-6.472l-.149.32.3-.18a27.983,27.983,0,0,0-1.859-2.7,15.276,15.276,0,0,0-4.332-4.043.357.357,0,0,0-.411.059.351.351,0,0,0-.07.406s.051.1.141.289a74.156,74.156,0,0,1,4.621,12.25l.344-.086.277-.207s-8.316-11.109-11.73-15.3a.357.357,0,0,0-.465-.074.352.352,0,0,0-.121.457s.082.16.23.457c.52,1.031,1.828,3.7,3.106,6.727a43.271,43.271,0,0,1,2.894,8.8l.348-.054.285-.207s-2.535-3.508-5.817-7.664-7.3-8.953-10.324-11.567a.36.36,0,0,0-.457,0,.343.343,0,0,0-.07.45l9.9,16.121.3-.184.2-.285s-.258-.188-.719-.524c-1.621-1.175-5.746-4.23-10.062-7.773s-8.824-7.582-11.18-10.688a.351.351,0,0,0-.566.415l10.691,15.027.285-.2.2-.293-.614-.414c-2.785-1.907-14.394-10.051-21.168-17.8a.349.349,0,0,0-.527.457s.152.176.426.5c.965,1.144,3.429,4.09,6,7.426a78.9,78.9,0,0,1,6.687,9.746l.309-.16.2-.286s-.211-.148-.6-.433c-2.734-1.977-14.261-10.5-23.2-19.977l-.254.242.211.278s.047-.031.141-.1c1.476-1.051,14.144-9.6,34.2-9.6.379,0,.762,0,1.145.007l.008-.347-.086-.34s-4.028,1.031-8.559,2.457c-2.262.711-4.652,1.523-6.738,2.352a21.863,21.863,0,0,0-4.91,2.511.343.343,0,0,0-.094.438.348.348,0,0,0,.414.172s.2-.063.558-.172c2.528-.766,13.254-3.84,22.149-3.836a29.386,29.386,0,0,1,4.328.293l.055-.348-.094-.34s-12.426,3.282-16.879,4.754a.35.35,0,0,0-.23.418.354.354,0,0,0,.394.262s.8-.125,2.121-.313a156,156,0,0,1,18.278-1.683,19.028,19.028,0,0,1,3.918.3l.082-.343-.09-.336-15.164,3.914a.351.351,0,0,0,.136.687s.356-.047.989-.121a97.5,97.5,0,0,1,10.9-.676c4.106,0,8.4.364,11.238,1.52l.133-.324-.074-.344s-3.016.656-6.195,1.4c-1.594.371-3.223.761-4.543,1.1-.66.168-1.246.324-1.707.461a7.383,7.383,0,0,0-1.008.348.356.356,0,0,0-.192.39.352.352,0,0,0,.336.274s.782.027,2.067.094c3.851.211,12.234.843,17.367,2.484l.105-.332-.019-.352c-.008,0-9.356.555-14.527,1.489a.352.352,0,0,0-.29.351.344.344,0,0,0,.3.336l.055-.344" fill="#231f20"/>
    <path id="Path_30" data-name="Path 30" d="M206.793,249.492s9.477-5.156,18.707-5c0,0-14.039,4.364-16.094,5.793s-2.613-.789-2.613-.789"/>
    <path id="Path_31" data-name="Path 31" d="M206.793,249.492l.168.309s.035-.02.1-.055c1.019-.543,9.613-4.918,18.027-4.91.133,0,.265,0,.4,0l.008-.352-.109-.332s-3.512,1.09-7.282,2.36c-1.886.636-3.832,1.316-5.449,1.929-.805.3-1.523.6-2.113.856a9.084,9.084,0,0,0-1.34.691,1.908,1.908,0,0,1-1.047.418.812.812,0,0,1-.457-.14,1.358,1.358,0,0,1-.437-.532,2.082,2.082,0,0,1-.106-.246l-.019-.066-.008-.02-.34.086.168.309-.168-.309-.34.086a2.715,2.715,0,0,0,.34.742,1.945,1.945,0,0,0,.516.532,1.515,1.515,0,0,0,.851.257,2.578,2.578,0,0,0,1.449-.543,8.265,8.265,0,0,1,1.219-.625c2.008-.882,5.707-2.168,8.9-3.226,1.6-.527,3.066-1,4.132-1.34s1.743-.551,1.743-.551a.349.349,0,0,0-.1-.683c-.141,0-.277-.008-.414-.008-9.223.012-18.438,5.043-18.461,5.051a.348.348,0,0,0-.176.394l.34-.086" fill="#231f20"/>
    <path id="Path_32" data-name="Path 32" d="M215.676,250.75s14.644-3.969,19.6-3.668c0,0-19.23,5.949-19.6,3.668"/>
    <path id="Path_33" data-name="Path 33" d="M215.676,250.75l.09.34s.211-.059.593-.156c1.336-.356,4.754-1.235,8.422-2.028a57.057,57.057,0,0,1,9.918-1.5c.2,0,.387.008.555.02l.023-.348-.1-.34s-.211.067-.59.184c-1.324.4-4.7,1.4-8.242,2.3a47.757,47.757,0,0,1-9.184,1.695,3.14,3.14,0,0,1-.937-.106.456.456,0,0,1-.176-.089l-.023-.032-.344.055.09.34-.09-.34-.348.059a.772.772,0,0,0,.242.441,1.423,1.423,0,0,0,.68.3,4.431,4.431,0,0,0,.906.078,27.281,27.281,0,0,0,4.832-.664c5.766-1.188,13.387-3.547,13.391-3.547a.35.35,0,0,0-.082-.684c-.188-.015-.387-.015-.6-.015-2.781,0-7.535.926-11.625,1.851s-7.488,1.844-7.492,1.848a.354.354,0,0,0-.254.4l.348-.059" fill="#231f20"/>
    <path id="Path_34" data-name="Path 34" d="M226.07,294.09c4.457,2.711,11.817,8.5,11.817,8.5-3.715-6.254-12.875-14.887-12.875-14.887,1.418.391,12.176,6.418,12.176,6.418-3.493-7.062-16.93-16.008-16.93-16.008l13.941,7.125c-3.3-4.613-19.4-14.949-19.4-14.949,4.285,1.84,15.762,7.629,15.762,7.629-6.875-8.219-22.809-15.238-22.809-15.238,5.082.3,19.836,7.883,19.836,7.883-16.344-14.973-33.188-16.368-33.188-16.368.438,14.926,4.231,31.106,4.231,31.106,1.68-6.828,1.965-21.992,1.965-21.992-.1,11.836,4.175,28.156,4.175,28.156l2-18.32c-.707,9.015,3.8,28.851,3.8,28.851l3.317-18.617c1.027,7.8-.727,24.992-.727,24.992,3.078-4.8,6.024-16.183,6.024-16.183-.239,5.382-1.411,19.2-1.411,19.2a75.728,75.728,0,0,0,4.809-12.6c1.238,3.391.125,8.961.125,8.961,2.941,6.7,7.492,16.223,7.492,16.223a68.466,68.466,0,0,0-2.34-22.2l6.438,7.445c-1.356-6.906-8.231-15.125-8.231-15.125"/>
    <path id="Path_35" data-name="Path 35" d="M226.07,294.09l-.183.3c2.211,1.343,5.16,3.465,7.554,5.246,1.2.894,2.254,1.7,3.012,2.281s1.215.945,1.219.949a.351.351,0,0,0,.516-.457,64.36,64.36,0,0,0-7.875-9.847c-2.762-2.95-5.059-5.11-5.059-5.114l-.242.254-.094.336a7.833,7.833,0,0,1,.875.367c1.488.7,4.3,2.211,6.73,3.539,1.219.664,2.344,1.286,3.161,1.739s1.332.742,1.332.742a.349.349,0,0,0,.484-.461c-1.8-3.625-6.055-7.629-9.863-10.766s-7.18-5.371-7.184-5.379l-.2.293-.16.313,13.941,7.125a.35.35,0,0,0,.445-.516A27.016,27.016,0,0,0,230,280.684c-5.949-4.875-15.008-10.688-15.012-10.692l-.187.293-.141.32c2.129.915,6.07,2.825,9.473,4.5,1.7.84,3.269,1.618,4.414,2.188l1.855.934a.355.355,0,0,0,.434-.094.348.348,0,0,0,0-.442c-3.492-4.171-9.219-7.988-14.078-10.781s-8.848-4.551-8.859-4.555l-.141.321-.024.347a21.662,21.662,0,0,1,5.149,1.34c3.125,1.125,6.769,2.754,9.625,4.1,1.43.676,2.66,1.277,3.535,1.711s1.391.7,1.391.7a.349.349,0,0,0,.4-.566c-16.426-15.047-33.351-16.457-33.394-16.461a.346.346,0,0,0-.27.094.333.333,0,0,0-.109.261c.437,14.973,4.234,31.168,4.238,31.18a.35.35,0,0,0,.68,0,88.546,88.546,0,0,0,1.621-13.621c.281-4.653.351-8.446.351-8.446a.353.353,0,0,0-.093-.253.373.373,0,0,0-.25-.106.355.355,0,0,0-.25.1.339.339,0,0,0-.1.246c0,.136,0,.273,0,.414,0,11.871,4.188,27.812,4.188,27.828a.352.352,0,0,0,.691-.051l2-18.32-.348-.035-.351-.032c-.051.672-.071,1.395-.071,2.161a110.168,110.168,0,0,0,1.934,17.046c.973,5.481,1.938,9.747,1.941,9.754a.352.352,0,0,0,.688-.019l3.312-18.613-.339-.063-.348.043a52.481,52.481,0,0,1,.316,6.4c0,4.121-.261,8.754-.523,12.352-.133,1.8-.262,3.34-.359,4.433s-.164,1.727-.164,1.727a.351.351,0,0,0,.644.227,49.051,49.051,0,0,0,4.207-9.977c1.125-3.457,1.863-6.3,1.863-6.312l-.339-.086-.352-.016c-.117,2.684-.469,7.484-.793,11.609-.16,2.063-.316,3.961-.426,5.336s-.187,2.242-.187,2.246a.344.344,0,0,0,.25.364.356.356,0,0,0,.41-.172,75.1,75.1,0,0,0,4.832-12.676l-.336-.09-.332.117a12.166,12.166,0,0,1,.566,4.008,26.8,26.8,0,0,1-.226,3.328c-.055.442-.114.8-.156,1.051s-.071.391-.071.391a.369.369,0,0,0,.024.207c2.945,6.7,7.5,16.234,7.5,16.234a.348.348,0,0,0,.664-.129c.086-1.355.125-2.679.125-3.969a68.158,68.158,0,0,0-2.477-18.355l-.336.1-.265.23,6.437,7.441a.351.351,0,0,0,.61-.3c-.7-3.536-2.774-7.336-4.672-10.274a55.711,55.711,0,0,0-3.633-5l-.27.223-.183.3.183-.3-.265.223s.1.128.293.363a58.23,58.23,0,0,1,4,5.7,29.141,29.141,0,0,1,3.863,8.906l.344-.066.265-.231-6.437-7.445a.351.351,0,0,0-.6.336s.035.117.1.352a69.006,69.006,0,0,1,2.34,17.8c0,1.274-.035,2.586-.121,3.926l.351.02.317-.149s-.286-.593-.758-1.593c-1.414-2.993-4.528-9.61-6.731-14.622l-.32.141.344.07a27.968,27.968,0,0,0,.465-4.906,12.746,12.746,0,0,0-.606-4.242.341.341,0,0,0-.344-.23.348.348,0,0,0-.324.257s-.031.106-.086.309a74.236,74.236,0,0,1-4.7,12.223l.312.16.352.031s1.168-13.82,1.406-19.219a.342.342,0,0,0-.3-.359.346.346,0,0,0-.39.258s-.047.172-.133.492c-.3,1.117-1.1,3.984-2.152,7.09a43.613,43.613,0,0,1-3.7,8.5l.3.187.348.039c0-.008,1.047-10.289,1.047-18.586a51.845,51.845,0,0,0-.325-6.492.35.35,0,0,0-.691-.015l-3.316,18.617.347.062.34-.078s-.059-.266-.164-.746c-.742-3.387-3.7-17.5-3.7-25.9,0-.754.027-1.461.078-2.1a.351.351,0,0,0-.7-.066l-2,18.32.347.039.34-.09s-.062-.246-.179-.7c-.8-3.2-3.989-16.7-3.989-26.949v-.41a.348.348,0,1,0-.7-.008s-.02.945-.074,2.469c-.078,2.289-.238,5.882-.531,9.539a69.907,69.907,0,0,1-1.352,9.906l.34.082.34-.078s-.055-.25-.16-.723c-.731-3.285-3.68-17.3-4.059-30.316l-.352.011-.027.348s.063.008.184.02c1.867.2,17.55,2.293,32.793,16.257l.238-.257.16-.309s-3.7-1.9-8.031-3.836c-2.164-.973-4.492-1.949-6.6-2.707a21.773,21.773,0,0,0-5.34-1.379.349.349,0,0,0-.164.668s.246.109.692.317a106.513,106.513,0,0,1,9.945,5.292c4.363,2.637,9.082,5.993,12.043,9.536l.27-.227.16-.309c-.008,0-11.473-5.789-15.785-7.64a.355.355,0,0,0-.45.156.348.348,0,0,0,.117.457l.7.453c1.558,1.02,5.511,3.633,9.425,6.492,1.958,1.426,3.907,2.918,5.543,4.3a23.183,23.183,0,0,1,3.641,3.618l.285-.2.16-.312L220.418,277.8a.357.357,0,0,0-.465.137.342.342,0,0,0,.11.464s.207.141.578.4a99.629,99.629,0,0,1,7.984,6.141c3.359,2.886,6.77,6.332,8.25,9.335l.313-.156.171-.3s-2.691-1.508-5.558-3.067c-1.438-.777-2.914-1.566-4.129-2.191-.606-.309-1.145-.578-1.582-.785a8.159,8.159,0,0,0-.985-.411.357.357,0,0,0-.4.168.348.348,0,0,0,.063.426s.144.133.4.383c.894.863,3.2,3.117,5.676,5.832a58.781,58.781,0,0,1,6.738,8.594l.3-.176.218-.277c-.007,0-7.363-5.786-11.851-8.516a.347.347,0,0,0-.449.52l.265-.223" fill="#231f20"/>
    <path id="Path_36" data-name="Path 36" d="M156.563,226.184c-2.739-4.426-8.575-11.746-8.575-11.746,6.282,3.671,14.985,12.769,14.985,12.769-.4-1.414-6.5-12.117-6.5-12.117C163.566,218.531,172.6,231.9,172.6,231.9l-7.215-13.878c4.64,3.265,15.086,19.281,15.086,19.281-1.868-4.27-7.735-15.692-7.735-15.692,8.274,6.817,15.4,22.68,15.4,22.68-.336-5.07-8.016-19.758-8.016-19.758,15.094,16.227,16.59,33.035,16.59,33.035-14.953-.351-31.188-4.043-31.188-4.043,6.836-1.714,22.02-2.085,22.02-2.085-11.852.167-28.227-4.008-28.227-4.008l18.344-2.11c-9.031.762-28.926-3.617-28.926-3.617l18.629-3.418c-7.824-.984-25.035.867-25.035.867,4.8-3.1,16.18-6.1,16.18-6.1-5.391.266-19.231,1.516-19.231,1.516a76.023,76.023,0,0,1,12.6-4.872c-3.4-1.214-8.977-.074-8.977-.074-6.722-2.9-16.3-7.383-16.3-7.383a68.877,68.877,0,0,1,22.258,2.207l-7.5-6.386c6.93,1.312,15.2,8.129,15.2,8.129"/>
    <path id="Path_37" data-name="Path 37" d="M156.563,226.184l.3-.184c-2.765-4.461-8.6-11.773-8.6-11.777l-.274.215-.179.3a64.022,64.022,0,0,1,9.789,7.715c1.476,1.363,2.757,2.613,3.668,3.52.457.453.82.82,1.07,1.074s.379.4.383.4a.351.351,0,0,0,.59-.34,8.074,8.074,0,0,0-.414-.98c-1.454-3.024-6.114-11.207-6.118-11.211l-.3.172-.153.316c3.45,1.664,7.477,5.848,10.606,9.6,1.57,1.879,2.918,3.648,3.871,4.953.476.648.859,1.184,1.117,1.555l.4.574a.35.35,0,0,0,.6-.356L165.7,217.855l-.312.165-.2.285a26.735,26.735,0,0,1,4.25,4.328c2.433,2.926,5.121,6.644,7.2,9.629,1.039,1.492,1.922,2.8,2.551,3.734s.992,1.5.992,1.5a.352.352,0,0,0,.617-.332c-1.879-4.293-7.742-15.711-7.746-15.711l-.313.16-.222.27c4.078,3.355,7.918,9,10.722,13.805,1.4,2.4,2.547,4.589,3.344,6.179.4.793.707,1.438.918,1.883s.32.688.32.688a.343.343,0,0,0,.4.195.348.348,0,0,0,.265-.359,21.6,21.6,0,0,0-1.414-5.329,150.741,150.741,0,0,0-6.64-14.57l-.309.16-.258.239a66.38,66.38,0,0,1,13.883,22.484,54.1,54.1,0,0,1,2.148,7.5c.188.91.305,1.621.375,2.109.036.239.055.426.071.547s.019.184.019.184l.352-.028.008-.351a160.046,160.046,0,0,1-21.153-2.149c-2.961-.48-5.449-.953-7.2-1.3-.875-.176-1.566-.321-2.035-.422s-.727-.156-.727-.16l-.078.343.086.336a89.133,89.133,0,0,1,13.508-1.671c2.32-.153,4.43-.254,5.957-.317s2.473-.082,2.477-.082a.352.352,0,0,0-.016-.7c-.234,0-.465,0-.7,0a105.339,105.339,0,0,1-18.117-2c-2.7-.5-5.028-1-6.68-1.375-.832-.188-1.488-.34-1.941-.449s-.692-.176-.692-.176l-.09.34.043.347,18.34-2.1a.354.354,0,0,0,.309-.387.35.35,0,0,0-.379-.312c-.707.058-1.485.09-2.32.09a112.353,112.353,0,0,1-16.875-1.852c-2.711-.465-5.118-.926-6.848-1.273-.863-.176-1.559-.317-2.039-.422s-.738-.157-.738-.157l-.075.344.063.34,18.633-3.414a.353.353,0,0,0,.285-.356.348.348,0,0,0-.3-.335,49.683,49.683,0,0,0-5.965-.293c-8.4,0-19.148,1.16-19.156,1.16l.039.347.191.293a48.484,48.484,0,0,1,9.809-4.175c1.715-.567,3.285-1.04,4.426-1.368.566-.164,1.031-.293,1.347-.382l.5-.133a.35.35,0,0,0-.106-.688c-5.41.266-19.246,1.516-19.246,1.516l.031.348.164.308a64.848,64.848,0,0,1,8.3-3.5c1.23-.426,2.285-.762,3.035-.992.375-.117.672-.2.875-.266l.313-.09a.349.349,0,0,0,.257-.324.358.358,0,0,0-.234-.344,12.708,12.708,0,0,0-4.129-.578,28.1,28.1,0,0,0-5.035.492l.07.344.141-.324c-3.359-1.445-7.43-3.293-10.664-4.773-1.617-.743-3.024-1.391-4.024-1.86s-1.6-.746-1.6-.746l-.149.32.024.348c1.469-.1,2.91-.148,4.305-.148a71.041,71.041,0,0,1,12.714,1.175c1.6.289,2.875.582,3.754.805.442.109.782.2,1.012.262s.344.1.344.1a.349.349,0,0,0,.332-.6l-7.5-6.387-.231.266-.062.347c3.383.637,7.16,2.649,10.074,4.508,1.457.926,2.7,1.813,3.578,2.469.438.328.785.6,1.024.785s.363.293.363.293a.352.352,0,0,0,.523-.457l-.3.184.222-.27a55.754,55.754,0,0,0-5.031-3.6c-2.957-1.878-6.777-3.933-10.324-4.6a.351.351,0,0,0-.293.609l7.5,6.387.23-.266.1-.336a68.707,68.707,0,0,0-18.031-2.371c-1.411,0-2.864.047-4.352.149a.345.345,0,0,0-.32.285.349.349,0,0,0,.191.383s9.578,4.484,16.309,7.383a.327.327,0,0,0,.211.023s.14-.027.4-.07a27.494,27.494,0,0,1,4.5-.407,12.013,12.013,0,0,1,3.895.54l.117-.329-.094-.339a76.454,76.454,0,0,0-12.668,4.9.348.348,0,0,0-.172.406.354.354,0,0,0,.368.254s.867-.078,2.246-.2c4.144-.363,12.941-1.121,16.968-1.317l-.015-.351-.09-.34s-2.856.754-6.309,1.9a48.892,48.892,0,0,0-9.972,4.254.349.349,0,0,0,.23.641s.668-.07,1.8-.18c3.41-.324,11.019-.972,17.273-.972a49.529,49.529,0,0,1,5.875.285l.043-.348-.062-.347-18.633,3.421a.349.349,0,0,0-.012.684c.016,0,16.856,3.715,26.653,3.719.851,0,1.648-.032,2.382-.09l-.031-.352-.043-.347-18.34,2.109a.35.35,0,0,0-.047.688c.012,0,15.746,4.019,27.606,4.019h.711l0-.351-.012-.352s-3.8.094-8.461.4a89.448,89.448,0,0,0-13.633,1.7.349.349,0,0,0,.008.679c.012,0,16.254,3.7,31.258,4.051a.356.356,0,0,0,.262-.109.37.37,0,0,0,.094-.27c0-.043-1.512-16.93-16.68-33.238a.352.352,0,0,0-.461-.047.344.344,0,0,0-.106.445s.118.231.329.641c.734,1.434,2.582,5.1,4.273,8.953.852,1.926,1.66,3.9,2.273,5.664a18.752,18.752,0,0,1,1.1,4.36l.352-.024.316-.141c0-.007-1.789-3.984-4.613-8.82S177.16,224.8,172.965,221.34a.346.346,0,0,0-.445,0,.355.355,0,0,0-.094.434s.367.71.945,1.851c1.738,3.406,5.391,10.641,6.781,13.82l.321-.14.3-.192s-2.618-4.007-5.817-8.429c-1.6-2.211-3.344-4.524-4.98-6.492a26.9,26.9,0,0,0-4.387-4.454.347.347,0,0,0-.43.02.354.354,0,0,0-.082.426l7.215,13.879.313-.161.293-.2s-2.27-3.351-5.426-7.14-7.2-8.008-10.84-9.782a.35.35,0,0,0-.461.485s.379.668.957,1.7c.867,1.535,2.176,3.875,3.3,5.961.566,1.043,1.082,2.023,1.476,2.805.2.39.367.73.492,1a5.155,5.155,0,0,1,.235.574l.34-.094.254-.242c-.008,0-2.184-2.281-5.153-5.024a64.718,64.718,0,0,0-9.91-7.8.347.347,0,0,0-.441.074.341.341,0,0,0-.012.445s.363.457.953,1.207c1.77,2.262,5.563,7.211,7.6,10.5l.3-.183.222-.27-.222.27" fill="#231f20"/>
    <path id="Path_38" data-name="Path 38" d="M147.645,270.066c-5.192-.507-14.559-.312-14.559-.312,6.738-2.762,19.258-4.149,19.258-4.149-1.367-.542-13.59-2.191-13.59-2.191,7.043-3.543,23.172-2.613,23.172-2.613l-15.434-2.688c5.418-1.7,24.508-.281,24.508-.281-4.531-1.105-17.191-3.379-17.191-3.379,10.449-2.43,27.41,1.535,27.41,1.535-4.242-2.812-20.6-5.621-20.6-5.621,22.078-2.14,36.371,6.863,36.371,6.863-9.347,11.661-22.133,22.3-22.133,22.3,2.774-6.461,11.692-18.738,11.692-18.738-7.055,9.508-20.313,19.969-20.313,19.969l9.446-15.832c-4.871,7.625-20.422,20.761-20.422,20.761l8.574-16.863c-5.527,5.621-14.492,20.4-14.492,20.4.437-5.692,4.953-16.543,4.953-16.543-3.063,4.441-10.457,16.183-10.457,16.183A75.847,75.847,0,0,1,147.6,275.91c-3.032,1.965-5.5,7.082-5.5,7.082-6.383,3.578-15.766,8.457-15.766,8.457a68.635,68.635,0,0,1,15.254-16.324l-9.629,2.074c5.246-4.7,15.692-7.133,15.692-7.133"/>
    <g id="Group_5" data-name="Group 5" clip-path="url(#clip-path-5)">
      <path id="Path_39" data-name="Path 39" d="M147.645,270.066l.035-.343c-2.961-.293-7.235-.36-10.395-.36-2.43,0-4.2.039-4.207.039l.008.352.133.324a63.965,63.965,0,0,1,12.082-3.09c1.984-.347,3.754-.605,5.031-.777.637-.086,1.148-.152,1.5-.2s.547-.063.547-.063a.351.351,0,0,0,.308-.3.342.342,0,0,0-.218-.371,8.2,8.2,0,0,0-1.032-.265c-3.285-.684-12.636-1.942-12.64-1.946l-.047.348.156.313a28.109,28.109,0,0,1,8.852-2.2,85.255,85.255,0,0,1,9.453-.484c1.394,0,2.566.027,3.39.055s1.3.054,1.3.054a.358.358,0,0,0,.371-.308.351.351,0,0,0-.293-.387l-15.429-2.691-.059.347.1.332a20.023,20.023,0,0,1,4.187-.64c1.742-.129,3.762-.18,5.828-.18,3.45,0,7.043.141,9.77.277,1.367.071,2.516.141,3.32.192s1.274.09,1.274.09a.353.353,0,0,0,.371-.3.345.345,0,0,0-.262-.395c-4.559-1.113-17.207-3.383-17.211-3.383l-.062.344.082.34a36.417,36.417,0,0,1,8.039-.777,86.029,86.029,0,0,1,13.093,1.156c1.821.289,3.352.578,4.426.8.535.109.957.2,1.246.261s.442.1.442.1a.35.35,0,0,0,.273-.633,21.835,21.835,0,0,0-5.1-2.105,152.777,152.777,0,0,0-15.633-3.57l-.059.347.031.348c2.336-.227,4.578-.328,6.731-.328a65.136,65.136,0,0,1,21.508,3.578,50.427,50.427,0,0,1,5.875,2.457c.672.332,1.183.609,1.527.8.168.1.3.175.387.222s.125.078.125.078l.187-.3-.277-.218A159.175,159.175,0,0,1,182.18,272.5c-2.18,2.055-4.067,3.746-5.41,4.922-.672.594-1.2,1.051-1.571,1.363s-.562.481-.562.481l.222.265.321.137a88.486,88.486,0,0,1,6.859-11.734c1.285-1.938,2.484-3.672,3.359-4.922.438-.625.8-1.129,1.047-1.477s.387-.539.387-.539a.349.349,0,0,0-.562-.414,101.516,101.516,0,0,1-12.758,13.5c-2.09,1.9-3.965,3.5-5.317,4.629-.672.562-1.218,1.012-1.593,1.312s-.579.465-.582.465l.218.274.3.183,9.441-15.84a.35.35,0,0,0-.6-.367c-2.395,3.758-7.5,8.953-11.985,13.176-2.242,2.117-4.336,4-5.867,5.344-.769.672-1.394,1.215-1.828,1.59l-.676.578.231.265.312.161,8.574-16.864a.349.349,0,0,0-.562-.4c-2.8,2.844-6.422,7.949-9.363,12.355s-5.176,8.1-5.176,8.106l.3.18.351.027a48.4,48.4,0,0,1,2.618-10.316c.589-1.708,1.167-3.239,1.6-4.344.211-.551.391-1,.516-1.3s.191-.473.191-.473a.347.347,0,0,0-.156-.441.351.351,0,0,0-.457.109c-3.066,4.457-10.457,16.2-10.461,16.2l.3.187.348.059a63.337,63.337,0,0,1,2.25-8.715c.406-1.234.777-2.277,1.046-3.012.137-.367.246-.656.325-.855s.117-.3.117-.3a.355.355,0,0,0-.52-.426A15.356,15.356,0,0,0,143.414,280a27.256,27.256,0,0,0-1.637,2.848l.317.148-.172-.3c-3.188,1.785-7.129,3.9-10.27,5.566-1.57.832-2.941,1.555-3.922,2.066s-1.562.817-1.566.817l.164.312.293.192a69.126,69.126,0,0,1,10.1-11.926c1.48-1.395,2.75-2.473,3.644-3.2.449-.364.8-.641,1.051-.824.117-.094.211-.165.273-.208l.094-.07a.349.349,0,0,0-.277-.625l-9.629,2.07.074.344.238.262c2.555-2.3,6.45-4.074,9.7-5.262,1.625-.594,3.086-1.043,4.14-1.34.528-.152.953-.261,1.246-.336s.45-.113.45-.113a.352.352,0,0,0,.273-.363.347.347,0,0,0-.316-.324l-.035.343-.079-.336a55.326,55.326,0,0,0-5.918,1.813c-3.289,1.207-7.242,2.992-9.929,5.395a.357.357,0,0,0-.078.421.35.35,0,0,0,.386.184l9.629-2.074-.074-.344-.2-.285a69.108,69.108,0,0,0-15.344,16.418.348.348,0,0,0,.031.426.352.352,0,0,0,.426.074s9.383-4.879,15.77-8.457a.409.409,0,0,0,.148-.156s.035-.075.11-.215a27.354,27.354,0,0,1,1.867-3.125,13.646,13.646,0,0,1,3.4-3.6l-.191-.3-.325-.129a76.416,76.416,0,0,0-3.781,13.028.351.351,0,0,0,.645.242s.461-.735,1.2-1.9c2.223-3.507,6.957-10.949,9.242-14.269l-.285-.2-.328-.133s-1.133,2.719-2.317,6.156A49.015,49.015,0,0,0,149,289.2a.339.339,0,0,0,.242.356.345.345,0,0,0,.407-.149s.14-.23.394-.644c.9-1.45,3.207-5.157,5.9-9.11a85.291,85.291,0,0,1,8.148-10.582l-.25-.246-.313-.156-8.578,16.863a.345.345,0,0,0,.094.43.349.349,0,0,0,.445-.008s3.9-3.289,8.4-7.531,9.617-9.438,12.093-13.313l-.3-.183-.3-.184-9.445,15.84a.35.35,0,0,0,.519.453c.012-.012,13.273-10.469,20.371-20.039l-.277-.207-.285-.207s-2.235,3.074-4.813,6.957a88.33,88.33,0,0,0-6.914,11.852.348.348,0,0,0,.543.406c.012-.008,12.8-10.656,22.184-22.352a.346.346,0,0,0,.07-.277.332.332,0,0,0-.16-.234c-.031-.024-11.512-7.25-29.793-7.25-2.172,0-4.442.1-6.8.332a.341.341,0,0,0-.316.332.348.348,0,0,0,.289.359s.254.043.711.125c1.589.289,5.628,1.047,9.726,2.039,2.047.492,4.109,1.051,5.887,1.629a18.62,18.62,0,0,1,4.14,1.777l.2-.293.078-.343a99.007,99.007,0,0,0-19.367-2.332,37.037,37.037,0,0,0-8.2.8.356.356,0,0,0-.27.352.35.35,0,0,0,.289.336s.789.141,2.047.371c3.77.691,11.746,2.18,15.125,3l.082-.34.027-.348s-7.48-.558-14.418-.558c-2.078,0-4.109.051-5.879.183a20.34,20.34,0,0,0-4.343.672.345.345,0,0,0-.246.356.359.359,0,0,0,.289.324l15.433,2.684.063-.344.015-.352s-1.921-.109-4.726-.109a85.837,85.837,0,0,0-9.535.492,28.647,28.647,0,0,0-9.086,2.27.343.343,0,0,0-.188.367.354.354,0,0,0,.3.293s.766.1,1.934.265c1.746.246,4.406.621,6.75.993,1.172.183,2.269.367,3.133.523.429.082.8.156,1.1.223a4.547,4.547,0,0,1,.6.164l.129-.325-.039-.351s-3.141.351-7.125,1.047a64.448,64.448,0,0,0-12.227,3.129.348.348,0,0,0-.211.394.36.36,0,0,0,.352.281s.441-.011,1.183-.019,1.8-.02,3.008-.02c3.149,0,7.418.067,10.324.352l.036-.352-.079-.336.079.336" fill="#231f20"/>
    </g>
    <path id="Path_41" data-name="Path 41" d="M161.2,293.766C156.492,296,148.57,301,148.57,301c4.34-5.836,14.348-13.476,14.348-13.476-1.449.242-12.773,5.125-12.773,5.125,4.2-6.665,18.492-14.172,18.492-14.172l-14.606,5.648c3.762-4.25,20.848-12.867,20.848-12.867-4.453,1.387-16.469,5.957-16.469,5.957,7.692-7.461,24.266-12.8,24.266-12.8-5.086-.222-20.551,5.793-20.551,5.793,17.809-13.2,34.7-12.855,34.7-12.855-1.976,14.8-7.422,30.5-7.422,30.5-.965-6.969.324-22.075.324-22.075-1.128,11.778-7.074,27.571-7.074,27.571l-.1-18.434c-.227,9.047-6.758,28.309-6.758,28.309l-1.371-18.86c-1.832,7.66-1.867,24.938-1.867,24.938-2.567-5.1-4.313-16.723-4.313-16.723-.328,5.383-.59,19.246-.59,19.246a75.567,75.567,0,0,1-3.476-13.031c-1.582,3.25-1.055,8.9-1.055,8.9-3.617,6.352-9.133,15.364-9.133,15.364a68.536,68.536,0,0,1,4.629-21.84l-7.176,6.738c2.063-6.727,9.754-14.191,9.754-14.191"/>
    <path id="Path_42" data-name="Path 42" d="M161.2,293.766l-.148-.321c-4.75,2.254-12.668,7.25-12.672,7.254l.187.3.282.207a63.721,63.721,0,0,1,8.75-8.871c1.519-1.316,2.9-2.453,3.906-3.258.5-.4.906-.719,1.187-.941l.434-.336a.352.352,0,0,0,.109-.418.348.348,0,0,0-.379-.207,7.922,7.922,0,0,0-1.023.308c-3.168,1.106-11.824,4.84-11.832,4.844l.141.321.3.187c2.039-3.242,6.637-6.785,10.723-9.48,2.035-1.348,3.949-2.5,5.352-3.3.7-.4,1.273-.723,1.668-.938s.617-.332.617-.332a.35.35,0,0,0-.289-.636l-14.606,5.648.125.328.266.227a26.472,26.472,0,0,1,4.773-3.743c3.18-2.1,7.176-4.359,10.371-6.093,1.6-.867,3-1.606,4-2.125s1.594-.821,1.6-.824a.349.349,0,0,0-.262-.645c-4.48,1.395-16.488,5.965-16.5,5.965l.129.328.242.254c3.786-3.68,9.828-6.875,14.918-9.133,2.543-1.129,4.848-2.027,6.516-2.644.836-.3,1.512-.543,1.977-.7s.718-.242.718-.242a.348.348,0,0,0,.242-.379.352.352,0,0,0-.332-.3c-.1,0-.2,0-.3,0a24.869,24.869,0,0,0-5.508.914A154.179,154.179,0,0,0,162,269.879l.125.324.211.285c16.82-12.48,32.828-12.793,34.367-12.793.078,0,.117,0,.117,0l.008-.351-.348-.047a157.984,157.984,0,0,1-4.445,20.754c-.8,2.883-1.543,5.3-2.082,7-.269.851-.488,1.519-.644,1.976s-.235.7-.235.7l.332.118.344-.047a54.822,54.822,0,0,1-.352-6.985c0-3.507.168-7.265.34-10.14.082-1.442.168-2.657.235-3.516s.1-1.359.1-1.359a.343.343,0,0,0-.316-.375.349.349,0,0,0-.383.312,101.332,101.332,0,0,1-3.945,18.137c-.809,2.707-1.59,5.043-2.161,6.7-.289.828-.523,1.492-.687,1.941s-.254.7-.254.7l.324.125h.352l-.1-18.434a.35.35,0,0,0-.7-.008c-.109,4.453-1.8,11.528-3.453,17.461-.832,2.969-1.653,5.656-2.27,7.6-.308.973-.562,1.758-.738,2.3s-.285.839-.285.839l.336.114.347-.024-1.371-18.859a.35.35,0,0,0-.691-.059c-.926,3.883-1.391,10.121-1.629,15.407s-.246,9.609-.246,9.609l.352,0,.312-.16a48.354,48.354,0,0,1-3.09-10.188c-.375-1.765-.672-3.371-.875-4.539-.105-.586-.183-1.055-.234-1.383s-.078-.5-.078-.508a.353.353,0,0,0-.7.036c-.328,5.4-.589,19.257-.589,19.257l.351.008.324-.129a63.4,63.4,0,0,1-2.57-8.621c-.293-1.261-.516-2.351-.66-3.121s-.223-1.215-.223-1.215a.351.351,0,0,0-.664-.1,16.926,16.926,0,0,0-1.176,6.859c0,1.3.086,2.219.086,2.227l.352-.032-.3-.172c-1.808,3.172-4.09,7.012-5.922,10.055-.914,1.524-1.714,2.852-2.285,3.793s-.918,1.5-.918,1.5l.3.184.352.015a68.684,68.684,0,0,1,2.488-15.418c.543-1.961,1.07-3.535,1.465-4.625.2-.543.355-.961.472-1.246s.172-.426.172-.43a.349.349,0,0,0-.562-.39l-7.176,6.734.242.258.336.1c1-3.286,3.422-6.817,5.586-9.5,1.082-1.348,2.1-2.485,2.856-3.286.371-.4.679-.714.89-.929s.332-.328.332-.328a.352.352,0,0,0-.394-.571l.148.321-.246-.254a57.839,57.839,0,0,0-4.133,4.605c-2.191,2.727-4.652,6.293-5.711,9.738a.349.349,0,0,0,.149.4.353.353,0,0,0,.429-.043l7.172-6.738-.238-.254-.324-.137a68.849,68.849,0,0,0-4.656,21.965.352.352,0,0,0,.652.2s5.516-9.015,9.133-15.375a.319.319,0,0,0,.047-.2s0-.055-.012-.156c-.027-.309-.07-1.051-.07-2.008a16.285,16.285,0,0,1,1.1-6.551l-.316-.156-.348.059a76.377,76.377,0,0,0,3.5,13.1.359.359,0,0,0,.391.219.355.355,0,0,0,.289-.34s.015-.867.047-2.25c.089-4.148.3-12.961.539-16.984l-.348-.02-.348.051s.438,2.918,1.2,6.473a49.014,49.014,0,0,0,3.144,10.355.353.353,0,0,0,.668-.156s0-1.074.031-2.813c.051-2.605.164-6.7.438-10.847a74.562,74.562,0,0,1,1.387-11.2l-.34-.082-.352.024,1.371,18.859a.352.352,0,0,0,.684.09s1.637-4.824,3.3-10.781,3.363-13.039,3.48-17.633l-.351-.008-.348,0,.094,18.43a.354.354,0,0,0,.293.343.348.348,0,0,0,.386-.218c.008-.016,5.957-15.809,7.094-27.664l-.348-.032-.351-.031s-.684,8.012-.684,15.074a55.075,55.075,0,0,0,.364,7.078.343.343,0,0,0,.312.3.347.347,0,0,0,.363-.234c0-.012,5.457-15.727,7.442-30.57a.344.344,0,0,0-.336-.395s-.051,0-.137,0c-1.625,0-17.793.324-34.785,12.93a.349.349,0,0,0,.336.605s.23-.09.648-.246c1.461-.555,5.188-1.941,9.129-3.187,1.969-.625,3.992-1.211,5.809-1.641a21.637,21.637,0,0,1,4.547-.7c.093,0,.187,0,.273,0l.016-.348-.106-.336c-.011,0-4.164,1.34-9.285,3.617s-11.215,5.485-15.121,9.27a.349.349,0,0,0-.051.441.358.358,0,0,0,.422.141s.746-.289,1.945-.738c3.583-1.352,11.184-4.184,14.5-5.219l-.1-.332-.156-.313s-4.278,2.157-9.032,4.848c-2.375,1.344-4.867,2.824-7.007,4.234a26.874,26.874,0,0,0-4.914,3.864.35.35,0,0,0,.39.558l14.6-5.648-.125-.324-.164-.313s-3.586,1.887-7.7,4.61-8.761,6.265-10.925,9.687a.346.346,0,0,0,.031.414.342.342,0,0,0,.406.094s.707-.3,1.789-.766c1.625-.691,4.1-1.734,6.3-2.629,1.1-.445,2.133-.851,2.953-1.16.41-.156.766-.285,1.051-.375a4.641,4.641,0,0,1,.6-.172l-.059-.343-.211-.278c-.008,0-2.512,1.914-5.566,4.563a64.506,64.506,0,0,0-8.856,8.98.352.352,0,0,0,.469.508s.492-.313,1.312-.816c2.442-1.508,7.782-4.735,11.286-6.395l-.149-.316-.246-.254.246.254" fill="#231f20"/>
    <g id="Group_6" data-name="Group 6" clip-path="url(#clip-path-6)">
      <path id="Path_43" data-name="Path 43" d="M444.859,433.594V341.613H387.207v91.981H366.059V435.2h99.949v-1.609Zm-56.035,0V343.223h54.418v90.371Zm0,0"/>
    </g>
    <path id="Path_45" data-name="Path 45" d="M436.641,390.016A3.634,3.634,0,0,0,433,393.637v2.949a3.637,3.637,0,0,0,7.273,0v-2.949A3.634,3.634,0,0,0,436.641,390.016Zm2.023,6.57a2.022,2.022,0,0,1-4.043,0v-2.949a2.022,2.022,0,0,1,4.043,0Zm0,0"/>
    <g id="Group_7" data-name="Group 7" clip-path="url(#clip-path-7)">
      <path id="Path_46" data-name="Path 46" d="M534.813,366.887H519.285V344.734h15.528Zm0,24.937H519.285V369.672h15.528Zm-18.274-24.937H501.012V344.734h15.527Zm0,24.937H501.012V369.672h15.527Zm-20.574-51.7v56.309h43.894V340.125H495.965" fill="#040606"/>
    </g>
    <path id="Path_48" data-name="Path 48" d="M3.758,0H183.751" transform="translate(319.808 182.741)" fill="none" stroke="#000" stroke-linecap="round" stroke-width="7.514"/>
    <path id="Path_49" data-name="Path 49" d="M3.753,0H45.758" transform="matrix(0.688, -0.726, 0.726, 0.688, 290.066, 216.192)" fill="none" stroke="#000" stroke-linecap="round" stroke-width="7.586"/>
    <path id="Path_50" data-name="Path 50" d="M3.75,0h37.5" transform="matrix(-0.694, -0.72, 0.72, -0.694, 534.222, 212.316)" fill="none" stroke="#000" stroke-linecap="round" stroke-width="7.584"/>
  </g>
</svg>
