<svg xmlns="http://www.w3.org/2000/svg" xmlns:xlink="http://www.w3.org/1999/xlink" width="163.43" height="129.75" viewBox="0 0 163.43 129.75"><defs><clipPath id="a"><path d="M565.422,352.82h163.43V482.57H565.422Zm0,0"/></clipPath></defs><g transform="translate(-565.422 -352.82)" clip-path="url(#a)"><path d="M565.469,352.82v34.231h6.8V482.9h6.8V387.051H715.2V482.9H722V387.051h6.809V352.82Zm6.8,6.844H722V380.2H572.273Zm17.016,6.848v6.847h6.8v-6.847Zm20.418,0v6.847h6.805v-6.847Zm20.418,0v6.847h34.027v-6.847Zm47.641,0v6.847h6.8v-6.847Zm20.414,0v6.847h6.808v-6.847Zm-69.8,37.656A17.038,17.038,0,0,0,612.6,414.879l-5.613,14-2.457,2.457a17.15,17.15,0,0,0-5.039,12.156v32.559A6.875,6.875,0,0,0,606.3,482.9h3.4a6.875,6.875,0,0,0,6.805-6.847V474.02a231.939,231.939,0,0,0,61.254,0v2.031a6.872,6.872,0,0,0,6.8,6.847h3.4a6.872,6.872,0,0,0,6.8-6.847V443.492a17.141,17.141,0,0,0-5.035-12.156l-2.461-2.457-5.609-14A17.042,17.042,0,0,0,665.9,404.168Zm0,6.844H665.9a10.206,10.206,0,0,1,9.464,6.433l5.875,14.657a3.524,3.524,0,0,0,.77,1.148l2.953,2.953a10.309,10.309,0,0,1,3.016,7.289v32.559h-3.4v-5.668A3.408,3.408,0,0,0,680.621,467c-6.75,1.1-17.48,2.207-33.484,2.207S620.406,468.1,613.652,467a3.407,3.407,0,0,0-3.945,3.383v5.668h-3.4V443.492a10.312,10.312,0,0,1,3.015-7.289l2.95-2.953a3.489,3.489,0,0,0,.773-1.148l5.875-14.657A10.2,10.2,0,0,1,628.383,411.012Zm-10.168,34.23a5.135,5.135,0,1,0,5.1,5.137A5.122,5.122,0,0,0,618.215,445.242Zm57.848,0a5.135,5.135,0,1,0,5.105,5.137A5.124,5.124,0,0,0,676.063,445.242Zm-42.536,3.426v6.844H660.75v-6.844Zm0,0"/></g></svg>