<svg xmlns="http://www.w3.org/2000/svg" xmlns:xlink="http://www.w3.org/1999/xlink" width="39" height="73.801" viewBox="0 0 39 73.801"><defs><clipPath id="a"><path d="M142,231.2h39V305H142Zm0,0"/></clipPath></defs><g transform="translate(-142 -231.199)" clip-path="url(#a)"><path d="M160.9,254.816l.336-.074c-.558-2.465-1.074-5.984-1.449-8.879-.187-1.445-.34-2.742-.445-3.672s-.164-1.5-.164-1.5a.338.338,0,0,0-.313-.3.343.343,0,0,0-.359.25,56.723,56.723,0,0,0-1.473,10.461c-.226,3.543-.258,6.695-.258,8.078,0,.476,0,.746,0,.746l.344,0,.3-.164a6.807,6.807,0,0,1-.336-.863c-.52-1.524-1.375-4.528-2.094-7.141-.363-1.309-.691-2.52-.926-3.4s-.386-1.442-.386-1.442a.346.346,0,0,0-.317-.258.35.35,0,0,0-.34.227,27.266,27.266,0,0,0-1.113,8.633,92.4,92.4,0,0,0,1.356,14.344l.335-.063.333-.1-4.481-14.648a.341.341,0,0,0-.664.035,14.217,14.217,0,0,0-.18,2.527,97.418,97.418,0,0,0,1.434,13.4c.715,4.453,1.43,8.015,1.433,8.015l.336-.066.321-.121c-.809-2.117-2.153-6.188-3.289-9.719-.571-1.765-1.086-3.4-1.461-4.594s-.61-1.937-.61-1.941a.345.345,0,0,0-.672.066,27.643,27.643,0,0,0-.14,2.817c.008,10.363,4.961,23.73,4.965,23.746l.32-.117.262-.223a20.841,20.841,0,0,1-2.559-4.527c-1.34-2.965-2.676-6.633-3.672-9.555-.5-1.461-.914-2.738-1.2-3.648s-.453-1.453-.453-1.453a.345.345,0,0,0-.676.109c.59,21.793,11.125,34.637,11.156,34.668a.334.334,0,0,0,.247.125.338.338,0,0,0,.261-.1c10.25-10.511,19.071-24.215,19.078-24.222a.347.347,0,0,0-.043-.422.338.338,0,0,0-.421-.059,86.879,86.879,0,0,0-10.7,8.141c-3.468,2.972-6.191,5.508-6.2,5.512a.341.341,0,0,0-.016.484.354.354,0,0,0,.243.109.363.363,0,0,0,.246-.093c8.457-8.051,17.035-22.18,17.046-22.192a.345.345,0,0,0-.507-.449L159.07,282.375l.215.27.215.265c3.473-2.871,7.906-8.457,11.5-13.344s6.317-9.058,6.32-9.062a.344.344,0,0,0-.046-.434.348.348,0,0,0-.434-.035l-15.375,10.356.2.285.27.215c2.363-2.981,6.887-7.118,10.8-10.485,1.961-1.683,3.773-3.179,5.093-4.258.66-.539,1.2-.968,1.571-1.265s.578-.461.578-.461a.343.343,0,0,0-.278-.606,48.04,48.04,0,0,0-9.894,3.844c-3.2,1.567-5.711,2.992-5.715,3l.168.3.227.254c1.972-1.742,5.593-4.769,8.722-7.355,1.563-1.289,3-2.473,4.051-3.336s1.7-1.4,1.707-1.4a.343.343,0,0,0-.316-.594,74,74,0,0,0-12.219,5.243l.164.3.309.149a14.265,14.265,0,0,1,3.6-4.18c.672-.566,1.3-1.039,1.754-1.367.234-.164.418-.293.547-.379s.2-.133.2-.133a.349.349,0,0,0,.129-.156c2.715-6.637,6.332-16.328,6.332-16.328a.342.342,0,0,0-.125-.4.347.347,0,0,0-.422.019,67.459,67.459,0,0,0-14.121,16.871l.3.164.344.031.855-9.593a.345.345,0,0,0-.625-.231c-2.016,2.9-3.281,6.953-4.055,10.289a54.39,54.39,0,0,0-1.05,5.961l.339.035.336-.074-.336.074.344.039s.016-.16.055-.453a55.593,55.593,0,0,1,1.293-6.691,28.43,28.43,0,0,1,3.636-8.789l-.281-.192-.34-.031-.859,9.594a.339.339,0,0,0,.242.359.349.349,0,0,0,.4-.164s.015-.031.054-.1a67.3,67.3,0,0,1,13.91-16.578l-.222-.262-.321-.117s-.226.6-.609,1.613c-1.141,3.035-3.684,9.73-5.711,14.691l.317.129-.188-.285a26.214,26.214,0,0,0-2.57,1.93,15,15,0,0,0-3.778,4.4.346.346,0,0,0,.071.4.341.341,0,0,0,.4.05s.1-.05.281-.148a72.858,72.858,0,0,1,11.809-5.031l-.1-.332-.215-.262s-10.535,8.59-14.5,12.105a.344.344,0,0,0,.4.555s.152-.086.437-.242c.993-.551,3.551-1.945,6.461-3.317a42.455,42.455,0,0,1,8.5-3.2l-.066-.34-.215-.265s-3.332,2.625-7.262,6-8.465,7.515-10.894,10.574a.344.344,0,0,0,.461.5L177.223,260.6l-.2-.286-.285-.187s-.168.262-.48.726c-1.09,1.629-3.907,5.793-7.192,10.157s-7.058,8.937-10.007,11.371a.341.341,0,0,0,.429.531l14.278-11.078-.211-.266-.293-.179s-.133.218-.383.617c-1.75,2.8-9.242,14.484-16.551,21.433a.34.34,0,0,0-.012.481.346.346,0,0,0,.485.016l.476-.442c1.078-.992,3.864-3.516,7.024-6.176a77.926,77.926,0,0,1,9.269-6.945l-.172-.3-.289-.183s-.136.21-.4.605a176.622,176.622,0,0,1-18.594,23.512l.25.238.262-.219s-.035-.047-.113-.14c-1.125-1.45-10.34-13.887-10.883-34.114l-.344.008-.328.1s1.18,3.89,2.769,8.254c.793,2.183,1.688,4.484,2.59,6.484a21.229,21.229,0,0,0,2.668,4.691.342.342,0,0,0,.434.075.35.35,0,0,0,.148-.414l-.211-.59c-.941-2.684-4.711-14.028-4.711-22.922a25.759,25.759,0,0,1,.137-2.742l-.34-.035-.328.1c0,.008,3.738,12,5.371,16.293a.344.344,0,0,0,.66-.187s-.179-.887-.445-2.332c-.805-4.325-2.41-13.664-2.41-18.954a14.072,14.072,0,0,1,.168-2.4l-.336-.062-.328.1,4.48,14.649a.34.34,0,0,0,.407.23.344.344,0,0,0,.257-.394s-.082-.454-.211-1.247a89.443,89.443,0,0,1-1.132-12.972,26.466,26.466,0,0,1,1.074-8.4l-.324-.113-.332.086s.769,2.918,1.628,6c.43,1.535.879,3.114,1.266,4.391.195.637.375,1.2.527,1.644a7.139,7.139,0,0,0,.383.973.344.344,0,0,0,.387.168.351.351,0,0,0,.258-.336s0-.262,0-.738c0-1.375.031-4.516.258-8.035a55.827,55.827,0,0,1,1.449-10.325l-.332-.086-.34.036s.934,9.113,2.07,14.125a.334.334,0,0,0,.352.269.349.349,0,0,0,.324-.305l-.344-.039" fill="#231f20"/></g></svg>