<svg xmlns="http://www.w3.org/2000/svg" xmlns:xlink="http://www.w3.org/1999/xlink" width="37" height="73.801" viewBox="0 0 37 73.801"><defs><clipPath id="a"><path d="M143,231.2h37V305H143Zm0,0"/></clipPath></defs><g transform="translate(-143 -231.199)" clip-path="url(#a)"><path d="M160.9,254.816c-1.125-4.972-2.062-14.086-2.062-14.086-1.875,6.868-1.715,19.188-1.715,19.188-.691-1.262-3.773-12.926-3.773-12.926-2.6,7.266.253,22.8.253,22.8l-4.476-14.648c-1,5.464,2.687,23.816,2.687,23.816-1.628-4.266-5.367-16.269-5.367-16.269-1.1,10.429,4.8,26.406,4.8,26.406-3.246-3.774-7.957-19.309-7.957-19.309.586,21.684,11.078,34.465,11.078,34.465,10.219-10.477,19.031-24.172,19.031-24.172-5.953,3.477-16.832,13.61-16.832,13.61,8.407-7.993,16.989-22.118,16.989-22.118l-14.274,11.075c6.836-5.649,17.742-22.329,17.742-22.329l-15.371,10.36c4.8-6.043,18.1-16.528,18.1-16.528-5.488,1.118-15.508,6.805-15.508,6.805,3.957-3.5,14.488-12.1,14.488-12.1a74.464,74.464,0,0,0-12.152,5.214c1.543-3.183,6.227-6.2,6.227-6.2,2.71-6.625,6.324-16.316,6.324-16.316a67.258,67.258,0,0,0-14.043,16.773l.855-9.594c-3.941,5.657-5.047,16.086-5.047,16.086"/></g></svg>