<svg xmlns="http://www.w3.org/2000/svg" xmlns:xlink="http://www.w3.org/1999/xlink" width="73.211" height="39" viewBox="0 0 73.211 39"><defs><clipPath id="a"><path d="M153,290h73.211v39H153Zm0,0"/></clipPath></defs><g transform="translate(-153 -290)" clip-path="url(#a)"><path d="M203.223,309.059l.058.336c2.492-.45,6.032-.813,8.942-1.059,1.457-.125,2.757-.223,3.691-.289s1.508-.094,1.508-.094a.346.346,0,0,0,.32-.3.339.339,0,0,0-.234-.371,63.468,63.468,0,0,0-12.18-2.1c-3.945-.364-7.031-.457-7.039-.457l-.012.343.157.3a7.074,7.074,0,0,1,.879-.3c1.542-.453,4.585-1.176,7.23-1.785,1.324-.3,2.551-.574,3.445-.773l1.457-.325a.338.338,0,0,0,.059-.648c-2.949-1.2-7.2-1.535-11.266-1.539a96.885,96.885,0,0,0-11.73.785l.047.34.086.332,14.847-3.836a.343.343,0,0,0-.011-.668,19.262,19.262,0,0,0-3.989-.316c-7.511,0-20.07,1.964-20.078,1.964l.055.34.105.324c2.157-.714,6.282-1.875,9.868-2.859,1.789-.488,3.445-.937,4.652-1.262l1.969-.523a.343.343,0,0,0-.036-.672,29.766,29.766,0,0,0-4.339-.293c-10.121,0-22.426,3.957-22.442,3.957l.106.328.211.27a20.908,20.908,0,0,1,4.64-2.36c3.024-1.207,6.75-2.382,9.715-3.25,1.484-.433,2.781-.793,3.7-1.043s1.473-.39,1.473-.39a.344.344,0,0,0-.078-.676c-.383-.008-.762-.008-1.137-.008-21.152,0-33.992,9.613-34.027,9.637a.351.351,0,0,0-.137.246.338.338,0,0,0,.094.266c10.07,10.679,23.4,20.07,23.406,20.078a.345.345,0,0,0,.422-.02.337.337,0,0,0,.078-.418,86.5,86.5,0,0,0-7.684-11.027c-2.82-3.59-5.242-6.414-5.242-6.418a.345.345,0,0,0-.234-.121.368.368,0,0,0-.254.086.353.353,0,0,0-.117.234.347.347,0,0,0,.086.25c7.679,8.785,21.449,17.953,21.461,17.965a.349.349,0,0,0,.437-.047.342.342,0,0,0,.031-.437L175.73,306.047l-.281.2-.273.207c2.722,3.582,8.121,8.246,12.855,12.043s8.789,6.692,8.789,6.7a.349.349,0,0,0,.438-.031.339.339,0,0,0,.058-.43l-9.7-15.789-.289.18-.226.262a93.394,93.394,0,0,1,10.019,11.234c1.6,2.028,3.02,3.9,4.039,5.266.512.68.918,1.234,1.2,1.621s.438.6.438.6a.344.344,0,0,0,.617-.254,47.837,47.837,0,0,0-3.418-10.039c-1.429-3.262-2.746-5.825-2.75-5.829l-.3.153-.266.219c1.66,2.039,4.527,5.785,6.98,9.015,1.227,1.617,2.348,3.1,3.164,4.188s1.321,1.761,1.325,1.761a.344.344,0,0,0,.425.106.34.34,0,0,0,.18-.395,73.822,73.822,0,0,0-4.711-12.418l-.308.153-.164.3a14.237,14.237,0,0,1,4.027,3.774c.539.7.984,1.344,1.293,1.812.152.235.273.43.355.559l.125.2a.325.325,0,0,0,.153.137c6.519,3,16.054,7.023,16.058,7.023a.34.34,0,0,0,.4-.523,67.682,67.682,0,0,0-16.262-14.824l-.18.3-.043.336,9.559,1.27a.332.332,0,0,0,.359-.207.337.337,0,0,0-.105-.406c-2.813-2.137-6.809-3.571-10.114-4.489a56.564,56.564,0,0,0-5.921-1.308l-.047.34.058.336-.058-.336-.055.339s.156.024.449.075a56.767,56.767,0,0,1,6.641,1.578,28.551,28.551,0,0,1,8.629,4.012l.207-.274.047-.34-9.563-1.265a.338.338,0,0,0-.367.222.344.344,0,0,0,.144.407l.1.058a67.516,67.516,0,0,1,15.985,14.6l.269-.211.133-.313s-.594-.254-1.59-.675c-2.988-1.274-9.57-4.1-14.449-6.34l-.145.312.3-.176a28.012,28.012,0,0,0-1.82-2.648,14.983,14.983,0,0,0-4.242-3.957.345.345,0,0,0-.4.055.349.349,0,0,0-.07.4s.051.1.141.285a72.469,72.469,0,0,1,4.523,12l.336-.086.273-.207s-8.144-10.879-11.488-14.988a.343.343,0,0,0-.57.375l.222.445c.508,1.016,1.793,3.629,3.043,6.59a42.743,42.743,0,0,1,2.836,8.625l.34-.055.274-.2s-2.481-3.437-5.692-7.508-7.152-8.769-10.109-11.328a.344.344,0,0,0-.445,0,.337.337,0,0,0-.071.438l9.7,15.789.3-.18.2-.277s-.254-.184-.7-.512c-1.586-1.156-5.625-4.144-9.852-7.613s-8.641-7.43-10.945-10.469a.343.343,0,0,0-.477-.074.347.347,0,0,0-.078.476l10.469,14.723.281-.2.187-.281-.6-.41c-2.731-1.868-14.094-9.844-20.727-17.434a.342.342,0,0,0-.519.445s.152.176.422.5c.941,1.121,3.355,4,5.875,7.274A77.232,77.232,0,0,1,177.1,320.6l.305-.157.2-.281s-.207-.144-.589-.426A176.765,176.765,0,0,1,154.3,300.168l-.25.234.207.274s.047-.031.14-.1c1.446-1.023,13.848-9.4,33.477-9.4.371,0,.75,0,1.125.008l0-.344-.082-.332c-.008,0-3.945,1.012-8.379,2.406-2.215.7-4.559,1.492-6.6,2.309a21.217,21.217,0,0,0-4.808,2.461.334.334,0,0,0-.094.425.343.343,0,0,0,.41.168l.543-.168c2.473-.75,12.977-3.761,21.688-3.757a29.252,29.252,0,0,1,4.238.285l.051-.34-.09-.332s-12.168,3.215-16.528,4.656a.343.343,0,0,0,.161.664s.781-.121,2.078-.3a153.615,153.615,0,0,1,17.894-1.648,18.82,18.82,0,0,1,3.836.3l.078-.332-.086-.332L188.469,300.8a.343.343,0,0,0-.25.4.347.347,0,0,0,.386.274s.344-.047.965-.121a96.162,96.162,0,0,1,10.668-.661c4.02,0,8.227.356,11.008,1.489l.129-.317-.074-.336s-2.949.641-6.067,1.368c-1.558.359-3.152.742-4.445,1.074-.648.164-1.219.316-1.672.453a6.966,6.966,0,0,0-.988.34.341.341,0,0,0-.184.379.345.345,0,0,0,.325.269s.765.028,2.023.094c3.773.2,11.98.824,17,2.434l.1-.329-.023-.343s-9.156.543-14.219,1.457a.339.339,0,0,0-.281.343.336.336,0,0,0,.289.332l.055-.339" fill="#231f20"/></g></svg>