<svg xmlns="http://www.w3.org/2000/svg" width="43.261" height="69.038" viewBox="0 0 43.261 69.038"><path d="M184.117,340.43l-.179.289c2.164,1.316,5.054,3.394,7.394,5.14,1.172.875,2.211,1.664,2.953,2.235s1.188.926,1.192.926a.343.343,0,0,0,.437-.012.346.346,0,0,0,.07-.434,63.583,63.583,0,0,0-7.711-9.648c-2.707-2.887-4.953-5-4.957-5.008l-.234.25-.094.332a6.9,6.9,0,0,1,.856.359c1.457.684,4.211,2.164,6.594,3.461,1.191.653,2.289,1.262,3.089,1.707s1.309.727,1.309.727a.343.343,0,0,0,.473-.453c-1.762-3.551-5.93-7.473-9.657-10.543s-7.031-5.266-7.035-5.27l-.191.285-.156.309,13.652,6.977a.34.34,0,0,0,.433-.5,26.146,26.146,0,0,0-4.39-4.262c-5.824-4.777-14.692-10.473-14.7-10.473l-.184.285-.137.317c2.086.894,5.946,2.765,9.274,4.406,1.668.82,3.2,1.586,4.324,2.145s1.816.914,1.816.914a.349.349,0,0,0,.426-.094.335.335,0,0,0-.008-.43c-3.418-4.086-9.023-7.824-13.781-10.562s-8.664-4.457-8.672-4.461l-.14.312-.02.344a20.676,20.676,0,0,1,5.039,1.313c3.059,1.1,6.629,2.7,9.422,4.011,1.4.66,2.6,1.25,3.461,1.676s1.359.684,1.359.688a.349.349,0,0,0,.442-.114.341.341,0,0,0-.047-.445c-16.086-14.738-32.652-16.121-32.695-16.125a.347.347,0,0,0-.266.094.339.339,0,0,0-.109.257c.429,14.668,4.148,30.528,4.152,30.54a.338.338,0,0,0,.332.265.35.35,0,0,0,.336-.262,87.281,87.281,0,0,0,1.586-13.343c.273-4.555.344-8.27.344-8.274a.343.343,0,0,0-.094-.246.353.353,0,0,0-.242-.1.339.339,0,0,0-.246.1.343.343,0,0,0-.1.242c0,.133,0,.27,0,.407,0,11.625,4.1,27.242,4.1,27.258a.341.341,0,0,0,.359.257.347.347,0,0,0,.316-.308l1.961-17.946-.34-.035-.343-.027c-.051.656-.074,1.363-.074,2.113a107.492,107.492,0,0,0,1.9,16.7c.949,5.368,1.894,9.547,1.9,9.551a.343.343,0,0,0,.672-.015l3.246-18.235-.336-.058-.339.043a51.414,51.414,0,0,1,.308,6.269c0,4.039-.254,8.574-.512,12.1-.128,1.761-.253,3.273-.351,4.344s-.16,1.691-.16,1.691a.346.346,0,0,0,.226.359.336.336,0,0,0,.4-.14,47.828,47.828,0,0,0,4.121-9.77c1.1-3.383,1.824-6.176,1.824-6.183l-.332-.086-.344-.012c-.117,2.625-.461,7.328-.777,11.371-.156,2.02-.309,3.879-.418,5.227s-.184,2.2-.184,2.2a.344.344,0,0,0,.246.359.352.352,0,0,0,.4-.172,73.962,73.962,0,0,0,4.73-12.414l-.328-.09-.324.118a11.864,11.864,0,0,1,.551,3.921,26.721,26.721,0,0,1-.219,3.262c-.055.43-.113.785-.152,1.031s-.071.379-.071.379a.326.326,0,0,0,.024.2c2.882,6.567,7.339,15.9,7.339,15.9a.34.34,0,0,0,.649-.125c.086-1.328.121-2.625.121-3.887a66.553,66.553,0,0,0-2.426-17.98l-.324.1-.262.223,6.3,7.293a.348.348,0,0,0,.41.082.342.342,0,0,0,.188-.375c-.68-3.461-2.715-7.188-4.574-10.063a55.127,55.127,0,0,0-3.555-4.906l-.266.223-.179.289.179-.289-.262.218s.1.122.29.352a57.872,57.872,0,0,1,3.91,5.586,28.325,28.325,0,0,1,3.781,8.723l.34-.067.262-.226-6.305-7.289a.341.341,0,0,0-.426-.075.346.346,0,0,0-.16.4s.035.113.1.343a67.721,67.721,0,0,1,2.29,17.434c0,1.246-.032,2.535-.118,3.844l.344.019.309-.144s-.278-.582-.739-1.559c-1.386-2.933-4.433-9.414-6.589-14.324l-.317.137.336.066a27.269,27.269,0,0,0,.457-4.8,12.541,12.541,0,0,0-.594-4.156.34.34,0,0,0-.336-.226.345.345,0,0,0-.316.254s-.031.105-.086.3a72.7,72.7,0,0,1-4.6,11.973l.309.156.34.031s1.148-13.535,1.379-18.824a.335.335,0,0,0-.289-.355.345.345,0,0,0-.387.254s-.043.168-.129.484c-.293,1.094-1.074,3.9-2.1,6.941a42.818,42.818,0,0,1-3.618,8.328l.289.184.34.039c0-.008,1.028-10.082,1.028-18.207a50.548,50.548,0,0,0-.321-6.359.342.342,0,0,0-.675-.016L168.6,348.105l.34.063.332-.078s-.054-.258-.16-.731c-.726-3.312-3.621-17.144-3.621-25.367,0-.738.027-1.429.078-2.058a.345.345,0,0,0-.687-.063l-1.961,17.945.344.036.328-.086s-.063-.243-.176-.692c-.777-3.133-3.906-16.351-3.9-26.394v-.4a.342.342,0,0,0-.684-.007s-.02.925-.07,2.418c-.078,2.242-.235,5.761-.524,9.343a68.127,68.127,0,0,1-1.32,9.7l.336.082.332-.078s-.059-.246-.16-.707a176.421,176.421,0,0,1-3.973-29.7l-.344.012-.027.34s.059,0,.18.019c1.828.2,17.183,2.246,32.1,15.926l.234-.254.157-.3s-3.617-1.859-7.864-3.754c-2.121-.953-4.4-1.91-6.464-2.656a21.206,21.206,0,0,0-5.227-1.348.34.34,0,0,0-.355.258.351.351,0,0,0,.191.4s.242.105.68.308a104.673,104.673,0,0,1,9.738,5.184c4.273,2.582,8.891,5.871,11.793,9.34l.262-.219.156-.3s-11.234-5.672-15.457-7.484a.342.342,0,0,0-.438.156.334.334,0,0,0,.118.445l.679.442c1.531,1,5.4,3.558,9.235,6.359,1.914,1.4,3.82,2.86,5.421,4.211a22.766,22.766,0,0,1,3.567,3.543l.281-.2.152-.3-13.648-6.98a.346.346,0,0,0-.453.133.337.337,0,0,0,.1.457s.2.136.567.39a96.484,96.484,0,0,1,7.816,6.016c3.293,2.828,6.629,6.2,8.078,9.144l.309-.156.164-.3s-2.633-1.476-5.441-3c-1.407-.757-2.852-1.535-4.039-2.144-.594-.3-1.125-.567-1.551-.77a8.192,8.192,0,0,0-.965-.4.345.345,0,0,0-.328.582s.14.129.394.371c.875.848,3.129,3.055,5.559,5.715a57.421,57.421,0,0,1,6.594,8.422l.3-.176.21-.27s-7.207-5.671-11.6-8.343a.341.341,0,0,0-.438.066.349.349,0,0,0,0,.445l.262-.218" transform="translate(-152.77 -301.003)" fill="#231f20"/></svg>