<svg xmlns="http://www.w3.org/2000/svg" width="71.656" height="37.427" viewBox="0 0 71.656 37.427"><path d="M203.223,309.059c5.023-.907,14.179-1.45,14.179-1.45-6.793-2.168-19.125-2.539-19.125-2.539,1.3-.632,13.1-3.207,13.1-3.207-7.156-2.906-22.82-.73-22.82-.73L203.4,297.3c-5.418-1.234-23.937,1.652-23.937,1.652,4.336-1.437,16.508-4.652,16.508-4.652-10.387-1.551-26.625,3.652-26.625,3.652C173.266,294.875,189,290.84,189,290.84c-21.719-.348-34.953,9.562-34.953,9.562,10.039,10.649,23.359,20.039,23.359,20.039-3.219-6.093-12.887-17.382-12.887-17.382,7.633,8.73,21.4,17.9,21.4,17.9l-10.469-14.715c5.36,7.063,21.574,18.664,21.574,18.664l-9.7-15.789c5.836,5.051,15.75,18.777,15.75,18.777-.883-5.519-6.136-15.765-6.136-15.765,3.335,4.1,11.48,14.98,11.48,14.98a74.276,74.276,0,0,0-4.691-12.351c3.117,1.679,5.929,6.48,5.929,6.48,6.516,2.992,16.051,7.016,16.051,7.016a67.206,67.206,0,0,0-16.172-14.735l9.559,1.266c-5.489-4.176-15.871-5.73-15.871-5.73" transform="translate(-154.051 -290.831)"/></svg>