<svg xmlns="http://www.w3.org/2000/svg" width="11.883" height="13.738" viewBox="0 0 11.883 13.738"><path d="M152.949,295.563l.254.226s2.582-2.934,5.164-6.023c1.289-1.543,2.582-3.125,3.551-4.4.484-.64.9-1.2,1.184-1.656.144-.227.261-.422.347-.594a1.155,1.155,0,0,0,.149-.5l-.016-.133,0-.015a.422.422,0,0,0-.207-.242.458.458,0,0,0-.23-.055,1.252,1.252,0,0,0-.446.109,15.166,15.166,0,0,0-2.621,1.649,39.949,39.949,0,0,0-5.4,4.793,17.153,17.153,0,0,0-2.086,2.7,5.128,5.128,0,0,0-.871,2.527,2.185,2.185,0,0,0,1.043,1.9.337.337,0,0,0,.445-.059l-.254-.226.188-.286a1.658,1.658,0,0,1-.563-.589,1.626,1.626,0,0,1-.172-.739,6.172,6.172,0,0,1,1.5-3.246,32.664,32.664,0,0,1,5.434-5.348c.953-.753,1.84-1.39,2.535-1.835a9.968,9.968,0,0,1,.879-.512,2.253,2.253,0,0,1,.285-.125l.086-.024.02,0v-.2l-.086.168.086.027v-.2l-.086.168.121-.238-.254.086.133.152.121-.238-.254.086.328-.106-.332.086.156-.043h-.164l.008.043.156-.043h-.086l-.078-.008v.008h.078l-.078-.008a.79.79,0,0,1-.1.254,25.093,25.093,0,0,1-2.082,2.922c-1.508,1.922-3.524,4.317-5.153,6.223-.816.953-1.539,1.789-2.054,2.383s-.829.949-.829.949l.258.227.188-.286-.188.286" transform="translate(-151.715 -282.168)" fill="#231f20"/></svg>