<svg xmlns="http://www.w3.org/2000/svg" width="69.18" height="40.568" viewBox="0 0 69.18 40.568"><path d="M107.332,316.9c-5.078-.5-14.254-.308-14.254-.308,6.6-2.707,18.856-4.067,18.856-4.067-1.336-.527-13.305-2.144-13.305-2.144,6.9-3.469,22.684-2.559,22.684-2.559l-15.11-2.632c5.305-1.668,24-.274,24-.274-4.437-1.086-16.832-3.312-16.832-3.312,10.231-2.379,26.836,1.5,26.836,1.5-4.152-2.753-20.168-5.507-20.168-5.507,21.617-2.094,35.61,6.726,35.61,6.726-9.149,11.418-21.668,21.844-21.668,21.844,2.718-6.328,11.449-18.355,11.449-18.355-6.906,9.312-19.887,19.562-19.887,19.562l9.25-15.512c-4.773,7.469-20,20.336-20,20.336l8.4-16.515c-5.415,5.5-14.192,19.98-14.192,19.98.43-5.574,4.848-16.2,4.848-16.2-3,4.352-10.235,15.848-10.235,15.848a74.156,74.156,0,0,1,3.68-12.688c-2.973,1.922-5.391,6.938-5.391,6.938-6.25,3.5-15.433,8.285-15.433,8.285A67.236,67.236,0,0,1,101.4,321.852l-9.425,2.031c5.133-4.606,15.359-6.985,15.359-6.985" transform="translate(-86.465 -297.276)"/></svg>