<svg xmlns="http://www.w3.org/2000/svg" width="69.325" height="42.929" viewBox="0 0 69.325 42.929"><path d="M116.066,273.914l.293-.18c-2.707-4.375-8.418-11.535-8.421-11.539l-.27.211-.172.3a62.764,62.764,0,0,1,9.582,7.559c1.445,1.332,2.7,2.558,3.594,3.449.445.441.8.8,1.043,1.051s.375.39.379.39a.347.347,0,0,0,.418.059.341.341,0,0,0,.156-.391,6.963,6.963,0,0,0-.4-.961c-1.422-2.964-5.989-10.98-5.989-10.984l-.3.172-.149.308c3.375,1.629,7.32,5.727,10.387,9.407,1.531,1.836,2.851,3.574,3.785,4.847.469.641.84,1.161,1.094,1.528s.39.562.39.562a.344.344,0,0,0,.59-.351l-7.066-13.594-.305.16-.195.281a25.932,25.932,0,0,1,4.156,4.239c2.387,2.867,5.02,6.511,7.055,9.429,1.015,1.465,1.883,2.746,2.5,3.66s.973,1.465.973,1.465a.343.343,0,0,0,.6-.324c-1.84-4.207-7.578-15.391-7.578-15.391l-.309.157-.218.261c3.992,3.289,7.754,8.821,10.5,13.524,1.375,2.351,2.5,4.5,3.273,6.055.391.777.692,1.41.9,1.843s.316.676.316.676a.341.341,0,0,0,.652-.164,21.023,21.023,0,0,0-1.382-5.215,149.458,149.458,0,0,0-6.5-14.273l-.305.156-.25.234a65.025,65.025,0,0,1,13.59,22.024,52.529,52.529,0,0,1,2.1,7.347c.184.891.3,1.586.363,2.063.036.238.059.418.071.539s.019.18.019.18l.344-.028.008-.343a156.518,156.518,0,0,1-20.707-2.106c-2.9-.469-5.336-.933-7.055-1.277-.855-.172-1.531-.317-1.992-.414s-.711-.153-.711-.157l-.074.336.086.332a86.657,86.657,0,0,1,13.222-1.64c2.274-.149,4.336-.25,5.832-.309s2.418-.082,2.422-.082a.344.344,0,0,0-.011-.687c-.231,0-.457,0-.688,0a103.505,103.505,0,0,1-17.738-1.957c-2.637-.489-4.922-.981-6.539-1.348-.813-.184-1.457-.336-1.9-.445s-.679-.168-.679-.168l-.086.332.039.34L136.766,293a.346.346,0,0,0,.3-.375.342.342,0,0,0-.371-.309c-.691.059-1.453.086-2.273.086A110.191,110.191,0,0,1,117.9,290.59c-2.652-.453-5.007-.906-6.7-1.246-.843-.172-1.523-.313-2-.414s-.722-.153-.722-.153l-.071.336.059.336,18.242-3.347a.344.344,0,0,0-.019-.68,49.449,49.449,0,0,0-5.836-.281c-8.227,0-18.75,1.132-18.758,1.132l.039.34.187.289a47.2,47.2,0,0,1,9.606-4.089c1.679-.555,3.215-1.02,4.328-1.34.559-.16,1.012-.289,1.324-.375s.485-.129.485-.129a.352.352,0,0,0,.253-.387.346.346,0,0,0-.359-.289c-5.3.258-18.84,1.484-18.844,1.488l.031.34.164.3A61.962,61.962,0,0,1,107.438,279c1.2-.418,2.234-.75,2.972-.977.367-.113.656-.2.856-.257s.3-.09.308-.09a.344.344,0,0,0,.02-.653,12.414,12.414,0,0,0-4.043-.566,27.486,27.486,0,0,0-4.93.481l.07.335.137-.316c-3.289-1.414-7.273-3.223-10.441-4.676-1.582-.726-2.957-1.363-3.941-1.82s-1.562-.731-1.566-.731l-.145.313.023.34c1.438-.1,2.848-.145,4.215-.145a69.365,69.365,0,0,1,12.445,1.153c1.566.281,2.82.57,3.68.785.433.109.765.2.988.258s.336.1.336.1a.342.342,0,0,0,.4-.164.336.336,0,0,0-.078-.422l-7.34-6.254-.222.258-.059.34c3.309.621,7.008,2.594,9.859,4.414,1.43.91,2.645,1.777,3.5,2.418.43.324.77.59,1,.77s.356.289.356.289a.349.349,0,0,0,.445-.008.342.342,0,0,0,.066-.438l-.293.18.219-.266a54.447,54.447,0,0,0-4.93-3.523c-2.894-1.84-6.632-3.852-10.105-4.512a.339.339,0,0,0-.375.192.343.343,0,0,0,.086.406l7.34,6.254.222-.262.1-.328a67.037,67.037,0,0,0-17.652-2.32c-1.379,0-2.8.043-4.262.144a.344.344,0,0,0-.125.653s9.379,4.394,15.969,7.234a.3.3,0,0,0,.2.023s.137-.027.394-.07a26.971,26.971,0,0,1,4.4-.4,11.848,11.848,0,0,1,3.812.527l.117-.32-.093-.332a74.75,74.75,0,0,0-12.4,4.8.341.341,0,0,0-.168.4.349.349,0,0,0,.359.25s.847-.078,2.2-.2c4.059-.356,12.668-1.094,16.613-1.286l-.015-.343-.086-.332s-2.8.734-6.18,1.855a47.927,47.927,0,0,0-9.762,4.168.344.344,0,0,0,.223.629s.656-.07,1.77-.176c3.335-.32,10.789-.957,16.914-.957a48.356,48.356,0,0,1,5.75.281l.043-.339-.063-.34-18.242,3.351a.341.341,0,0,0-.012.668c.016,0,16.5,3.637,26.094,3.645.832,0,1.613-.031,2.332-.09l-.031-.344-.039-.34-17.957,2.067a.345.345,0,0,0-.305.316.34.34,0,0,0,.258.356c.011,0,15.418,3.937,27.027,3.941.234,0,.465,0,.695,0l0-.344-.007-.343s-3.723.093-8.286.39a87.669,87.669,0,0,0-13.347,1.664.344.344,0,0,0,.008.668c.011,0,15.914,3.625,30.6,3.965a.326.326,0,0,0,.258-.109.338.338,0,0,0,.09-.262c0-.043-1.477-16.582-16.328-32.558a.35.35,0,0,0-.453-.047.346.346,0,0,0-.1.441s.113.223.32.621c.719,1.41,2.528,5,4.184,8.774.832,1.886,1.625,3.82,2.227,5.546a18.329,18.329,0,0,1,1.074,4.27l.343-.02.313-.14c0-.008-1.754-3.9-4.52-8.637s-6.543-10.312-10.648-13.707a.353.353,0,0,0-.437,0,.342.342,0,0,0-.09.422s.359.7.925,1.812c1.7,3.34,5.274,10.426,6.637,13.54l.313-.137.293-.188s-2.563-3.925-5.7-8.258c-1.562-2.164-3.273-4.429-4.875-6.359a26.556,26.556,0,0,0-4.293-4.363.344.344,0,0,0-.5.437l7.067,13.594.305-.156.285-.192c0-.007-2.223-3.285-5.313-7s-7.047-7.843-10.613-9.582a.343.343,0,0,0-.4.071.348.348,0,0,0-.051.406s.375.652.941,1.66c.848,1.5,2.129,3.793,3.235,5.84.554,1.019,1.058,1.98,1.445,2.746.195.379.359.715.48.984a4.492,4.492,0,0,1,.231.563l.332-.094.25-.238c-.008,0-2.141-2.235-5.047-4.918a63.313,63.313,0,0,0-9.7-7.649.345.345,0,0,0-.442.512s.356.445.934,1.184c1.731,2.215,5.445,7.062,7.441,10.289l.293-.18.219-.266-.219.266" transform="translate(-86.392 -262.064)" fill="#231f20"/></svg>