<svg xmlns="http://www.w3.org/2000/svg" width="18.998" height="6.832" viewBox="0 0 18.998 6.832"><path d="M165.246,296.742l.164.3a.891.891,0,0,1,.1-.051c1-.531,9.41-4.816,17.648-4.812.133,0,.262,0,.395.008l.008-.344-.106-.328s-3.437,1.07-7.129,2.312c-1.847.621-3.754,1.289-5.336,1.891-.789.3-1.492.582-2.07.836a9.1,9.1,0,0,0-1.313.679,1.856,1.856,0,0,1-1.023.407.749.749,0,0,1-.449-.137,1.281,1.281,0,0,1-.426-.524,1.7,1.7,0,0,1-.1-.238l-.023-.066,0-.016v0l-.332.086.164.3-.164-.3-.332.086a2.57,2.57,0,0,0,.328.727,1.93,1.93,0,0,0,.508.519,1.476,1.476,0,0,0,.832.254,2.527,2.527,0,0,0,1.418-.535,8.335,8.335,0,0,1,1.2-.609c1.965-.868,5.586-2.125,8.711-3.161,1.563-.519,3-.98,4.047-1.316s1.7-.535,1.7-.535a.344.344,0,0,0-.093-.672c-.137,0-.274,0-.407,0-9.027.008-18.051,4.938-18.074,4.945a.335.335,0,0,0-.168.387l.332-.086" transform="translate(-164.901 -291.496)" fill="#231f20"/></svg>