<svg xmlns="http://www.w3.org/2000/svg" width="65.059" height="46.551" viewBox="0 0 65.059 46.551"><path d="M189.555,268.332c2.261-4.574,7.273-12.246,7.273-12.246-5.789,4.164-13.426,13.836-13.426,13.836.262-1.418,5.215-12.418,5.215-12.418-6.6,4.016-14.168,17.879-14.168,17.879l5.75-14.2c-4.222,3.613-12.922,20.2-12.922,20.2,1.43-4.336,6.086-16.016,6.086-16.016-7.429,7.41-12.906,23.539-12.906,23.539-.144-4.976,5.981-20.007,5.981-20.007-13.211,17.218-13.11,33.742-13.11,33.742,14.543-1.719,30.02-6.821,30.02-6.821-6.817-1.039-21.653,0-21.653,0,11.567-.926,27.137-6.512,27.137-6.512l-18.07-.36c8.871-.093,27.859-6.2,27.859-6.2l-18.476-1.617c7.539-1.68,24.48-1.461,24.48-1.461-4.965-2.582-16.336-4.461-16.336-4.461,5.281-.238,18.883-.3,18.883-.3a74,74,0,0,0-12.727-3.586c3.2-1.5,8.743-.906,8.743-.906,6.281-3.441,15.2-8.7,15.2-8.7a67.387,67.387,0,0,0-21.489,4.207L203.613,259c-6.629,1.914-14.058,9.328-14.058,9.328" transform="translate(-153.328 -256.086)"/></svg>