<svg xmlns="http://www.w3.org/2000/svg" width="65.75" height="47.24" viewBox="0 0 65.75 47.24"><path d="M189.555,268.332l.308.152c1.117-2.269,2.934-5.324,4.465-7.812.77-1.242,1.465-2.34,1.969-3.133s.816-1.266.816-1.266a.343.343,0,0,0-.05-.437.349.349,0,0,0-.438-.031,62.939,62.939,0,0,0-8.934,8.531c-2.64,2.945-4.558,5.367-4.558,5.371l.269.215.34.062a6.693,6.693,0,0,1,.281-.886c.555-1.512,1.782-4.379,2.872-6.864.543-1.242,1.054-2.39,1.425-3.23s.61-1.356.61-1.359a.343.343,0,0,0-.492-.434c-3.391,2.066-6.93,6.559-9.665,10.543s-4.625,7.457-4.625,7.461l.3.168.317.129,5.75-14.2a.342.342,0,0,0-.118-.407.346.346,0,0,0-.425.016,26.307,26.307,0,0,0-3.856,4.746c-4.246,6.219-9.14,15.547-9.144,15.551l.3.16.328.105c.708-2.152,2.227-6.156,3.571-9.617.672-1.73,1.3-3.324,1.758-4.484s.746-1.891.75-1.895a.348.348,0,0,0-.133-.414.338.338,0,0,0-.43.047c-3.769,3.762-7,9.672-9.312,14.645s-3.676,9.019-3.68,9.027l.328.109.34-.007,0-.168a22.749,22.749,0,0,1,.926-5.18c.836-3.133,2.1-6.766,3.144-9.613.528-1.426,1-2.653,1.34-3.524s.551-1.383.551-1.383a.343.343,0,0,0-.59-.339c-13.078,17.042-13.18,33.41-13.184,33.941l.008.07a.349.349,0,0,0,.379.281c14.586-1.726,30.074-6.835,30.086-6.835a.342.342,0,0,0-.055-.665,62.5,62.5,0,0,0-8.707-.468c-6.429,0-13.015.461-13.019.461a.349.349,0,0,0-.234.117.33.33,0,0,0-.086.25.335.335,0,0,0,.371.316c11.644-.937,27.211-6.527,27.226-6.531a.344.344,0,0,0-.109-.668l-18.074-.359,0,.343,0,.344c4.5-.051,11.468-1.609,17.339-3.148s10.618-3.067,10.618-3.071a.342.342,0,0,0-.075-.668l-18.476-1.613-.027.34.07.336a77.171,77.171,0,0,1,11.734-1.227c4.3-.2,8.442-.238,10.762-.238,1.2,0,1.906.012,1.91.012a.343.343,0,0,0,.164-.649,47.83,47.83,0,0,0-10.113-3.226c-3.473-.8-6.32-1.27-6.328-1.27l-.055.34.016.34c2.633-.117,7.351-.191,11.41-.234,2.031-.024,3.894-.036,5.254-.047l2.207-.012a.343.343,0,0,0,.129-.66,74.865,74.865,0,0,0-12.8-3.61l-.059.34.145.309a15.337,15.337,0,0,1,6.015-.988c.735,0,1.375.027,1.829.058.226.016.406.028.531.039l.187.02a.327.327,0,0,0,.2-.043c6.289-3.449,15.207-8.707,15.211-8.707a.345.345,0,0,0-.184-.641A67.677,67.677,0,0,0,196.77,265.6l.128.316.25.238,6.711-6.918a.342.342,0,0,0-.339-.566c-3.391.984-6.93,3.336-9.633,5.441a55.115,55.115,0,0,0-4.574,3.977l.242.242.308.152-.308-.152.242.242.328-.316a57.574,57.574,0,0,1,5.223-4.391,28.638,28.638,0,0,1,8.363-4.539l-.1-.324-.246-.242-6.711,6.918a.332.332,0,0,0-.039.429.338.338,0,0,0,.414.125s.141-.058.426-.164a67.919,67.919,0,0,1,20.938-4.015l-.008-.344-.176-.293-1.488.871c-2.8,1.641-9,5.246-13.7,7.824l.165.3.035-.34c-.008,0-1.11-.121-2.618-.121a15.96,15.96,0,0,0-6.308,1.055.344.344,0,0,0,.086.648s.441.078,1.191.235a70.441,70.441,0,0,1,11.469,3.332l.129-.317v-.343s-13.6.062-18.9.3a.337.337,0,0,0-.324.321.345.345,0,0,0,.281.359s.18.027.5.086c1.121.2,3.984.723,7.109,1.48a42.461,42.461,0,0,1,8.629,2.86l.16-.3,0-.344s-.715-.007-1.918-.007c-2.324,0-6.477.035-10.8.234a77.927,77.927,0,0,0-11.848,1.246.343.343,0,0,0,.043.676l18.481,1.613.031-.34-.1-.328-.832.262c-1.871.582-6.684,2.047-11.989,3.371s-11.117,2.512-14.937,2.551a.34.34,0,0,0-.34.34.346.346,0,0,0,.336.347l18.074.36,0-.344-.113-.321s-.239.086-.688.239c-3.125,1.078-16.308,5.449-26.363,6.254a.342.342,0,0,0,.051.683s.41-.027,1.125-.07c2.148-.129,7.051-.391,11.847-.391a62.531,62.531,0,0,1,8.606.461l.051-.34-.11-.324s-.238.078-.687.219a176.916,176.916,0,0,1-29.266,6.586l.043.34.34-.055-.273.047h.273v-.047l-.273.047h.273c0-.445.094-16.652,13.043-33.524l-.273-.21-.317-.129c0,.007-1.5,3.679-3,8-.75,2.16-1.5,4.484-2.066,6.6a23.189,23.189,0,0,0-.946,5.36c0,.066,0,.125,0,.187a.339.339,0,0,0,.289.328.349.349,0,0,0,.379-.226s.082-.25.246-.7a104.871,104.871,0,0,1,4.305-10.149c2.2-4.48,5.07-9.367,8.273-12.559l-.242-.242-.32-.129s-4.656,11.676-6.09,16.036a.343.343,0,0,0,.629.269s.133-.262.383-.719c.855-1.605,3.066-5.683,5.519-9.746,1.227-2.031,2.516-4.058,3.719-5.769a22.767,22.767,0,0,1,3.219-3.86l-.223-.261-.32-.129-5.746,14.2a.338.338,0,0,0,.168.437.345.345,0,0,0,.449-.148s.117-.211.336-.594a97.485,97.485,0,0,1,5.309-8.308c2.527-3.524,5.593-7.141,8.4-8.844l-.18-.293-.316-.141s-1.238,2.75-2.508,5.68c-.637,1.465-1.281,2.973-1.785,4.211-.25.617-.465,1.164-.629,1.609a7.279,7.279,0,0,0-.313.992.344.344,0,0,0,.606.278s.117-.149.336-.422c.769-.949,2.769-3.387,5.207-6.039a57.379,57.379,0,0,1,7.812-7.309l-.2-.277-.289-.188c0,.008-5.012,7.672-7.293,12.282a.344.344,0,0,0,.106.429.339.339,0,0,0,.445-.035l-.242-.242" transform="translate(-152.98 -255.742)" fill="#231f20"/></svg>