<svg xmlns="http://www.w3.org/2000/svg" width="68.641" height="42.246" viewBox="0 0 68.641 42.246"><path d="M116.066,273.914c-2.683-4.34-8.4-11.508-8.4-11.508,6.152,3.6,14.672,12.508,14.672,12.508-.395-1.383-6.363-11.867-6.363-11.867,6.945,3.371,15.793,16.461,15.793,16.461L124.7,265.914c4.543,3.2,14.77,18.887,14.77,18.887-1.825-4.18-7.571-15.371-7.571-15.371,8.1,6.679,15.078,22.218,15.078,22.218-.328-4.968-7.847-19.355-7.847-19.355,14.781,15.895,16.242,32.359,16.242,32.359-14.641-.343-30.531-3.961-30.531-3.961,6.687-1.679,21.554-2.043,21.554-2.043-11.6.165-27.632-3.925-27.632-3.925l17.957-2.067c-8.84.746-28.317-3.543-28.317-3.543l18.239-3.347c-7.661-.965-24.512.847-24.512.847,4.7-3.039,15.84-5.976,15.84-5.976-5.278.258-18.828,1.484-18.828,1.484a74.088,74.088,0,0,1,12.336-4.773c-3.332-1.192-8.789-.075-8.789-.075-6.582-2.835-15.957-7.23-15.957-7.23a67.345,67.345,0,0,1,21.789,2.16l-7.339-6.254c6.785,1.285,14.882,7.965,14.882,7.965" transform="translate(-86.734 -262.406)"/></svg>