<svg xmlns="http://www.w3.org/2000/svg" width="19.877" height="4.809" viewBox="0 0 19.877 4.809"><path d="M173.941,297.977l.086.332.582-.157c1.309-.343,4.653-1.207,8.246-1.984a55.779,55.779,0,0,1,9.711-1.465c.2,0,.375.008.543.02l.02-.344-.1-.328s-.207.066-.574.176c-1.3.394-4.6,1.375-8.07,2.257a46.86,46.86,0,0,1-8.992,1.661,3.042,3.042,0,0,1-.918-.106.424.424,0,0,1-.172-.086l-.024-.031-.336.055.086.332-.086-.332-.339.054a.727.727,0,0,0,.238.434,1.385,1.385,0,0,0,.66.293,4.645,4.645,0,0,0,.891.074,26.407,26.407,0,0,0,4.73-.652c5.645-1.16,13.106-3.473,13.113-3.473a.348.348,0,0,0,.239-.371.34.34,0,0,0-.321-.3c-.183-.016-.382-.016-.586-.016a63.47,63.47,0,0,0-11.382,1.813c-4,.906-7.332,1.809-7.336,1.812a.338.338,0,0,0-.246.383l.339-.054" transform="translate(-173.598 -294.023)" fill="#231f20"/></svg>