<svg xmlns="http://www.w3.org/2000/svg" width="7.566" height="18.748" viewBox="0 0 7.566 18.748"><path d="M150.223,293.238l.293-.175s-.02-.032-.059-.1c-.59-1-5.371-9.453-5.586-17.8l-.344.012-.32.113s1.219,3.387,2.621,7.016c.7,1.816,1.449,3.7,2.121,5.242.332.773.649,1.465.926,2.031a8.724,8.724,0,0,0,.734,1.277,1.77,1.77,0,0,1,.454,1.047.759.759,0,0,1-.129.434,1.419,1.419,0,0,1-.5.437,1.7,1.7,0,0,1-.223.1l-.07.027-.012,0,0,0,.1.324.293-.175-.293.175.1.332a2.588,2.588,0,0,0,.692-.351,1.905,1.905,0,0,0,.5-.5,1.47,1.47,0,0,0,.242-.809,2.46,2.46,0,0,0-.594-1.461,8.4,8.4,0,0,1-.664-1.168c-.953-1.918-2.367-5.484-3.539-8.554-.586-1.535-1.109-2.953-1.488-3.985s-.613-1.675-.613-1.675a.344.344,0,0,0-.383-.223.349.349,0,0,0-.285.348c.25,9.152,5.734,18.2,5.742,18.23a.352.352,0,0,0,.394.152l-.1-.332" transform="translate(-144.184 -274.835)" fill="#231f20"/></svg>