<svg xmlns="http://www.w3.org/2000/svg" width="47.938" height="65.053" viewBox="0 0 47.938 65.053"><path d="M120.609,340.109l-.148-.312c-4.648,2.211-12.4,7.1-12.406,7.105l.183.293.278.2a61.974,61.974,0,0,1,8.566-8.691c1.488-1.289,2.84-2.4,3.824-3.191.492-.395.887-.707,1.16-.922l.43-.332a.343.343,0,0,0-.266-.61,7.391,7.391,0,0,0-1,.3c-3.1,1.086-11.579,4.742-11.582,4.742l.136.317.289.183c2-3.175,6.5-6.648,10.5-9.285,2-1.32,3.872-2.445,5.243-3.234.687-.391,1.246-.707,1.632-.918s.606-.324.606-.324a.344.344,0,0,0-.285-.625l-14.3,5.531.121.32.258.227a25.941,25.941,0,0,1,4.676-3.664c3.113-2.055,7.023-4.274,10.152-5.973,1.566-.852,2.937-1.574,3.918-2.082s1.562-.8,1.562-.8a.342.342,0,0,0-.254-.633c-4.386,1.368-16.144,5.844-16.148,5.844l.121.321.238.25c3.711-3.606,9.625-6.735,14.606-8.95,2.492-1.105,4.746-1.984,6.383-2.586.816-.3,1.476-.535,1.933-.691s.7-.238.7-.238a.342.342,0,0,0-.086-.668c-.1,0-.195,0-.3,0a24.39,24.39,0,0,0-5.4.894,151.894,151.894,0,0,0-14.566,4.813l.125.316.2.278c16.473-12.223,32.144-12.532,33.648-12.532.078,0,.117,0,.117,0l.008-.343-.34-.043a155.38,155.38,0,0,1-4.351,20.328c-.789,2.824-1.512,5.2-2.039,6.859-.266.836-.481,1.488-.633,1.938s-.23.683-.23.683l.324.113.34-.046a53.342,53.342,0,0,1-.348-6.84c0-3.438.168-7.117.332-9.934.086-1.41.168-2.6.234-3.445s.1-1.328.1-1.328a.343.343,0,0,0-.684-.063,99.343,99.343,0,0,1-3.863,17.766c-.793,2.648-1.555,4.937-2.117,6.566-.281.813-.512,1.461-.672,1.9s-.25.683-.25.683l.32.125.344,0-.094-18.054a.346.346,0,0,0-.343-.34.336.336,0,0,0-.344.332c-.11,4.363-1.758,11.293-3.383,17.1-.813,2.91-1.617,5.543-2.219,7.446-.3.953-.551,1.722-.726,2.254s-.274.828-.274.828l.324.109.344-.023L133.9,330.875a.338.338,0,0,0-.312-.316.342.342,0,0,0-.363.261,94.053,94.053,0,0,0-1.6,15.094c-.23,5.176-.238,9.41-.238,9.41l.343,0,.305-.156a47.449,47.449,0,0,1-3.023-9.981c-.367-1.726-.66-3.3-.86-4.445-.1-.574-.175-1.035-.226-1.355s-.078-.493-.078-.5a.347.347,0,0,0-.36-.29.339.339,0,0,0-.324.321c-.32,5.289-.578,18.863-.578,18.867l.344.008.32-.125a61.865,61.865,0,0,1-2.52-8.446c-.285-1.238-.5-2.3-.648-3.058s-.215-1.192-.215-1.192a.353.353,0,0,0-.293-.285.359.359,0,0,0-.359.192,16.549,16.549,0,0,0-1.149,6.718c0,1.278.082,2.172.082,2.184l.344-.035-.3-.168c-1.769,3.105-4,6.867-5.8,9.852-.894,1.492-1.679,2.789-2.238,3.714s-.9,1.473-.9,1.473l.289.18.344.015a67.45,67.45,0,0,1,2.437-15.105c.531-1.918,1.051-3.461,1.434-4.527.191-.532.351-.946.464-1.223s.168-.418.168-.422a.342.342,0,0,0-.55-.383l-7.028,6.6.239.246.328.105c.984-3.218,3.347-6.679,5.472-9.308,1.059-1.321,2.055-2.43,2.793-3.215.364-.395.664-.7.871-.914s.325-.321.325-.321a.345.345,0,0,0,.043-.441.35.35,0,0,0-.43-.117l.148.312-.242-.246a56.165,56.165,0,0,0-4.047,4.512c-2.144,2.668-4.554,6.164-5.59,9.535a.337.337,0,0,0,.145.391.348.348,0,0,0,.418-.039l7.023-6.6-.234-.25-.316-.133a67.372,67.372,0,0,0-4.555,21.516.342.342,0,0,0,.633.191s5.4-8.832,8.945-15.058a.338.338,0,0,0,.043-.2l-.012-.153c-.023-.3-.066-1.027-.066-1.965a15.953,15.953,0,0,1,1.082-6.417l-.309-.153-.339.059a74.275,74.275,0,0,0,3.421,12.832.344.344,0,0,0,.664-.121s.016-.848.043-2.2c.09-4.066.293-12.7.532-16.636l-.34-.024-.344.051c0,.008.434,2.856,1.176,6.34a47.754,47.754,0,0,0,3.082,10.144.342.342,0,0,0,.648-.152s0-1.055.035-2.758c.047-2.55.161-6.554.43-10.625a73.23,73.23,0,0,1,1.356-10.965l-.332-.082-.344.028,1.34,18.472a.344.344,0,0,0,.3.317.339.339,0,0,0,.368-.231s1.6-4.726,3.23-10.558,3.293-12.774,3.41-17.274l-.343-.007-.344,0,.094,18.055a.342.342,0,0,0,.285.332.336.336,0,0,0,.379-.211c.007-.019,5.832-15.484,6.945-27.1l-.688-.063c0,.008-.668,7.848-.668,14.766a54.438,54.438,0,0,0,.356,6.933.338.338,0,0,0,.305.293.342.342,0,0,0,.359-.226c0-.012,5.344-15.407,7.285-29.946a.337.337,0,0,0-.328-.386s-.051,0-.137,0c-1.59,0-17.418.316-34.054,12.664a.34.34,0,0,0-.1.441.347.347,0,0,0,.426.153s.226-.086.636-.243c1.43-.543,5.079-1.9,8.934-3.121,1.93-.609,3.91-1.187,5.688-1.609a21.408,21.408,0,0,1,4.453-.688c.093,0,.183,0,.265.008l.02-.344-.106-.328c-.007,0-4.074,1.313-9.089,3.543s-10.981,5.371-14.805,9.078a.345.345,0,0,0-.051.434.353.353,0,0,0,.414.137s.731-.281,1.9-.723c3.512-1.324,10.95-4.1,14.2-5.109l-.1-.328-.156-.3s-4.188,2.113-8.84,4.746c-2.328,1.32-4.77,2.77-6.863,4.152a26.541,26.541,0,0,0-4.813,3.782.346.346,0,0,0-.023.421.349.349,0,0,0,.406.125l14.3-5.531-.125-.32-.16-.3c-.008,0-3.512,1.848-7.539,4.516s-8.579,6.137-10.7,9.488a.344.344,0,0,0,.426.5s.691-.3,1.75-.75c1.594-.68,4.016-1.7,6.168-2.578,1.078-.434,2.086-.836,2.891-1.137.4-.148.75-.277,1.031-.367a4.753,4.753,0,0,1,.586-.168l-.055-.336-.211-.273s-2.457,1.875-5.445,4.469a63.2,63.2,0,0,0-8.672,8.8.344.344,0,0,0,.461.5s.48-.308,1.281-.8c2.395-1.477,7.621-4.637,11.051-6.262l-.145-.313-.242-.246.242.246" transform="translate(-107.894 -304.094)" fill="#231f20"/></svg>