<svg xmlns="http://www.w3.org/2000/svg" width="69.87" height="41.251" viewBox="0 0 69.87 41.251"><path d="M107.332,316.9l.035-.339c-2.9-.289-7.082-.348-10.176-.348-2.383,0-4.117.035-4.121.035l.008.344.133.316a62.354,62.354,0,0,1,11.828-3.023c1.941-.344,3.672-.6,4.926-.762.625-.086,1.125-.152,1.473-.2s.535-.059.535-.059a.35.35,0,0,0,.3-.3.341.341,0,0,0-.214-.359,7.491,7.491,0,0,0-1.012-.262c-3.219-.668-12.371-1.9-12.379-1.906l-.043.34.152.3a27.6,27.6,0,0,1,8.668-2.153,83.233,83.233,0,0,1,9.254-.476c1.363,0,2.512.027,3.32.054s1.27.055,1.27.055a.343.343,0,0,0,.078-.68l-15.109-2.636-.059.34.1.324a19.576,19.576,0,0,1,4.1-.625c1.707-.125,3.68-.176,5.7-.176,3.379,0,6.895.137,9.567.273,1.336.067,2.465.137,3.254.188s1.242.086,1.242.086a.346.346,0,0,0,.367-.289.341.341,0,0,0-.258-.387c-4.461-1.09-16.847-3.316-16.851-3.316l-.063.336.082.336a35.426,35.426,0,0,1,7.871-.766,84.542,84.542,0,0,1,12.817,1.133c1.785.285,3.281.57,4.336.781.523.105.937.2,1.218.258s.434.1.434.1a.351.351,0,0,0,.4-.2.347.347,0,0,0-.129-.422,21.248,21.248,0,0,0-4.989-2.062,149.373,149.373,0,0,0-15.3-3.5l-.063.336.035.343c2.285-.222,4.481-.32,6.59-.32a63.679,63.679,0,0,1,21.055,3.5,50.321,50.321,0,0,1,5.754,2.406c.656.328,1.156.6,1.492.789.168.094.3.168.379.219s.125.074.125.074l.18-.289-.266-.215a155.768,155.768,0,0,1-14.234,15.172c-2.133,2.012-3.981,3.668-5.293,4.821-.661.578-1.184,1.031-1.543,1.336s-.551.468-.551.468l.219.262.316.133a86.639,86.639,0,0,1,6.715-11.5c1.258-1.895,2.43-3.594,3.289-4.821.43-.609.781-1.105,1.027-1.445l.375-.527a.339.339,0,0,0-.074-.477.343.343,0,0,0-.477.07,99.713,99.713,0,0,1-12.488,13.227c-2.047,1.859-3.883,3.43-5.207,4.531-.656.555-1.191.989-1.558,1.289s-.567.453-.571.453l.215.27.3.176,9.242-15.512a.342.342,0,1,0-.582-.359c-2.348,3.675-7.34,8.765-11.734,12.906-2.2,2.07-4.246,3.91-5.746,5.23-.75.661-1.364,1.192-1.789,1.559s-.661.566-.661.566l.223.258.305.16,8.4-16.519a.343.343,0,0,0-.551-.395c-2.742,2.785-6.289,7.785-9.168,12.1s-5.07,7.937-5.07,7.941l.293.176.344.027a47.229,47.229,0,0,1,2.566-10.105c.574-1.672,1.141-3.176,1.563-4.254.207-.539.383-.977.5-1.277l.187-.465a.342.342,0,0,0-.6-.324c-3.008,4.367-10.243,15.863-10.247,15.863l.293.18.34.062a61.8,61.8,0,0,1,2.2-8.539c.395-1.207.762-2.227,1.028-2.949.129-.36.238-.645.312-.84s.117-.293.117-.293a.34.34,0,0,0-.105-.391.335.335,0,0,0-.4-.023,14.956,14.956,0,0,0-3.911,4.289,28.436,28.436,0,0,0-1.605,2.785l.312.149-.168-.3c-3.121,1.75-6.98,3.82-10.054,5.453-1.539.816-2.879,1.523-3.84,2.023s-1.531.8-1.531.8l.16.309.285.187a67.617,67.617,0,0,1,9.891-11.683c1.449-1.368,2.691-2.422,3.566-3.137.441-.356.789-.629,1.027-.809.121-.093.211-.16.274-.2l.09-.07a.343.343,0,0,0-.274-.613L91.9,323.547l.074.336.23.258c2.5-2.25,6.316-3.993,9.492-5.157,1.59-.582,3.024-1.019,4.055-1.312.516-.149.934-.258,1.219-.328s.441-.11.441-.11a.346.346,0,0,0,.266-.359.336.336,0,0,0-.309-.316l-.035.339-.074-.332a53.7,53.7,0,0,0-5.8,1.778c-3.219,1.179-7.086,2.929-9.719,5.285a.345.345,0,0,0-.074.414.334.334,0,0,0,.375.176l9.426-2.031-.071-.336-.2-.278a67.523,67.523,0,0,0-15.023,16.082.341.341,0,0,0,.445.489s9.188-4.778,15.445-8.286a.37.37,0,0,0,.141-.152s.035-.074.106-.211a27.816,27.816,0,0,1,1.832-3.058,13.279,13.279,0,0,1,3.332-3.528l-.188-.289-.32-.125a74.437,74.437,0,0,0-3.7,12.758.342.342,0,0,0,.628.238s.454-.719,1.18-1.863c2.176-3.438,6.809-10.723,9.047-13.977l-.281-.191-.317-.133s-1.109,2.664-2.269,6.031a47.968,47.968,0,0,0-2.6,10.282.344.344,0,0,0,.637.2s.137-.227.387-.633c.875-1.418,3.136-5.051,5.773-8.922a83.41,83.41,0,0,1,7.977-10.363l-.242-.242-.309-.157-8.4,16.52a.342.342,0,0,0,.528.414s3.816-3.219,8.226-7.379,9.418-9.242,11.84-13.035l-.285-.184-.3-.175L125.246,327.2a.342.342,0,0,0,.5.446c.012-.012,13-10.258,19.949-19.629l-.273-.2-.281-.2s-2.184,3.012-4.711,6.817a86.8,86.8,0,0,0-6.77,11.605.346.346,0,0,0,.109.414.341.341,0,0,0,.422-.015c.012-.008,12.539-10.434,21.719-21.891a.342.342,0,0,0-.086-.5c-.031-.023-11.269-7.1-29.168-7.1-2.129,0-4.351.1-6.656.324a.338.338,0,0,0-.309.328.345.345,0,0,0,.282.352s.25.042.695.121c1.558.281,5.512,1.027,9.523,2,2,.484,4.028,1.031,5.766,1.6a18.229,18.229,0,0,1,4.051,1.739l.191-.286.078-.335a96.685,96.685,0,0,0-18.961-2.282,36.416,36.416,0,0,0-8.031.778.352.352,0,0,0-.266.343.348.348,0,0,0,.286.329s.773.14,2,.367c3.687.675,11.5,2.133,14.8,2.941l.082-.332.028-.344s-7.325-.547-14.118-.547c-2.035,0-4.023.051-5.754.18a19.647,19.647,0,0,0-4.253.66.34.34,0,0,0-.243.348.352.352,0,0,0,.286.316l15.109,2.629.059-.336.019-.343s-1.883-.106-4.629-.106a83.081,83.081,0,0,0-9.336.481,27.984,27.984,0,0,0-8.894,2.222.343.343,0,0,0,.105.645s.75.1,1.895.261c1.711.239,4.312.61,6.609.973,1.148.18,2.223.36,3.066.512.422.078.786.152,1.075.219a4.14,4.14,0,0,1,.586.16l.125-.321-.036-.339c-.007,0-3.074.339-6.976,1.023a63.22,63.22,0,0,0-11.973,3.066.341.341,0,0,0-.2.387.346.346,0,0,0,.344.274l1.156-.02c.73-.008,1.758-.019,2.945-.019,3.082,0,7.262.066,10.11.347l.031-.344-.074-.332.074.332" transform="translate(-86.119 -296.934)" fill="#231f20"/></svg>