<svg xmlns="http://www.w3.org/2000/svg" width="42.575" height="68.347" viewBox="0 0 42.575 68.347"><path d="M184.117,340.43c4.363,2.652,11.571,8.32,11.571,8.32-3.637-6.125-12.606-14.582-12.606-14.582,1.387.383,11.922,6.285,11.922,6.285-3.422-6.918-16.578-15.68-16.578-15.68l13.652,6.981c-3.23-4.52-19-14.645-19-14.645,4.2,1.8,15.434,7.477,15.434,7.477-6.731-8.051-22.332-14.93-22.332-14.93,4.976.3,19.421,7.723,19.421,7.723-16-14.664-32.492-16.031-32.492-16.031.426,14.617,4.145,30.468,4.145,30.468,1.64-6.691,1.922-21.543,1.922-21.543-.1,11.594,4.09,27.579,4.09,27.579l1.96-17.946c-.691,8.832,3.715,28.262,3.715,28.262l3.246-18.234c1.008,7.644-.711,24.48-.711,24.48,3.016-4.707,5.9-15.855,5.9-15.855-.234,5.273-1.379,18.812-1.379,18.812a74.547,74.547,0,0,0,4.707-12.344c1.211,3.321.121,8.778.121,8.778,2.879,6.558,7.336,15.89,7.336,15.89a67.108,67.108,0,0,0-2.289-21.742l6.3,7.289c-1.324-6.765-8.059-14.812-8.059-14.812" transform="translate(-153.113 -301.348)"/></svg>