<svg xmlns="http://www.w3.org/2000/svg" width="25.934" height="176.244" viewBox="0 0 25.934 176.244"><path d="M153.527,303.176l-.328-.106c0,.02-24.156,75.317-25.265,173.618a.345.345,0,0,0,.129.273,12,12,0,0,0,7,2.117c2.929,0,6.609-.973,10.707-4.172a.344.344,0,0,0,.128-.289s-.05-1.039-.136-3c-.242-5.879-.739-20.012-.739-39.047,0-33.894,1.563-83.324,8.84-129.347a.335.335,0,0,0-.258-.383.342.342,0,0,0-.406.226l.328.106-.339-.051c-7.29,46.074-8.848,95.535-8.848,129.449,0,25.4.875,42.074.875,42.078l.344-.015-.211-.27c-4,3.113-7.512,4.02-10.285,4.024a12.135,12.135,0,0,1-4.833-.993,10.505,10.505,0,0,1-1.3-.679c-.149-.09-.262-.168-.336-.219l-.082-.059-.02-.019-.215.269.344,0a681.572,681.572,0,0,1,13.035-123.539c3.086-15.539,6.133-28.011,8.414-36.6,1.137-4.289,2.086-7.614,2.746-9.86.329-1.125.59-1.98.766-2.551s.273-.867.273-.871l-.328-.1-.339-.051.339.051" transform="translate(-127.934 -302.834)" fill="#231f20"/></svg>