<svg xmlns="http://www.w3.org/2000/svg" width="15.014" height="14.163" viewBox="0 0 15.014 14.163">
  <path id="Icon_ionic-md-arrow-round-back" data-name="Icon ionic-md-arrow-round-back" d="M6.926,12.046h9.13L12.516,8.658a1.411,1.411,0,0,1,0-1.928,1.262,1.262,0,0,1,1.843,0l5.9,5.717a1.3,1.3,0,0,1,.384.956v.017a1.3,1.3,0,0,1-.384.956l-5.892,5.717a1.262,1.262,0,0,1-1.843,0,1.411,1.411,0,0,1,0-1.928l3.541-3.388H6.931a1.336,1.336,0,0,1-1.306-1.365A1.322,1.322,0,0,1,6.926,12.046Z" transform="translate(-5.625 -6.33)" fill="#fbb906"/>
</svg>
