<svg xmlns="http://www.w3.org/2000/svg" width="44" height="44" viewBox="0 0 44 44">
  <defs>
    <style>
      .cls-1, .cls-4 {
        fill: none;
      }

      .cls-1 {
        stroke: #fbb906;
        stroke-width: 2px;
      }

      .cls-2 {
        fill: #fbb906;
      }

      .cls-3 {
        stroke: none;
      }
    </style>
  </defs>
  <g id="Group_45867" data-name="Group 45867" transform="translate(-9520 2678)">
    <g id="Ellipse_2" data-name="Ellipse 2" class="cls-1" transform="translate(9520 -2678)">
      <circle class="cls-3" cx="22" cy="22" r="22"/>
      <circle class="cls-4" cx="22" cy="22" r="21"/>
    </g>
    <g id="constructor-with-hard-hat-protection-on-his-head" transform="translate(9470.603 -2668)">
      <path id="Path_4725" data-name="Path 4725" class="cls-2" d="M78.676,331.764a2.449,2.449,0,0,0-1.921-.842H75.092L74,329.869a4.435,4.435,0,0,1-2.829,1.04,4.374,4.374,0,0,1-2.684-.934l-.974.934H65.781a2.632,2.632,0,0,0-2.105.921c-1.566,1.816-1.3,5.7-1.184,6.9H80.019C80.111,337.514,80.269,333.54,78.676,331.764Z" transform="translate(0 -315.684)"/>
      <path id="Path_4726" data-name="Path 4726" class="cls-2" d="M148.629,182.376a1.516,1.516,0,0,0-.526,1.171,1.4,1.4,0,0,0,1.079,1.421,4.843,4.843,0,0,0,1.25,2.763,4.317,4.317,0,0,0,.447.408,3.985,3.985,0,0,0,.632.408,3.521,3.521,0,0,0,3.29,0,3.982,3.982,0,0,0,.632-.408,4.313,4.313,0,0,0,.447-.408,4.791,4.791,0,0,0,1.237-2.75h.039a1.349,1.349,0,0,0,1.25-1.434,1.516,1.516,0,0,0-.526-1.171Z" transform="translate(-82.02 -174.533)"/>
      <path id="Path_4727" data-name="Path 4727" class="cls-2" d="M149.287,41.1a6.017,6.017,0,0,0-2.855-3.448v3.566a1.1,1.1,0,0,1-.105.408,1.034,1.034,0,0,1-.908.566H143.76a1.032,1.032,0,0,1-1.013-.882.54.54,0,0,1-.013-.145V37.638a6.083,6.083,0,0,0-2.855,3.461l-.092.289h-.75v1.645h11.083V41.388h-.741Z" transform="translate(-73.343 -36.019)"/>
      <path id="Path_4728" data-name="Path 4728" class="cls-2" d="M235.013,5.764h1.645a.606.606,0,0,0,.54-.329.564.564,0,0,0,.079-.289V.816a1.027,1.027,0,0,0-.053-.289A.832.832,0,0,0,236.461,0h-1.448a.6.6,0,0,0-.605.54c0,.026-.013.053-.013.079V5.145a.662.662,0,0,0,.105.355A.642.642,0,0,0,235.013,5.764Z" transform="translate(-164.601)"/>
    </g>
  </g>
</svg>
