<svg xmlns="http://www.w3.org/2000/svg" width="16.608" height="16.608" viewBox="0 0 16.608 16.608">
  <defs>
    <style>
      .cls-1 {
        fill: #fff;
      }
    </style>
  </defs>
  <path id="Icon_ionic-ios-arrow-dropleft-circle" data-name="Icon ionic-ios-arrow-dropleft-circle" class="cls-1" d="M11.679,3.375a8.3,8.3,0,1,1-8.3,8.3A8.3,8.3,0,0,1,11.679,3.375ZM9.946,14.917a.774.774,0,0,0,0,1.09.761.761,0,0,0,.543.224A.774.774,0,0,0,11.036,16l3.753-3.765a.77.77,0,0,0-.024-1.062L10.957,7.355a.771.771,0,0,0-1.09,1.09l3.27,3.234Z" transform="translate(-3.375 -3.375)"/>
</svg>
